<?xml version="1.0" encoding="utf-8"?>
<!-- Generator: Adobe Illustrator 24.2.3, SVG Export Plug-In . SVG Version: 6.00 Build 0)  -->
<svg version="1.1" id="Capa_1" xmlns="http://www.w3.org/2000/svg" xmlns:xlink="http://www.w3.org/1999/xlink" x="0px" y="0px"
	 viewBox="0 0 512 512" style="enable-background:new 0 0 512 512;" xml:space="preserve">
<style type="text/css">
	.st0{fill:#42A5F6;}
</style>
<g>
	<g>
		<path class="st0" d="M501.3,490.7h-10.7V181.3c0-5.9-4.8-10.7-10.7-10.7h-64c-5.9,0-10.7,4.8-10.7,10.7v309.3h-42.7V309.3
			c0-5.9-4.8-10.7-10.7-10.7h-64c-5.9,0-10.7,4.8-10.7,10.7v181.3h-42.7v-224c0-5.9-4.8-10.7-10.7-10.7h-64
			c-5.9,0-10.7,4.8-10.7,10.7v224h-42.7V373.3c0-5.9-4.8-10.7-10.7-10.7H32c-5.9,0-10.7,4.8-10.7,10.7v117.3H10.7
			c-5.9,0-10.7,4.8-10.7,10.7S4.8,512,10.7,512H32h64h64h64h64h64h64h64h21.3c5.9,0,10.7-4.8,10.7-10.7S507.2,490.7,501.3,490.7z"/>
	</g>
</g>
<g>
	<g>
		<path class="st0" d="M448,0c-23.5,0-42.7,19.1-42.7,42.7c0,7.9,2.3,15.2,6,21.5L341.5,134c-6.4-3.7-13.7-6-21.5-6
			c-13.4,0-25.2,6.3-33,16l-52.4-15c0-0.3,0.1-0.7,0.1-1c0-23.5-19.1-42.7-42.7-42.7s-42.7,19.1-42.7,42.7c0,6.2,1.4,12.1,3.8,17.4
			l-66.7,53.2c-6.5-4.1-14.2-6.5-22.4-6.5c-23.5,0-42.7,19.1-42.7,42.7s19.1,42.7,42.7,42.7s42.7-19.1,42.7-42.7
			c0-7.5-2.1-14.4-5.5-20.6l65.3-52.1c7.1,5.4,15.9,8.7,25.5,8.7c15.6,0,29.2-8.6,36.6-21.1l49.4,14.1c-0.4,2.3-0.7,4.6-0.7,7
			c0,23.5,19.1,42.7,42.7,42.7s42.7-19.1,42.7-42.7c0-7.9-2.3-15.2-6-21.5l69.8-69.8c6.3,3.8,13.6,6.1,21.5,6.1
			c23.5,0,42.7-19.1,42.7-42.7C490.7,19.1,471.5,0,448,0z"/>
	</g>
</g>
</svg>
