<?xml version="1.0" encoding="utf-8"?>
<!-- Generator: Adobe Illustrator 24.2.3, SVG Export Plug-In . SVG Version: 6.00 Build 0)  -->
<svg version="1.1" id="_x2018_ëîé_x5F_1" xmlns="http://www.w3.org/2000/svg" xmlns:xlink="http://www.w3.org/1999/xlink"
	 x="0px" y="0px" viewBox="0 0 5000 1000" style="enable-background:new 0 0 5000 1000;" xml:space="preserve">
<style type="text/css">
	.st0{fill:#FFFFFF;}
	.st1{fill:url(#SVGID_1_);}
</style>
<rect class="st0" width="5000" height="1000"/>
<linearGradient id="SVGID_1_" gradientUnits="userSpaceOnUse" x1="2500" y1="1000" x2="2500" y2="266.2827">
	<stop  offset="0" style="stop-color:#000000"/>
	<stop  offset="1" style="stop-color:#3D3D3D"/>
</linearGradient>
<path class="st1" d="M5000,900V698h-115v20l-0.2,0h-22.7l-9.8,2.2l-0.7,15.1c0,0-32.3,20.9-107.2,20.9c-7.3,0-14.2-0.2-20.8-0.6
	v-123h-100.6V718h-16.9V498.2l-6.4-29.5l-51.4-20.7l-11.8,7.3c0-2.7-7.5-2.4-7.5-2.4h-2l-0.2-26.9c2.6-2.4,8.8,1.2,10.8,3.2
	c2.2,2.2,3.2,3,5.8,1c3.7-2.9,1.9-5.3,1.9-5.3s-3.3-3.2-5.8-4.3c-2.9-1.3-5.1-2.6-7.2-4.8c-1.7-1.7-4.4-2.9-5.6-3.3l0-2.3
	c0-0.3-0.2-0.5-0.5-0.5c-0.3,0-0.5,0.2-0.5,0.5l-0.4,42.8h-52.2c-17.1,0-15.3,4-15.3,4v26.3c-10.2,0-14.5,4.8-14.5,4.8v285H4390V625
	h-143v199.2h-22.6v-2.5h-5.9v-44l-2.2-3.7h-4.8v-26.4l-2.5-3.7h-32.8v-49.1l-33.2-20.7l-8.2-2.2v-13.2l6.5-19.7v-6.7l-22-6.7
	c0-0.1,0-0.1,0-0.2v-3.8l19.4,6.5v2.5c0,0.4,0.3,0.8,0.7,0.8s0.7-0.4,0.7-0.8v-30c0-0.4-0.3-0.8-0.7-0.8s-0.7,0.3-0.7,0.8V616
	l-19.4-6.5v-0.7c0-0.4-0.3-0.8-0.7-0.8c-0.4,0-0.7,0.3-0.7,0.8v0.5h-14.3v-1.9h-1.5v1.9h-14.3v-0.5c0-0.4-0.3-0.8-0.7-0.8
	c-0.4,0-0.7,0.3-0.7,0.8v0.7l-19.4,6.5v-15.2c0-0.4-0.3-0.8-0.7-0.8c-0.4,0-0.7,0.3-0.7,0.8v30c0,0.4,0.3,0.8,0.7,0.8
	c0.4,0,0.7-0.4,0.7-0.8v-2.5l19.4-6.5v3.8c0,0.1,0,0.1,0,0.2l-22,6.7v6.7l6.5,19.7v13.2l-8.2,2.2l-33.2,20.7v49.1H3997l-2.5,3.7V774
	h-4.8l-2.2,3.7v44h-5.9v2.5h-22.7v-2.5h-11.6v2.5h-23v-2.5h-11.6v2.5h-15.5V469.6h-164.8V746h-27.1V404.1l-23.9-22.5l-43.1,53h-5.1
	l-13.8,9h-7.6l-13.9,8.5h-14.4l-22.4,13.6V625h-56.8v-96.1v-79.8v-37.6h-22.3v-23.7h-3v-14.2l-29-7.7v-3.5l-1.8-1.4l-1.8,1.4v3.5
	l-29,7.7v14.2h-3v23.7h-22.3v37.6v79.8v45.2h-33.1V451.8h-31.8v-7.2h-5l-0.3-61h3.6c0.2,0,0.4-0.2,0.4-0.4c0-0.2-0.2-0.4-0.4-0.4
	h-0.2l-0.1-10.2c0,0,0-0.1-0.1-0.1c0,0-0.1,0-0.1,0.1l-0.1,10.2h-3.1l-0.1-12.4c0-0.3-0.2-0.6-0.5-0.7l0-47.9c0-0.2-0.1-0.3-0.3-0.3
	c-0.2,0-0.3,0.1-0.3,0.3l0,47.9c-0.3,0.1-0.5,0.4-0.5,0.7l-0.1,12.4h-3.1l-0.1-10.2c0,0,0-0.1-0.1-0.1c0,0-0.1,0-0.1,0.1l-0.1,10.2
	h-0.2c-0.2,0-0.4,0.2-0.4,0.4c0,0.2,0.2,0.4,0.4,0.4h3.6l-0.3,61H3286h-40.9v7.2h-26.4v230.1h-6.7V266.3h-48.8v3.7H3064v-3.7h-48.8
	V540h-62.4V422.6h-7.9V900h-3V422.6h-5.1V900h-3V422.6h-5.1V900h-3V422.6h-5.1V900h-3V422.6h-5.1V900h-3V422.6h-5.1V900h-3V422.6
	h-5.1V900h-3V422.6h-5.1V900h-3V422.6h-5.1V900h-3V422.6h-5.1V900h-3V422.6h-5.1V900h-3V422.6h-5.1V900h-3V422.6h-5.1V900h-3V422.6
	h-7.9V756h-10.4v-55.1V576.9v-75.3l-3.5,6.1h-8.7v-30.5l-3.5,6.1h-8.7v-30.5l-3.5,6.1h-8.7v-30.5l-3.5,6.1h-8.7v-30.5l-3.5,6.1h-8.7
	v-30.5l-2.5,4.5c0,0-3.4,4-5.8-1.4c-1.5-3.5-3.9-13.4-3.9-13.4s-2.4,9.9-3.9,13.4c-2.5,6.1-5.8,1.4-5.8,1.4l-2.5-4.5v30.5h-8.7
	l-3.5-6.1v30.5h-8.7l-3.5-6.1V459h-8.7l-3.5-6.1v30.5h-8.7l-3.5-6.1v30.5h-8.7l-3.5-6.1v75.3v123.9V774h-12.4V652.1h-112.2V890
	h-28.6v-16.3h-1.4l-2-30.8h-0.8l-9-354.2h-1.5v-4.2h-1.6v-11.9h-2.6l-0.6-7.5l4.9-5.5l-7.2-1.8l-3.9-6.3l-3.9,6.3l-7.2,1.8l4.7,5.5
	l-0.5,7.5h-2.6v11.9h-1.6v4.2h-1.5l-9,354.2h-0.8l-2,30.8h-1.4V890H2459v-92h-28.8V614.2h1.4v-3.4h-1.4v-2h-2.8l0.3-5.9
	c0,0,0.5-0.4,0.3-0.8c0,0-1.2-0.8-2-0.8c-0.8,0-2,0.8-2,0.8c-0.3,0.4,0.3,0.8,0.3,0.8l0.3,5.9h-3.1v2h-45.7v-28.8h0.4v-0.6h-0.2
	v-4.6h0.4v-0.5h-0.2V575h0l-0.4-0.9l0.5-0.5v-0.4h0.2l-0.2-0.3l-2.5-0.2l0.3-1.7h-2.4l0.3-1.3c0,0-0.7-0.6-2.8-0.8v-1.2l0.4-6.1
	c0,0,0.5-0.3,0-0.8c-0.5-0.5-1.6-0.8-2-0.8c-0.3,0-1.5,0.3-2,0.8c-0.5,0.5,0,0.8,0,0.8l0.4,6.1v1.2c-0.3,0-0.5,0-0.8,0.1v-15.6
	c0,0,0.4-0.4,0.4-0.9h-0.3v-2.7c0,0,1.7-1.2,1.7-1.6v-0.4l0.3-0.4h0.2v-0.2c0,0-0.6-0.3-1.8-0.3l0.3-1.1l-0.4-0.2V544l-0.3-0.1v-2
	h0.3v-0.6h-0.4v-0.8h-0.7V540h-0.6v-0.8h0.2v-0.4h-0.4l0.6-1l0-0.8l-1.7-4.5l-0.7-0.5l-0.7,0.5l-1.7,4.5l0,0.8l0.6,1h-0.4v0.4h0.2
	v0.8h-0.6v0.6h-0.7v0.8h-3.2v-3.8c0,0,0.3-0.1,0.3-1c0,0-0.2-0.4-0.9-0.6l0-15.2c0,0,0.3-0.1,0.3-0.7c0,0,0.5-0.7,0-1.4
	c0,0,0.3-0.8-0.2-1.3c0,0,1.6-1.5,1.1-3c0,0,0.1-1.2-0.2-1.5c0,0-0.2-0.1-0.3,0c-0.1,0.1-0.3-0.4-0.2-0.7c0-0.3-0.2-0.4-0.4-0.1
	c-0.2,0.4-0.6,0-0.4-0.3c0,0,0.8-1.9-2.8-3.1c0,0,1.5-1.8-1.9-3c0,0,0.9-1.4-1.2-2.2c0,0,0.5-0.7-1.1-1.5c0,0-0.2-0.7-0.8-1v-3.5
	c0,0,1.9-0.8-0.1-2.3c0,0-0.1-0.5-1-0.7c0,0,0-1-1.1-1c-1.1,0-1.1,1-1.1,1c-0.9,0.2-1,0.7-1,0.7c-2,1.5-0.1,2.3-0.1,2.3v3.5
	c-0.6,0.4-0.8,1-0.8,1c-1.6,0.8-1.1,1.5-1.1,1.5c-2.1,0.9-1.2,2.2-1.2,2.2c-3.4,1.2-1.9,3-1.9,3c-3.6,1.2-2.8,3.1-2.8,3.1
	c0.1,0.3-0.2,0.7-0.4,0.3c-0.2-0.4-0.5-0.2-0.4,0.1c0,0.3-0.1,0.8-0.2,0.7c-0.1-0.1-0.3,0-0.3,0c-0.3,0.3-0.2,1.5-0.2,1.5
	c-0.6,1.5,1.1,3,1.1,3c-0.5,0.5-0.2,1.3-0.2,1.3c-0.5,0.6,0,1.4,0,1.4c-0.1,0.6,0.3,0.7,0.3,0.7l0,15.2c-0.7,0.2-0.9,0.6-0.9,0.6
	c0,0.9,0.3,1,0.3,1v3.8h-3.2v-0.8h-0.7V540h-0.6v-0.8h0.2v-0.4h-0.4l0.6-1l0-0.8l-1.7-4.5l-0.7-0.5l-0.7,0.5l-1.7,4.5l0,0.8l0.6,1
	h-0.4v0.4h0.2v0.8h-0.6v0.6h-0.7v0.8h-0.4v0.6h0.3v2l-0.3,0.1v1.6l-0.4,0.2l0.3,1.1c-1.2,0-1.8,0.3-1.8,0.3v0.2h0.2l0.3,0.4v0.4
	c0,0.4,1.7,1.6,1.7,1.6v2.7h-0.3c0,0.5,0.4,0.9,0.4,0.9v15.6c-0.3,0-0.6-0.1-0.8-0.1v-1.2l0.4-6.1c0,0,0.5-0.3,0-0.8
	c-0.5-0.5-1.6-0.8-2-0.8c-0.3,0-1.5,0.3-2,0.8c-0.5,0.5,0,0.8,0,0.8l0.4,6.1v1.2c-2.1,0.2-2.8,0.8-2.8,0.8l0.3,1.3h-2.4l0.4,1.7
	l-2.5,0.2l-0.2,0.3h0.2v0.4l0.5,0.5l-0.4,0.9v1.2h-0.2v0.5h0.4v4.6h-0.2v0.6h0.4v28.8h-45.7v-2h-3.1l0.3-5.9c0,0,0.5-0.4,0.3-0.8
	c0,0-1.2-0.8-2-0.8c-0.8,0-2,0.8-2,0.8c-0.3,0.4,0.3,0.8,0.3,0.8l0.3,5.9h-2.8v2h-1.5v3.4h1.5v170.2H2237V706h-66.8V509.7h-12.3
	v-6.9h-8.9v-7.2h-9.2v-20.2v-11.6l-15.4-23.6h-25.7v-4.4h-4.8v-4.8h-4.6v-4.3h-4.4v-3.9h-1.6v-5.9h2.9v-6.4h-35.4v6.4h2.9v5.9h-1.6
	v3.9h-4.4v4.3h-4.6v4.8h-4.8v4.4h-25.7l-15.4,23.6v11.6v20.2h-9.2v7.2h-8.9v6.9h-1.5V504h-162.8v-2.7h162.8V487h-26v-18.6H1829V487
	h-14.5V324.4h-27.7v-12.5h-91.2v12.5h-23v316h-31.7v-61h-123v112.2h-27.7V402.3h-1.2v-2.2h2.1v-1.4h1.2v-1.8h-161.5v1.8h1.2v1.4h2.1
	v2.2h-1.2v391.6h-35.8v-42.2h-27.4V501.7h-102v106.8h-121v162.3L918.6,622.3l-0.9-6.9h-7.2l-0.9,6.6l-20.4,24.1l-20.5-23.8l-0.9-6.9
	h-7.2l-0.9,6.6L727.3,778.5l-91.4-105.9l-0.8-5.9h-6.2l-0.8,5.7L611,692.5l-17.2-19.9l-0.8-5.9h-6.2l-0.8,5.7l-128,151.2V496.4
	c-65.1-27.6-159.8-36.2-159.8-36.2v7.3c-5-0.6-7.9-0.8-7.9-0.8v58.5h13.1v47.5h-5.2v2h-7.9v247.9h-11.1v-88.2H152.7v45.5h-38.2
	v-99.2H17V851H0v49v19v81h5000L5000,900L5000,900z M4119.5,611.1l19.4,6.5v1.9l-19.4-6.5V611.1z M4119.5,614.6l19.4,6.5v1.9
	l-19.4-6.5V614.6z M4119.5,618.1l19.4,6.5v1.9l-19.4-6.5V618.1z M4086.5,620l-19.4,6.5v-1.9l19.4-6.5V620z M4086.5,616.5l-19.4,6.5
	v-1.9l19.4-6.5V616.5z M4086.5,613l-19.4,6.5v-1.9l19.4-6.5V613z M4790.4,855.2c12.2,0,14.6,14.5,14.6,14.5h-0.7v4h-1v1l1.6,2.6
	l0.3,22.7h-29.5l0.3-22.7l1.6-2.6v-1h-1v-4h-0.7C4775.9,869.7,4778.2,855.2,4790.4,855.2z M4744.4,855.2c12.2,0,14.6,14.5,14.6,14.5
	h-0.7v4h-1v1l1.6,2.6l0.3,22.7h-29.5l0.3-22.7l1.6-2.6v-1h-1v-4h-0.7C4729.9,869.7,4732.2,855.2,4744.4,855.2z M3823.5,877.5h1.8
	v2.6h-1.8V877.5z M3826.7,877.5h10.9v2.6h-10.9V877.5z M3872.1,854v4.1h-10.9V854H3872.1z M3839.1,869.9v-2.6h1.8v2.6H3839.1z
	 M3859.7,865.8L3859.7,865.8l-1.8,0v0H3859.7z M3840.9,865.8L3840.9,865.8l-1.8,0v0H3840.9z M3857.9,869.9v-2.6h1.8v2.6H3857.9z
	 M3861.2,869.9v-2.6h10.9v2.6H3861.2z M3861.2,865.8L3861.2,865.8l10.9,0v0H3861.2z M3873.5,865.8h1.8v0L3873.5,865.8L3873.5,865.8z
	 M3859.7,854v4.1h-1.8V854H3859.7z M3840.9,854v4.1h-1.8V854H3840.9z M3837.6,854v4.1h-10.9V854H3837.6z M3837.6,865.8L3837.6,865.8
	l-10.9,0v0H3837.6z M3837.6,867.4v2.6h-10.9v-2.6H3837.6z M3839.1,877.5h1.8v2.6h-1.8V877.5z M3857.9,877.5h1.8v2.6h-1.8V877.5z
	 M3861.2,877.5h10.9v2.6h-10.9V877.5z M3873.5,877.5h1.8v2.6h-1.8V877.5z M3873.5,869.9v-2.6h1.8v2.6H3873.5z M3873.5,858.2V854h1.8
	v4.1H3873.5z M3825.3,854v4.1h-1.8V854H3825.3z M3825.3,865.8L3825.3,865.8l-1.8,0v0H3825.3z M3825.3,867.4v2.6h-1.8v-2.6H3825.3z
	 M4016.4,803.1v7.1h-1.8v-7.1H4016.4z M4015.9,777.6v-11.5h4.7v11.5H4015.9z M4016.4,811.8v5.6h-1.8v-5.6H4016.4z M4016.4,819v5.6
	h-1.8V819H4016.4z M4016.4,851.5v7.1h-1.8v-7.1H4016.4z M4016.4,860.2v5.6h-1.8v-5.6H4016.4z M4016.4,867.4v5.6h-1.8v-5.6H4016.4z
	 M4016.4,874.6v5.6h-1.8v-5.6H4016.4z M4016.4,881.8v7h-1.8v-7H4016.4z M3906.5,865.8h-9.4v-5.6h9.4V865.8z M3906.5,867.4v5.6h-9.4
	v-5.6H3906.5z M3906.5,874.6v5.6h-9.4v-5.6H3906.5z M3906.5,881.8v7h-9.4v-7H3906.5z M4102.3,711.8v8.3h-4.5v-8.3H4102.3z
	 M4097.8,711.1v-4.8h4.5v4.8H4097.8z M4102.3,721.7v3.3h-4.5v-3.3H4102.3z M4098.5,760.3h8.9v2.7h-8.9V760.3z M4110.2,760.3v2.7
	h-1.3v-2.7H4110.2z M4108.9,758.7v-3.6h1.3v3.6H4108.9z M4119.9,803.1v7.6h-18.5v-7.6H4119.9z M4115.9,711.8v8.3h-4.5v-8.3H4115.9z
	 M4111.4,711.1v-4.8h4.5v4.8H4111.4z M4115.9,721.7v3.3h-4.5v-3.3H4115.9z M4191.4,811.8v5.6h-1.8v-5.6H4191.4z M4189.6,810.2v-7.1
	h1.8v7.1H4189.6z M4191.4,819v5.6h-1.8V819H4191.4z M4191.4,851.5v7.1h-1.8v-7.1H4191.4z M4191.4,860.2v5.6h-1.8v-5.6H4191.4z
	 M4191.4,867.4v5.6h-1.8v-5.6H4191.4z M4191.4,874.6v5.6h-1.8v-5.6H4191.4z M4191.4,881.8v7h-1.8v-7H4191.4z M4192.8,880.2v-5.6
	h10.9v5.6H4192.8z M4203.7,881.8v7h-10.9v-7H4203.7z M4192.8,873v-5.6h10.9v5.6H4192.8z M4192.8,865.8v-5.6h10.9v5.6H4192.8z
	 M4192.8,858.6v-7.1h10.9v7.1H4192.8z M4194.6,840v-2.6h7.3v2.6H4194.6z M4192.8,824.6V819h10.9v5.6H4192.8z M4192.8,817.4v-5.6
	h10.9v5.6H4192.8z M4191.5,777.6v-11.5h4.7v11.5H4191.5z M4119.5,900v-23.5h11V900H4119.5z M4119.9,819.8v6h-18.5v-6H4119.9z
	 M4101.5,818.2v-6h18.5v6H4101.5z M4119.9,827.4v6h-18.5v-6H4119.9z M4119.9,844v5.7h-18.5V844H4119.9z M4119.9,851.3v4.4h-18.5
	v-4.4H4119.9z M4130.5,827.4v6h-9.1v-6H4130.5z M4121.4,825.8v-6h9.1v6H4121.4z M4130.5,844v5.7h-9.1V844H4130.5z M4130.5,851.3v4.4
	h-9.1v-4.4H4130.5z M4130.5,818.2h-9.1v-6h9.1V818.2z M4114.3,763v-2.7h8.9v2.7H4114.3z M4111.6,758.7v-3.6h1.3v3.6H4111.6z
	 M4112.9,760.3v2.7h-1.3v-2.7H4112.9z M4113.1,876.5V900h-11.6v-23.5H4113.1z M4100,900h-11.6v-23.5h11.6V900z M4242.9,851.5h1.8
	v7.1h-1.8V851.5z M4242.9,860.2h1.8v5.6h-1.8V860.2z M4242.9,867.4h1.8v5.6h-1.8V867.4z M4242.9,874.6h1.8v5.6h-1.8V874.6z
	 M4242.9,881.8h1.8v7h-1.8V881.8z M4232.9,837.4h7.3v2.6h-7.3V837.4z M4230.5,851.5h10.9v7.1h-10.9V851.5z M4230.5,860.2h10.9v5.6
	h-10.9V860.2z M4230.5,867.4h10.9v5.6h-10.9V867.4z M4230.5,874.6h10.9v5.6h-10.9V874.6z M4230.5,881.8h10.9v7h-10.9V881.8z
	 M4227.3,851.5h1.8v7.1h-1.8V851.5z M4227.3,860.2h1.8v5.6h-1.8V860.2z M4227.3,867.4h1.8v5.6h-1.8V867.4z M4227.3,874.6h1.8v5.6
	h-1.8V874.6z M4227.3,881.8h1.8v7h-1.8V881.8z M4205.2,803.1h1.8v7.1h-1.8V803.1z M4205.2,811.8h1.8v5.6h-1.8V811.8z M4205.2,819
	h1.8v5.6h-1.8V819z M4205.2,851.5h1.8v7.1h-1.8V851.5z M4205.2,860.2h1.8v5.6h-1.8V860.2z M4205.2,867.4h1.8v5.6h-1.8V867.4z
	 M4205.2,874.6h1.8v5.6h-1.8V874.6z M4205.2,881.8h1.8v7h-1.8V881.8z M4203.7,810.2h-10.9v-7.1h10.9V810.2z M4185.4,760.3h10.8v4.2
	h-10.8V760.3z M4185.4,766.1h4.7v11.5h-4.7V766.1z M4167.4,803.1h10.8v21.5h-10.8V803.1z M4167.4,857.3h10.8v21.5h-10.8V857.3z
	 M4159,707.5l7,2.1v17.8l-7-1.4V707.5z M4155.7,755.2l10.3,1.5v7.7l-10.3-1.3V755.2z M4130.5,810.7h-9.1v-7.6h9.1V810.7z
	 M4124.7,755.1h1.3v3.6h-1.3V755.1z M4124.7,760.3h1.3v2.7h-1.3V760.3z M4123.2,758.7h-8.9v-3.6h8.9V758.7z M4121.9,721.7v3.3h-4.5
	v-3.3H4121.9z M4117.4,720.1v-8.3h4.5v8.3H4117.4z M4121.9,706.2v4.8h-4.5v-4.8H4121.9z M4103.7,610.8h14.3v1.9h-14.3V610.8z
	 M4103.7,614.3h14.3v1.9h-14.3V614.3z M4103.7,617.9h14.3v1.9h-14.3V617.9z M4103.7,621.4h14.3v4h-14.3V621.4z M4103.7,706.2h4.5
	v4.8h-4.5V706.2z M4103.7,711.8h4.5v8.3h-4.5V711.8z M4103.7,721.7h4.5v3.3h-4.5V721.7z M4107.4,755.1v3.6h-8.9v-3.6H4107.4z
	 M4087.9,610.8h14.3v1.9h-14.3V610.8z M4087.9,614.3h14.3v1.9h-14.3V614.3z M4087.9,617.9h14.3v1.9h-14.3V617.9z M4087.9,621.4h14.3
	v4h-14.3V621.4z M4095.8,758.7v-3.6h1.3v3.6H4095.8z M4097.1,760.3v2.7h-1.3v-2.7H4097.1z M4093.1,758.7v-3.6h1.3v3.6H4093.1z
	 M4094.4,760.3v2.7h-1.3v-2.7H4094.4z M4090,725v-3.3h4.5v3.3H4090z M4090,720.1v-8.3h4.5v8.3H4090z M4090,711.1v-4.8h4.5v4.8H4090z
	 M4084.1,706.2h4.5v4.8h-4.5V706.2z M4084.1,711.8h4.5v8.3h-4.5V711.8z M4084.1,721.7h4.5v3.3h-4.5V721.7z M4082.8,755.1h8.9v3.6
	h-8.9V755.1z M4082.8,760.3h8.9v2.7h-8.9V760.3z M4081.5,803.1h18.5v7.6h-18.5V803.1z M4081.5,812.2h18.5v6h-18.5V812.2z
	 M4081.5,819.8h18.5v6h-18.5V819.8z M4081.5,827.4h18.5v6h-18.5V827.4z M4081.5,844h18.5v5.7h-18.5V844z M4081.5,851.3h18.5v4.4
	h-18.5V851.3z M4080,755.1h1.3v3.6h-1.3V755.1z M4080,760.3h1.3v2.7h-1.3V760.3z M4071,803.1h9.1v7.6h-9.1V803.1z M4071,812.2h9.1v6
	h-9.1V812.2z M4071,819.8h9.1v6h-9.1V819.8z M4071,827.4h9.1v6h-9.1V827.4z M4071,844h9.1v5.7h-9.1V844z M4071,851.3h9.1v4.4h-9.1
	V851.3z M4082,876.5V900h-11v-23.5H4082z M4040,709.6l7-2.1v18.5l-7,1.4V709.6z M4040,756.7l10.3-1.5v7.9l-10.3,1.3V756.7z
	 M4027.8,803.1h10.8v21.5h-10.8V803.1z M4027.8,857.3h10.8v21.5h-10.8V857.3z M4009.8,760.3h10.8v4.2h-10.8V760.3z M4009.8,766.1
	h4.7v11.5h-4.7V766.1z M4002.3,803.1h10.9v7.1h-10.9V803.1z M4002.3,811.8h10.9v5.6h-10.9V811.8z M4002.3,819h10.9v5.6h-10.9V819z
	 M4011.3,837.4v2.6h-7.3v-2.6H4011.3z M4002.3,851.5h10.9v7.1h-10.9V851.5z M4002.3,860.2h10.9v5.6h-10.9V860.2z M4002.3,867.4h10.9
	v5.6h-10.9V867.4z M4002.3,874.6h10.9v5.6h-10.9V874.6z M4002.3,881.8h10.9v7h-10.9V881.8z M3999,803.1h1.8v7.1h-1.8V803.1z
	 M3999,811.8h1.8v5.6h-1.8V811.8z M3999,819h1.8v5.6h-1.8V819z M3999,851.5h1.8v7.1h-1.8V851.5z M3999,860.2h1.8v5.6h-1.8V860.2z
	 M3999,867.4h1.8v5.6h-1.8V867.4z M3999,874.6h1.8v5.6h-1.8V874.6z M3999,881.8h1.8v7h-1.8V881.8z M3976.9,851.5h1.8v7.1h-1.8V851.5
	z M3976.9,860.2h1.8v5.6h-1.8V860.2z M3976.9,867.4h1.8v5.6h-1.8V867.4z M3976.9,874.6h1.8v5.6h-1.8V874.6z M3976.9,881.8h1.8v7
	h-1.8V881.8z M3965.8,837.4h7.3v2.6h-7.3V837.4z M3964.6,851.5h10.9v7.1h-10.9V851.5z M3964.6,860.2h10.9v5.6h-10.9V860.2z
	 M3964.6,867.4h10.9v5.6h-10.9V867.4z M3964.6,874.6h10.9v5.6h-10.9V874.6z M3964.6,881.8h10.9v7h-10.9V881.8z M3961.3,851.5h1.8
	v7.1h-1.8V851.5z M3961.3,860.2h1.8v5.6h-1.8V860.2z M3961.3,867.4h1.8v5.6h-1.8V867.4z M3961.3,874.6h1.8v5.6h-1.8V874.6z
	 M3961.3,881.8h1.8v7h-1.8V881.8z M3942.4,851.5h1.8v7.1h-1.8V851.5z M3942.4,860.2h1.8v5.6h-1.8V860.2z M3942.4,867.4h1.8v5.6h-1.8
	V867.4z M3942.4,874.6h1.8v5.6h-1.8V874.6z M3942.4,881.8h1.8v7h-1.8V881.8z M3931.9,837.4h7.3v2.6h-7.3V837.4z M3930.1,851.5h10.9
	v7.1h-10.9V851.5z M3930.1,860.2h10.9v5.6h-10.9V860.2z M3930.1,867.4h10.9v5.6h-10.9V867.4z M3930.1,874.6h10.9v5.6h-10.9V874.6z
	 M3930.1,881.8h10.9v7h-10.9V881.8z M3926.8,851.5h1.8v7.1h-1.8V851.5z M3926.8,860.2h1.8v5.6h-1.8V860.2z M3926.8,867.4h1.8v5.6
	h-1.8V867.4z M3926.8,874.6h1.8v5.6h-1.8V874.6z M3926.8,881.8h1.8v7h-1.8V881.8z M3908,851.5h1.8v7.1h-1.8V851.5z M3908,860.2h1.8
	v5.6h-1.8V860.2z M3908,867.4h1.8v5.6h-1.8V867.4z M3908,874.6h1.8v5.6h-1.8V874.6z M3908,881.8h1.8v7h-1.8V881.8z M3898,837.4h7.3
	v2.6h-7.3V837.4z M3906.5,851.5v7.1h-9.4v-7.1H3906.5z M3738,595.6h124.4V588H3738v-4.1h124.4v-7.6H3738v-4.1h124.4v-7.6H3738v-4.1
	h124.4v-7.6H3738v-4.1h124.4V541H3738v-4.1h124.4v-7.6H3738v-4.1h124.4v-7.6H3738v-4.1h124.4v-7.6H3738v-4.1h153.4v4.1H3870v7.6
	h21.4v4.1H3870v7.6h21.4v4.1H3870v7.6h21.4v4.1H3870v7.6h21.4v4.1H3870v7.6h21.4v4.1H3870v7.6h21.4v4.1H3870v7.6h21.4v4.1H3870v7.6
	h21.4v4.1H3738V595.6z M3738,701.3h94v-7.6h-94v-4.1h94V682h-94v-4.1h94v-7.6h-94v-4.1h94v-7.6h-94v-4.1h94v-7.6h-94v-4.1h94V635
	h-94v-4.1h94v-7.6h-94v-4.1h94v-7.6h-94v-4.1h153.4v4.1h-51.8v7.6h51.8v4.1h-51.8v7.6h51.8v4.1h-51.8v7.6h51.8v4.1h-51.8v7.6h51.8
	v4.1h-51.8v7.6h51.8v4.1h-51.8v7.6h51.8v4.1h-51.8v7.6h51.8v4.1h-51.8v7.6h51.8v4.1H3738V701.3z M3738,807.1h51.8v-7.6H3738v-4.1
	h51.8v-7.6H3738v-4.1h51.8V776H3738v-4.1h51.8v-7.6H3738v-4.1h51.8v-7.6H3738v-4.2h51.8v-7.6H3738v-4.1h51.8V729H3738v-4.1h51.8
	v-7.6H3738v-4.1h153.4v4.1h-94v7.6h94v4.1h-94v7.6h94v4.1h-94v7.6h94v4.2h-94v7.6h94v4.1h-94v7.6h94v4.1h-94v7.6h94v4.1h-94v7.6h94
	v4.1h-94v7.6h94v4.2H3738V807.1z M3738,889.3h21.4v-7.6H3738v-4.1h21.4v-7.6H3738v-4.2h21.4v-7.6H3738V854h21.4v-7.6H3738v-4.1h21.4
	v-7.6H3738v-4.1h21.4V823H3738v-4.1h153.4v4.1h-1.8v-1.2h-11.6v1.2h-23v-1.2h-11.6v1.2H3767v7.6h32.3v4.1H3767v7.6h32.3v4.1H3767
	v7.6h32.3v4.1H3767v7.6h32.3v4.2H3767v7.6h32.3v4.1H3767v7.6h32.3v4.1H3767v6.6h-7.6v-6.6H3738V889.3z M3482.3,537.8V900h-1.3V537.8
	H3482.3z M3473.2,465.5V900h-2.1V465.5H3473.2z M3464.6,378h5.6v6.9h-5.6V378z M3462.3,419.9V900h-2.1V419.9H3462.3z M3454.6,419.9
	V900h-3.5V419.9H3454.6z M3444.9,419.9V900h-3.5V419.9H3444.9z M3435.8,419.9V900h-2.1V419.9H3435.8z M3425.8,378h5.6v6.9h-5.6V378z
	 M3424.8,465.5V900h-2.1V465.5H3424.8z M3415,537.8V900h-1.3V537.8H3415z M3069.1,279.2h88.9v3.7h-88.9V279.2z M3069.1,288.7h88.9
	v3.7h-88.9V288.7z M3069.1,298.1h88.9v3.7h-88.9V298.1z M3069.1,307.6h88.9v3.7h-88.9V307.6z M3069.1,317h88.9v3.7h-88.9V317z
	 M3069.1,326.5h88.9v3.7h-88.9V326.5z M3069.1,335.9h88.9v3.7h-88.9V335.9z M3069.1,345.4h88.9v3.7h-88.9V345.4z M3069.1,354.9h88.9
	v3.7h-88.9V354.9z M3069.1,364.3h88.9v3.7h-88.9V364.3z M3069.1,373.8h88.9v3.7h-88.9V373.8z M3069.1,383.2h88.9v3.7h-88.9V383.2z
	 M3069.1,392.7h88.9v3.7h-88.9V392.7z M3069.1,402.1h88.9v3.7h-88.9V402.1z M3069.1,411.6h88.9v3.7h-88.9V411.6z M3069.1,421.1h88.9
	v3.7h-88.9V421.1z M3069.1,430.5h88.9v3.7h-88.9V430.5z M3069.1,440h88.9v3.7h-88.9V440z M3069.1,449.4h88.9v3.7h-88.9V449.4z
	 M3069.1,458.9h88.9v3.7h-88.9V458.9z M3069.1,468.3h88.9v3.7h-88.9V468.3z M3069.1,477.8h88.9v3.7h-88.9V477.8z M3069.1,487.2h88.9
	v3.7h-88.9V487.2z M3069.1,496.7h88.9v3.7h-88.9V496.7z M3069.1,506.2h88.9v3.7h-88.9V506.2z M3069.1,515.6h88.9v3.7h-88.9V515.6z
	 M3069.1,525.1h88.9v3.7h-88.9V525.1z M3069.1,534.5h88.9v3.7h-88.9V534.5z M3069.1,544h88.9v3.7h-88.9V544z M3069.1,553.4h88.9v3.7
	h-88.9V553.4z M3069.1,562.9h88.9v3.7h-88.9V562.9z M3069.1,572.4h88.9v3.7h-88.9V572.4z M3069.1,581.8h88.9v3.7h-88.9V581.8z
	 M3069.1,591.3h88.9v3.7h-88.9V591.3z M3069.1,600.7h88.9v3.7h-88.9V600.7z M3069.1,610.2h88.9v3.7h-88.9V610.2z M3069.1,619.6h88.9
	v3.7h-88.9V619.6z M3069.1,629.1h88.9v3.7h-88.9V629.1z M3069.1,638.5h88.9v3.7h-88.9V638.5z M3069.1,648h88.9v3.7h-88.9V648z
	 M3069.1,657.5h88.9v3.7h-88.9V657.5z M3069.1,666.9h88.9v3.7h-88.9V666.9z M3069.1,676.4h88.9v3.7h-88.9V676.4z M3069.1,685.8h88.9
	v3.7h-88.9V685.8z M3069.1,695.3h88.9v3.7h-88.9V695.3z M3069.1,704.7h88.9v3.7h-88.9V704.7z M3069.1,714.2h88.9v3.7h-88.9V714.2z
	 M3069.1,723.6h88.9v3.7h-88.9V723.6z M3069.1,733.1h88.9v3.7h-88.9V733.1z M3069.1,742.5h88.9v3.7h-88.9V742.5z M3069.1,752h88.9
	v3.7h-88.9V752z M3069.1,761.5h88.9v3.7h-88.9V761.5z M3069.1,770.9h88.9v3.7h-88.9V770.9z M3069.1,780.4h88.9v3.7h-88.9V780.4z
	 M3069.1,789.8h88.9v3.7h-88.9V789.8z M3069.1,799.3h88.9v3.7h-88.9V799.3z M3069.1,808.7h88.9v3.7h-88.9V808.7z M3069.1,818.2h88.9
	v3.7h-88.9V818.2z M3069.1,827.7h88.9v3.7h-88.9V827.7z M3069.1,837.1h88.9v3.7h-88.9V837.1z M3069.1,846.6h88.9v3.7h-88.9V846.6z
	 M3069.1,856h88.9v3.7h-88.9V856z M3069.1,865.5h88.9v3.7h-88.9V865.5z M3069.1,874.9h88.9v3.7h-88.9V874.9z M3069.1,884.4h88.9v3.7
	h-88.9V884.4z M3069.1,893.8h88.9v3.7h-88.9V893.8z M1966.5,538.1h-152v-2.7h152V538.1z M1966.5,552.5v2.7h-152v-2.7H1966.5z
	 M1966.5,569.6v2.7h-152v-2.7H1966.5z M1966.5,586.6v2.7h-152v-2.7H1966.5z M1966.5,603.7v2.7h-152v-2.7H1966.5z M1966.5,620.7v2.7
	h-152v-2.7H1966.5z M1966.5,637.8v2.7h-152v-2.7H1966.5z M1966.5,654.8v2.7h-152v-2.7H1966.5z M1966.5,671.9v2.7h-152v-2.7H1966.5z
	 M1966.5,688.9v2.7h-152v-2.7H1966.5z M1966.5,706v2.7h-152V706H1966.5z M1966.5,723v2.7h-152V723H1966.5z M1966.5,740.1v2.7h-152
	v-2.7H1966.5z M1966.5,757.1v2.7h-152v-2.7H1966.5z M1966.5,774.2v2.7h-152v-2.7H1966.5z M1966.5,791.2v2.7h-152v-2.7H1966.5z
	 M1966.5,808.3v2.7h-152v-2.7H1966.5z M1966.5,825.3v2.7h-152v-2.7H1966.5z M1966.5,842.4v2.7h-152v-2.7H1966.5z M1966.5,859.4v2.7
	h-152v-2.7H1966.5z M1966.5,876.5v2.7h-152v-2.7H1966.5z M1966.5,893.5v2.7h-152v-2.7H1966.5z M2508.9,498.1h1.8v1.8h-1.8V498.1z
	 M2505.4,498.1h1.8v1.8h-1.8V498.1z M2503.7,503.7h1.9v5.4h-1.9V503.7z M2501.9,498.1h1.8v1.8h-1.8V498.1z M2499,503.7h1.9v5.4h-1.9
	V503.7z M2496.4,498.1h1.8v1.8h-1.8V498.1z M2496.3,503.7v5.4h-1.9v-5.4H2496.3z M2492.8,498.1h1.8v1.8h-1.8V498.1z M2489.3,498.1
	h1.8v1.8h-1.8V498.1z M2368,562.4h0.7l-0.5,5.3h-0.4L2368,562.4z M2366.9,562.4l0.2,5.3h-0.4l-0.5-5.3H2366.9z M2357.1,542.2
	c0,0,0-0.2,0.3-0.2c0.3,0,0.3,0.2,0.3,0.2s0.2,0.4,0,0.6c-0.1,0.2,0,0.5,0,0.5c-0.1,0-0.1,0.3-0.1,0.3h-0.5c0,0,0-0.3-0.1-0.3
	c0,0,0.1-0.4,0-0.5C2357,542.7,2357.1,542.2,2357.1,542.2z M2355.9,542.2c0,0,0-0.2,0.3-0.2c0.3,0,0.3,0.2,0.3,0.2s0.2,0.4,0,0.6
	c-0.1,0.2,0,0.5,0,0.5c-0.1,0-0.1,0.3-0.1,0.3h-0.5c0,0,0-0.3-0.1-0.3c0,0,0.1-0.4,0-0.5C2355.8,542.7,2355.9,542.2,2355.9,542.2z
	 M2348.9,519c0,0,0.6,0,0.7,0.3v15.6c0,0-0.3-0.1-0.7-0.1V519z M2345.1,497.5c0.2,0,0.5,0.2,0.5,0.2v2.2c-0.2-0.2-0.5-0.2-0.5-0.2
	V497.5z M2342.9,497.7c0,0,0.3-0.2,0.5-0.2v2.2c0,0-0.4,0.1-0.5,0.2V497.7z M2338.9,519.2c0.1-0.3,0.7-0.3,0.7-0.3v15.7
	c-0.4,0-0.7,0.1-0.7,0.1V519.2z M2332.1,542.2c0,0,0-0.2,0.3-0.2c0.3,0,0.3,0.2,0.3,0.2s0.2,0.4,0,0.6c-0.1,0.2,0,0.5,0,0.5
	c-0.1,0-0.1,0.3-0.1,0.3h-0.5c0,0,0-0.3-0.1-0.3c0,0,0.1-0.4,0-0.5C2331.9,542.7,2332.1,542.2,2332.1,542.2z M2330.9,542.2
	c0,0,0-0.2,0.3-0.2c0.3,0,0.3,0.2,0.3,0.2s0.2,0.4,0,0.6c-0.1,0.2,0,0.5,0,0.5c-0.1,0-0.1,0.3-0.1,0.3h-0.5c0,0,0-0.3-0.1-0.3
	c0,0,0.1-0.4,0-0.5C2330.7,542.7,2330.9,542.2,2330.9,542.2z M2321.7,562.4h0.7l-0.5,5.3h-0.4L2321.7,562.4z M2320.6,562.4l0.2,5.3
	h-0.4l-0.5-5.3H2320.6z M1966.5,518.4v2.7h-152v-2.7H1966.5z M591.6,722.1l0.6,2.3l-0.7,0.9l-0.5-2.5L591.6,722.1z M591.5,717.4
	l0.5-0.6l0.6,2.1l-0.6,0.8L591.5,717.4z M627,730.5l0-1.5l0.2-1.7l0.1,0.2l0.2,3.8L627,730.5z M627.6,733.4l0.2,4.2l-0.9-1.3l0-3.8
	L627.6,733.4z M627.2,679.4l-13,16.7l-0.8-0.9l14-17.2L627.2,679.4z M866.2,681l0.7,2.8L866,685l-0.6-3L866.2,681z M866.1,675.5
	l0.7-0.8l0.8,2.6l-0.8,0.9L866.1,675.5z M1046.8,877.4c-34.7,2.7-61.2,20.5-80.3,22.6h-6.8c-3.7-0.5-7.1-1.9-10.1-4.5
	c-5.2-4.5-12.5-7.8-21.1-10.2l12.3-66.5c36.5,0.9,72,3,106,6.2V877.4z M565.6,828.5c-0.3,0-0.6,0.1-0.9,0.1
	c-0.4,0.1-0.7,0.1-1.1,0.2c-0.2,0-0.4,0.1-0.5,0.1l2.8-5.6l-0.5,3.8l0,0L565.6,828.5z M561.6,829.2
	C561.6,829.2,561.6,829.2,561.6,829.2l3.3-16.6l3.1-5.7l-1.8,13.1L561.6,829.2z M529,834.8l-4.1,0.8l4.8-10.4l13.2-18.7l-8.1,19.7
	L529,834.8z M532.6,831.4l-1.2,3l-0.9,0.2L532.6,831.4z M586.8,764.4l0.2,5.3l-2.7,4.9l0.1-6.2L586.8,764.4z M584.5,766.1l0.1-5.4
	l2-3.2l0.2,4.7L584.5,766.1z M860.6,731.1l0.3,6.4l-3.2,5.9l0.1-7.4L860.6,731.1z M857.8,733.4l0.1-6.5l2.4-3.8l0.2,5.7L857.8,733.4
	z M1035.3,803.5c-2.7-0.1-5.4-0.3-8-0.4l-106-160.7l-0.2-1.7L1035.3,803.5z M920.7,637.9l-0.2-1.5L1045.1,804c-0.4,0-0.7,0-1.1-0.1
	c-0.6,0-1.2-0.1-1.8-0.1c-0.9,0-1.7-0.1-2.6-0.1c-0.9,0-1.8-0.1-2.7-0.1L920.7,637.9z M1025.7,803l-1,0l-23.5-27.2l-79.2-128.4
	l-0.3-1.9L1025.7,803z M952.7,792.1l-6.6-22.3l12.8,20.7l3.5,10.3l-4.8-0.1L952.7,792.1z M956.2,800.6l-0.9,0l-0.9-3.2L956.2,800.6z
	 M945.4,794.4l-5.5-22.1l11.7,20.4l2.3,7.9l-5.3-0.1L945.4,794.4z M947.2,800.5l-0.3,0l-0.2-1L947.2,800.5z M906.5,881.1l-11.6-62.9
	l1.1,0c12.2,0,24.7,0.1,37.2,0.4l-12,64.9C916.6,882.5,911.6,881.7,906.5,881.1z M856.4,880.4L845.1,819c12.9-0.3,25.8-0.6,38.3-0.6
	l-11.3,61.4C866.8,879.8,861.6,880.1,856.4,880.4z M627.1,898.9L615.7,837c10.9-1.4,22.1-2.8,33.3-4l-11.8,64.1
	C634,897.7,630.6,898.4,627.1,898.9z M590.5,765.7l0.5,5.1l-2.6,5.2l-0.2-5.9L590.5,765.7z M588.1,767.9l-0.2-5.2l2.1-3.5l0.4,4.6
	L588.1,767.9z M591.2,772.9l0.5,5.8l-3,6.5l-0.3-6.9L591.2,772.9z M592,780.9l0.7,6.8l-3.4,8.2l-0.3-8.3L592,780.9z M592.1,771
	l2.3-4.6l0.7,4.8l-2.5,5.4L592.1,771z M623,706.4l0.8-1.4l-0.1,1l-0.4,0.7L623,706.4z M623.2,709.4l-0.1,1l-0.1,0.2l-0.2-0.3
	L623.2,709.4z M622.2,705.5l-0.4-0.4l2.5-4.3l-0.1,1.1L622.2,705.5z M621,710l0.4,0.5l-0.8,1.5l-0.4-0.5L621,710z M620.4,707.4
	l0.8-1.3l0.4,0.5l-0.8,1.4L620.4,707.4z M620.8,714.1l0.3,0.4l-0.8,1.7l-0.4-0.5L620.8,714.1z M620.6,718.4l0.3,0.4l-0.8,1.9
	l-0.4-0.5L620.6,718.4z M619,719.1l-0.4-0.6l0.8-1.7l0.4,0.6L619,719.1z M616.4,720.3l-0.6-0.9l0.9-1.6l0.6,0.8L616.4,720.3z
	 M618,719.7l0.5,0.7l-0.8,1.8l-0.5-0.8L618,719.7z M600.5,715.5l0.8,1.6l-0.8,1.1l-0.8-1.7l0,0L600.5,715.5z M599.5,715l-0.3-2.1
	l0.7,1.5L599.5,715z M601.3,714.6l0.8-1l0.8,1.5l-0.8,1.1L601.3,714.6z M603.5,716.2l0.8,1.5l-0.9,1.2l-0.8-1.6L603.5,716.2z
	 M604.8,718.8l0.8,1.5l-0.9,1.4l-0.8-1.6L604.8,718.8z M606.2,721.5l0.8,1.5l-1,1.5l-0.8-1.6L606.2,721.5z M610.4,729.4l0.7,1.4
	l-1,2.1l-0.7-1.6L610.4,729.4z M608.8,730l-0.8-1.6l1-1.7l0.8,1.4L608.8,730z M612.8,727.5l-1,2l-0.7-1.4l1-1.8L612.8,727.5z
	 M612.7,725.2l1-1.8l0.7,1.1l-0.9,1.9L612.7,725.2z M611.8,732l0.7,1.4l-1.1,2.3l-0.7-1.5L611.8,732z M612.4,730.7l1-2l0.7,1.2
	l-1,2.2L612.4,730.7z M614,727.5l1-1.9l0.6,1l-0.9,2L614,727.5z M614.9,723.3l-0.6-1l0.9-1.7l0.6,0.9L614.9,723.3z M613.6,721.2
	l-0.7-1.1l0.9-1.5l0.7,1L613.6,721.2z M613,722.3L612,724l-0.7-1.2l1-1.6L613,722.3z M611.4,725.2l-1,1.8l-0.7-1.4l1-1.7
	L611.4,725.2z M609.1,724.4l-0.7-1.4l1-1.5l0.8,1.3L609.1,724.4z M608.4,725.6l-1,1.7l-0.8-1.6l1-1.6L608.4,725.6z M606.7,728.4
	l-1,1.8l-0.8-1.8l1-1.6L606.7,728.4z M607.3,729.6l0.8,1.6l-1.1,2l-0.8-1.8L607.3,729.6z M608.7,732.5l0.8,1.6l-1.1,2.2l-0.8-1.8
	L608.7,732.5z M610.1,735.4l0.8,1.6l-1.1,2.5l-0.8-1.8L610.1,735.4z M611.5,738.3l0.8,1.6l-1.1,2.8l-0.8-1.8L611.5,738.3z
	 M612.1,736.9l1.1-2.4l0.7,1.3l-1,2.6L612.1,736.9z M613.8,733.3l1-2.2l0.6,1.1l-1,2.4L613.8,733.3z M616.1,733.4l0.6,1l-0.9,2.6
	l-0.6-1.2L616.1,733.4z M616,730.9l-0.6-1l1-2.1l0.6,0.9L616,730.9z M616.2,725.3l-0.6-0.9l0.9-1.8l0.5,0.8L616.2,725.3z
	 M615.1,718.4l-0.6-1l0.9-1.5l0.6,0.9L615.1,718.4z M613.8,716.4l-0.7-1l0.9-1.4l0.7,0.9L613.8,716.4z M613.1,717.5l-0.9,1.5
	l-0.7-1.1l0.9-1.4L613.1,717.5z M611.6,720.1l-0.9,1.6l-0.7-1.3l0.9-1.5L611.6,720.1z M609.3,719.3l-0.7-1.3l0.9-1.3l0.7,1.2
	L609.3,719.3z M608.6,720.4l-0.9,1.5l-0.8-1.5l0.9-1.4L608.6,720.4z M606.3,719.3l-0.8-1.5l0.9-1.3l0.8,1.4L606.3,719.3z M605,716.7
	l-0.8-1.5l0.8-1.1l0.8,1.4L605,716.7z M603.6,714.1l-0.8-1.5l0.8-1l0.8,1.4L603.6,714.1z M602.2,711.5l-0.8-1.5l0.7-0.9l0.8,1.4
	L602.2,711.5z M601.5,712.4l-0.8,1l-0.8-1.6l0.7-0.9L601.5,712.4z M599.4,710.7l-0.6-1.3l-0.1-0.4l0.6-0.7l0.8,1.6L599.4,710.7z
	 M598.8,757.8l0.6,4.3l-0.5,1.1l-0.8-4L598.8,757.8z M599.6,764.1l0.7,4.9l-0.2,0.5l-0.9-4.5L599.6,764.1z M600.2,720.5l0.8,1.7
	l-0.4,0.6L600.2,720.5z M601,719.5l0.9-1.2l0.8,1.6l-0.9,1.2L601,719.5z M603.2,721.1l0.8,1.6l-0.9,1.4l-0.8-1.7L603.2,721.1z
	 M604.6,723.9l0.8,1.6l-1,1.6l-0.8-1.8L604.6,723.9z M605,731.4l-1.1,1.9l-0.8-2l1.1-1.7L605,731.4z M605.5,732.6l0.8,1.8l-1.2,2.1
	l-0.8-2L605.5,732.6z M606.9,735.8l0.8,1.8l-1.2,2.4l-0.8-2L606.9,735.8z M608.3,738.9l0.8,1.9l-1.2,2.7l-0.8-2.1L608.3,738.9z
	 M609.7,742.2l0.8,1.9l-1.2,3l-0.8-2.2L609.7,742.2z M611.2,745.5l0.8,1.9l-1.2,3.4l-0.9-2.2L611.2,745.5z M611.7,744l1.2-2.8
	l0.8,1.6l-1.1,3.1L611.7,744z M613.5,739.8l1.1-2.6l0.7,1.3l-1,2.8L613.5,739.8z M615.9,739.8l0.6,1.2l-1,3.2l-0.7-1.5L615.9,739.8z
	 M616.4,738.4l1-2.7l0.5,0.9l-0.9,2.9L616.4,738.4z M617.2,733l-0.5-0.9l0.9-2.3l0.5,0.8L617.2,733z M617.4,727.3l-0.5-0.8l0.9-2
	l0.5,0.7L617.4,727.3z M619,726.4l0.4,0.6l-0.8,2.3l-0.4-0.7L619,726.4z M618.8,724l-0.4-0.7l0.9-1.9l0.4,0.6L618.8,724z
	 M617.8,717.5l-0.5-0.7l0.9-1.6l0.5,0.7L617.8,717.5z M616.6,715.7l-0.6-0.8l0.9-1.5l0.6,0.8L616.6,715.7z M615.3,713.9l-0.6-0.9
	l0.9-1.4l0.6,0.8L615.3,713.9z M614,711.9l-0.7-1l0.8-1.3l0.7,0.9L614,711.9z M613.3,713l-0.9,1.4l-0.7-1.1l0.9-1.3L613.3,713z
	 M611.8,715.4l-0.9,1.4l-0.7-1.2l0.9-1.3L611.8,715.4z M609.5,714.5l-0.8-1.2l0.8-1.2l0.8,1.2L609.5,714.5z M608.8,715.6l-0.9,1.3
	l-0.8-1.3l0.9-1.2L608.8,715.6z M606.5,714.4l-0.8-1.4l0.8-1.1l0.8,1.3L606.5,714.4z M605.1,712l-0.8-1.4l0.8-1l0.8,1.3L605.1,712z
	 M603.7,709.5l-0.8-1.4l0.7-0.9l0.8,1.4L603.7,709.5z M602.3,707l-0.8-1.4l0.7-0.8l0.8,1.4L602.3,707z M601.5,708l-0.7,0.9l-0.8-1.5
	l0.7-0.8L601.5,708z M599.5,706.2l-1.5-2.9l-0.3-2.2l2.5,4.3L599.5,706.2z M598.7,707.1l-0.2,0.2l-0.1-0.8L598.7,707.1z M598,752
	l0.5,3.8l-0.8,1.6l-0.7-3.6L598,752z M597.3,760.8l0.8,4.1l-2.1,4.6l-0.7-4.7L597.3,760.8z M598.5,766.7l0.9,4.6l-2.3,5.6l-0.8-5.4
	L598.5,766.7z M599.8,773.3l1,5.2l-2.5,6.9l-0.9-6.3L599.8,773.3z M600.5,771.4l0.1-0.2l0.3,2.2L600.5,771.4z M600.8,724.6l0.8-1.1
	l0.8,1.8l-1,1.5l-0.4-1L600.8,724.6z M601.8,728l1-1.5l0.8,1.8l-1,1.7L601.8,728z M601.9,731.1l-0.2,0.3l-0.1-1.1L601.9,731.1z
	 M602.4,732.4l0.8,2l-0.9,1.5l-0.4-2.8L602.4,732.4z M603.7,735.8l0.8,2.1l-1.2,2.2l-0.7-1.9l-0.1-0.4L603.7,735.8z M603.8,741.5
	l1.3-2.3l0.8,2.1l-1.3,2.5L603.8,741.5z M603.9,745.2l-0.3,0.5l-0.3-2.1L603.9,745.2z M606.4,742.7l0.8,2.2l-1.3,2.9l-0.8-2.4
	L606.4,742.7z M607.8,746.3l0.9,2.3l-1.4,3.3l-0.9-2.6L607.8,746.3z M609.3,750.1l0.9,2.4l-1.4,3.8l-0.9-2.7L609.3,750.1z
	 M610.8,754l1,2.5l-1.4,4.4l-1-3L610.8,754z M611.4,752.4l1.3-3.5l0.9,2l-1.2,3.9L611.4,752.4z M613.2,747.3l1.1-3.2l0.8,1.6
	l-1.1,3.5L613.2,747.3z M615.8,747.2l0.7,1.5l-1,4l-0.8-1.9L615.8,747.2z M617.3,750.3l0.3,0.6l-0.7,5l-0.7-1.6L617.3,750.3z
	 M617,747.1l-0.7-1.4l1-3.3l0.6,1.1L617,747.1z M618.1,747l-0.2,1.9l-0.2-0.3L618.1,747z M617.8,740.8l0.9-3l0.5,0.8l-0.8,3.2
	L617.8,740.8z M618.4,735.1l-0.5-0.8l0.9-2.5l0.4,0.7L618.4,735.1z M619.9,734l-0.4,2.9l-0.3-0.6L619.9,734z M619.7,731l-0.4-0.6
	l0.8-2.3l0.3,0.4L619.7,731z M619.9,725.6l-0.3-0.5l0.8-2l0.3,0.4L619.9,725.6z M621,725.8l-0.2,1.2l-0.2-0.3L621,725.8z
	 M620.9,721.8l0.8-1.9l0.1,0.1l-0.1,0.7l-0.5,1.5L620.9,721.8z M621.4,717.6l-0.3-0.4l0.8-1.7l0.2,0.3L621.4,717.6z M621.7,713.3
	l-0.3-0.4l0.8-1.6l0.3,0.3L621.7,713.3z M622,709.3l-0.3-0.4l0.8-1.4l0.3,0.3L622,709.3z M621,704.1l-0.5-0.5l4.3-6.8l-0.2,1.1
	L621,704.1z M619.8,702.7l-0.6-0.6l6.1-9.2l-0.2,1.2L619.8,702.7z M619.9,704.6l0.5,0.6l-0.8,1.3l-0.5-0.6L619.9,704.6z
	 M619.8,708.5l0.5,0.6l-0.8,1.4l-0.5-0.6L619.8,708.5z M619.6,712.5l0.4,0.5l-0.8,1.6l-0.5-0.6L619.6,712.5z M618,713.1l-0.5-0.7
	l0.8-1.4l0.5,0.7L618,713.1z M616.8,711.3l-0.6-0.8l0.8-1.3l0.6,0.7L616.8,711.3z M615.4,709.6l-0.7-0.9l0.8-1.2l0.7,0.8
	L615.4,709.6z M614.1,707.7l-0.7-0.9l0.8-1.2l0.7,0.9L614.1,707.7z M613.4,708.7l-0.8,1.2l-0.7-1l0.8-1.2L613.4,708.7z M611.9,711
	l-0.8,1.3l-0.7-1.1l0.8-1.2L611.9,711z M609.6,710.1l-0.8-1.2l0.8-1.1l0.8,1.1L609.6,710.1z M608.9,711.1l-0.8,1.2l-0.8-1.3l0.8-1.1
	L608.9,711.1z M606.7,709.9l-0.8-1.3l0.8-1l0.8,1.2L606.7,709.9z M605.2,707.6l-0.8-1.3l0.7-0.9l0.8,1.3L605.2,707.6z M603.8,705.2
	l-0.8-1.4l0.7-0.8l0.9,1.3L603.8,705.2z M602.3,702.8l-5.7-9.2l-0.2-1.5l6.5,9.9L602.3,702.8z M601.5,703.8l-0.7,0.8l-3.6-6.3
	l-0.2-1.8L601.5,703.8z M597.3,746.6l0.5,3.5l-1.1,2l-0.7-3.3L597.3,746.6z M596.2,755.3l0.7,3.7l-1.9,3.8l-0.6-4.2L596.2,755.3z
	 M595.4,773.3l0.8,5.6l-2.7,6.7l-0.6-6.6L595.4,773.3z M596.6,781l1,6.5l-3,8.4l-0.8-8L596.6,781z M597.9,789.8l1.2,7.9l-3.3,10.7
	l-0.9-10L597.9,789.8z M598.6,787.7l2.6-7.1l1.2,6.1l-2.6,8.6L598.6,787.7z M602.9,789l0.4,1.9l0.9,6.5l-2.6,10l-1.4-9.6L602.9,789z
	 M603.9,747.7l0.5-1l0.9,2.5l-0.9,2L603.9,747.7z M605.8,750.8l0.9,2.7l-1.5,3.7l-0.6-3.9L605.8,750.8z M607.2,755l1,2.9l-1.6,4.3
	l-1-3.4L607.2,755z M608.8,759.5l1.1,3.1l-1.6,5.1l-1.1-3.7L608.8,759.5z M610.5,764.4l1.2,3.5l-1.5,6l-1.3-4.2L610.5,764.4z
	 M611,762.6l1.4-4.5l1,2.7l-1.3,5.1L611,762.6z M613,756.4l1.2-4l0.9,2.1l-1.1,4.5L613,756.4z M615.8,756.1l0.9,1.9l-0.3,2l-0.7,3.4
	l-1.1-2.7L615.8,756.1z M617.2,801.7l5.4,18.3l-5.6,0.8l-1.6-6.4L617.2,801.7z M617.6,799.1l1.4-10.1l6.1,17.7l-0.1,13.1l-1.1,0.2
	L617.6,799.1z M619.3,786.5l1.1-8.2l4.8,12.4l-0.1,12.7L619.3,786.5z M620.7,776.1l0.9-6.9l3.8,8.6l-0.1,9.9L620.7,776.1z
	 M621.9,767.1l0.8-5.8l2.8,5.8l-0.1,8L621.9,767.1z M622.9,759.3l0.7-5l2,3.7l-0.1,6.6L622.9,759.3z M623.8,752.4l0.6-4.4l1.2,2.1
	l-0.1,5.6L623.8,752.4z M624.7,746.1l0.5-3.9l0.5,0.9l-0.1,4.8L624.7,746.1z M625.4,740.4l0.3-2.6l0,3.1L625.4,740.4z M625.7,690.3
	l-7.3,10.8l-0.6-0.7l8-11.4L625.7,690.3z M618.6,703l0.6,0.7l-0.8,1.3l-0.6-0.7L618.6,703z M618.5,706.9l0.5,0.7l-0.8,1.3l-0.6-0.7
	L618.5,706.9z M616.9,707.2l-0.6-0.8l0.8-1.2l0.6,0.7L616.9,707.2z M615.6,705.5l-0.7-0.9l0.8-1.1l0.7,0.8L615.6,705.5z
	 M614.1,703.7l-0.7-0.9l0.8-1.1l0.7,0.9L614.1,703.7z M613.5,704.7l-0.8,1.1l-0.7-1l0.8-1.1L613.5,704.7z M612,706.8l-0.8,1.2
	l-0.8-1.1l0.8-1.1L612,706.8z M609.7,705.9l-0.8-1.1l0.8-1l0.8,1.1L609.7,705.9z M609,706.8l-0.8,1.1l-0.8-1.2l0.8-1L609,706.8z
	 M606.7,705.7l-0.8-1.2l0.7-0.9l0.8,1.2L606.7,705.7z M605.3,703.4l-0.8-1.3l0.7-0.8l0.9,1.2L605.3,703.4z M595.6,685.8l-0.2-1.2
	l10.5,14.1l-0.7,0.8L595.6,685.8z M604.4,700.3l-0.7,0.8l-7.7-11.6l-0.2-1.3L604.4,700.3z M596.4,741.8l0.5,1.9l0.1,1.1l-1.4,2.3
	l-0.6-3.1L596.4,741.8z M595.2,750.2l0.7,3.4l-1.8,3.2l-0.6-3.8L595.2,750.2z M594.2,764.5l-2.2,4.4l-0.5-5l2.1-3.8L594.2,764.5z
	 M591.3,762l-0.4-4.4l1.8-3.1l0.6,3.9L591.3,762z M590.7,755.6l-0.4-4l1.6-2.5l0.5,3.6L590.7,755.6z M590.1,749.8l-0.4-3.7l1.4-2.1
	l0.5,3.4L590.1,749.8z M589.6,744.3l-0.3-3.4l1.2-1.7l0.5,3.1L589.6,744.3z M589.3,753.1l0.4,4.1l-2,3.3l-0.2-4.6L589.3,753.1z
	 M587.5,754l-0.2-4.2l1.5-2.3l0.4,3.8L587.5,754z M587.5,780.2l0.3,7.1l-3.6,8l0.1-8.6L587.5,780.2z M587.9,789.8l0.4,8.6l-4.3,10.4
	l0.1-10.7L587.9,789.8z M588.4,801l0.5,10.6l-5,13.9l0.2-13.8L588.4,801z M589,814.5l0.4,10.3c-0.8,0.1-1.6,0.2-2.4,0.4
	c-0.7,0.1-1.3,0.2-2,0.3L589,814.5z M589.4,798.6l3.5-8.5l0.8,8.2l-3.8,10.6L589.4,798.6z M593.9,800.9l1,10.3l-4.2,13.5
	c-0.1,0-0.1,0-0.2,0c0,0,0,0,0,0l-0.5-12.8L593.9,800.9z M595.1,814l0.9,9.8l-4.2,0.6L595.1,814z M596,811.3l3.4-11.1l1.5,9.9
	l-3.5,13.5c-0.1,0-0.2,0-0.2,0L596,811.3z M601.3,812.9l1.5,9.9l-4.2,0.6L601.3,812.9z M601.9,810.2l2.5-9.9l1.5,11.5l-2.2,10.9
	l-0.1,0L601.9,810.2z M606.5,815.1l0.9,7.1c-0.8,0.1-1.6,0.2-2.4,0.4L606.5,815.1z M607.1,771.6l-0.7-5.4l0.2-0.6l1.1,3.9
	L607.1,771.6z M608.3,771.5l1.3,4.4l-1.3,5l-0.9-6.7L608.3,771.5z M610.2,778l1.5,5.2L610,792l-0.4-1.5l-0.9-6.7L610.2,778z
	 M612.4,785.4l0.4,1.3l-1.4,10.8l-0.8-3.1L612.4,785.4z M612.2,780.9l-1.5-5l1.6-6.2l1.3,3.9L612.2,780.9z M614.1,776.8l-1,7.3
	l-0.3-1L614.1,776.8z M614.1,771.5l-1.3-3.7l1.3-5.3l1.1,2.9L614.1,771.5z M615.1,817.4l0.9,3.5l-1.4,0.2L615.1,817.4z M631.3,752
	l0.6,6.7l-2.4-4.1l-0.2-5.8L631.3,752z M629.2,746.5l-0.2-5l1.5,2.3l0.5,5.6L629.2,746.5z M721.9,805.9l-3.3-4.7l2.9-3.5l3.4,4.5
	L721.9,805.9z M725.7,803.2l3.5,4.7l-0.3,0.4l-4.5,0.4l-0.5,0l-1.2-1.8L725.7,803.2z M722.6,808.9l-1.5,0.1l0.8-1.1L722.6,808.9z
	 M721.2,806.8l-1.8,2.4l-2.2,0.2l-2.4-3.6l3-3.7L721.2,806.8z M715.9,809.5l-3.6,0.3l-0.4-0.4l2.2-2.7L715.9,809.5z M714.1,804.7
	l-3.1-4.7l3-3.5l3.2,4.5L714.1,804.7z M713.3,805.6l-2.3,2.8l-3.7-4.2l2.8-3.3L713.3,805.6z M710.3,809.3l-0.2,0.2l-0.9-1.5
	L710.3,809.3z M699.9,803.9L688.5,784l16.1,18.7l0.9,1.5l-2.7,3.2L699.9,803.9z M702.5,810.7l-0.8,0.1l0.5-0.6L702.5,810.7z
	 M654.3,809.9l-1.3-9.4l3.3,13.2L654.3,809.9z M656.1,815.8l-1,0.1l-0.4-2.8L656.1,815.8z M631.7,804.2l-0.6-13.2l5,11.3l1.5,15.7
	l-0.5,0.1L631.7,804.2z M636,818.3l-3.7,0.5l-0.5-11.1L636,818.3z M637.5,805.5l5.2,11.9l-4,0.5L637.5,805.5z M637.2,802l-1.3-13.3
	l5.6,11.5l2.5,17.1l-0.1,0L637.2,802z M649.8,743.1L647,736l4.2,4.8l3.7,8.5L649.8,743.1z M656.6,753.2l4.7,10.7l-6.7-8.6l-3.4-8.7
	L656.6,753.2z M645.8,732.8l-2.8-7l-0.7-5.2l7.3,16.7L645.8,732.8z M644.8,733.5l2.7,6.9l-3.1-3.8l-0.6-4.3L644.8,733.5z
	 M648.9,743.8l3.3,8.5l-4.8-6.1l-2.5-7.1L648.9,743.8z M646.5,746.8l2.9,8.4l-3-4l-0.7-5.4L646.5,746.8z M648.6,749.5l5.1,6.5
	l4.2,10.6l-6.3-8.4L648.6,749.5z M659.4,770.7l5.4,13.7l-8.3-11.8l-3.7-10.9L659.4,770.7z M656.1,759l7.1,9.1l6.1,13.9l-8.9-11.9
	L656.1,759z M659.2,756.3l7.5,9.1l6.8,14l-9.4-12L659.2,756.3z M657.5,752.5l-3.9-8.8l5.7,6.6l5.2,10.8L657.5,752.5z M652.1,740.1
	l-10.3-23.5l-0.5-3.6l16.2,33.4L652.1,740.1z M642.5,770.2l0.4,3l-0.7-3.5L642.5,770.2z M643.3,780.9l1.9,9.9l0.4,2.9l-5.6-10.7
	l-1.5-10.5L643.3,780.9z M646.1,796.8l1.9,14.4l-5.5-11.4l-2-13.5L646.1,796.8z M647.2,757l-0.4-3.4l3.9,5.2l3.6,10.6l-5.9-8.4
	L647.2,757z M655.6,773.3l4.7,13.6l-7.7-11.6l-3.2-10.8L655.6,773.3z M661.8,791.2l6.3,18.3l-10.2-16.6l-4.1-13.9L661.8,791.2z
	 M657.9,776.5l8.6,12.3l7.3,18.5l-11.1-16.8L657.9,776.5z M661.9,774l9.3,12.5l8.2,18.7l-11.9-17L661.9,774z M665.9,771.6l9.9,12.6
	l9.1,18.9L672.2,786L665.9,771.6z M669.7,769.1l10.6,12.8l10,19l-13.6-17.4L669.7,769.1z M673.4,766.6l11.2,13l11,19.2l-14.5-17.6
	L673.4,766.6z M677.6,776.9l-10-12.2l-5.4-11.2l8,9.2L677.6,776.9z M660.3,749.6l-19.5-40.2l-0.4-2.8l27.3,51.7L660.3,749.6z
	 M641.2,759.9l1,7.5l-0.5-0.9l-1.7-8.5L641.2,759.9z M642.6,777.4l-4.6-8l-1.2-8.4l3.8,6.2L642.6,777.4z M637,769.8l1.5,10.2
	l-4.2-7.9l-0.8-8.4L637,769.8z M639,783.4l1.9,13.1l-5.3-11l-1-10.4L639,783.4z M643,803.4l5.5,11.3l0.3,2l-3.7,0.5L643,803.4z
	 M648.1,764l2.4,8.1l-1.6-2.5L648.1,764z M651.6,775.8l4,13.5l-5.3-8.5l-1.2-8.6L651.6,775.8z M656.9,793.5l5.4,18.1l-9.4-16.4
	l-1.1-4.6l-0.9-7L656.9,793.5z M653.8,799.2l9.1,15.8l-5,0.6L653.8,799.2z M659.1,797.1l10.6,17.2l-5.3,0.6l0,0L659.1,797.1z
	 M664.2,794.9l11.6,17.5l0.4,1.1l-5.3,0.6l-0.2-0.3L664.2,794.9z M669.3,792.7l12.5,17.8l1,2.2c-0.7,0.1-1.3,0.1-2,0.2
	c-1,0.1-2,0.2-3,0.3l-1-1.5L669.3,792.7z M682.7,809.9l-8.5-19.3l13.4,18l1.7,3.5l-4.7,0.5L682.7,809.9z M688.5,807.9l-9.4-19.5
	l14.3,18.2l2.5,4.8c-0.7,0.1-1.4,0.1-2.1,0.2c-0.8,0.1-1.6,0.2-2.3,0.2L688.5,807.9z M694.2,805.9l-10.4-19.7l15.2,18.5l2.5,4.3
	l-1.7,2c-0.5,0-1,0.1-1.5,0.1L694.2,805.9z M703.7,808.5l2.6-3.1l2.9,4.7l-3.9,0.4L703.7,808.5z M703.9,810.6l-0.2,0l-0.4-0.8
	L703.9,810.6z M706.5,803.1l-1.1-1.2l-66.7-108.2l-0.2-1.5l70.9,107.5L706.5,803.1z M700.8,796.5l-15.3-17.7l-46.2-80.6l-0.2-1.8
	L700.8,796.5z M681.6,774.3L671,762l-31-58.7l-0.3-2.2L681.6,774.3z M639.9,751l0.9,6.4l-1.4-2.2l-1.4-7L639.9,751z M638.4,755.7
	l1.6,8.2l-3.6-5.9l-1-6.9L638.4,755.7z M636.6,766.8l-3.3-5.8l-0.7-6.9l2.8,4.5L636.6,766.8z M632.4,751.6l-0.6-5.8l2.1,3.3l1,6.7
	L632.4,751.6z M631.6,743.3l-0.5-5l1.6,2.3l0.8,5.7L631.6,743.3z M632.2,761.5l0.8,8.2l-3-5.7l-0.3-6.9L632.2,761.5z M633.3,772.5
	l1,10.1l-3.8-7.8l-0.4-8.3L633.3,772.5z M634.5,785.8l1.2,13L631,788l-0.4-10.3L634.5,785.8z M630.6,804.5l0.6,14.4l-0.8,0.1
	l-4.3-12.6l0.1-13L630.6,804.5z M629.3,819.1l-3.4,0.5l0.1-9.9L629.3,819.1z M655.7,832.3c62.2-6.9,123.4-11.3,182-13.1L849,881
	c-6.7,0.6-13,1.3-18.8,2.2c-36.7,5.4-62,14.7-100.9,4.7c-33.5-8.6-50.8,0.3-85.4,7.9L655.7,832.3z M913.7,778.5l-0.7-15.8l5.9,13.6
	l2,20.7L913.7,778.5z M920.9,800.3c-2.1,0-4.2,0-6.3,0l-0.8-18L920.9,800.3z M888.7,766.9l2.2-10.9l0.5,1.9l-1.7,13L888.7,766.9z
	 M889.2,774.3l-0.1,0.6l-0.3-2L889.2,774.3z M865,732.7l0.6,6.1l-3.1,6.2l-0.3-7.1L865,732.7z M862,735.4l-0.3-6.3l2.5-4.2l0.5,5.5
	L862,735.4z M865.8,741.2l0.7,7l-3.6,7.8l-0.4-8.3L865.8,741.2z M882.9,724.6l1.9-4.6l1.2,3.5l-1.9,5.2L882.9,724.6z M883.4,730.7
	l-0.1,0.2l-0.1-0.9L883.4,730.7z M901.1,666.7l0.5,0.6l-0.9,1.9l-0.5-0.7L901.1,666.7z M900.3,663.7l1-1.7l0.5,0.6l-0.9,1.7
	L900.3,663.7z M897.6,670.4l-0.7-0.9l1-1.7l0.6,0.8L897.6,670.4z M899.4,669.7l0.5,0.7l-1,1.9l-0.6-0.8L899.4,669.7z M875.3,664.6
	l1,1.9l-0.9,1.1l-0.9-1.8l0-0.2L875.3,664.6z M874.3,663.8l-0.2-1.4l0.5,1L874.3,663.8z M881.9,677.2l1,1.8l-1.1,1.7l-0.9-2
	L881.9,677.2z M880.2,677.4l-0.9-1.9l1-1.4l1,1.8L880.2,677.4z M890.9,691.3l1.2-2.5l0.8,1.4l-1.2,2.6L890.9,691.3z M891.1,694.4
	l-1.3,2.8l-0.9-1.9l1.3-2.6L891.1,694.4z M892.8,687.5l1.2-2.3l0.8,1.2l-1.1,2.5L892.8,687.5z M893.9,682.6l-0.8-1.3l1.1-2l0.7,1.1
	L893.9,682.6z M893.2,683.9l-1.1,2.3l-0.8-1.4l1.2-2.1L893.2,683.9z M891.3,687.6l-1.2,2.4l-0.9-1.7l1.2-2.2L891.3,687.6z
	 M889.4,691.3l-1.3,2.5l-0.9-1.9l1.3-2.3L889.4,691.3z M886.6,690.6l-0.9-1.9l1.3-2.1l0.9,1.8L886.6,690.6z M885,687.3l-0.9-1.9
	l1.2-1.9l1,1.8L885,687.3z M883.4,684l-0.9-1.9l1.2-1.7l1,1.8L883.4,684z M882.6,685.2l-1.2,1.9l-0.9-2.1l1.2-1.8L882.6,685.2z
	 M883.2,686.6l1,2l-1.3,2.2l-0.9-2.1L883.2,686.6z M884.9,690l1,2l-1.3,2.4l-1-2.2L884.9,690z M886.5,693.3l1,2l-1.4,2.7l-1-2.2
	L886.5,693.3z M888.1,696.8l0.9,2l-1.4,3l-1-2.2L888.1,696.8z M889.8,700.2l0.9,2l-1.4,3.3l-1-2.2L889.8,700.2z M891.5,703.7l0.9,2
	l-1.4,3.8l-1-2.3L891.5,703.7z M891.4,700.6l-0.9-1.9l1.3-2.9l0.9,1.6L891.4,700.6z M892.5,694.4l1.2-2.7l0.8,1.4l-1.2,2.9
	L892.5,694.4z M894.4,690.2l1.2-2.5l0.7,1.1l-1.1,2.7L894.4,690.2z M895.4,685l-0.7-1.2l1.1-2.2l0.7,1L895.4,685z M895.6,679.1
	l-0.7-1.1l1.1-2l0.7,1L895.6,679.1z M895.9,673.5l-0.7-1l1.1-1.8l0.7,0.9L895.9,673.5z M895.2,674.8l-1.1,1.9l-0.8-1.2l1.1-1.8
	L895.2,674.8z M893.4,678l-1.1,2l-0.8-1.3l1.1-1.9L893.4,678z M891.6,681.3l-1.1,2.1l-0.9-1.5l1.2-2L891.6,681.3z M889.7,684.8
	l-1.2,2.2l-0.9-1.7l1.2-2L889.7,684.8z M886.9,683.9l-0.9-1.7l1.2-1.9l0.9,1.6L886.9,683.9z M885.3,680.8l-0.9-1.8l1.1-1.7l0.9,1.7
	L885.3,680.8z M883.7,677.8l-1-1.8l1.1-1.5l1,1.7L883.7,677.8z M882.1,674.7l-0.9-1.8l1-1.4l1,1.7L882.1,674.7z M880.4,671.6l-1-1.8
	l1-1.2l1,1.7L880.4,671.6z M879.6,672.8l-1,1.3l-1-2l1-1.2L879.6,672.8z M876.8,673.3l1,2l-1,1.4l-0.9-2.1L876.8,673.3z
	 M875.5,672.8l-0.4-2.8l0.1-0.1l1,2L875.5,672.8z M877,670.8l-1-2l0.9-1.1l1,1.9L877,670.8z M874.8,723.2l0.7,5.1l-0.7,1.5l-0.9-4.8
	L874.8,723.2z M875.8,730.7l0.8,5.9l-0.3,0.8l-1.1-5.3L875.8,730.7z M876.4,679.3l0.1-0.1l0.9,2.1l-0.6,0.9L876.4,679.3z M877.3,678
	l1.1-1.4l1,2l-1.1,1.5L877.3,678z M880,679.9l1,2l-1.2,1.7l-0.9-2.1L880,679.9z M880.5,688.5l-1.3,2l-0.9-2.3l1.2-1.8L880.5,688.5z
	 M881.1,689.9l1,2.2l-1.3,2.3l-0.9-2.4L881.1,689.9z M882.7,693.5l1,2.2l-1.4,2.6l-1-2.4L882.7,693.5z M884.4,697.2l1,2.2l-1.4,2.9
	l-1-2.5L884.4,697.2z M886,701l1,2.3l-1.5,3.2l-1-2.6L886,701z M887.7,704.8l1,2.3l-1.5,3.7l-1-2.6L887.7,704.8z M889.4,708.7l1,2.4
	l-1.5,4.1l-1.1-2.8L889.4,708.7z M891.2,712.8l1.1,2.4l-1.5,4.7l-1.1-2.9L891.2,712.8z M891.8,711l1.4-3.8l0.9,1.9l-1.3,4.2
	L891.8,711z M893,703.9l-0.9-1.9l1.3-3.2l0.8,1.6L893,703.9z M894.1,697.4l1.2-3l0.7,1.3l-1.1,3.2L894.1,697.4z M895.9,692.9
	l1.1-2.8l0.6,1l-1.1,3L895.9,692.9z M896.8,687.3l-0.6-1l1.1-2.4l0.6,0.9L896.8,687.3z M897.1,681.3l-0.6-1l1.1-2.1l0.6,0.9
	L897.1,681.3z M897.3,675.7l-0.6-0.9l1-1.9l0.6,0.8L897.3,675.7z M896.1,668.4l-0.7-1l1-1.6l0.7,0.9L896.1,668.4z M895.4,669.6
	l-1,1.7l-0.8-1.1l1-1.7L895.4,669.6z M893.6,672.6l-1.1,1.8l-0.8-1.3l1.1-1.7L893.6,672.6z M891.8,675.6l-1.1,1.8l-0.9-1.4l1.1-1.7
	L891.8,675.6z M890,678.7l-1.1,1.9l-0.9-1.6l1.1-1.8L890,678.7z M887.2,677.8l-0.9-1.6l1.1-1.6l0.9,1.5L887.2,677.8z M885.6,674.9
	l-0.9-1.6l1.1-1.5l1,1.5L885.6,674.9z M883.9,672.1l-1-1.7l1-1.4l1,1.6L883.9,672.1z M882.3,669.2l-1-1.7l1-1.2l1,1.6L882.3,669.2z
	 M880.6,666.2l-1-1.7l0.9-1.1l1,1.6L880.6,666.2z M879.7,667.3l-0.9,1.2l-1-1.8l0.9-1.1L879.7,667.3z M877.2,665.4l-1-1.8l0.8-1
	l1,1.8L877.2,665.4z M875.5,662.3l-1.9-3.6l-0.4-2.7l3.1,5.4L875.5,662.3z M874.5,721l-1,2.1l-0.9-4.4l1.3-2.3L874.5,721z
	 M873,726.9l1,4.9l-2.5,5.6l-0.8-5.7L873,726.9z M874.4,733.9l1.1,5.5l-2.8,6.7l-1-6.5L874.4,733.9z M875.9,741.7l1.2,6.3l-3,8.2
	l-1.1-7.6L875.9,741.7z M876.8,739.6l0.2-0.5l0.6,4.6L876.8,739.6z M877.1,685.1l-0.1-1l1-1.4l0.9,2.2l-1.2,1.8L877.1,685.1z
	 M878.4,691.8l-0.3,0.5l-0.3-2L878.4,691.8z M879,693.3l1,2.4l-1.1,1.9l-0.5-3.4L879,693.3z M880.5,697.3l1,2.5l-1.5,2.7l-0.9-2.7
	l0-0.1L880.5,697.3z M880.8,708.5l-0.4,0.8l-0.4-3.3L880.8,708.5z M880.6,704.1l1.5-2.8l1,2.6l-1.6,3.1L880.6,704.1z M883.8,705.5
	l1,2.6l-1.6,3.5l-1-3L883.8,705.5z M885.4,709.7l1.1,2.7l-1.6,4l-1.1-3.1L885.4,709.7z M887.2,714.2l1.1,2.9l-1.7,4.6l-1.2-3.4
	L887.2,714.2z M889,718.8l1.2,3l-1.6,5.3l-1.2-3.6L889,718.8z M890.9,723.7l1.3,3.2l-1.6,6.2l-1.4-4L890.9,723.7z M891.5,721.8
	l1.5-4.8l1.1,2.5l-1.4,5.4L891.5,721.8z M893.6,715.1l1.3-4.3l0.9,1.9l-1.2,4.8L893.6,715.1z M894.7,707.3l-0.9-1.8l1.3-3.5l0.8,1.5
	L894.7,707.3z M895.6,700.4l1.2-3.2l0.7,1.1l-1.1,3.5L895.6,700.4z M897.4,695.5l1.1-3l0.5,0.8l-1,3.2L897.4,695.5z M898.2,689.6
	l-0.6-0.9l1.1-2.6l0.5,0.8L898.2,689.6z M898.4,683.3l-0.6-0.8l1-2.3l0.5,0.7L898.4,683.3z M898.7,677.6l-0.6-0.8l1-2l0.5,0.7
	L898.7,677.6z M900.6,676.7l0.4,0.5l-0.9,2.3l-0.5-0.7L900.6,676.7z M900.3,674.1l-0.5-0.6l1-2l0.4,0.6L900.3,674.1z M899.2,667.4
	l-0.6-0.8l1-1.7l0.6,0.7L899.2,667.4z M897.8,665.5l-0.7-0.9l1-1.6l0.7,0.8L897.8,665.5z M896.2,663.5l-0.8-1l1-1.5l0.8,0.9
	L896.2,663.5z M895.5,664.7l-1,1.6l-0.8-1.1l1-1.5L895.5,664.7z M893.7,667.5l-1,1.6l-0.8-1.2l1-1.5L893.7,667.5z M892,670.3
	l-1.1,1.7l-0.9-1.3l1.1-1.6L892,670.3z M890.2,673.1l-1.1,1.7l-0.9-1.5l1.1-1.6L890.2,673.1z M887.4,672.2l-0.9-1.5l1-1.5l0.9,1.4
	L887.4,672.2z M885.8,669.5l-1-1.5l1-1.4l1,1.5L885.8,669.5z M884.1,666.7l-1-1.6l1-1.2l1,1.5L884.1,666.7z M882.4,663.9l-1-1.6
	l0.9-1.1l1,1.5L882.4,663.9z M880.6,661.1l-1-1.6l0.9-1l1,1.6L880.6,661.1z M879.8,662.2l-0.9,1.1l-1-1.7l0.9-1L879.8,662.2z
	 M877.2,660.3l-4.4-7.7l-0.3-2.3l5.5,9L877.2,660.3z M873,710l0.6,4.2l-1.4,2.5l-0.8-4L873,710z M871.7,720.4l0.9,4.5l-2.3,4.6
	l-0.7-5.1L871.7,720.4z M869.6,733.6l0.9,5.8l-3,6.5l-0.7-6.8L869.6,733.6z M870.8,741.7l1,6.7l-3.3,8l-0.8-8L870.8,741.7z
	 M872.1,750.8l1.1,7.8l-3.6,10.1l-0.9-9.6L872.1,750.8z M873.7,761.3l1.4,9.4l-4,12.9l-1.1-11.9L873.7,761.3z M874.5,758.8l3.1-8.5
	l1.5,7.4l-3.2,10.2L874.5,758.8z M879.6,760.3l0.7,3.4l0.9,6.5l-3.1,12.2l-1.7-11.5L879.6,760.3z M880.7,711.6l0.7-1.4l1.1,3.1
	l-1.2,2.6L880.7,711.6z M883,715l1.1,3.2l-1.8,4.5l-0.2-0.7l-0.5-3.8L883,715z M884,732.7l1.4,4.7l-0.8,2.7l-0.9-6.5L884,732.7z
	 M884.7,730.8l1.9-5.3l1.3,3.8l-1.9,6.1L884.7,730.8z M888.6,731.2l1.4,4.2l-1.9,7.2l-1.5-5.1L888.6,731.2z M890.8,737.5l1.6,4.7
	l-1.7,8.7l-1.8-6L890.8,737.5z M891.3,735.3l1.6-6.3l1.4,3.6l-1.5,7.3L891.3,735.3z M893.5,726.8l1.4-5.5l1.1,2.5l-0.2,1.1l-1.1,5.3
	L893.5,726.8z M895.4,719.3l1.3-4.9l0.5,1l-0.8,6L895.4,719.3z M896.3,710.7l-0.9-1.8l1.2-3.9l0.7,1.4L896.3,710.7z M897.9,709.6
	l-0.5,3.5l-0.3-0.6L897.9,709.6z M897.9,704.6l-0.7-1.3l1.1-3.6l0.6,1L897.9,704.6z M898.8,698.1l1-3.3l0,0l-0.6,4.1L898.8,698.1z
	 M899.5,691.7L899,691l1-2.8l0.4,0.6L899.5,691.7z M899.7,685.3l-0.5-0.7l1-2.5l0.4,0.5L899.7,685.3z M901.2,684.9l-0.3,2.2
	l-0.3-0.5L901.2,684.9z M900.9,680.7l1-2.3l0.2,0.3l-0.1,0.4l-0.8,2.1L900.9,680.7z M901.6,675.8l-0.4-0.5l1-2.1l0.3,0.4
	L901.6,675.8z M901.9,670.7l-0.4-0.5l1-1.9l0.3,0.4L901.9,670.7z M903,671.3l-0.1,0.8l-0.2-0.2L903,671.3z M902.2,666l-0.4-0.5
	l1-1.7l0.4,0.5L902.2,666z M903.8,665.6l-0.2,1.3l-0.2,0.5l-0.3-0.4L903.8,665.6z M903.8,662.9l-0.4-0.4l1.1-2l-0.2,1.3L903.8,662.9
	z M902.5,661.4l-0.5-0.6l3.1-5.3l-0.2,1.4L902.5,661.4z M901.1,659.8l-0.6-0.7l5.3-8.4l-0.2,1.5L901.1,659.8z M899.6,658.1l-0.7-0.8
	l7.4-11.1l-0.2,1.5L899.6,658.1z M899.8,660.3l0.6,0.7l-1,1.6l-0.7-0.8L899.8,660.3z M897.9,660.8l-0.7-0.9l1-1.5l0.7,0.8
	L897.9,660.8z M896.4,658.9l-0.8-1l1-1.4l0.8,0.9L896.4,658.9z M895.6,660l-1,1.5l-0.8-1.1l1-1.4L895.6,660z M893.9,662.6l-1,1.5
	l-0.9-1.2l1-1.4L893.9,662.6z M892.1,665.2l-1,1.5l-0.9-1.3l1-1.4L892.1,665.2z M890.3,667.9l-1,1.5l-0.9-1.4l1-1.5L890.3,667.9z
	 M887.6,666.9l-0.9-1.4l1-1.3l0.9,1.3L887.6,666.9z M885.9,664.3l-1-1.5l1-1.2l1,1.4L885.9,664.3z M884.1,661.7l-1-1.5l0.9-1.1
	l1,1.5L884.1,661.7z M882.4,659l-1-1.5l0.9-1l1,1.5L882.4,659z M880.6,656.3l-9.2-13.9l-0.2-1.7l10.3,14.7L880.6,656.3z
	 M879.7,657.3l-0.8,1l-6.8-11.1l-0.3-1.9L879.7,657.3z M872,704.4l0.7,3l0.1,0.5l-1.7,2.9l-0.7-3.8L872,704.4z M870.5,714.3l0.8,4.1
	l-2.1,3.9l-0.7-4.6L870.5,714.3z M869.3,731.4l-2.7,5.3l-0.6-6l2.5-4.6L869.3,731.4z M866.7,750.7l0.8,8.2l-4,9.8l-0.4-10
	L866.7,750.7z M863.1,790.5l0.4,10.5l-4.3,0.1L863.1,790.5z M863.6,771.7l4.2-10.2l0.9,9.9l-4.6,12.7L863.6,771.7z M868.9,774.4
	l1.2,12.3l-4.4,14.3l-0.9,0l-0.6-13.5L868.9,774.4z M870.4,789.9l1,10.9l-4.4,0.1L870.4,789.9z M871.4,786.8l4.1-13.3l1.7,11.8
	l-3.9,15.3l-0.6,0L871.4,786.8z M877.7,788.6l1.8,12.1l-4.9,0.1L877.7,788.6z M878.5,785.5l3.1-12.1l1.8,13.7l-2.7,13.5L878.5,785.5
	z M883.9,791l1.3,9.6l-3.2,0.1L883.9,791z M884.9,743.1l1.1-3.5l1.6,5.4l-1.6,6.2L884.9,743.1z M888.3,747.2l1.9,6.3l-2.1,10.6
	l-0.6-2.5l-1-7.2L888.3,747.2z M891.4,753.5l1.8-8.9l0,0.1l-1.4,10.3L891.4,753.5z M894.1,793.8l1.6,6.7l-2.5,0L894.1,793.8z
	 M894.5,790.4l2-15.2l7.5,25.2l-7,0.1L894.5,790.4z M896.9,772.2l1.6-12.1l7.3,21.2l-0.2,19h-0.4L896.9,772.2z M898.9,757.3l1.3-9.8
	l5.8,14.9l-0.2,15.2L898.9,757.3z M900.6,745l1.1-8.2l4.6,10.4l-0.1,11.9L900.6,745z M902,734.3l0.9-7l3.5,7.1l-0.1,9.6L902,734.3z
	 M903.3,725.1l0.8-6l2.5,4.6l-0.1,8L903.3,725.1z M904.4,716.8l0.7-5.3l1.5,2.7l-0.1,6.8L904.4,716.8z M905.4,709.4l0.6-4.7l0.7,1.2
	l-0.1,5.8L905.4,709.4z M906.3,702.7l0.5-4l-0.1,4.8L906.3,702.7z M906.8,643.3l-8.7,13l-0.8-0.9l9.7-13.7L906.8,643.3z
	 M907.1,784.8l5.3,15.5c-0.9,0-1.9,0-2.8,0c-0.9,0-1.8,0-2.7,0L907.1,784.8z M907.1,781.1l0.2-15.6l5.2,13.3l0.9,20.4L907.1,781.1z
	 M918.3,756.2l-1.2-12.5l5.3,10l2.3,15.7L918.3,756.2z M918.6,772.2l-5.7-13l-0.5-12.4l4.8,9.8L918.6,772.2z M921.7,740.6l5.8,10.2
	l2.5,12.8l0.3,2.6l-6.9-13L921.7,740.6z M934.2,706.9l4,10.2l-5.8-7.4l-3-8.6L934.2,706.9z M928.8,698.2l-0.7-5.2l1.3,1.5l3.3,8.4
	L928.8,698.2z M939.9,721.3l5,12.8l-7.6-10.2l-3.6-10.4L939.9,721.3z M936.8,710l6.5,7.9l5.6,12.9l-8.1-10.3L936.8,710z
	 M939.7,706.5l6.9,8l6.3,13l-8.6-10.4L939.7,706.5z M941.4,713.5l-6.1-7.5l-3.4-8.6l5,5.8L941.4,713.5z M930.4,693.7l-3.4-8.7
	l-0.8-6.3l8.9,20.3L930.4,693.7z M927.4,743.7l-1.2-6.1l0.5,0.8L927.4,743.7z M930.2,709l1.1,1.4l3.5,10.1l-3.7-5L930.2,709z
	 M936.2,724.6l4.4,12.7l-7.1-10.1L932,722l-0.5-3.8L936.2,724.6z M938.7,727.9l8,10.8l6.4,16.5l-9.9-14.2L938.7,727.9z M942.6,724.8
	l8.5,10.8l7.3,16.6l-10.6-14.3L942.6,724.8z M946.3,721.5l9,10.9l8.1,16.8l-11.3-14.5L946.3,721.5z M949.8,718.2l9.6,11.1l9,16.9
	l-12-14.6L949.8,718.2z M947.6,713.6l-23.2-47.9l-0.5-3.4l32.7,61.8L947.6,713.6z M944.4,709.9l-6.5-7.5l-12.3-28.1l-0.6-4.5
	L944.4,709.9z M925.1,726.1l1.2,9.1l-0.8-1.3l-2-10.2L925.1,726.1z M926.8,746.9l-5.6-9.7l-1.5-10.1l4.6,7.5L926.8,746.9z
	 M920.1,737.7l1.8,12.3l-5-9.5l-1-10.1L920.1,737.7z M916.8,753l-4.5-9.4l-0.4-10l3.8,7.2L916.8,753z M911.7,730.7l-0.4-8.3l3,5.3
	l0.9,9.8L911.7,730.7z M912.3,775l-5-12.8l0.1-12.2l4.2,9.6L912.3,775z M920.6,779.9l8.5,19.5l0.1,1l-0.6,0c-2,0-4.1,0-6.1,0
	L920.6,779.9z M920.2,775.8l-1.5-16l6.7,13.8l3.1,20.9L920.2,775.8z M924.2,757l6.8,12.8l2.3,17.2l-6.7-13.9L924.2,757z M933,730
	l3.1,10.5l-2.1-3.2L933,730z M934.7,731.1l7.4,10.6l5.6,16.4l-9.2-14L934.7,731.1z M949.4,763L957,785l-12.3-19.9l-4.9-16.7
	L949.4,763z M944.7,745.4l10.4,14.8l8.7,22.2l-13.3-20.2L944.7,745.4z M949.5,742.5l11.1,15l9.8,22.4l-14.3-20.3L949.5,742.5z
	 M954.2,739.6l11.9,15.2l10.9,22.6l-15.3-20.6L954.2,739.6z M958.7,736.6l12.7,15.4l12.1,22.8L967.1,754L958.7,736.6z M963.1,733.7
	l13.4,15.5l13.2,23l-17.3-21L963.1,733.7z M922.7,652.6l-0.3-2.2l73.5,119.2l-18.4-21.3L922.7,652.6z M973.1,743.2l-12.7-14.7
	l-36.9-69.8l-0.4-2.7L973.1,743.2z M923.7,715.4l1,7.7l-1.9-2.8l-1.7-8.4L923.7,715.4z M921.7,720.9l2,9.9l-4.4-7.1l-1.2-8.4
	L921.7,720.9z M918.1,724.4l1.4,9.9l-4-7l-0.8-8.3L918.1,724.4z M914.5,716.1l-0.7-7l2.6,3.9l1.2,8.1L914.5,716.1z M913.6,706.3
	l-0.6-6l2,2.8l1,6.9L913.6,706.3z M913,713.7l-2.2-3.6l-0.3-6l1.8,2.8L913,713.7z M913.3,716.6l0.8,8.1l-2.9-5l-0.3-7L913.3,716.6z
	 M911,744.1l0.5,12l-4-9.2l0.1-9.9L911,744.1z M907.4,638.9l-10.9,15.5l-0.8-1l12-16.1L907.4,638.9z M895.7,655.5l-1,1.3l-0.9-1
	l1-1.3L895.7,655.5z M893.9,658l-1,1.4l-0.9-1.1l1-1.3L893.9,658z M892.2,660.4l-1,1.4l-0.9-1.2l1-1.3L892.2,660.4z M890.4,662.9
	l-1,1.4l-0.9-1.3l1-1.3L890.4,662.9z M887.7,661.9l-1-1.4l1-1.2l1,1.3L887.7,661.9z M885.9,659.4l-1-1.4l0.9-1.1l1,1.4L885.9,659.4z
	 M884.1,656.8l-1-1.5l0.9-1l1,1.4L884.1,656.8z M882.3,654.3l-11.5-16.4l-0.2-1.5l12.6,16.9L882.3,654.3z M870.8,692.9l0.4,3.2
	l-0.7-2.8L870.8,692.9z M870.7,699.5l0.8,3.2l-1.6,2.5l-0.7-3.5L870.7,699.5z M869.4,708.6l0.8,3.8l-1.9,3.2l-0.6-4.2L869.4,708.6z
	 M868.2,724.1l-2.4,4.4l-0.5-5.4l2.2-3.8L868.2,724.1z M865.1,721l-0.5-4.9l1.9-3.1l0.6,4.3L865.1,721z M864.4,714l-0.4-4.5l1.7-2.5
	l0.6,4L864.4,714z M863.8,707.5l-0.4-4.2l1.4-2l0.6,3.8L863.8,707.5z M863.6,717.8l0.5,5l-2.4,4l-0.2-5.6L863.6,717.8z M861.3,719
	l-0.2-5.1l1.8-2.7l0.4,4.6L861.3,719z M861.3,747.3l-3.8,7.5l0.1-8.6l3.3-6.1L861.3,747.3z M861.4,749.9l0.4,8.5l-4.4,9.6l0.1-10.3
	L861.4,749.9z M861.9,761.2l0.4,10.2l-5.1,12.4l0.1-12.8L861.9,761.2z M862.4,774.5l0.5,12.7l-5,13.9l-0.9,0l0.2-13.9L862.4,774.5z
	 M856.9,643.3L749.3,804l-3.8-4.4l111.6-157.9L856.9,643.3z M850,801.4l-6.6,0.2l-0.1,0l12.7-27.7l-0.1,13.1L850,801.4z
	 M855.9,790.4l-0.1,10.8l-4.4,0.1L855.9,790.4z M833.8,801.9l-2,0.1l2.8-13.8l3.9-7.1l-2.1,15.7L833.8,801.9z M835.8,800.7l-0.2,1.1
	l-0.4,0L835.8,800.7z M763.1,805.7l-4.7,0.3c0,0-0.1,0-0.1,0l0,0.2l-0.1-0.2l-0.1,0l7.2-11.4l21.5-25.4L771,795.9L763.1,805.7z
	 M766.6,803.5l-1.2,2.1l-0.5,0L766.6,803.5z M832.7,764.3l-8.4,13.3l5.1-16.5l6.7-9.9L832.7,764.3z M833.8,765l6-9.6l-2.5,12.6
	l-7.6,12.9L833.8,765z M837.2,724l4-5.1l-2.9,9.4l-5.1,6.8L837.2,724z M830.6,738.6l-7.5,10.1l5.7-13.9l5.9-7.6L830.6,738.6z
	 M836.2,723.3l-5.5,7.1l4.7-11.4l4.3-5.3L836.2,723.3z M827.8,734l-8.1,10.4l6.5-14.2l6.4-7.9L827.8,734z M816.3,748.7L804.4,764
	l9.3-18.5l9.3-11.4L816.3,748.7z M817.3,749.6l8.6-11.1l-5.8,14.3l-11,14.8L817.3,749.6z M821.1,753.6l8-10.7l-5,13.8L814,771
	L821.1,753.6z M831.7,739.4l5.4-7.3l-3.4,11l-6.9,9.7L831.7,739.4z M839.4,729l3.6-4.9l-2.3,9.1l-4.6,6.6L839.4,729z M840.5,725.3
	l2.8-9.1l2.5-3.2l-2,7.9L840.5,725.3z M842.3,715.4l-3.6,4.7l3.4-9.4l2.7-3.4L842.3,715.4z M843.4,706.9l2.9-8.1l1.7-2l-2.2,7.1
	L843.4,706.9z M841,709.9l-3.9,4.8l3.9-9.6l3-3.5L841,709.9z M834.3,718.1l-5.9,7.3l5.3-11.6l4.6-5.5L834.3,718.1z M825.2,729.3
	l-8.7,10.7l7.3-14.6l6.9-8.1L825.2,729.3z M812.8,744.6l-12.8,15.8l10.4-18.9l10-11.8L812.8,744.6z M795.5,765.9l-19.1,23.4
	l15.2-25.8l14.6-17.2L795.5,765.9z M796.4,766.8l13.6-16.7l-9.6,19.1l-17.7,22.7L796.4,766.8z M801.4,770l12.6-16.1l-8.5,18.5
	l-16.4,22L801.4,770z M806.5,773.3l11.6-15.6l-7.3,17.9l-15.1,21.3L806.5,773.3z M811.8,776.4l10.7-15.1l-6.3,17.4l-13.8,20.7
	L811.8,776.4z M825.2,757.4l7.3-10.3l-4.2,13.4l-9.3,13.8L825.2,757.4z M830.7,756.9l4.1-13.1l5-7l-2.8,10.8L830.7,756.9z
	 M841.8,733.9l3.3-4.7l-1.8,8.9l-4.2,6.3L841.8,733.9z M842.7,730.4l2.3-8.9l1.8-2.4L846,725l-0.2,1.1L842.7,730.4z M845.8,718.2
	l2-7.7l0.1-0.2l-0.8,6.2L845.8,718.2z M846.7,709.7l-2.2,2.9l2.4-7.9l1.6-1.9L846.7,709.7z M847.9,701.4l2.1-6.7l-0.6,4.4l-0.2,0.7
	L847.9,701.4z M849,693.6l-1.4,1.7l3.7-10.4l-0.3,2.2L849,693.6z M845.3,698.1l-2.7,3.1l9.7-23.7l-0.2,1.5L845.3,698.1z M840,704.3
	l-4.2,5l17.4-38.1l-0.2,1.4L840,704.3z M832.7,712.9l-6.4,7.5l27.6-54.8l-0.2,1.3L832.7,712.9z M822.8,724.6l-9.4,11.1l41.2-75.2
	l-0.2,1.3L822.8,724.6z M809.3,740.5l-13.8,16.2l59.7-101.3l-0.2,1.4L809.3,740.5z M790.7,762.6l-20.4,24.1l85.6-135.9l-0.2,1.5
	L790.7,762.6z M764.3,793.7l-10.7,12.6l-2.1,0.2l-1.3-1.5l106.3-158.8l-0.2,1.5L764.3,793.7z M759.3,801.8l-2.8,4.4l-1,0.1
	L759.3,801.8z M772,796.9l20-24.6l-14.2,25.9l-5.4,6.9l-5.5,0.4L772,796.9z M778.8,799.1l18.6-23.9l-12.7,25.2l-3.1,4.1l-6,0.4
	L778.8,799.1z M785.7,801.2l17.2-23.1l-11.1,24.3l-1.1,1.5l-6.6,0.4L785.7,801.2z M792.7,803.3l15.8-22.3l-9.2,22.5l-6.8,0.4
	L792.7,803.3z M814.3,783.8l-7,19.3l-6.2,0.3L814.3,783.8z M817.2,779.5l9.8-14.6l-5.2,16.9l-12.5,19.9L817.2,779.5z M820.3,786.5
	l-5,16.2l-5.3,0.2L820.3,786.5z M822.8,782.5l8.8-14l-4.2,16.3L817,802.6l-0.4,0L822.8,782.5z M826.3,789.2l-3.4,13.1l-4.5,0.2
	L826.3,789.2z M828.6,785.4l8-13.5l-3.2,15.9l-7.9,14.5l-1.2,0L828.6,785.4z M832.6,791.9l-2,10.1l-3.6,0.1L832.6,791.9z
	 M835.4,784.1l3.1-15.5l2.1-3.6l-1.7,12.6L835.4,784.1z M839.3,764.8l2.5-12.3l0.7-1.1l-1.4,10.4L839.3,764.8z M840.6,751.8
	l-5.7,9.1l3.3-12.7l4.5-6.8L840.6,751.8z M843.4,744l-0.6,4.2l-0.4,0.6L843.4,744z M843.6,798.1l2.3-17.5l10.3-20.5l-0.1,10.6
	L843.6,798.1z M846.5,776.8l1.8-13.6l8.1-14.8l-0.1,8.8L846.5,776.8z M848.7,759.7l1.5-11l6.3-10.6l-0.1,7.6L848.7,759.7z
	 M850.6,745.5l1.2-9.1l4.7-7.5l-0.1,6.6L850.6,745.5z M852.3,733.3l1-7.8l3.4-5l-0.1,5.9L852.3,733.3z M853.7,722.6l0.9-6.8l2.1-3
	l-0.1,5.4L853.7,722.6z M855,713l0.8-6l1-1.4l-0.1,4.9L855,713z M856.2,704.3l0.7-5.5l0,0l-0.1,4.6L856.2,704.3z M750.1,806.6
	l-1,0.1l0.4-0.7L750.1,806.6z M748.7,805l-1.2,1.8l-2.9,0.2l-2.3-2.8l2.6-3.7L748.7,805z M743.1,807.1l-3.2,0.3l1.6-2.2L743.1,807.1
	z M738.3,807.5l-0.6,0l-3.4-4.3l2.7-3.6l3.7,4.5L738.3,807.5z M736.3,807.7l-5.5,0.5l-0.1-0.1l2.8-3.8L736.3,807.7z M889.2,828.1
	l9.7,52.3c-6.3-0.5-12.7-0.7-19.2-0.7L889.2,828.1z M930.9,800.3l-0.7-1.5l-3.1-21.5l6.7,13.8l1.2,9.3L930.9,800.3z M934.4,740.2
	l3,4.6l4.8,16.2l-6.4-10.4L934.4,740.2z M943.6,765.7l6.4,21.7l-11.2-19.6l-1.5-6.2l-1.1-7.9L943.6,765.7z M943,789.9l-2.6-4.9
	l-1.6-12.1L943,789.9z M944.2,794.9l1.4,5.6l-3.1,0l-1.6-11.8L944.2,794.9z M961.9,795.4l3.4,5.4l-1.5,0L961.9,795.4z M960,789.9
	l-7.8-22.6l13.9,21l5,12.7l-4.3-0.1L960,789.9z M969.4,793.3l5.1,7.7l-2.1,0L969.4,793.3z M967.2,787.6l-9-22.9l14.9,21.3l6.7,15.3
	c-1.2,0-2.5-0.1-3.7-0.1L967.2,787.6z M976.8,791.2l7.1,10.1l-0.2,0c-0.8,0-1.7-0.1-2.5-0.1L976.8,791.2z M974.2,785.2L964,762.1
	l16,21.5l8.6,17.8l-3.2-0.1L974.2,785.2z M984.1,789.1l9.3,12.5c-1,0-1.9-0.1-2.9-0.1l-0.4,0L984.1,789.1z M981.1,782.8l-11.3-23.3
	l17.1,21.8l10.8,20.4l-2.6-0.1L981.1,782.8z M991.4,787l11.7,14.9c-0.6,0-1.2,0-1.8-0.1c-0.7,0-1.4,0-2-0.1L991.4,787z M987.9,780.5
	l-12.5-23.6l18.2,22l13.3,23.1c-0.3,0-0.6,0-0.9,0c-0.4,0-0.8,0-1.2,0L987.9,780.5z M998.5,784.9l14.4,17.5c-0.7,0-1.4-0.1-2.1-0.1
	c-0.8,0-1.6-0.1-2.4-0.1L998.5,784.9z M994.6,778.1l-13.7-23.8l19.3,22.3l16,25.9c-0.2,0-0.4,0-0.6,0c-0.3,0-0.6,0-0.9,0
	L994.6,778.1z M1005.5,782.7l17.4,20.1c-0.8,0-1.6-0.1-2.4-0.1c-0.9,0-1.8-0.1-2.7-0.1L1005.5,782.7z M922.2,705.7l0.4,1.7l0.7,5.3
	l-2.7-3.9l-1.4-7.1L922.2,705.7z M919.4,709.4l1.6,8.2l-3.4-5.2l-1-7.1L919.4,709.4z M916.2,702.5l-0.9-6l2.1,2.9l1.4,6.9
	L916.2,702.5z M914.9,693.7l-0.8-5.3l1.6,2l1.2,5.9L914.9,693.7z M914.6,700.2l-1.8-2.6l-0.5-5.3l1.5,2L914.6,700.2z M912,689.9
	l-0.4-4.6l1,1.2l0.8,5.1L912,689.9z M912.1,704.1l-1.7-2.6l-0.2-5.3l1.3,1.9L912.1,704.1z M910.5,731.2l0.4,9.7l-3.3-6.7l0.1-8.2
	L910.5,731.2z M894.7,652.4l-0.9-1l14.3-18.4l-0.2,1.7L894.7,652.4z M893.9,653.5l-0.9,1.3l-0.9-1.1l0.9-1.2L893.9,653.5z
	 M892.2,655.8l-0.9,1.3l-0.9-1.2l0.9-1.2L892.2,655.8z M890.4,658.2l-1,1.3l-1-1.3l0.9-1.2L890.4,658.2z M887.7,657.1l-1-1.3
	l0.9-1.1l1,1.3L887.7,657.1z M885.9,654.7l-1-1.4l0.9-1l1,1.3L885.9,654.7z M884.1,652.2l-13.8-18.6l-0.2-1.4l14.9,19L884.1,652.2z
	 M870.1,687.8l0.4,3.3l-0.4,0.6l-0.7-2.9L870.1,687.8z M869.5,694.7l0.8,3.1l-1.4,2.1l-0.7-3.4L869.5,694.7z M868.3,703.1l0.7,3.6
	l-1.7,2.7l-0.6-4L868.3,703.1z M866.4,703.6l-0.5-3.7l1.4-1.9l0.7,3.4L866.4,703.6z M865.6,698l-0.5-3.5l1.2-1.6l0.6,3.3L865.6,698z
	 M864.8,692.6l-0.5-3.4l1-1.2l0.6,3.2L864.8,692.6z M864.6,699.4l-1.4,1.9l-0.4-3.9l1.2-1.6L864.6,699.4z M862.7,695.5l-0.4-3.7
	l1-1.2l0.5,3.4L862.7,695.5z M862.3,704.9l0.4,4.2l-1.7,2.6l-0.2-4.7L862.3,704.9z M860.7,704.9l-0.2-4.3l1.2-1.7l0.4,4L860.7,704.9
	z M857.5,638.9L744.6,798.5l-3.7-4.2l116.7-157L857.5,638.9z M743.9,799.5l-2.6,3.7l-3.7-4.5l2.6-3.5L743.9,799.5z M736.8,797.7
	l-3.5-4.3l2.5-3.3l3.5,4.1L736.8,797.7z M736.1,798.6l-2.7,3.6l-3.5-4.5l2.7-3.4L736.1,798.6z M732.7,803.2l-2.8,3.8l-3.5-4.7
	l2.8-3.6L732.7,803.2z M725.6,801.2l-3.3-4.5l2.8-3.4l3.4,4.3L725.6,801.2z M721.4,795.6l-3.2-4.3l2.7-3.2l3.2,4.1L721.4,795.6z
	 M720.7,796.5l-2.9,3.5l-3.2-4.5l2.8-3.3L720.7,796.5z M713.9,794.4l-76.2-108.6l-0.2-1.2l79.2,106.6L713.9,794.4z M713.1,795.3
	l-2.9,3.5l-72-109.2l-0.2-1.3L713.1,795.3z M638.8,742.9l0.2,0.8l0.6,4.8l-2.2-3.1l-1.2-5.9L638.8,742.9z M636.4,746l1.3,6.8
	l-2.8-4.3l-0.9-5.8L636.4,746z M633.7,740.1l-0.7-5l1.8,2.4l1.1,5.7L633.7,740.1z M632.7,732.7l-0.6-4.4l1.3,1.6l1,4.9L632.7,732.7z
	 M632.4,738.2l-1.5-2.1l-0.4-4.4l1.2,1.6L632.4,738.2z M630.3,729.5l-0.4-3.9l0.8,1l0.6,4.3L630.3,729.5z M630.3,741.4l-1.4-2.1
	l-0.2-4.3l1.1,1.6L630.3,741.4z M629.3,772.4l-2.7-5.6l0.1-6.8l2.3,4.3L629.3,772.4z M629.4,775.2l0.4,10l-3.4-7.7l0.1-8.2
	L629.4,775.2z M629.9,788.3l0.5,12.8l-4.2-10.7l0.1-10.2L629.9,788.3z M626.2,686.6l-9.1,12.9l-0.7-0.8l10-13.4L626.2,686.6z
	 M617.2,701.4l0.6,0.7l-0.8,1.2l-0.6-0.8L617.2,701.4z M615.6,701.6l-0.7-0.9l0.8-1.1l0.7,0.8L615.6,701.6z M614.2,699.9l-0.8-0.9
	l0.8-1l0.7,0.9L614.2,699.9z M613.5,700.8l-0.8,1l-0.8-1l0.8-1L613.5,700.8z M612,702.8l-0.8,1.1l-0.8-1.1l0.8-1L612,702.8z
	 M609.7,701.8l-0.8-1.1l0.8-0.9l0.8,1L609.7,701.8z M609,702.8l-0.8,1l-0.8-1.2l0.8-0.9L609,702.8z M606.7,701.6l-0.8-1.2l0.7-0.8
	l0.9,1.1L606.7,701.6z M606.6,697.7l-11.5-15.5l-0.1-1.1l12.4,15.8L606.6,697.7z M595.4,732.2l0.2,1.6l-0.3-1.4L595.4,732.2z
	 M595.4,737.6l0.7,2.7l-1.3,2.1l-0.6-2.9L595.4,737.6z M594.2,745.3l0.6,3.2l-1.6,2.7l-0.5-3.5L594.2,745.3z M592.5,745.9l-0.5-3.3
	l1.3-1.9l0.6,3L592.5,745.9z M591.8,741l-0.4-3.1l1.1-1.6l0.6,2.8L591.8,741z M591.1,736.3l-0.4-2.9l0.9-1.3l0.5,2.7L591.1,736.3z
	 M590.5,731.8L590,729l0.8-1l0.5,2.6L590.5,731.8z M590.2,737.6l-1.1,1.6l-0.3-3.2l1-1.3L590.2,737.6z M588.6,734.2l-0.3-3l0.8-1
	l0.4,2.8L588.6,734.2z M588.6,745.7l-1.4,2.1l-0.2-3.8l1.2-1.8L588.6,745.7z M587,742.1l-0.2-3.6l1-1.3l0.3,3.3L587,742.1z
	 M587.2,771.9l0.3,6.1l-3.1,6.2l0.1-7.2L587.2,771.9z M584.1,686.6l-113,159.8c-0.2,0-0.4,0.1-0.6,0.1c-2.4,0.5-4.8,1.1-7.2,1.6
	l-0.2,0l121.1-162.9L584.1,686.6z M583.8,689.1l-0.2,1.2L480.5,844.4c-2.6,0.5-5.1,1.1-7.7,1.7L583.8,689.1z M559.2,766.7l-6.7,8.6
	l5.4-11.8l5.3-6.5L559.2,766.7z M565.6,754l3.5-4.3l-2.9,8l-4.5,5.8L565.6,754z M560.1,767.4l4.9-6.2l-3.4,9.5l-6.2,8.3L560.1,767.4
	z M567.2,758.3l3.3-4.2l-2.4,7.8l-4.2,5.6L567.2,758.3z M572.3,751.7l2.1-2.7l-1.7,6.6l-2.7,3.7L572.3,751.7z M571.4,751l-3,3.8
	l2.8-7.7l2.2-2.8L571.4,751z M572.4,743.8l2.4-6.7l1.4-1.6l-1.8,5.9L572.4,743.8z M570.3,746.4l-3.2,3.9l3.3-8l2.4-2.9L570.3,746.4z
	 M564.7,753.3l-4.9,6l4.4-9.7l3.8-4.5L564.7,753.3z M557,762.8l-7.2,8.9l6.1-12.1l5.7-6.7L557,762.8z M546.5,775.7l-10.7,13.1
	l8.6-15.8l8.3-9.8L546.5,775.7z M547.3,776.5l7.7-9.5l-5.6,12.2l-9.9,12.7L547.3,776.5z M550.4,779.9l7.2-9.2l-4.9,11.9l-9.2,12.4
	L550.4,779.9z M553.6,783.2l6.6-8.9l-4.2,11.5l-8.4,11.9L553.6,783.2z M557,786.5l6.1-8.6l-3.5,11.2l-7.7,11.5L557,786.5z
	 M558.5,782.5l4-11.2l4.5-6.1l-2.9,9.2L558.5,782.5z M569,762.5l3-4l-1.9,7.6l-3.8,5.4L569,762.5z M573.7,756.2l1.4-1.8l-0.8,5.7
	l-2.5,3.5L573.7,756.2z M574.5,753.3l1.6-6.3l-0.7,5.1L574.5,753.3z M575.1,746.2l-1.8,2.3l2-6.5l1.3-1.6L575.1,746.2z M576.2,739.1
	l1.6-5l-0.5,3.7l0,0.1L576.2,739.1z M577.1,732.7l-1.1,1.3l2.9-8.2l-0.2,1.7L577.1,732.7z M573.9,736.4l-2.1,2.5l8-19.4l-0.1,1.1
	L573.9,736.4z M569.5,741.7l-3.5,4.1l14.5-31.6l-0.1,1L569.5,741.7z M563.3,748.9l-5.2,6.2l23-45.7l-0.1,1L563.3,748.9z M555,758.7
	l-7.8,9.2l34.5-63l-0.1,1L555,758.7z M543.6,772.2l-11.4,13.5l50.1-85l-0.1,1.1L543.6,772.2z M527.9,790.8l-17,20.1l71.9-114.1
	l-0.2,1.1L527.9,790.8z M528.7,791.6l12.1-14.3l-8.9,16.3L516,813.1L528.7,791.6z M532.8,794.4l11.3-13.9l-8,15.9l-14.8,19
	L532.8,794.4z M536.9,797.1l10.5-13.5l-7.1,15.4l-13.7,18.4L536.9,797.1z M541.2,799.8l9.7-13.1l-6.1,14.9l-12.6,17.8L541.2,799.8z
	 M545.7,802.4l8.9-12.6l-5.2,14.5l-11.5,17.2L545.7,802.4z M550.3,805.1l8.2-12.2l-4.4,14.1l-10.5,16.6L550.3,805.1z M555,807.6
	l7.4-11.7l-3.5,13.7l-9.4,16L555,807.6z M559.9,810.1l6.6-11.3l-2.7,13.2l-8.4,15.5L559.9,810.1z M560.9,806.1l3.4-13.3l5-8
	l-2.1,10.5L560.9,806.1z M563.3,792.3l-7,11.1l4.2-13.7l5.5-8.3L563.3,792.3z M561.8,785.9l3.4-10.9l4.1-5.8l-2.3,8.9L561.8,785.9z
	 M571,766.7l2.7-3.9l-1.5,7.4l-3.5,5.2L571,766.7z M574.6,805.9l8.6-17l-0.1,8.8l-10.4,22.7L574.6,805.9z M575.1,802.5l1.5-11.3
	l6.7-12.2l-0.1,7.4L575.1,802.5z M577,788.1l1.2-9.1l5.2-8.8l-0.1,6.3L577,788.1z M578.6,776.1l1-7.6l3.9-6.1l-0.1,5.5L578.6,776.1z
	 M580,765.9l0.9-6.5l2.7-4l-0.1,4.9L580,765.9z M581.2,756.9l0.8-5.6l1.7-2.4l0,4.4L581.2,756.9z M582.2,748.8l0.7-5l0.7-1l0,4.1
	L582.2,748.8z M583.2,741.5l0.5-3.6l0,3L583.2,741.5z M583.3,692.9l-0.2,1.2l-77.5,123L483,843.9c-0.3,0.1-0.6,0.1-0.9,0.2
	L583.3,692.9z M501.2,824.1l-11.6,18.4c-1.6,0.3-3.2,0.7-4.8,1L501.2,824.1z M506.5,817.9l18-21.2L511.3,819l-18.6,22.9l-1.5,0.3
	L506.5,817.9z M507.4,825.6l-8.9,15.1l-0.4,0.1c-1.2,0.2-2.4,0.5-3.6,0.7L507.4,825.6z M512.1,819.8l16.7-20.6L517,820.8L502.1,840
	c-0.4,0.1-0.8,0.2-1.2,0.3c-0.3,0.1-0.6,0.1-0.9,0.2L512.1,819.8z M513.6,827.1l-6.5,11.9c-0.6,0.1-1.2,0.2-1.7,0.3
	c-0.5,0.1-1,0.2-1.5,0.3L513.6,827.1z M517.9,821.6l15.5-19.9l-10.6,21l-11.5,15.5c-0.9,0.2-1.9,0.4-2.8,0.5L517.9,821.6z
	 M519.8,828.6l-4.4,8.8l-2.5,0.5L519.8,828.6z M523.7,823.4l14.4-19.3l-9.3,20.3l-8.5,12l-3.3,0.6c0,0-0.1,0-0.1,0L523.7,823.4z
	 M526.2,830.1l-2.7,5.8l-1.7,0.3L526.2,830.1z M535.7,826.8l12-18l-6.9,19.1l-3.4,5.3l-4.8,0.9L535.7,826.8z M541.8,828.6l11-17.4
	l-5.7,18.5l-1.3,2.2c-0.9,0.2-1.8,0.3-2.7,0.5c-0.9,0.2-1.8,0.3-2.8,0.5L541.8,828.6z M548,830.3l9.9-16.8l-4.4,17.1l-5.9,1
	L548,830.3z M563.2,815.7l-2.7,13.6c-0.9,0.1-1.7,0.3-2.6,0.4c-0.9,0.1-1.7,0.3-2.6,0.4L563.2,815.7z M565.7,808.8l2.6-12.9l1.6-2.8
	l-1.4,10.5L565.7,808.8z M568.9,792.6l2.1-10.3l0.5-0.7l-1.2,8.7L568.9,792.6z M570,781.8l-4.7,7.5l2.7-10.6l3.8-5.6L570,781.8z
	 M572.1,776.8l-0.3,2l-0.2,0.3L572.1,776.8z M572.1,824.2l10.9-23.8l-0.1,11l-6.3,15.4c-0.9,0.1-1.8,0.3-2.7,0.4l-2,0.3l-0.1-0.6
	L572.1,824.2z M582.9,814.4l-0.1,11.4c-1.3,0.2-2.6,0.4-4,0.6l-0.9,0.1L582.9,814.4z M606,838.3l-11.4,61.6
	c-3.4-0.4-6.6-1.1-9.7-1.8l-10.2-55.5C585.8,841,596.1,839.6,606,838.3z M601.1,900l9.9-53.4l9.8,53.3c-0.4,0-0.7,0.1-1.1,0.1H601.1
	z M1046.8,792L919.6,629.7l-0.2-1.3L1046.8,783V792z M1046.8,794.1v10L920.1,633.6l-0.2-1.4L1046.8,794.1z M920.2,689.9l0.7,5.1
	l-0.2-0.2l-1.5-6.1L920.2,689.9z M919.6,695.5l1.7,6.9l-2.8-3.8l-1.2-6.1L919.6,695.5z M916.8,689.8l-1-5.3l1.7,2l1.5,5.9
	L916.8,689.8z M915.2,681.8l-0.9-4.7l1.1,1.3l1.3,5.2L915.2,681.8z M915.1,687.6l-1.4-1.8l-0.7-4.6l1.1,1.3L915.1,687.6z
	 M912.7,678.7l-0.6-4.2l0.6,0.7l0.9,4.5L912.7,678.7z M912.2,683.9l-0.8-1.1l-0.4-4.2l0.6,0.7L912.2,683.9z M911.3,695.6l-1.2-1.7
	l-0.2-4.6l0.9,1.2L911.3,695.6z M910,720.1l0.3,8l-2.6-4.9l0.1-6.9L910,720.1z M907.9,713.8l0.1-6l1.7,2.7l0.3,6.8L907.9,713.8z
	 M908,705.4l0.1-5.2l1.2,1.9l0.2,5.8L908,705.4z M908,697.9l0.1-4.6l0.8,1.2l0.2,5.1L908,697.9z M908.1,691l0-2.4l0.2-1.5l0.3,0.4
	l0.2,4.5L908.1,691z M908.5,630.4l-15.6,20l-1-1.1l16.8-20.6L908.5,630.4z M892.1,651.4l-0.9,1.2l-1-1.2l0.9-1.1L892.1,651.4z
	 M890.4,653.7l-0.9,1.2l-1-1.3l0.9-1.1L890.4,653.7z M887.6,652.5l-1-1.3l0.9-1.1l1,1.2L887.6,652.5z M885.8,650.2l-16.1-20.5
	l-0.2-1.3l17.1,20.8L885.8,650.2z M869.6,684.2l0.2,1.7l-0.9,1.2l-0.7-2.9l1-1.2L869.6,684.2z M868.4,690l0.7,3l-1.2,1.7l-0.6-3.2
	L868.4,690z M866.9,689.8l-0.6-3.1l1-1.2l0.7,2.9L866.9,689.8z M865,680.3l-0.6-2.9l0.6-0.7l0.7,2.7L865,680.3z M865,686.3l-0.9,1.1
	l-0.5-3.2l0.8-0.9L865,686.3z M863.3,682.4l-0.5-3.1l0.6-0.7l0.6,2.9L863.3,682.4z M863,688.8l-0.9,1.1l-0.3-3.5l0.7-0.9L863,688.8z
	 M861.6,684.5l-0.3-3.4l0.5-0.6l0.5,3.2L861.6,684.5z M861.6,697l-1.1,1.5l-0.2-4.1l1-1.2L861.6,697z M860.2,692.4l-0.2-3.8l0.7-0.8
	l0.3,3.6L860.2,692.4z M860.2,720.8l-2.3,3.6l0.1-5.8l2-3L860.2,720.8z M858,716.3l0.1-5.3l1.6-2.3l0.2,4.7L858,716.3z M740.1,793.3
	l-3.5-4.1l121.7-156.3l-0.2,1.7L740.1,793.3z M858.7,685.6l0.1,2.4l-0.5,0.6L858.7,685.6z M858.2,697.2l0.9-1.2l0.2,4.1l-1.2,1.6
	L858.2,697.2z M858.2,695l0-4.2l0.6-0.8l0.2,3.9L858.2,695z M858.6,630.4L735.7,788.2l-3.4-3.9l126.5-155.6L858.6,630.4z M735,789.1
	l-2.5,3.2l-3.4-4.1l2.5-3.1L735,789.1z M731.7,793.3l-2.6,3.4l-3.4-4.3l2.6-3.2L731.7,793.3z M724.9,791.3l-3.2-4.1l2.6-3l3.3,4
	L724.9,791.3z M720.8,786.2l-84.1-107.3l-0.1-1l86.8,105.3L720.8,786.2z M720.1,787.1l-2.7,3.2l-80.3-108l-0.1-1.1L720.1,787.1z
	 M637.1,729.5l0.6,4.2l0,0l-1.2-5L637.1,729.5z M636.6,734.3l1.4,5.7l-2.3-3.1l-1-5L636.6,734.3z M634.3,729.4l-0.9-4.4l1.3,1.6
	l1.2,4.9L634.3,729.4z M633,722.7l-0.8-3.9l0.9,1l1.1,4.3L633,722.7z M632.8,727.5l-1.1-1.4l-0.6-3.8l0.8,1L632.8,727.5z M630.8,720
	l-0.5-3.4l0.5,0.5l0.7,3.8L630.8,720z M630.3,724.4l-0.7-0.8l-0.3-3.4l0.4,0.5L630.3,724.4z M629.6,734.3l-1-1.4l-0.2-3.8l0.7,1
	L629.6,734.3z M628.5,755l0.3,6.7l-2.1-4.1l0.1-5.8L628.5,755z M626.7,749.7l0.1-4.9l1.4,2.2l0.2,5.6L626.7,749.7z M626.7,683
	l-11.1,14.9l-0.7-0.8l12-15.4L626.7,683z M613.4,697.1l-0.8,1l-0.8-1l0.8-0.9L613.4,697.1z M611.9,699l-0.8,1l-0.8-1l0.8-0.9
	L611.9,699z M609.7,698l-0.8-1.1l0.7-0.8l0.8,1L609.7,698z M608.9,698.9l-0.7,0.9l-0.8-1.1l0.7-0.9L608.9,698.9z M608.1,696
	l-13.5-17.2l-0.1-1l14.3,17.3L608.1,696z M594.8,727.8l0.4,2.7l-0.3,0.4l-0.6-2.4L594.8,727.8z M594.4,733.6l0.6,2.6l-1.2,1.7
	l-0.5-2.8L594.4,733.6z M593,733.6l-0.5-2.6l0.9-1.3l0.6,2.5L593,733.6z M592.2,729.4l-0.5-2.6l0.8-1l0.6,2.4L592.2,729.4z
	 M590.6,721.4l-0.5-2.4l0.5-0.6l0.6,2.3L590.6,721.4z M590.5,726.5l-0.7,0.9l-0.4-2.7l0.6-0.7L590.5,726.5z M589.2,723.2l-0.4-2.6
	l0.4-0.5l0.5,2.4L589.2,723.2z M588.9,728.6l-0.7,0.9l-0.3-2.9l0.6-0.7L588.9,728.6z M587.8,724.9l-0.3-2.8l0.4-0.5l0.4,2.6
	L587.8,724.9z M587.7,735.5l-0.9,1.2l-0.1-3.4l0.8-1L587.7,735.5z M586.5,731.6l-0.1-3.2l0.5-0.7l0.3,2.9L586.5,731.6z M586.5,755.6
	l-1.9,3l0.1-4.8l1.6-2.5L586.5,755.6z M461.5,848.6c-1.1,0.3-2.3,0.5-3.4,0.8v-5l126.7-162.7l-0.2,1.3L461.5,848.6z M584.8,735.6
	l0.7-1l0.1,3.4l-0.9,1.2L584.8,735.6z M584.9,733.8l0-3.5l0.5-0.6l0.1,3.2L584.9,733.8z M585,728.3l0.2-1.8l0.1,1.4L585,728.3z
	 M585.1,679.4l-127,163.1v-8l127.2-156.4L585.1,679.4z M568.3,843.5l9.7,52.8c-18-5.1-35-12.8-65.5-13.2
	c-25.9-0.3-43.4,3.5-54.5,7.4v-28.2C482.8,857.5,520.8,850.5,568.3,843.5z M1460.3,418.8h22.6v8.4h-22.6V418.8z M1370.5,411.5h82.1
	v45.8h-82.1V411.5z M1340.3,418.8h22.6v8.4h-22.6V418.8z M1046.8,772.8v8.1l-127.7-155l-0.2-1.2L1046.8,772.8z M919,682.5l0.5,1.7
	l0.4,3.2l-1.4-1.7l-1.3-5.3L919,682.5z M913.8,646.6l0.9,2l0.2,1.3l-1.2-2.7L913.8,646.6z M913.4,649.6l2.1,4.8l0.2,1.8l-2.4-6.2
	L913.4,649.6z M913,652.6l3.5,8.9l0.4,3l-3.9-11.4L913,652.6z M912.5,655.8l5.2,14.9l0.7,5.4l-5.9-20L912.5,655.8z M912.1,659.2
	l6,20.2l-1.6-1.8l-4.5-18.1L912.1,659.2z M911.6,662.9l3.1,12.7l-0.9-1.1l-2.2-11.3L911.6,662.9z M911,667l1.1,5.6l-0.4-0.5
	l-0.7-4.8L911,667z M910.5,672.7l0.6,4.1l-0.4-0.5l-0.4-3.8L910.5,672.7z M910.6,688l-0.8-1l-0.2-4.2l0.5,0.7L910.6,688z
	 M909.6,677.6l0.3,3.4l-0.4-0.5l-0.1-1.9L909.6,677.6z M909.3,624.4l-0.2,1.7l-18,22.1l-1-1.2L909.3,624.4z M889.3,648.1l1,1.2
	l-0.9,1.1l-1-1.2L889.3,648.1z M888.4,647.1l-0.9,1l-18.3-22.2l-0.2-1.2L888.4,647.1z M868.8,681.4l-0.9,1.2l-0.7-2.8l0.8-1
	L868.8,681.4z M868.5,676.1L868.5,676.1l-0.8-2.5l0.4-0.4L868.5,676.1z M863.9,646.6l0.9,1.9l0.2,1.3l-1.2-2.7L863.9,646.6z
	 M863.5,649.6l2.1,4.8l0.2,1.9l-2.4-6.2L863.5,649.6z M863.1,652.6l3.5,8.9l0.4,3l-3.9-11.4L863.1,652.6z M862.7,655.8l5.1,14.9
	l0.1,0.6l-0.6,0.7l-4.7-15.8L862.7,655.8z M862.2,659.2l4.1,13.9l-0.6,0.7l-3.6-14.4L862.2,659.2z M861.7,662.9l3,12.2l-0.6,0.7
	l-2.5-12.6L861.7,662.9z M861.2,667l2,10l-0.5,0.6l-1.5-10.3L861.2,667z M860.5,671.7l1,7.1l-0.4,0.5l-0.7-7.1L860.5,671.7z
	 M860.5,685.9l-0.6,0.7l-0.2-3.6l0.4-0.5L860.5,685.9z M859.7,677.6l0.3,3l-0.3,0.4l-0.1-2.4L859.7,677.6z M858,708.7l0.1-4.8
	l1.3-1.7l0.2,4.4L858,708.7z M859.4,624.4l-0.2,1.8L731.5,783.3l-3.3-3.8L859.4,624.4z M727.4,780.4l3.3,3.8l-2.5,3l-3.2-3.9
	L727.4,780.4z M726.6,779.4l-2.4,2.9l-87.8-106.6l-0.1-1L726.6,779.4z M636.1,723.3l0.3,1l0.4,3l-1-1.3l-1.1-4.4L636.1,723.3z
	 M631.8,693.2l0.6,1.3l0.1,0.9l-0.8-1.8L631.8,693.2z M631.4,695.7l1.6,3.7l0.2,1.4l-1.8-4.7L631.4,695.7z M631.1,698.3l2.8,7
	l0.3,2.2l-3.1-9L631.1,698.3z M630.7,701l4.1,12.1l0.6,4.2l-4.7-16L630.7,701z M630.3,703.9l5,16.7l-1.2-1.4l-3.7-15.1L630.3,703.9z
	 M629.9,707.1l2.5,10.3l-0.7-0.8l-1.8-9.3L629.9,707.1z M629.4,710.5l0.8,4.3l-0.3-0.4l-0.6-3.8L629.4,710.5z M629,715.1l0.5,3.3
	l-0.3-0.4l-0.3-3.1L629,715.1z M629,727.8l-0.6-0.8l-0.1-3.4l0.4,0.5L629,727.8z M628.2,719.6l0.2,2.3l-0.3-0.3l-0.1-1.2
	L628.2,719.6z M628.1,744.6l-1.2-2l0-4.3l1,1.5L628.1,744.6z M627.8,674.4l-0.2,1.4l-15,18.5l-0.8-1L627.8,674.4z M611,694.3l0.8,1
	l-0.7,0.9l-0.8-1L611,694.3z M610.3,693.4l-0.7,0.8l-15.3-18.6l-0.1-1L610.3,693.4z M594.1,723.7l0.2,0.6l0.2,1.9l-0.6,0.9l-0.6-2.4
	L594.1,723.7z M593,723.3l-0.6-2.3l0.7-0.8l0.6,2.2L593,723.3z M593.1,715.5l0.2,1.8l-0.5-1.6L593.1,715.5z M589.7,693.2l0.6,1.3
	l0.1,0.9l-0.8-1.8L589.7,693.2z M589.4,695.7l1.6,3.7l0.2,1.4l-1.8-4.7L589.4,695.7z M589,698.3l2.8,7l0.3,2.2l-3.1-9L589,698.3z
	 M588.7,701l4.2,12.1l0.1,0.9l-0.4,0.5l-3.9-13.2L588.7,701z M588.3,703.9l3.4,11.5l-0.5,0.6l-2.9-11.9L588.3,703.9z M587.8,707.1
	l2.5,10l-0.4,0.5l-2-10.4L587.8,707.1z M587.4,710.5l1.6,8.1l-0.4,0.4l-1.2-8.4L587.4,710.5z M586.8,714.6l0.8,5.6l-0.3,0.4
	l-0.5-5.6L586.8,714.6z M586.8,726.1l-0.5,0.6l-0.1-3l0.3-0.4L586.8,726.1z M586.2,719.6l0.2,2.1l-0.2,0.3l-0.1-1.6L586.2,719.6z
	 M586.2,749.4l-1.6,2.3l0-4.4l1.3-1.9L586.2,749.4z M586,743.6l-1.2,1.7l0-4l1-1.4L586,743.6z M585.8,674.5l-0.2,1.4L458.1,832.7
	v-7.3L585.8,674.5z"/>
</svg>
