<?xml version="1.0" encoding="utf-8"?>
<!-- Generator: Adobe Illustrator 24.2.3, SVG Export Plug-In . SVG Version: 6.00 Build 0)  -->
<svg version="1.1" id="Ebene_1" xmlns="http://www.w3.org/2000/svg" xmlns:xlink="http://www.w3.org/1999/xlink" x="0px" y="0px"
	 viewBox="0 0 1000 300" style="enable-background:new 0 0 1000 300;" xml:space="preserve">
<style type="text/css">
	.st0{fill:none;}
	.st1{fill:#FFFFFF;}
</style>
<rect class="st0" width="1000" height="300"/>
<g>
	<path class="st0" d="M768.8,165.1c-0.1,0.9-0.2,2.5,0.3,3.5C770.1,167.8,769.3,165.9,768.8,165.1z"/>
	<path class="st0" d="M788.6,202.9c0,0,0.1,0.1,0.1,0.1h1.2C789.6,202.9,789.1,202.8,788.6,202.9z"/>
	<path class="st0" d="M777.2,196.4c0.2-1,0.9,0.2,1.1-0.8c-0.9,0.3-0.2-0.9-1.1-0.5C777.6,195.7,776.4,196.1,777.2,196.4z"/>
	<path class="st0" d="M777.7,176.8c1.4,0.2,1.9-0.6,2.7-1.1c-0.7-0.3-0.6-0.1-1.6-0.3C779.2,176.6,777.9,176.2,777.7,176.8z"/>
	<path class="st0" d="M772.1,174.1c0.7-0.2,0.7,0.4,1.3,0.3c-0.1-1,0.1-1.7,0.8-1.9c0.4,0.3,0.4,1,0.8,1.4c0.1-1.7,1.7-4.5,2.7-2.7
		c0.1-0.6,0.4-1,0.3-1.9c-1.2,0.1-3.1,0.1-2.7,0.3c0.5,0.2,0.8,1,0,1.1c-0.9-0.1-1.5-0.5-2.4-0.5c0,0.6-0.4,0.9-0.8,1V174.1z"/>
	<path class="st0" d="M779.2,197c-0.1-0.1-0.2-0.2-0.3-0.4c0,0.1-0.1,0.3-0.1,0.4H779.2z"/>
	<path class="st0" d="M769.6,165.1c0.3-0.7,0.7,0.7,1.1,0.8c0.4-1.1,0.4-2-0.5-2.4C770.6,164.5,768.9,164.7,769.6,165.1z"/>
	<path class="st0" d="M776.9,167.3c-0.5,0-0.9,0.2-1.1,0.5C776.3,167.8,777.2,168.1,776.9,167.3z"/>
	<path class="st0" d="M780.5,181.1c-0.1-0.4,1,0,1.1,0.3c-0.3,0-0.2,0.3,0.3,0.3C782.8,181.2,779.6,179.8,780.5,181.1z"/>
	<path class="st0" d="M768.8,183.3c0.3,0.6,1.5-0.6,1.1,1.1c2.2,0,2.7-2.8,4.1-2.7c-0.8-0.8-2.4-0.7-3.5-1.1
		C770.6,182.2,769.2,182.3,768.8,183.3z"/>
	<path class="st0" d="M773.7,195.3c0-0.7,0.1-1.6-0.3-1.9H772C772.3,194.3,773.5,194.2,773.7,195.3z"/>
	<path class="st0" d="M776.9,206.1c-0.3,2-1.6,2.2-2.6,2.9h4.4C778.8,207.7,778.2,206.4,776.9,206.1z"/>
	<path class="st0" d="M785.1,198.5c0.1-0.3,0.4-0.4,0.7-0.5h-0.9C784.9,198.2,785,198.4,785.1,198.5z"/>
	<path class="st0" d="M791.6,199.1c1,0.1,2.5-0.7,3.3-0.5c0.2,0.9-0.4,0.8-0.5,1.4c1.2-0.2,3.6-0.4,3.8,1.6c-1.1,0.1-1.7,0.2-2.4,0
		c-0.8,0.2,0.6,0.4,0.3,1.1c-1.5,0.6-2.3-0.1-3.5-0.8c-0.3,0.2,0.4,0.7,0.7,1.2h28.9v-5h-30.6C791.6,198.3,791.4,198.4,791.6,199.1z
		"/>
	<path class="st0" d="M177.7,180.7v1.6c0.5-0.1,1.2,0.1,1.3-0.3C177.7,182.5,179.1,180.2,177.7,180.7z"/>
	<path class="st0" d="M793.2,204c-0.1,0.1-0.1,0.2-0.2,0.2c-0.4,0-0.8-0.1-1.1-0.2h-1.3c0.9,0.2,1.8,0.5,2.3,1
		c-0.3,1.5-2,0.5-2.7,0.5c-0.4,0.5,0.1,1.7-0.5,2.4c-2.6-0.8-4.1-1.8-6.5-3.3c0.6,1.2,1.6,2.5,1.6,3.5c0.5-0.4,1.1-0.7,1.9-0.8
		c0.1,0.4-0.3,0.5-0.3,0.8c0.5-0.2,1-0.5,1.6-0.5c0.3,0.6,0,0.7,0.4,1.2h0.4c1-0.4,1.6-0.5,3-1c0.1,0.5,0,0.7-0.2,1h30.4v-5H793.2z"
		/>
	<path class="st0" d="M783.1,197c0,0,0.1-0.1,0.1-0.1c0.1,0,0.1,0.1,0.2,0.1h0.5c-0.6-0.7-1.4-1.1-1.7-2c0,0.6-0.2,0.9-0.8,0.8
		c-0.6-0.3-1.7-1.5-2.2-1.1c0.6,0.6,1.1,1.3,1.3,2.3H783.1z"/>
	<path class="st0" d="M776.1,183.6c0.5,0,0.7-0.2,0.8-0.5C776.5,183.1,776,183,776.1,183.6z"/>
	<path class="st0" d="M669.3,225.6c0.1,0,0.2,0.5,0.3,0.5c0.2-0.1,0.3-0.4,0.5-0.6v-1.9c-0.1,0.4-0.3,0.7-0.7,0.9
		c-0.2,0.1-0.6,0-0.8,0.3c-0.2,0.2,0,0.7-0.3,1C668.6,225.6,669,225.5,669.3,225.6z"/>
	<path class="st0" d="M653.4,228.7c0.7,0.9,0.2,2-0.8,2.4c0.3,0.4,0.4,0.7,0.4,1.2c0.4-0.2,2,0,2.4-0.4c0.4-0.4-0.6-1.5-0.4-2
		c0.4-0.9,1.1-1.6,1.5-2.5C655.7,227.9,654.4,229,653.4,228.7z"/>
	<path class="st0" d="M670,221.8c-0.1,0.1-0.1,0.3,0,0.4V221.8z"/>
	<path class="st0" d="M767.1,153.4c-0.1,0.4,0.4,0.7,0.5,0.3c-0.4-0.1-0.2-0.6,0-0.8C766.9,152.7,766.2,154.2,767.1,153.4z"/>
	<path class="st0" d="M177.4,183.3c0.3-0.8-1.5-1.1-1.3-0.7C176.8,182.6,176.5,183.5,177.4,183.3z"/>
	<path class="st0" d="M177.4,172.5c0.2,1.5,0.2,3,1.6,3.3C178.9,174.3,178.8,172.7,177.4,172.5z"/>
	<path class="st0" d="M177.1,181C176.2,182.6,178.2,182.2,177.1,181L177.1,181z"/>
	<path class="st0" d="M178.1,166.6c-0.3-0.9,0.5-0.8,0.3-1.6c-0.6-0.1-0.8,0.5-1,0c0-0.2,0-0.4-0.3-0.3
		C176.9,165.8,177.4,166.4,178.1,166.6z"/>
	<path class="st0" d="M664.5,230.9c0.4-0.1,1.1,0.7,1.4,0.9c0.5,0.3,0.3-0.5,0.6-0.8c-0.9-0.4-0.9-0.9-0.7-1.7
		c0.2-0.2,0.3-0.3,0.1-0.5c0-0.1,0-0.2,0-0.3c0-0.3,0.1-0.7,0.3-0.9c0.3-0.3,0.6-0.2,0.8-0.6c0.1-0.1,0.6-1,0.4-1.1
		c-0.2,0.7-0.5,1.2-1.2,1.4c-0.3,0.1-0.9,0.2-1.2,0c-0.1-0.1-0.3-0.6-0.3-0.6c-0.4-0.1-1.2,1.4-1.9,1.4c-0.6,0-0.8-0.7-1.3-0.6
		c-0.5,0.1-0.9,1.1-1.4,1.4c-1.3,1-2.4,0.4-2.7-1c-0.2,0.5-0.1,0.9-0.3,1.3c-0.1,0.3-0.5,0.5-0.5,0.8c-0.2,0.6,0.5,1.5,0.6,2.1
		c0.3,1.4,0,3.4,2.1,3.1c0-0.8-0.3-1.1,0.2-1.7c0.4-0.4,1-0.9,1.5-1.1c0.7-0.3,1.3-1,2.1-1C663.6,231.4,663.9,231,664.5,230.9z"/>
	<path class="st0" d="M762,160.7c0.8-0.6,2.5,1.6,3.3,1.1c-0.7,0.1-0.7-0.6-0.8-1.1c-1.1,0.2-2.1-0.3-1.1-0.8
		C762.6,159.8,761.2,160.3,762,160.7z"/>
	<path class="st0" d="M755.7,170c-0.1-0.6,0.8-0.3,0.8-0.8C756,169,755.2,169.9,755.7,170z"/>
	<path class="st0" d="M759.6,171c0-0.1,0-0.1,0-0.2c0.7-1.4,2.1-0.8,2.7-1.9c-0.9-0.7-1.6-0.2-2.4-0.5c-0.1,1.2-0.5,2.3-1.6,2.4
		c0-0.4,0.1-1-0.3-1.1c-0.3,0.6-0.8,1-1.4,1.3H759.6z"/>
	<path class="st0" d="M766.5,171h0.1c0.1-0.5,0.7-1.5,0-1.8C766.9,170,766.1,170.7,766.5,171z"/>
	<path class="st0" d="M752.2,167.3c-0.7-0.2-0.5,0.6-0.8,0.8C752,168.1,752.2,167.9,752.2,167.3z"/>
	<path class="st0" d="M670,219.5V218h-0.3c-0.1,0.4-0.3,0.7-0.5,1C669.5,219.1,669.8,219.3,670,219.5z"/>
	<path class="st0" d="M666.9,234.2c-0.2,0-0.4,0.2-0.6,0.2c-0.3,0-0.4-1-0.7-1c-0.5,0-0.8-1-1.3-0.9c-1.1,0.1-1.2,0.8-2.3,1.4
		c-0.3,0.2-0.5,0.1-0.4,0.5c0.2,0.6,1.2,0.2,1.7,0.4c0.9,0.3,0.8,1.1,1.5,1.6c0.5,0.3,0.7,0.3,1.1,0.9c0.3,0.6,0.5,1.1,1,1.6
		c0.3,0.3,0.8,0.6,1.1,0.9v-5.2C667.4,234.8,666.9,234.8,666.9,234.2z"/>
	<path class="st0" d="M755.2,170.8c-0.2,0-0.4,0.1-0.6,0.2h0.6C755.2,170.9,755.2,170.9,755.2,170.8z"/>
	<path class="st0" d="M786.1,197c-0.4-0.7-1-2-1.8-1.7c-0.3,0.1-0.1,0.9,0.2,1.7H786.1z"/>
	<path class="st0" d="M184.6,211c-0.1,0.4,0.1,0.9-0.3,1c0.3-0.7-0.3-2-0.7-1c0.4,1,0.5,4,2.3,2.6
		C184.9,213.3,185.5,211.3,184.6,211z"/>
	<path class="st0" d="M192.3,220.3c0-0.8-0.4-0.5-0.1-1.7c0.1,0.1-0.5-1-0.3-1.6c0.2-0.5,0.4-0.7,0.4-0.8c-0.1-0.4,0-0.9-0.3-1.2
		c0.1,0.1-1.3,1-1.3-0.3c-0.1,1-1.5,0.7-1.3,2c-0.9-1.2-1.5-0.9-1.6-2.9c-0.3,0-0.3,0.4-0.3,0.7c-0.3,0-0.3-0.4-0.3-0.7
		c-0.7,0.3-0.1,2.1-0.3,2.9c0.8,1.2,2.4,1.4,3.6,2.3c0.1,0.1-0.1,0.6,0,0.7c0.5,0.4,1.1,0.8,1.8,1.3
		C192.3,220.6,192.3,220.5,192.3,220.3z"/>
	<path class="st0" d="M182.6,211.6c0.1,0.6-0.4,0.7-0.3,1.3c0.5,0.1,0.6,0.5,1,0.7C183.4,212.7,183.2,211.9,182.6,211.6z"/>
	<path class="st0" d="M613.6,206v0.9c0,0,0.1,0.1,0.1,0.1h0.9v0.4v0.5c1.3,1.4,2.8,2.6,4.3,3.5c0.7,0.4,1.7-0.1,1.6-1
		c-0.1-2.6-0.3-7-0.9-7.4c-1.4-0.9-1.3,1-2.7,0.5c-0.2-0.1-1.1-1.1-1.8-2c-0.3-0.3-0.7-0.4-1.1-0.3c-0.1,0-0.2,0-0.3,0v1.7V206z"/>
	<path class="st0" d="M181.3,180c-0.2,0.5,0.4,1.7-0.3,1.6c-0.7-0.5,0.4-0.8-0.3-1c0,0.2,0,0.4-0.3,0.3c-0.1-0.3,0-0.6-0.3-0.7
		c-0.5,0.9,0.9,1.7,0,2c-0.1-0.3,0-0.6-0.3-0.7c-0.3,1.6,1.3,1.3,2.6,1.3C182,181.3,182.1,180.6,181.3,180z"/>
	<path class="st0" d="M180.7,189.1c0,0.4-1.3,1-0.3,1.3c0.1-0.8,0.9,0.4,1.3,0.3c-0.4-0.9-0.7-1.9-1.3-2.6
		C180.3,188.6,180.5,188.9,180.7,189.1z"/>
	<path class="st0" d="M191.1,225C190,227.1,192,226.3,191.1,225L191.1,225z"/>
	<path class="st0" d="M773.4,202.6c-0.3,0.1-0.6,0.2-0.8,0.4h1.3C773.7,202.9,773.6,202.7,773.4,202.6z"/>
	<path class="st0" d="M390,236c0.4,0.3,0.8,1,0.7,1c0.3,0.2,0.6,0.1,0.8,0.5c0.3,0.6,0,2-0.5,1.9c-0.4-0.1-0.4,1.6-0.3,1.4
		c0.2-0.1,0.5,0,0.6,0.1c0.1,0.1,0.2,0.1,0.3,0l0,0V236H390z"/>
	<path class="st0" d="M387.6,233.4c0,0.2,0.1,0.3,0.3,0.2c0.2,0,0.3-0.1,0.4,0c0.1,0.1,0.1,0.2,0.2,0.4h3.4v-13.5
		c-0.4-0.4-0.7-0.8-1-1.2c-0.4,0.2,0,1.3-0.6,1.4c-0.3-0.9-0.4-1.2-0.9-0.3c-0.6-0.2,0.1-1.9-0.6-2c-0.2,0.9-0.1,2.1-0.6,2.7
		c0-0.9-0.5-1.2-0.9-1.7c0.1,0.6,0,0.9-0.3,1v12.5C387.3,232.9,387.6,233.1,387.6,233.4z"/>
	<path class="st0" d="M390.5,215.9c-0.2,0.5-0.9,0.5-0.9,1.4C390,217,390.5,216.7,390.5,215.9z"/>
	<path class="st0" d="M178.7,189.5c0.1-0.2-0.7-0.9-0.7-0.3c0.7,0.1,0.6,0.9,1.3,1c0-0.8,0-1.6,0.3-2
		C178.7,185.5,179.4,188.3,178.7,189.5z"/>
	<path class="st0" d="M192.8,229.8c0,0,0-0.1,0-0.1c0-0.3-0.1-0.6-0.1-0.8c-0.6,0.4-0.7,1.4-1.2,2c0.7,0.2,1.1,0.7,1.6,1
		C193,230.3,192.6,230.3,192.8,229.8z"/>
	<path class="st0" d="M387,215.6v0.6c0.6,1.2,0.1,0.8,0,2.5v0.3c0.5-0.3,0.8-0.8,1.4-1C387.9,217.2,387.9,215.9,387,215.6z"/>
	<path class="st0" d="M381.4,216.9C382.1,216,380.5,214.9,381.4,216.9L381.4,216.9z"/>
	<path class="st0" d="M545.6,203v-1.5c-0.8-0.5-1.6-1.2-2-2c-0.2-0.3-0.5-0.4-0.9-0.3c0,0,0,0,0,0c-0.4,0.1-0.7,0.5-0.5,0.9
		c1.1,3.5-0.3,7.6,1.4,10.8c0.6,1,1.3,1.6,2,1.8l0-1.7v-1h-1v-2.6V207h1v-1V203z"/>
	<path class="st0" d="M374.7,215.2C374.6,215.2,374.6,215.2,374.7,215.2C374.6,215.2,374.7,215.3,374.7,215.2z"/>
	<path class="st0" d="M182,195.7c0,0.6,0.3,0.8,0.7,1C182.6,196.1,182.4,195.8,182,195.7z"/>
	<path class="st0" d="M776.9,198.5c2.3,0.4,3.6-0.4,3.8,1.4c0.9-0.3,1.2-1.1,1.6-1.9h-4.6C777.5,198.2,777.2,198.3,776.9,198.5z"/>
	<path class="st0" d="M774.5,196.1c1.2-0.1,1-1.5,1.6-2.2C775.2,194.3,774.7,195.1,774.5,196.1z"/>
	<path class="st0" d="M637.9,200.9c0.2-0.4,0.1-0.8-0.2-1.1c-0.6-0.7,0.3-1.6-1.3-1.5c-1.3,0.1-3.4,3.7-3.9,4.6
		c-1.3,2.6-1.6,5.5-2.5,8.2c-0.3,1,0.8,1.8,1.6,1.2c1.1-0.6,2.2-1.2,3.3-1.7c0.7-0.3,1.4-0.6,2.1-0.9c0.4-0.2,0.7-0.6,0.7-1.1
		c0-0.2,0.1-0.5,0.2-0.7c0.2-0.4,0.2-0.8-0.1-1.1C636.8,205.9,637.2,202.5,637.9,200.9z"/>
	<path class="st0" d="M178.4,207.7C178.3,207.6,178.4,207.8,178.4,207.7C178.5,207.8,178.4,207.8,178.4,207.7z"/>
	<path class="st0" d="M763.6,166.2h-0.8c-0.1,1,0.7,2.5,1.4,1.9C763.3,167.5,764,167,763.6,166.2z"/>
	<path class="st0" d="M773.4,204c0.1,0.1,0.2,0.1,0.3,0.2c0,1.6-1.9,1.3-3.5,1.4c0.9,1.6,1.1,1.1,1.9,1.7c-0.2,0,0.5,0.7,0.8,0.8
		c0.4-0.9,1.5-0.4,2.2-0.3c0,0,1.1-1.2,0.3-1.6c-0.2,0.4-0.6,0.5-1.1,0.5c-0.7-0.9-0.2-1.8-0.2-2.7H773.4z"/>
	<path class="st0" d="M781.8,205.3c0.2-0.6-0.7-1.2-0.8-0.5C781.4,204.8,781.2,205.5,781.8,205.3z"/>
	<path class="st0" d="M781,206.7c0.5,0.4,1.2,0.6,1.1,1.6c1.4-0.2,0.8-0.9,0.5-1.9C782,206.9,781.2,206.3,781,206.7z"/>
	<path class="st0" d="M787,204.8c0.6,0.3,1.3,0.6,1.6,1.1C789.3,204.5,786.3,204.4,787,204.8z"/>
	<path class="st0" d="M177.4,204.8c0.1-0.7-0.1-1.2-0.7-1.3C176.7,204.2,176.8,204.7,177.4,204.8z"/>
	<path class="st0" d="M629.6,198.6c0,0-0.1,0-0.2,0c-0.4,0.1-0.8,0.4-0.9,0.8c-0.4,1.6-1.4,1.8-1.7,4c-0.1,0.6,0.1,6.4,1.2,5.7
		c0.3-0.5,0.6-1,0.7-1.5c1-2.7,1.9-5.1,2.3-7.7C631.1,199.1,630.4,198.4,629.6,198.6z"/>
	<path class="st0" d="M178.4,211.6c0.4,1.3,0.6,0.8,0,2c0.4,0,0.7,0.2,1,0.3C179.5,212.7,179.2,211.9,178.4,211.6z"/>
	<path class="st0" d="M535.6,202.2c-0.8,0.8-0.8-0.7-1.4,0.9c-0.5,1.5,0.1,2.1,1.1,3.5c4.5,5.7,6.2-4.6,3.9-7.3
		C538.8,198.8,536.2,201.5,535.6,202.2z"/>
	<path class="st0" d="M177.1,205.5c0.2,0.5-0.4,1.7,0.3,1.6C177.3,206.5,178.5,205.3,177.1,205.5z"/>
	<path class="st0" d="M176.4,184.3C176.3,184.1,176.6,184.5,176.4,184.3L176.4,184.3z"/>
	<path class="st0" d="M633.7,198.4c1.3-0.6,1.7-1.6,2-2.8c0.1-0.1-2,0.2-1.6-0.1C634.1,195.3,631.1,199.5,633.7,198.4z"/>
	<path class="st0" d="M623,202.3c-0.2,0.1-0.5,0.1-0.7,0.1c-0.6,0-1.1,0.6-1,1.3c0.4,2.3,1.1,6.3,2.2,6.4c0.4,0.1,0.5-2,0.5-2.1
		c0.3-1.9,0.5-3.3,0.3-4.8C624.3,202.6,623.7,202.1,623,202.3z"/>
	<path class="st0" d="M180.3,167.6c-0.3,1.1,0.8,2.5,1.3,1.6H181C181,168.4,181.1,167.7,180.3,167.6z"/>
	<path class="st0" d="M162.1,176.1c-1-0.2-1.9,1.3-1.6,1.3c0.5-0.1,0.6-0.4,1,0C161,176.3,162.5,177.2,162.1,176.1z"/>
	<path class="st0" d="M401,168.2c0.8,0.2,0.6-0.7,1.2-0.7C402.3,167.1,400.7,167.4,401,168.2z"/>
	<path class="st0" d="M160.1,173.8c0.3-0.2,0.5-0.5,0.7-0.8h-0.9v1.1C160,174,160.1,173.9,160.1,173.8z"/>
	<path class="st0" d="M401.3,165.9C400.3,167.1,402.1,167.6,401.3,165.9L401.3,165.9z"/>
	<path class="st0" d="M159.9,193.7v3.1c0.1,0,0.2-0.1,0.2-0.1C160.3,195.4,160,194.6,159.9,193.7z"/>
	<path class="st0" d="M160.5,193.4c0.2,0.5-0.4,1.7,0.3,1.6C160.7,194.4,161.8,193.3,160.5,193.4z"/>
	<path class="st0" d="M161.1,186.5c0.2,0.8-1.6,1.4-1,1.6c0.4-0.1,0.6-0.5,1.3-0.3C161.4,187.4,161.5,186.6,161.1,186.5z"/>
	<path class="st0" d="M411.2,162.1c0.4-0.1,0.1-1,0.6-1c-0.2-0.5-0.6-0.6-1.2-0.7C410.4,161.5,411.5,161.1,411.2,162.1z"/>
	<polygon class="st0" points="99.3,162.9 88.6,170 88.6,170 	"/>
	<path class="st0" d="M394.3,167.2c-0.6,0.4-1.3,0.5-1.5,1.4h1.5V167.2z"/>
	<path class="st0" d="M413.3,155c0.6,0-0.3-1.1,0-2c-0.6,0-0.4,0.9-1.2,0.7C412.2,154.4,413,154.4,413.3,155z"/>
	<rect x="120.5" y="150.1" transform="matrix(0.5578 -0.83 0.83 0.5578 -81.879 172.0459)" class="st0" width="0" height="25.6"/>
	<path class="st0" d="M415.3,162.1c0.4-0.4,0.5-0.1,0.9,0c0.3,0-0.6-1.6-1.5-1.4C414.4,161.9,415.7,161,415.3,162.1z"/>
	<path class="st0" d="M387.2,169.9c0.4,0,0.8,0.1,0.9-0.3C387.1,169.2,386.3,170.9,387.2,169.9z"/>
	<path class="st0" d="M394.6,157.4C394.2,156,394.2,158.7,394.6,157.4L394.6,157.4z"/>
	<path class="st0" d="M399,173.3c0.1,0.1,0.1,0.2,0.1,0.2l0.5-0.2C399.4,172.3,399.6,171.4,399,173.3z"/>
	<path class="st0" d="M162.4,195.7c1,0.1,1-0.7,2-0.7c-0.4-0.6-0.1-1.9-0.7-2.3C164.1,194.5,162.4,194.2,162.4,195.7z"/>
	<path class="st0" d="M184.6,172.8C185,174.1,185,171.5,184.6,172.8L184.6,172.8z"/>
	<path class="st0" d="M167.6,186.5c-0.4,0-0.3-0.6-0.7-0.7C166.6,186.6,167.5,187.4,167.6,186.5z"/>
	<path class="st0" d="M166,177.4c-0.2-1,0.9-0.6,0.7-1.6c-0.6,0-1.1,0.2-1.3,0.7C165.9,176.4,165.5,177.3,166,177.4z"/>
	<path class="st0" d="M166,185.6c-0.2,0.7,0.1,2.4,0.7,1.3C165.5,186.7,167.5,185.2,166,185.6z"/>
	<path class="st0" d="M180,168.3c-0.3-0.6-0.1-1.6-0.7-2C179.1,167.1,178.8,168.2,180,168.3z"/>
	<path class="st0" d="M184.9,182.3v1.3h1.6C186.4,182.8,185.5,182.7,184.9,182.3z"/>
	<path class="st0" d="M167,187.8c0.6,0.6,1-0.1,1.3-0.7C167.7,187.2,167.2,187.4,167,187.8z"/>
	<path class="st0" d="M163.7,170.6c0.3-0.6,1.2-0.5,1.3-1.3c-0.9,0.2-0.7-0.6-1.3-0.7C164.1,169.5,163.1,170.5,163.7,170.6z"/>
	<path class="st0" d="M162.4,187.8c1.8-0.2,2.7-0.5,1.6-2.6C163.5,187.8,161.5,184.8,162.4,187.8z"/>
	<path class="st0" d="M164.7,195c1,0.3,2-2,1.3-1.3c-1.2,1,0.2-1.6-1-2C164.9,192.9,164.5,193.6,164.7,195z"/>
	<path class="st0" d="M163.4,169.9c-0.1-0.4-0.6-0.2-0.7-0.7c-0.2,0.1-0.3,0.3-0.4,0.5l0.6,0.3v0.2C163,170,163.1,169.9,163.4,169.9
		z"/>
	<path class="st0" d="M192.7,184.9c1.1,1,0.2-0.7-1-0.3C191.8,185,192.3,184.9,192.7,184.9z"/>
	<path class="st0" d="M398.4,173.3c-0.2,0.2-0.3,0.5-0.5,0.8l0.4-0.2C398.3,173.8,398.4,173.6,398.4,173.3z"/>
	<path class="st0" d="M393.6,176.1c-0.8-0.2,0.5-2.8-0.8-2.4c0.3,0.5,0.4,1.8,0.2,2.7L393.6,176.1z"/>
	<path class="st0" d="M161.8,168.9c-0.1,0.2-0.1,0.3-0.2,0.4l0.3,0.1C161.9,169.3,161.9,169.1,161.8,168.9z"/>
	<path class="st0" d="M401,157c-1.3,0.2-1.3,1.9-1.5,3.4C400.8,160.2,400.9,158.5,401,157z"/>
	<path class="st0" d="M182.8,177c-0.2-0.1-0.4-0.2-0.5-0.3C182.5,177,182.7,177,182.8,177z"/>
	<path class="st0" d="M399.2,150.5c-0.5,0.3-0.3,1.4-0.6,2C399.7,152.5,399.5,151.4,399.2,150.5z"/>
	<path class="st0" d="M168,208.4c-0.1,0.4-0.4,0.2-0.7,0c-0.1,0.3-0.3,0.6-0.4,0.8v0.5C167.9,209.9,168.9,208.9,168,208.4z"/>
	<path class="st0" d="M169.7,232.3c0.2,1.2,0.1,3.4-0.1,5c-1.9,0,0-3.4-1-4.5c-0.6,1.3-1.1-0.4-1.3-1.3c0.6,0.8,0.6,0.5,1-0.3
		c-0.1-0.4-0.6-0.2-0.7-0.7c-0.3,0.1-0.6,0.4-0.7,0.7v9.7h4l0-10.1C169.7,231.1,171.4,232.4,169.7,232.3z"/>
	<path class="st0" d="M398.1,148.2c0.1,0.8,0,1.3-0.3,1.7C397.9,150.5,400,148.1,398.1,148.2z"/>
	<path class="st0" d="M381,213.9V213v-0.2C380.7,213,380.7,213.7,381,213.9z"/>
	<path class="st0" d="M168,210c-0.4,0-0.8,0-1.1,0.2v1.4c0.1,0.2,0.2,0.3,0.4,0.4C167.5,211.3,168.1,211,168,210z"/>
	<path class="st0" d="M180.3,176.1c-0.1-0.3,0-0.6-0.3-0.7c0.1,1.5,1.4,0.8,2,0.7c-0.2-0.6,0.4-1.9-0.3-2
		C181.5,175.1,181.1,175.7,180.3,176.1z"/>
	<path class="st0" d="M183.3,188.5c0,0.8,0.2,1.4,0.7,1.6C183.8,189.5,184.4,188.2,183.3,188.5z"/>
	<path class="st0" d="M181,165.7c-0.3-0.4-0.4-0.9-0.3-1.6C178.5,164,180.8,166.3,181,165.7z"/>
	<path class="st0" d="M184.6,182.9c-1.4,0.4-0.4-1.6-1.6-1.3C182.5,182.9,184.1,183.8,184.6,182.9z"/>
	<path class="st0" d="M183,170.9c0.1-0.7-0.1-1.2-0.7-1.3C182.2,170.3,182.4,170.8,183,170.9z"/>
	<path class="st0" d="M400.7,167.2v-1.7c-1.2-0.5,0.1,1.9-1.2,1.4C399.6,167.3,400.3,167.2,400.7,167.2z"/>
	<path class="st0" d="M399,166.5c-0.3,0-0.2,0.4-0.3,0.7c-0.8-0.3,0.4-1.1,0-2c-0.3,0-0.2,0.4-0.3,0.7c-0.2,0.1-0.3-0.1-0.3-0.3
		c-0.7,0.2,0.4,0.5-0.3,1c-0.6,0.1-0.1-1.2-0.3-1.7c-0.7,0.6-0.6,1.3-0.9,3.1C397.8,167.9,399.2,168.2,399,166.5z"/>
	<path class="st0" d="M394.3,173.3c-0.2,0.8-0.4,1.5-0.3,2.6l1-0.4C394.9,174.7,394.7,174,394.3,173.3z"/>
	<path class="st0" d="M867.3,212.7c0,0.1-2.8,0.7-2.8,0.8c-0.3,0.5,2.9,0.6,3.5,0.5c0.6-0.1,1.3-0.4,1.8-0.7
		c0.4-0.2,0.5-0.8,0.2-1.1C868.9,211.1,867.9,210.6,867.3,212.7z"/>
	<path class="st0" d="M879.5,200.4C879.5,200.4,879.5,200.4,879.5,200.4c-0.3-0.1-0.7,0-0.9,0.3c-0.6,1.2-2.2,2.2-3.4,2.5
		c-0.4,0.1-0.6,0.5-0.5,0.8c0.2,1.3-1.2,2.6-2.6,2.6c-0.3,0-0.6,0.2-0.7,0.5c-0.1,0.4-0.3,0.6-0.6,0.8c-0.4,0.2-0.5,0.6-0.3,1
		c1.5,3.3,6,6.9,8.2,2.8c1.7-3.1,0.3-7.1,1.4-10.5C880.2,200.9,879.9,200.5,879.5,200.4z"/>
	<path class="st0" d="M886.5,203.3c-0.6-0.6-2-2.5-2.6-2.3c-3.1,1.2-1.6,12.2,2.9,6.6c1.1-1.3,1.6-1.9,1.1-3.4
		C887.4,202.6,887.4,204.1,886.5,203.3z"/>
	<path class="st0" d="M395.1,175.4c0.4-0.3,0.6-0.9,0.6-1.7C394.7,173.3,395.3,174.7,395.1,175.4L395.1,175.4z"/>
	<path class="st0" d="M396,166.5c-1.1-0.3-0.2,1.8-1.5,1.4C395,168.8,396.5,167.9,396,166.5z"/>
	<path class="st0" d="M396.6,153.9c-0.5,0.1-0.7,0.6-0.6,1.4C396.5,155.2,396.7,154.7,396.6,153.9z"/>
	<path class="st0" d="M400.4,150.9c0.6-0.3,1-0.8,0.9-2c-0.2-0.1-0.3,0.1-0.3,0.3c-0.1,0.5-0.4-0.1-0.9,0
		C400,150,400.7,149.9,400.4,150.9z"/>
	<path class="st0" d="M398.4,151.9c-0.6,0-0.6,0.9-0.6,1.7h-0.6C397.7,154.5,398.7,153.1,398.4,151.9z"/>
	<path class="st0" d="M396.9,160.8c0.5,0.1,1.7,0.9,1.8-0.7c-0.3,0-0.2,0.4-0.3,0.7c-0.7-0.4-1.1-1-1.2-2
		C396.5,158.8,397.1,160.2,396.9,160.8z"/>
	<path d="M655.1,209v-22h2h22h1h40v-9h-40h-1h-22h-2v-3h113v3h-2h-23v29h23h2v2h-34h0h-66v1h66v3h90h4v-4h-4v-13c0-0.6-0.4-1-1-1
		s-1,0.4-1,1v1h-34.2c-0.6-0.9-1.6-1.6-2.2-2.6c0.9,1.1,1.2-0.3,2.7,0c0.3,0.8,1.9,1.4,2.7,0.8c0.1-1.5-1.2-1.7-1.9-2.4
		c0.9,0,1.2,0.5,1.6-0.3c-0.5-0.9-1.8-1.1-2.7-1.6c0.4,0,0.6-0.1,0.8-0.3c1.1-0.2,1.1,0.7,2.2,0.5c-0.3-2.1,2.1-0.5,3.3-0.8V189
		c-1-0.6-1.7,0.1-2.2-0.8c1.1-0.1,1.2-0.5,0.5-1.1c0.4,0.1,0.5,0.4,1.1,0.3c0.6-0.8,1.8-2.5,0.3-2.4c0.7-0.3,1.1-0.9,1.1-1.9
		c-2.1-0.1-3.4,2.2-5.4,3c0.7-1,1.6-1.8,1.9-3.3c-2.3,0.6-3.1,2.9-4.3,4.6c-0.6-0.7-2.7,0.9-3,0.5c0-0.6,0.5-0.8,0.3-1.6
		c-1.3-0.5-1.8,2-3,2.4c-0.4-0.7-0.8,0.5-1.1-0.3c1.2-0.3,3.3-2.1,1.9-3.3c-1.1,0.8-2.2,1.7-3,2.7v-1.1c-1.1,0.9-2.2-0.2-3-1.1
		c1.4-0.3,1.6-1.8,3.5-1.6c0.5-0.9-1-1.1-0.3-1.4c2,1.1,1.9,1.4,4.9,1.4c-1-1.5,0.1-1.8-0.8-3.3c1,0.9,1.8,1.1,4.1,1.1
		c0-1.6-1.4-1.7-2.4-2.2c1.3,0.2,0.7-0.8,2.2-0.8c0.7,0.9,1.6,1.7,3.3,1.6c0.4-1.5-1.4-0.8-1.4-1.9c1.6,0,2.7,0.5,4.1,0
		c0.3-1.1-0.8-0.7-0.8-1.4c1.6-0.2,1.5,0,3-0.5c-0.5-2.2-3.3-1.3-4.3-1.1c0-0.6,0.5-0.8,0.3-1.6c-1.4-0.3-0.8,1.4-1.9,1.4
		c0-0.3-0.3-0.4-0.3-0.8c1.1-0.3,1.7-1.1,1.9-2.2c-2.5,0.5-3.1,1.7-4.6,2.7c0.3-1.5,0.8-1.8,0.8-3.3c-1.5,0.4-1.5,2.3-2.7,3.3
		c-1,0.7-2.5,1-3.5,1.1c-0.3-0.9,0.8-0.4,1.4-0.5c0.3-1.6-1.4-1.1-1.9-1.9c2-0.2,3.8-0.6,5.4-1.1c-0.4-1.9-3.4,0-3.8-0.8
		c1.8-1.6,2.9-2.3,4.1-4.6c-2.1,0-2.7,1.5-4.1,2.2c0.1-0.4,0.4-0.5,0.3-1.1c-1.4,0.3-1.9,1.3-3,1.9c0-1.7-1-2.4-2.2-3
		c1.6-0.1,3-0.4,3.3-1.9c0.9-0.1,2.2,0.2,2.7-0.3c0.3-1-0.9-0.5-1.1-1.1c1.1-0.1,2-1.8,0.5-2.2c1.1-0.5,1.8-1.5,1.9-3
		c-2.6,0.4-3.2,2.7-4.6,3.3c0.5-0.7,0.4-2.6-0.8-2.4c-0.6,3.5-3.8,4.5-5.2,7.3c0.1-1,0.7-1,0.3-1.9c-0.8-0.1-1.6,1.1-1.9,0.5
		c1-1.3,2.1-2.6,3.8-3.3c0.3-1-1-0.4-0.8-1.4c1,0.1,1.4-0.2,1.6-0.8c-0.8-0.9-2.7,0.4-3,0c0.3-0.7,0.9-1.9,0.3-2.7
		c-1.4,0.2-1.4,1.7-1.9,2.7c-0.6-0.8-1.6-3-2.7-1.6c0.1,0.3,1,1.3,0.5,1.4c-0.5-0.1-0.7-0.6-1.4-0.5c-0.3,1,0.7,0.8,0.5,1.6
		c-1.3-0.2-1.9,1.6-2.4,1.1c0.6-0.4,0.4-1.6,0.8-2.2c-0.7,0.1-0.9-0.4-0.8-1.1c1.6-2,5.5-1.5,5.7-4.9c1-0.6,2.9-0.4,3-1.9
		c-1.3,0.1-1.7,0.3-3,0.8c0.6-1.4,2-1.9,2.4-3.5c-0.7-0.4-1.1,0.8-1.4,0c0.5-0.7,1.1-1.2,1.1-2.4c-2,0.3-2.2,1.5-3,2.4
		c0.1-0.7-0.1-1.2-0.8-1.1c-0.1,0.2-0.2,0.3-0.5,0.3c0.1,1.3-0.4,2-0.8,2.7c-0.2-1.3,1.5-3.3,0-4.1c-0.9,0.6-0.4,2.6-1.4,3.3
		c0-0.6,0.5-0.8,0.3-1.6c-1-0.3-1.9,1-2.2,0.5c0.8-0.6,1.5-1.2,1.9-2.2c-0.2-0.5-1.3,0-1.4-0.5c1.1-1.1,0.7-2.3,1.6-3.8
		c-1-0.2-1,0.6-1.9,0.5c0.5-1,1.9-1.2,1.9-2.7c-0.8-0.4-1.5,0.8-1.9,0c0.6-1.4,0.8-2.3,0-3.5c-0.4,0.6-0.9,1.1-1.4,1.6
		c0-1.7-0.3-3.1-1.4-3.8c-0.9,1.8-0.3,4.6-1.1,6c-0.1-1.2-1.7-1.1-2.4-0.8c0.1,3.1,3.2,2.5,2.7,4.3c-0.2-0.4-1.1-1.4-1.6-0.5
		c0.6,1.4,1.1,4.6,1.4,6c-1.6-0.5-1.6-2.6-3.5-2.7c0,1.1-0.2,1.7-0.8,2.7c0.9,0.2,1.6,0.6,2.2,1.1c-1,0-2,0-2.4,0.5
		c0.3,0.9,1.9,0.5,2.2,1.4c-0.9-0.3-0.7,0.4-1.1,0.5c-0.8-1.8-2.6-2.6-3.3-4.6c-0.8,0-1.5-0.6-2.2,0c0,0.8,0.6,1.1,0.8,1.6
		c-0.1,0.1-1.2-0.8-1.3-0.7c-0.6,0.4,0.2,0.8,0.2,1.5c0.4,1,1.3,1.6,2.2,2.2c-1.1,0-1.8,0.3-1.6,1.6c2.5-0.3,3.8,0.5,5.2,1.4
		c-1.1-0.1-0.7,1.2-1.4,1.6c-0.7-0.5-1.3-1-2.4-1.1c0.1,1.8,1.7,2.1,2.4,3.3c-0.9-0.3-0.6,0-1.6,0c0,1.3,1.6,1.2,2.2,1.9
		c-0.1,0.4,0.3,1.4-0.3,1.4c-0.7-0.7-1.7-2.2-3-1.4c0.4,1.9,1.4,1.4,2.2,3c-0.6-0.3-0.7,0.1-1.4-0.5c-0.3,0.4-0.3,1-0.8,1.1
		c-1.5-0.8-1.7-2.9-3.3-3.5c-0.8,1.2,0.4,2.2,0.8,3c-2.4-1.2-3.4-3.9-6-4.9c0.2,1.7,1.7,2.1,2.4,3.3c-1.6-0.9-3.1-1.9-5.2-2.4
		c-0.6,0.6,0.5,1.1,0.8,1.6c-0.1,0.5-1.1,0.2-0.8,1.1c1.2,1,1.8,0.8,3,1.6c-0.8,0.4-1.8,0.5-1.9,1.6c1,0.9,2.8-0.9,3.3-0.5
		c-0.3,1.2-1.1,1.5-1.6,3c1.3,0.5,2.6-1.1,3.5-1.9c0.1,0.7-0.5,0.6-0.3,1.4c1.1-0.4,0.4,0.2,1.6,0.5c-0.3,0.6-1.4,0.5-1.4,1.4
		c0,0.1,0.1,0.1,0.1,0.2H748c-0.4-0.4-0.7-0.8-1.3-1c-0.2,0.3-0.2,0.7-0.2,1H746c-0.6-0.8-1.2-1.7-2-2.4c-0.4,0.2,0,1-0.5,1.1
		c-0.5-0.8-1.4-1.4-2.7-1.4c0,1.7,2,1.5,2.7,2.4c-0.7,0-0.9,0-0.9,0.2h-1.1c-0.8-0.4-1.7-0.7-2.6-0.2c0,0.1,0.1,0.1,0.2,0.2h-68.9
		c-1.2-1.9-4.5-3.9-4.4-3.5c-0.3-1.5-8.8-10.1-11.8-9.1c-0.4,0.1-0.9,0-1.2-0.3c-1.1-1.3-4-2.8-5.6-3.1c-0.4-0.1-0.8-0.5-0.8-0.9
		c-0.2-2.1-4.4-0.6-5.3-0.4c-2.8,0.6-3.2,0.8-5.6-0.9c-2.4-1.6-2.3-2.2-5.2-1.8c-1.9,0.3-3.7,0.7-4.1,2.5c-0.1,0.6-0.7,1-1.3,0.9
		c-2.4-0.5-4.6,0.7-6.6,0c-0.6-0.2-1.5-1.6-2.4-2c-1.5-0.7-1.9-0.2-3-0.3c-3.2-0.5-5.8-1.2-7.7,2.3c-0.7,1.2-0.2,2.7-0.6,3.7
		c0.2,0.6,0.4,1.3,0.4,2v2.2c0,3.8,3.1,6.9,6.9,6.9c1.9,0,3.4,1.6,3.4,3.5c0,1.6-1,2.9-2.4,3.3h1.9v0.4v2.6h-1v3v3v3v3v3v3v3v1.3
		c0.1,0,0.2,0,0.3,0c0.4-0.1,0.8,0,1.1,0.3c0.7,0.9,1.7,1.9,1.8,2c1.4,0.4,1.3-1.4,2.7-0.5c0.7,0.4,0.8,4.8,0.9,7.4
		c0,0.9-0.9,1.4-1.6,1c-1.5-0.9-2.9-2.1-4.3-3.5v1.2c2,1.9,3.8,3.8,4.6,6.5c1.5,4.6,0.6,10.7,0,15.4c-0.2,1.8,0.4,7,0.4,7
		c0,0-1.6,7-1.6,7h0.1c0.6,0,5.9,0,8.4,0h1.4c-0.1-2.1-0.8-14.1-1-15.5c-0.4-2.4-1.3-5.6-0.7-8c1.2-4.5,7.6-10.5,12.3-11.2
		c0.6-0.1,6.8,2.9,7.7,1.5c0.2-0.3,0.6-0.6,1-0.5c1.8,0.2,1.4-1.7,3.2-2.1c0.1,0,4.4,1.8,5.3,1.7c0.2,0,8.6,0.9,8.8,1
		c1,0.6,2.4,0.9,3.6,0.9V209H655.1z M696.1,179h23v7h-23V179z M658.1,179h24v7h-24V179z M624.1,208c0,0.1-0.1,2.2-0.5,2.1
		c-1.2-0.2-1.9-4.1-2.2-6.4c-0.1-0.6,0.4-1.2,1-1.3c0.2,0,0.5,0,0.7-0.1c0.6-0.2,1.3,0.3,1.4,0.9C624.6,204.7,624.4,206.2,624.1,208
		z M634,195.5c-0.3,0.3,1.8,0,1.6,0.1c-0.3,1.2-0.6,2.2-2,2.8C631.1,199.5,634.1,195.3,634,195.5z M628.1,209.1
		c-1.1,0.7-1.3-5.1-1.2-5.7c0.4-2.2,1.4-2.4,1.7-4c0.1-0.4,0.5-0.7,0.9-0.8c0.1,0,0.1,0,0.2,0c0.8-0.2,1.5,0.5,1.4,1.3
		c-0.4,2.7-1.2,5-2.3,7.7C628.6,208.2,628.4,208.7,628.1,209.1z M638,208c-0.1,0.2-0.2,0.5-0.2,0.7c0,0.5-0.3,0.9-0.7,1.1
		c-0.7,0.2-1.4,0.5-2.1,0.9c-1.1,0.5-2.2,1.1-3.3,1.7c-0.9,0.5-1.9-0.3-1.6-1.2c0.8-2.8,1.2-5.7,2.5-8.2c0.5-1,2.6-4.5,3.9-4.6
		c1.6-0.1,0.7,0.8,1.3,1.5c0.3,0.3,0.3,0.7,0.2,1.1c-0.6,1.6-1,5,0,6C638.2,207.2,638.2,207.6,638,208z M764.2,168.1
		c-0.6,0.6-1.5-0.9-1.4-1.9h0.8C764,167,763.3,167.5,764.2,168.1z M774.5,196.1c0.2-1,0.8-1.8,1.6-2.2
		C775.5,194.6,775.7,196,774.5,196.1z M782.3,198c-0.4,0.8-0.7,1.6-1.6,1.9c-0.2-1.8-1.5-1-3.8-1.4c0.3-0.2,0.5-0.3,0.8-0.5H782.3z
		 M788.6,205.9c-0.4-0.5-1-0.8-1.6-1.1C786.3,204.4,789.3,204.5,788.6,205.9z M782.1,208.3c0.1-1-0.6-1.2-1.1-1.6
		c0.2-0.3,1,0.2,1.6-0.3C782.9,207.4,783.5,208.1,782.1,208.3z M781,204.8c0.1-0.7,1.1,0,0.8,0.5C781.2,205.5,781.4,204.8,781,204.8
		z M774.2,206.7c0.5,0,0.9-0.2,1.1-0.5c0.8,0.4-0.3,1.6-0.3,1.6c-0.6-0.1-1.8-0.7-2.2,0.3c-0.3-0.1-1-0.8-0.8-0.8
		c-0.8-0.6-1-0.1-1.9-1.7c1.6,0,3.5,0.3,3.5-1.4c-0.1-0.1-0.2-0.2-0.3-0.2h0.6C774,204.9,773.5,205.8,774.2,206.7z M773.4,202.6
		c0.2,0.1,0.3,0.3,0.4,0.4h-1.3C772.8,202.8,773.1,202.7,773.4,202.6z M788.7,203c0,0-0.1-0.1-0.1-0.1c0.5,0,0.9,0,1.3,0.1H788.7z
		 M785.1,198.5c-0.1-0.1-0.1-0.3-0.2-0.5h0.9C785.5,198.2,785.2,198.3,785.1,198.5z M772,193.4h1.4c0.4,0.4,0.3,1.2,0.3,1.9
		C773.5,194.2,772.3,194.3,772,193.4z M769.9,184.4c0.4-1.7-0.8-0.5-1.1-1.1c0.4-1,1.8-1.1,1.6-2.7c1.2,0.4,2.8,0.3,3.5,1.1
		C772.5,181.6,772.1,184.4,769.9,184.4z M765.1,206h-21v-27h21V206z M776.9,206.1c1.3,0.2,1.9,1.6,1.8,2.9h-4.4
		C775.4,208.3,776.6,208.1,776.9,206.1z M791.7,209c0.1-0.2,0.3-0.5,0.2-1c-1.4,0.5-2,0.6-3,1h-0.4c-0.4-0.5-0.2-0.6-0.4-1.2
		c-0.6,0.1-1.1,0.3-1.6,0.5c0-0.3,0.3-0.4,0.3-0.8c-0.8,0.1-1.4,0.4-1.9,0.8c-0.1-1-1-2.3-1.6-3.5c2.4,1.4,3.9,2.5,6.5,3.3
		c0.6-0.8,0.2-2,0.5-2.4c0.7-0.1,2.5,1,2.7-0.5c-0.5-0.6-1.5-0.8-2.3-1h1.3c0.3,0.1,0.6,0.2,1.1,0.2c0.1-0.1,0.1-0.2,0.2-0.2h28.9v5
		H791.7z M822.1,203h-28.9c-0.3-0.6-1.1-1-0.7-1.2c1.2,0.7,2.1,1.4,3.5,0.8c0.4-0.7-1.1-0.9-0.3-1.1c0.8,0.2,1.3,0.1,2.4,0
		c-0.2-2-2.6-1.9-3.8-1.6c0.1-0.5,0.8-0.5,0.5-1.4c-0.8-0.1-2.3,0.6-3.3,0.5c-0.2-0.7-0.1-0.7-0.1-1.1h30.6V203z M784.3,195.3
		c0.8-0.2,1.4,1.1,1.8,1.7h-1.6C784.2,196.2,783.9,195.4,784.3,195.3z M781.3,195.8c0.6,0,0.9-0.2,0.8-0.8c0.3,0.9,1.1,1.4,1.7,2
		h-0.5c0,0-0.1-0.1-0.2-0.1c0,0-0.1,0.1-0.1,0.1h-2.7c-0.2-1-0.7-1.6-1.3-2.3C779.5,194.3,780.7,195.5,781.3,195.8z M779.2,197h-0.5
		c0.1-0.1,0.1-0.2,0.1-0.4C778.9,196.8,779.1,196.9,779.2,197z M777.2,195c0.9-0.3,0.2,0.9,1.1,0.5c-0.2,1-0.9-0.2-1.1,0.8
		C776.4,196.1,777.6,195.7,777.2,195z M776.1,183.6c-0.1-0.6,0.4-0.5,0.8-0.5C776.8,183.4,776.6,183.6,776.1,183.6z M781.8,181.7
		c-0.5,0.1-0.6-0.3-0.3-0.3c-0.1-0.2-1.2-0.7-1.1-0.3C779.6,179.8,782.8,181.2,781.8,181.7z M778.8,175.4c1.1,0.2,1,0,1.6,0.3
		c-0.8,0.5-1.3,1.3-2.7,1.1C777.9,176.2,779.2,176.6,778.8,175.4z M776.9,167.3c0.3,0.8-0.6,0.5-1.1,0.5
		C776,167.5,776.4,167.3,776.9,167.3z M772.9,170c1,0,1.6,0.4,2.4,0.5c0.8-0.1,0.5-0.8,0-1.1c-0.3-0.2,1.6-0.1,2.7-0.3
		c0.2,0.9-0.2,1.3-0.3,1.9c-1-1.8-2.6,1-2.7,2.7c-0.4-0.3-0.4-1-0.8-1.4c-0.7,0.2-0.9,0.9-0.8,1.9c-0.6,0.1-0.6-0.5-1.3-0.3v-3
		C772.5,170.8,772.8,170.6,772.9,170z M770.1,163.5c1,0.4,0.9,1.4,0.5,2.4c-0.4-0.1-0.8-1.5-1.1-0.8
		C768.9,164.7,770.6,164.5,770.1,163.5z M768.8,165.1c0.6,0.8,1.3,2.7,0.3,3.5C768.6,167.6,768.7,166,768.8,165.1z M767.7,152.9
		c-0.2,0.2-0.4,0.7,0,0.8c-0.2,0.5-0.6,0.2-0.5-0.3C766.2,154.2,766.9,152.7,767.7,152.9z M766.6,169.2c0.7,0.3,0.1,1.3,0,1.8h-0.1
		C766.1,170.7,766.9,170,766.6,169.2z M763.3,159.9c-1,0.5,0,1,1.1,0.8c0.1,0.5,0.1,1.2,0.8,1.1c-0.8,0.6-2.4-1.7-3.3-1.1
		C761.2,160.3,762.6,159.8,763.3,159.9z M757.9,169.7c0.4,0.1,0.2,0.7,0.3,1.1c1.2-0.2,1.5-1.2,1.6-2.4c0.8,0.3,1.6-0.1,2.4,0.5
		c-0.6,1.1-2,0.5-2.7,1.9c0,0.1,0,0.1,0,0.2h-3C757.1,170.7,757.6,170.3,757.9,169.7z M756.5,169.2c0,0.5-0.9,0.2-0.8,0.8
		C755.2,169.9,756,169,756.5,169.2z M751.4,168.1c0.3-0.3,0.1-1,0.8-0.8C752.2,167.9,752,168.1,751.4,168.1z M755.2,170.8
		c0,0.1,0,0.1,0,0.2h-0.6C754.8,170.9,755,170.8,755.2,170.8z"/>
	<path d="M613.6,207h0.1c0,0-0.1-0.1-0.1-0.1V207z"/>
	<path d="M863.8,239.3c-0.2-0.6-0.6-1.1-1.2-1.4l0.1-0.1c0.3-0.4,0.3-0.8,0.2-1.3c-0.1-0.5-1-1.2-1.2-1.6c-0.4-0.9-0.3-2.1-1.2-2.6
		c-0.5-0.4-1.7-0.6-2.1-0.8c-0.5-0.3-0.6-0.6-0.9-1c-0.2-0.3-0.2-0.7,0.1-0.9c0.9-0.9,1.1-2.4,0.8-3.8c-0.1-0.4-0.9-0.8-1.1-1.2
		c-0.7-1.6-1.3-2.6-2.9-1.8c-0.3,0.2-0.6,0.1-0.8-0.2c-0.5-0.6-1.3-0.2-1.9-0.5c-0.5-0.2-0.7-0.9-1.3-1c-0.5-0.1-1.5,0.4-1.8,0.3
		c-1.2-0.2-1.8-0.6-3.2-0.6c-0.2,0-0.4,0.1-0.5,0.2l-0.1,0.1c-0.2,0.3-0.6,0.3-0.9,0.1l-0.3-0.2c-0.2-0.1-0.4-0.1-0.5-0.1
		c-0.5,0.1-0.8,0.1-1.2,0.4c-0.3,0.2-0.7,0.1-0.9-0.1c-1.4-1.7-3.2-1.1-4.7-0.7c-1,0.3-1.4,0.3-2.3,0.5c-0.2,0-0.4,0.2-0.5,0.4
		c-0.2,0.5-0.6,0.6-1,0.4c-0.3-0.1-0.6-0.2-0.8-0.3c-0.1,0-0.2,0-0.3,0c-2.4,0.2-5.1,0.7-5.9,3.5c-0.2,0.7-0.2,1.3-0.1,2
		c0.1,0.3-0.1,0.7-0.4,0.8l0,0c-0.1,0.1-0.3,0.2-0.3,0.3c-0.2,0.4-0.4,0.6-0.6,0.9V214h-86v31h5v-27h16v27h1v-27h4v27h12h0h42h3.5
		h2.5h35.1c0,0,0-0.1,0.1-0.1c0.4-0.2,0.6-0.5,0.7-0.9c0-0.3,0.3-0.6,0.6-0.6c2.2-0.2,3.6-1.7,3.2-4.1
		C863.8,239.4,863.8,239.3,863.8,239.3z M818.1,221v2h-42v-2H818.1z M818.1,224v2h-42v-2H818.1z M818.1,227v2h-42v-2H818.1z
		 M818.1,230v2h-42v-2H818.1z M818.1,233v2h-42v-2H818.1z M818.1,236v2h-42v-2H818.1z M776.1,239h42v2h-42V239z M818.1,218v2h-42v-2
		H818.1z M776.1,244v-2h42v2H776.1z"/>
	<path d="M981.2,225.5c0.5-1.2,0.7-2-0.3-2.5c0.8-3.1,0.8-1.9-0.9-3.1c1-2.9,0-0.5,0-2.1c0-0.9,2.2-3.5,0.1-3
		c0.4-2.2-0.1-1.5-0.3-2.2c-0.5-1.6,0.3-3.1-1.3-2.9c0.8-2-1-3.5-1.4-5.5c-0.1-0.3,0.2-1.3-2.1-3.7c-0.6-0.6-0.4-1.1-1.2-1.5
		c-0.2-0.9-0.5-1.7-0.9-2.2c-0.3,0-0.6,0.2-0.8,0.8c-0.4-0.5-1-1.4-1.4-1.7c-0.5-0.4-1.7-2.6-2.1-2.7c-1.3-0.4-0.9,0.7-1.9,0.8
		c-0.3-1.5-0.8-2.1-1.4-1.6c0.2,1.1,0,1.7-0.5,1.8c-0.1,0-0.3-0.2-0.6-0.4l0,45.5h-2v0h-2v1.5l1,0v2.5l1,0v2l3,0h11.6
		c0-0.1-0.1-0.2-0.1-0.3c0.1-0.1,0.9-1,0.9-0.8c0.2-0.5,0.7-1.9,1-2.8c0.2-0.6,0.9-0.4,1.2-1.1c0.2-0.5-0.7-1-0.6-1.5
		c0.8-3.2,0.1-1.9-0.1-3.8c0-0.8,1.4-0.4,0.5-1.5c0.9-0.6,1.4-1.7,0.6-3.1C981.1,229.7,983.4,226.4,981.2,225.5z"/>
	<path d="M521,242.7c-0.1-0.6,0.7-1,0.1-1.7c-0.3-0.4-0.7-0.3-1.1-0.3c-0.1,0-0.1,0-0.2,0.1l-0.1,0.1c-0.1,0.1-0.2,0.1-0.3,0
		c-0.2-0.2-0.4-0.2-0.6-0.1c-0.1,0.2-0.1-1.5,0.3-1.4c0.5,0.1,0.8-1.3,0.5-1.9c-0.2-0.4-0.6-0.3-0.8-0.5c0.1,0-0.5-0.9-0.9-1.1
		c-0.1,0-0.1,0-0.2,0l-0.2,0.1c-0.1,0-0.2,0-0.3-0.1c-0.1-0.1-0.2-0.2-0.4-0.3c-0.1,0-0.2-0.2-0.2-0.3c0.1-0.5-0.1-1.4-0.3-1.6
		c-0.1-0.1-0.2-0.1-0.4,0c-0.2,0-0.3-0.1-0.3-0.2c0-0.3-0.3-0.5-0.7-0.5c-0.1,0-0.2-0.1-0.3-0.2c0-0.7-1.2-0.3-1.5-0.3
		c-0.3,0-0.5-0.1-0.8-0.2c-0.1,0-0.1,0-0.2,0l-0.1,0.1c-0.1,0.1-0.3,0-0.3-0.1c-0.1-0.1-0.1-0.1-0.2-0.2c-0.1-0.1-0.2-0.2-0.1-0.3
		c0.4-0.9-1.4-1.3-1.9-0.4c-0.1,0.1-0.2,0.1-0.3,0.1c-0.3,0-0.8,0-1.1,0.1c-0.1,0-0.3-0.1-0.3-0.2c-0.1-0.7-1-0.3-1.3-0.8
		c-0.2-0.3-0.9-0.4-1.4,0c-0.1,0-0.1,0.1-0.2,0c-1.1-0.2-1.9,0.9-2.1,1.1c-0.4,0.3-0.9,0.5-1.2,0.8c-0.1,0.1-0.4,0.6-0.6,0.7
		c-0.3,0.3-0.6,0.1-1,0.5c0,0-0.1,0.1-0.1,0.1V215l3.4,1.5l0.8-1.8l0,0L476,201.9l-28.2,12.9l-0.4-0.8l2-0.9l26.5-12.1l28.6,13
		l0.4-0.8l-16-7.3V168h-42v-8h0.2h0.8v-2h-8v2h0.8h0.2v8h-20.4l-3.8-1.7c0-0.7,0-1.4,0.3-1.8c0.5,0.7,1.1,1.3,1.5,2
		c0.4-0.4,0.6-1.8,0.6,0c0.4-1.2,0.6-1.3,1.5-1.4c-0.8-0.3-2.2-1.5-3.8-2.4c-0.1-0.7,0.2-0.9,0.3-1.4c0.3,0.5,1.1,0.5,1.5,1
		c0-2,0.9,0.8,0.9-1.7c0.3,0.2,0.3,0.8,0.9,0.7c-0.2-2.1-2.7-1.4-3.8-3.1c-0.8-0.7-1-2.3-2.3-2.4c0-0.8,0.2-1.6-0.4-1.7
		c0.1-0.4,0.4-0.3,0.4-0.7c0.5,0.3,0.5,1.2,0.9,1.7c0.8-0.3-0.4-1.1,0-2c0.4,1.3,1.1,0.5,1.5,2c0.4-0.1,0.9,1.2,1.3,1.2
		c0.9,0.5,0.6-0.7,1-0.6c-0.5-0.4-0.7-1-1.3-1.6c-2.2-1.2-1.3-2.5-4-3.1c0.3-0.3,0.2-0.9,0.6-1c0.1-0.9-1.6,0.3-1.2-1
		c-1.2,0-1.9,0.7-2.9,0c0.5-1.5,1.4-0.9,2.6-1c-0.6-0.8-2.2-1.1-3.1-1.6c-0.7-0.4-0.7-0.9-1.3-1.5c0.3-0.4,0.8-0.6,0.6-1.7
		c0.2-0.4,1.3,0.4,0.9-1.4c0.7,1.4,0.7-1.3,1.8-0.7c-0.9-1,0.9-0.4,1.2-1c-0.9-0.8-2.6,0.4-3.8,0.3c-0.4-0.3,0.2-2.4,1.2-1.4
		c-0.7-1.9,2.9-4,2.3-4.8c-0.7-0.9-0.4,0.7-1.7,0.2c0.2,0.5-1,0.7-0.9,1.2c-0.6-2-2.1,0.3-3.2-0.7c0.4-0.2,1.4-0.4,1.5-0.3
		c0-0.4,0.1-1.8-0.3-2.7c0.2-0.4,1.1-1.6,1.2-1c-0.1-1.3-0.3-3.3,1.8-3.7c-0.1-0.5-0.7-0.3-1.2-0.3c0.4-0.5,0.5-1.4,1.2-1.7
		c-0.8-0.2-1.3,1.3-1.8,1.4c-0.3,0-0.9,1.4-0.9,1.4c-0.1,0.1-1.3-0.9-0.9,0.3c-0.5-0.8-0.1-1.2-0.6-2c0.2-0.7,1.4-0.1,0.6-1
		c1-0.3,1.2,0.6,1.8,0c-0.4-0.5-1.1-0.8-1.5-0.3c0.5-0.9,0.4-2.5,1.8-2.4c-0.2-0.3-0.4-0.6,0-0.7c-0.7-0.3-2,1.6-2.9,2
		c-0.6-2.3-0.8-0.9,0.3-2.5c-0.2-0.8-0.5-1.8-0.5-1.8c-0.5,0.1-0.1-3.4-0.7-0.8c-1.4-0.1-2-0.1-1.5,0.7c0.1,0.9-0.3,1.5,0.9,1.4
		c0,0.9-0.5,0.7,0,1.4c-0.1,0.6-0.9-0.3-1.2,0.7c-1.3-1-1.5-1.8-2.9-3.1c0.4,0.5,0.5,1.4,1.2,1.7c-0.1,0.5-0.9,0.1-0.9,0.7
		c-0.7,0.6,1,0.3,1.6,0.5c0,0.3-0.5,0.8-0.8,0.8c1.7,0.8,0.9,1.1,0.4,2.1c0.4,0.1,0.7,0.6,1.5,1c-0.9,0.8,0.7,2.5-0.6,2.7
		c0.2,0.5,0.7,0.7,1.5,0.7c-0.7,0.4-1.4,0.7-2.3,0.4c-1.1-0.4-2.4-1.5-3.2-1.1c1.2,0.9,3,2.9,2.3,4.8c0.1,0.5,0.4-0.1,0.9,0
		c0.5,0.1,0.2,1.2,0.6,1.4c-0.6-0.1-0.8,0.3-1.4,0.2c-0.8-0.1-1.9-0.7-2.7-0.9c1,1.4,2.3,0.7,2.3,2.7c0.8-1.1,0.5,1.7,1.5,0.3
		c0,0.8,0,1.6,0.3,2c-0.5,0.7-0.2,1.7-0.9,2.1c-0.7,0.4-2.5,0.2-3.2,0.7c1.1,0.6,1.6,0.1,2.6,1c-0.6,1.2-1.8,0.3-2.9,0.3
		c0.3,1-0.7,0.6-1.2,0.7c0.2,0.5,0.4,0.9,0.6,1.4c-0.7,0.5-1.8,0.7-2.9,0.7c-1.1,1-1.9,0.5-2.8,1.4c-0.1,0.1-0.2,0.3-0.2,0.5
		c0,0.4-0.6,1.7-0.5,1.5c0.1,1,1.2-0.1,1.5,0.7c0-1.4,1.2-0.3,1.2-0.3c0.3-0.1,0.1-1.7,0.6-0.3c0.4-0.8,1.6-0.7,1.5-2
		c0.7,0.1,0.2,1.8,0,2c0.5,0.8,0.4-2.1,1.8-1.4c-0.4,2.5-2.7,2.8-2.9,5.4c-0.9,1-2.7,1-2.9,2.7c0.4-0.1,0.5-0.6,0.9-0.7
		c-0.2,1-0.2,0.7,0,1.7c0.5,0.1,0.6-0.3,0.6-0.7c0.7,1.2-1,2.7-2.6,2.4c0.3,1.4,1.6-0.5,1.2,1.7c0.4-0.1,0.1-1,0.6-1
		c0.4,0.1-0.1,0.4,0,1c0.6-0.6,1.4-0.9,1.5-2c0.5,0.3,0.6,1.1,0.6,2c0.6,0.2,0.6-0.5,0.6-1c0.6,0.1,0.1,1.1,0.4,1.2
		c0.2-0.1,0.9-0.1,1-0.2c-0.2,0.2-0.4,0.3-0.5,0.3c-3.2,1.8-6.1,3-10.1,2.1c0.3,0.5,1,0.7,0.9,1.7c0.4-0.1,0.6-0.4,0.6-1
		c0.6-0.1,0.1,1.2,0.3,1.7c0.6,0.2,1.6,0.5,1.8-0.7c0.6,0,0.1,1.4,0.3,2c0.4,0,0.8-0.1,0.9,0.3c0.3-0.6,1.1-0.6,0.9-1.7
		c1,0.3-1,2.7,0.6,2.7v-2.7c0.9,0.5,0.3,2.3,0,3.4c-2.9,0.3-4.9-0.4-7-1c0.3,0.6,0.9,0.8,1.8,0.7c-0.3,2.1-2.8,1.5-3.2,3.4
		c0.5-0.1,0.6,0.3,0.6,0.7c0.4-0.4,0.6-1.8,0.6,0c0.3-0.2,0.4-0.6,0.6-1c0.5,0.1,0.7,0.6,0.6,1.4c0.7-0.6,1.4-1.3,1.2-3.1
		c0.5,0.9,0.5,2.6,0.3,3.4c1.7,0.7,1.5,0.1,2,1.7c0.4-0.1,0.6-0.4,0.6-1c0.5,0.1,0.2,1.2,0.6,1.4c0.6,0.2,0.4-0.7,0.9-0.7
		c0.6,0,0.6,0.6,0.6,1.3l-4.6,2.1c-1.5,0-2.8-0.2-3.6-0.7c0,1.8,2,1.4,2.3,3.4c0.3-0.3,0.8-0.4,1.5-0.3c0.1,0,0.1,0,0.1,0l-0.6-1.3
		l28.6-13l28.6,13.1l-0.4,0.8L416,167.9l-28.2,12.9l0.8,1.8l0.9-0.4l2.5-1.1l-3,1.4c0,0.3,0,0.6,0,0.8c0.8-1,1.4,0,1.8-0.3
		c0.7,0.3,0.6,1.6,1.2,2v7.2c-1.4,0.2-3.2-0.5-4.1-1c-0.2,0.4-0.4,0.9-0.3,1.7c1,0.5,0.2-1.2,0.9-1c0.6,0.3-0.7,1.2-0.3,2.4
		c0.4-0.4,0.5-0.1,0.9,0c-0.1,1.7-1.5,1.9-3.2,1.7c-0.4-0.4,0.7-1-0.3-1.7c-0.6-0.1-0.1,1.2-0.3,1.7c-0.5-0.2-1.7,0.4-1.8-0.3
		c-1.1,0.7,0.9,0.8,0.6,1.7c0.6-0.2,0.6-1,1.2-0.3c-0.6,2.9-3.5,3-4.1,5.8c0.3,0,0.9,0.1,0.9-0.1c0.7,1,0.3-0.2,1.7,0.1v-1
		c0.8,0.8,1.2-0.1,1.8,1c0.6-0.1-0.4-0.9,0.6-1c0.3,0.1,0.2,0.6,0.3,1c0.2-1,1-0.9,1.5-1.4c-0.1,0.1,1.1,1.1,1.2-0.3
		c0.1,1,0.3,1.1,0.1,2.4c0.8-1.3,2.4-1.3,2.5-3.4c0.3,0,0.2,0.4,0.3,0.7c0,0,0,0,0,0v0.4l-9.1,9.1c-0.4,0.3-0.8,0.5-1.1,0.8
		c-0.6,0.5-0.4,1.1-1.3,1c-0.5,1.9-3.5,2.7-4.7,2.7c-0.2,0-0.3-0.7-0.3-0.7c-0.5,0.1-1.1,1-1,1.3c-0.2-0.2-0.5-0.8-0.8-1.2
		c2.1,0.1,1.7-1,1.5-2.6c0.2,0.3,0.5,0.4,0.8,0.3c0.4-0.4-1.1-1.4-0.5-2.1c0.6-0.7,1.1-0.1,1.4-1c0.3-0.9,0.8-1.6,0.9-2.3
		c0.1-0.6,1.2-2.3,0.8-2.5c1.3,0.4,0.5-1.5,0.8-2.4c-0.4-0.7-1.3-1-1.4-1.7c-0.1-0.7,1.1-0.4,0.2-1.6c-0.2,0.1,1.3-1,0.7-1.5
		c-1.8-1.5-1.4-0.1-1.2-2.9c0-0.4,0.1-1.8,0.1-2.1c-0.2-0.5,0.2-1.3-1-1.8c0.4-0.4-1.6-3.6-2.8-5c0-0.1,0-0.2,0-0.3
		c-1-1.8-1.9-2.2-3.5-2.6c-0.2-2.4-4.2-4.8-5.1-4.4c-0.1-0.5-0.2-1.1-0.4-1.6c-0.8-0.3-1.5,0.1-2,1.3c-0.6,0.7-1.1,0.7-1.6-0.1
		c0-0.4-0.2-0.7-0.4-1c0.5-0.8,0.4-1.3-0.2-1.5c-0.7,0.3-1.4,0.4-2.2,0.3c-0.9-0.5,0.2-1.7-0.6-2c0.5,0.1-3.7-0.1-3.1-0.2
		c-0.7,0.1-2.2,1.1-2.7,1c-0.8-0.1-1.1-0.7-0.9-1.7c-1-0.4-1.7,0.1-2.3,1.5c-1.6-0.1-1-1.1-3.1-0.7c-0.6,0.1-2.7,2.1-3.5,2.5
		c-0.7,0.3-1.6,1.2-2.3,1.6c-0.3-0.5-0.7-0.7-1.3-0.7c-0.7,0.5-1.2,1.2-1.4,2.1c-1.4,0.4-1,0.9-1.9,1.4c-3.9,2.2-3.4,3.1-3.5,3.4
		c-0.7,1.8-3.6,3.3-2.4,5.1c-1.5-0.1-1.7,0.3-1.8,1v1h-4v2h4v1h-1.5v2h1.5v1h-4v2h4v1h-9v-1h4v-2h-4v1l-106,0l-2.9,3.6
		c-0.2-0.4-0.5-0.9-0.8-1.5c-0.4-0.6-0.2-1.1-0.8-1.5c-0.1-0.9-0.3-1.6-0.6-2.2c-0.2,0-0.4,0.2-0.5,0.7c-0.3-0.5-0.6-1.3-0.9-1.7
		c-0.3-0.4-1.1-2.5-1.4-2.6c-0.8-0.4-0.6,0.6-1.2,0.8c-0.2-1.5-0.5-2-0.9-1.6c0.1,1.1,0,1.6-0.3,1.8c-0.2,0-0.8-1-1.1-1.1
		c0.2,0.1-1.4,0.3-1.2,0.2c-0.3,0.3,0.1,1.6-0.2,2.1c-0.3,0.1-0.6,0-0.8-0.3c-0.2,0.2-0.3,0.8-0.1,1.6c-0.1,0.3-0.2,0.6-0.2,1.1
		c-0.2,0.8-0.4,0.9-0.6,0.1c-0.2-1.2-0.5-1.6-0.8-1.3c-0.1,0.5-0.1,1.1-0.2,1.6c-0.3-0.4-1.9,2.1-2,4.7c-0.6,0.4-1,0.9-1.4,2.7
		c0,0.1,0,0.2,0,0.3c-0.5,1.5-1.2,4.7-1.1,5.2c-1.1-0.1-1.9-0.5-2-1.7c0.5-0.1,0.5-0.4,1,0c0.5-1.2-1-2-0.3-2.3c0.8-0.1-0.2,1.5,1,1
		c0.1-0.8-0.1-1.3-0.3-1.6c-1.5,0.7-4.6,1.7-6.2,0.3c0.4-0.5,1.3-0.4,1.3-1.3c-1.3-0.3-2.4-0.8-2.9-2c0.7-3.5-1.6-4-0.3-7.5
		c-0.1,1.4,1.1,1.7,0.3,2.9c2,0.4,0.4,4.4,2.3,4.9c0.1-2.3-1.2-4.6,0-6.2v2.9c1.8,0.4,1.2-1.6,2.3-2c0.4,0.3,1.1-0.7,2,0.3
		c0.1-0.5-0.1-1.2,0.3-1.3c0,0.6,0.3,0.8,0.7,1c0.2-0.5-0.4-1.7,0.3-1.6c0.8-0.1,1.3,0.1,1.6,0.3c0.4-2,2.6-1.5,2.6-3.3
		c-2.5,1.3-9.4,0.6-12.1-1c-0.3-1.3-0.1-2.5,0.7-3.6c0.2,0.8,0.5,1.5,0.3,2.6c1.6,0.4-0.3-2.7,1.3-2.3c-0.5,0.9-0.6,3.5,0.7,3.6
		c0-0.9-0.2-1.9,0.7-2c0.5,0,0.3,0.8,1,0.7c0.5-0.2,0-1.3,0.7-1.3c0,0.6,0.3,0.8,0.7,1c0.6-1.6,0.4-0.9,2.3-1.6
		c-0.2-0.7-0.2-2.4,0.3-3.3c-0.3,1.7,0.5,2.3,1.3,2.9c-0.1-0.7,0.1-1.2,0.7-1.3c0.2,0.4,0.3,0.7,0.7,1c0-1.7,0.2-0.4,0.7,0
		c0-0.4,0.1-0.8,0.7-0.7c-0.4-1.8-3.3-1.3-3.6-3.3c0.9,0.1,1.7-0.1,2-0.7c-2.3,0.6-4.6,1.3-7.8,1c-0.3-1-1-2.8,0-3.3v2.6
		c1.8,0-0.4-2.3,0.7-2.6c-0.2,1.1,0.7,1.1,1,1.6c0.1-0.4,0.5-0.4,1-0.3c0.2-0.6-0.4-1.9,0.3-2c0.2,1.1,1.2,0.8,2,0.7
		c0.2-0.5-0.4-1.7,0.3-1.6c0,0.6,0.3,0.8,0.7,1c-0.1-1,0.6-1.1,1-1.6c-4.4,0.8-7.6-0.3-11.2-2c-0.1,0-0.3,0-0.5-0.3
		c0.2,0.1,0.4,0.2,0.5,0.3c0.4-0.1,0.5-1.2,1.1-1.2c0,0.5,0,1.1,0.7,1c-0.1-0.9,0.1-1.7,0.7-2c0.1,1.1,1,1.4,1.6,2
		c0.1-0.6-0.5-0.8,0-1c0.5,0,0.2,0.9,0.7,1c-0.5-2.1,1-0.3,1.3-1.6c-1.8,0.3-3.7-1.1-2.9-2.3c0,0.4,0.1,0.8,0.7,0.7
		c0.2-1,0.2-0.6,0-1.6c0.5,0.1,0.5,0.5,1,0.7c-0.3-1.7-2.3-1.6-3.3-2.6c-0.3-2.5-2.8-2.9-3.3-5.2c1.6-0.7,1.4,2.1,2,1.3
		c-0.3-0.2-0.7-1.8,0-2c-0.1,1.3,1.2,1.2,1.6,2c0.5-1.3,0.3,0.2,0.7,0.3c0,0,1.3-1,1.3,0.3c0.3-0.8,1.5-0.7,1.6-1.6
		c0.1,0.3,0.3,0.4,0.7,0.3c-1.1-1.3-3.3-1.5-4.6-2.6c-1.3,0-2.5-0.2-3.3-0.7c0.2-0.5,0.5-0.8,0.7-1.3c-0.6-0.1-1.6,0.3-1.3-0.7
		c-1.3-0.1-2.6,0.9-3.3-0.3c1.1-0.9,1.7-0.4,2.9-1c-0.8-0.4-2.7-0.3-3.5-0.6c-0.8-0.4-0.5-1.3-1-2c0.4-0.4,0.4-1.2,0.3-2
		c1.1,1.3,0.7-1.4,1.6-0.3c0.1-1.9,1.5-1.3,2.6-2.6c-0.9,0.1-2.1,0.7-3,0.8c-0.6,0.1-0.9-0.2-1.6-0.2c0.5-0.2,0-1.3,0.7-1.3
		c0.6-0.1,0.8,0.5,1,0c-0.7-1.8,1.3-3.7,2.6-4.6c-1-0.4-2.4,0.6-3.6,1c-1,0.3-1.8,0-2.6-0.4c0.8,0,1.4-0.2,1.6-0.7
		c-1.4-0.2,0.4-1.8-0.7-2.6c0.9-0.4,1.2-0.9,1.6-1c-0.6-0.9-1.5-1.2,0.4-2c-0.3-0.1-0.8-0.5-0.8-0.8c0.7-0.2,2.6,0.1,1.8-0.5
		c0-0.5-0.9-0.2-1-0.7c0.7-0.3,0.8-1.1,1.3-1.6c-1.6,1.2-1.8,1.9-3.3,2.9c-0.3-1-1.2-0.1-1.3-0.7c0.5-0.6,0-0.4,0-1.3
		c1.3,0.1,0.7-1.3,2.3-0.3c0.5-1.3-1.4-0.1-1.3-1c0.6-0.8,0.9-1.9,2-2.3c-1.1-0.5-2.1,1.5-3.6,1.6c-0.7-2.6,1.4-2.3,2.3-3.3
		c-1-0.2-2,1.2-2.3,0.7c0.2-1.2,2.4-1.9,1.6-2.9c0.1,0.9-1.2,0.3-1.3,1c-1.7,1.2-1.1,5.3-1.6,5.2c0,0-1.5-0.9-1.8-0.2
		c1.2,1.6,2.7,2.2,2.1,4.4c-1.1-0.5-2.5-2.2-3.3-2c0.4,0.1,0.2,0.4,0,0.7c1.5-0.1,1.4,1.4,2,2.3c-0.4-0.4-1.2-0.1-1.6,0.3
		c0.6,0.6,0.8-0.3,2,0c-0.9,0.9,0.5,0.3,0.7,1c-0.5,0.8-0.1,1.2-0.7,2c0.5-1.2-0.8-0.2-1-0.3c0,0-0.7-1.3-1-1.3
		c-0.5-0.1-1.1-1.5-2-1.3c0.7,0.3,0.8,1.1,1.3,1.6c-0.5,0.1-1.2-0.1-1.3,0.3c2.3,0.4,2.1,2.4,2,3.6c0.1-0.6,1.1,0.6,1.3,1
		c-0.4,0.8-0.3,2.2-0.3,2.6c0.1,0,1.2,0.1,1.6,0.3c-1.3,0.9-2.9-1.2-3.6,0.7c0.2-0.5-1.2-0.7-1-1.1c-1.5,0.5-1.2-1-2-0.2
		c-0.6,0.7,3.4,2.8,2.6,4.6c1.1-1,1.8,1,1.3,1.3c-1.4,0.1-3.2-1.1-4.2-0.3c0.3,0.6,2.3,0,1.3,1c1.2-0.6,1.1,2,2,0.7
		c-0.4,1.7,0.8,0.9,1,1.3c-0.3,1,0.3,1.2,0.7,1.6c-0.6,0.5-0.6,1-1.4,1.4c-1,0.4-2.8,0.8-3.4,1.5c1.4,0.1,2.4-0.5,2.9,1
		c-1.2,0.6-1.9,0-3.3,0c0.5,1.3-1.4,0.1-1.3,1c0.5,0.1,0.4,0.7,0.7,1c-1.5,0.3-2.9,0.7-4.1,1.2l-12.4-6.2h-10v-3h1v-2h-8v2h1v3h-9.6
		l-11.4-7.7L98.5,162H72.9l-16,8h31.8l10.6-7.1l10.6-7.1h0l21.3,14.3h31.8l-0.6-0.3c0.1-0.2,0.2-0.4,0.4-0.5c0,0.4,0.6,0.3,0.7,0.7
		c-0.2,0-0.4,0.1-0.5,0.3v0.8h-32l-21-14l-21,14h-32v2h3v24l-12,6h14h96h14v1h-124v2h5v4.4c-0.2,0.1-0.3,0.1-0.6,0.1
		c-0.5-1.2-1.2-1.6-2-1.3c0.2,0.9,0,1.4-0.7,1.5c-0.5,0-1.7-0.8-2.3-0.9c0.5,0-3.1,0.3-2.7,0.1c-0.8,0.2,0.2,1.3-0.6,1.7
		c-0.6,0.1-1.3,0-1.9-0.3c-0.5,0.2-0.6,0.6-0.2,1.3c-0.2,0.2-0.4,0.5-0.4,0.9c-0.4,0.7-0.9,0.7-1.4,0.1c-0.4-1-1-1.4-1.7-1.1
		c-0.2,0.4-0.3,0.9-0.4,1.4c-0.7-0.3-4.3,1.8-4.4,3.9c-1.4,0.4-2.1,0.7-3,2.3c0,0.1,0,0.2,0,0.3c-1.1,1.3-2.8,4-2.5,4.4
		c-1,0.5-0.7,1.2-0.9,1.6c-0.1,0.2,0,1.5,0.1,1.8c0.1,2.4,0.5,1.2-1.1,2.5c-0.6,0.5,0.8,1.4,0.6,1.3c-0.8,1,0.2,0.8,0.2,1.4
		c0,0.6-0.9,0.9-1.2,1.5c0.2,0.8-0.4,2.4,0.7,2.1c-0.3,0.2,0.6,1.6,0.7,2.2c0.1,0.7,0.5,1.2,0.8,2c0.3,0.8,0.7,0.3,1.2,0.9
		c0.5,0.6-0.8,1.4-0.5,1.8c0.3,0.1,0.5,0,0.7-0.3c-0.1,0.6-0.2,1.1-0.1,1.5h41.3v0l26.3,0v-2h1.3v-2h-1.3h-3.3v-12c0,0,0.2,0,0.5,0
		c0.3,0,0.5-0.4,0.5-1c0-0.6-0.2-1-0.5-1h-0.5v-21h32.7v21c0,0-0.2,0-0.5,0s-0.5,0.4-0.5,1c0,0.6,0.2,1,0.5,1h0.5v12h-2.3h-1.3v2
		h1.3v2l46.9,0v0h3.4c0.1-2.3-0.4-13.2,0-14.2c1.6,0.3,1.1,1.1,4.2,1.8c0.2-0.7-0.4-2.1,0.3-2.3c-0.2,1.2,0.9,1.1,1.3,1.6
		c0.3-0.3,0.1-1.2,1-1c-0.3,1,0.5,1,1,1.3c0.1-0.9,1-0.9,1.3-1.6c-0.4,0.9-0.3,1.9,0.3,2.6c0.7-0.6,0.7-1.9,1.6-2.3
		c-0.2,1.1,0.7,0.5,1,0.3c0.1,0.4-0.1,0.9,0.3,1c0.1-0.3,0-0.6,0.3-0.7c0.3,0.6-1,1.1,0,1.3c0.5-0.2,1.6-0.2,2-0.7
		c0.5,0.2,0,1.3,0.7,1.3c0.4-0.9,0.4-1.1,1-0.3c0.6-0.2-0.1-1.8,0.7-2c0.2,0.9,0.1,2,0.7,2.6c0-0.8,0.6-1.1,1-1.6
		c-0.2,0.8,0.2,1,0.6,1.1c-0.1,1.2-0.1,2,0.6,1.9c-0.4,1.7-0.7,2.9,0.6,4.6c0.5,0.7,0.2,0.7,0.8,1.3c1.2,1.2,0.1,2.2,1.2,1
		c0.1,0.6,0.1,2.3,0.4,1.2c0,0.6,0.1,1.1,0.1,1.6h0.9c0,0,0-0.1,0-0.1c0,0,0,0.1,0,0.1h11.3l0,0l141.3,0v-2h-5.1h-16.9v-31h16.9
		v14.1c0.8-0.1,2.4-0.3,2.3-0.3c0.5,2.2,3.6,0.6,4.6,2.7c1.5,3.1,1.5,7.2,0.9,12c0,0.3-0.2,3-0.4,4.5h4.6c-0.1-0.8-0.3-1.8-0.6-2.7
		c-1.8-5.2-0.5-10.5-0.9-15.7c2.6,2.2,3.6-0.2,4.7-1.5c1.3-1.5,1.9,1,2.4-2c2,2.6,2.4,1.5,2.8-1.4c0.9,1,1-0.6,1.1-1.1
		c2.8,1.2,0.1,0.2,3.1-1c1.6-0.6,0.7-0.7,2-1.3c1.2-0.6,1.8-1.1,2.2-1.6c0,0.1,0.7,1,0.7,1.1c0.9-1.4,0.2-0.9,1.1-2.6
		c0,0.5,0.4,1.5,0.9,2.4c0.3-1.1,0.2-1.8,0.9-3.1c0.7,0.3-0.1,2.4,0.6,2.7c0.4-0.9,1-0.7,0.9,0.7c1.3-0.8,0.6-2.6,0.6-4.4
		c0.6,1,0.6,2.7,0.9,4.1c0.9-1.1,0.1,1,1.2,0.7c0.7-0.7-0.2-1.2,0-2.4c0.5,0.3,0.3,1.4,0.6,2c0.9-0.3-0.2-1.1,0-1.7
		c0.4,0.2,0.6,0.3,0.6,0.3c-0.1-0.1-0.1-0.3,0.3-0.7c0.4-0.3,2,1.1,1.2-0.3c0.1,0.1,0.3,0.2,0.4,0.3v16.4c-0.2,0-0.4-0.1-0.6-0.1
		c-0.1,0-0.1,0-0.2,0l-0.1,0.1c-0.1,0.1-0.3,0-0.3-0.1c-0.1-0.1-0.1-0.1-0.2-0.2c-0.1-0.1-0.2-0.2-0.1-0.3c0.4-0.9-1.4-1.3-1.9-0.4
		c-0.1,0.1-0.2,0.1-0.3,0.1c-0.3,0-0.8,0-1.1,0.1c-0.1,0-0.3-0.1-0.3-0.2c-0.1-0.7-1-0.3-1.3-0.8c-0.2-0.3-0.9-0.4-1.4,0
		c-0.1,0-0.1,0.1-0.2,0c-1.1-0.2-1.9,0.9-2.1,1.1c-0.4,0.3-0.9,0.5-1.2,0.8c-0.1,0.1-0.4,0.6-0.6,0.7c-0.3,0.3-0.6,0.1-1,0.5
		c-0.2,0.2-0.3,0.7-0.5,1c-0.1,0.1-0.2,0.5-0.3,0.7c0,0.1,0,0.1,0,0.2c0.1,0.1,0,0.2-0.2,0.3c-0.1,0-0.2,0-0.3-0.1
		c-0.1-0.1-0.1-0.1-0.2-0.2c-0.6-0.2-0.6,0-1.1,0.4c-0.5,0.5-0.4,0.6-0.2,1.2c0,0.1,0,0.3-0.2,0.3c-0.4,0.1-1.1,0.4-1.1,0.4
		c-0.2,0.1-0.5-0.1-0.4,0.3c0,0.4,0.4,0.5,0.8,0.5c0,0-0.7,1.7,0,1.8c0.1,0,0.2,0.1,0.2,0.3c0,0.2,0,0.1-0.3,0.4
		c-0.3,0.2-0.3-0.3-0.7-0.2c-0.4,0.1-1.3,0.5-0.6,0.9c0.1,0.1,0.2,0.2,0.1,0.4c-0.2,0.2-0.3,0.5-0.2,0.9c0.1,0.2,0.5,0.7,0.6,0.7
		c0.4,0.2,0.9,1.2,0.9,1.2l8.5,0v0l27,0c0,0,0,0,0,0l3,0v0l5.1,0v0v-2v-28h17v28v2v0l24.9,0v0v-2v-28.8l22.1-10.1l22,10v0.9v28v2
		h-1.7c0,0,0,0,0,0h25.1c0-0.1,0-0.2,0-0.3c0.3-0.3,0.3-0.8,0.3-1.1C521.6,243.1,521.1,243.2,521,242.7z M394.6,157.4
		C394.2,158.7,394.2,156,394.6,157.4L394.6,157.4z M387.2,169.9c-1,1-0.2-0.8,0.9-0.3C388.1,170,387.7,170,387.2,169.9z
		 M414.8,160.8c0.9-0.2,1.7,1.3,1.5,1.4c-0.4-0.1-0.5-0.4-0.9,0C415.7,161,414.4,161.9,414.8,160.8z M413.3,152.9
		c-0.3,0.9,0.6,2,0,2c-0.3-0.6-1.1-0.6-1.2-1.4C412.9,153.9,412.7,152.9,413.3,152.9z M410.7,160.4c0.5,0,1,0.2,1.2,0.7
		c-0.5,0-0.2,0.9-0.6,1C411.5,161.1,410.4,161.5,410.7,160.4z M402.2,167.6c-0.6,0-0.4,0.9-1.2,0.7
		C400.7,167.4,402.3,167.1,402.2,167.6z M401.3,165.9C402.1,167.6,400.3,167.1,401.3,165.9L401.3,165.9z M400.1,149.2
		c0.5-0.1,0.8,0.5,0.9,0c0-0.2,0-0.4,0.3-0.3c0.2,1.2-0.2,1.8-0.9,2C400.7,149.9,400,150,400.1,149.2z M401,157
		c-0.1,1.5-0.2,3.2-1.5,3.4C399.7,158.9,399.7,157.2,401,157z M400.7,165.5v1.7c-0.4-0.1-1.1,0.1-1.2-0.3
		C400.8,167.4,399.5,165,400.7,165.5z M398.7,152.6c0.3-0.6,0.1-1.7,0.6-2C399.5,151.4,399.7,152.5,398.7,152.6z M398.1,148.2
		c1.9-0.1-0.1,2.4-0.3,1.7C398,149.5,398.2,149,398.1,148.2z M398.4,151.9c0.3,1.2-0.7,2.6-1.2,1.7h0.6
		C397.7,152.8,397.7,152,398.4,151.9z M397.2,158.7c0.1,1,0.5,1.7,1.2,2c0.1-0.3,0-0.7,0.3-0.7c-0.1,1.6-1.2,0.8-1.8,0.7
		C397.1,160.2,396.5,158.8,397.2,158.7z M396,155.3c-0.1-0.8,0.1-1.3,0.6-1.4C396.7,154.7,396.5,155.2,396,155.3z M397.5,164.8
		c0.2,0.5-0.3,1.8,0.3,1.7c0.6-0.5-0.4-0.8,0.3-1c0,0.2,0,0.4,0.3,0.3c0.1-0.3,0-0.7,0.3-0.7c0.4,1-0.8,1.7,0,2
		c0.1-0.3,0-0.7,0.3-0.7c0.2,1.6-1.2,1.3-2.3,1.4C396.8,166.2,396.8,165.5,397.5,164.8z M394.3,173.3c0.4,0.6,0.6,1.4,0.7,2.1
		l-1,0.4C393.9,174.8,394.1,174.1,394.3,173.3z M395.7,173.7c0,0.8-0.2,1.4-0.6,1.7l0,0C395.3,174.7,394.7,173.3,395.7,173.7z
		 M396,166.5c0.5,1.3-1,2.2-1.5,1.4C395.8,168.3,394.9,166.3,396,166.5z M394.3,167.2v1.4h-1.5C392.9,167.7,393.7,167.6,394.3,167.2
		z M392.8,173.7c1.3-0.4,0.1,2.2,0.8,2.4l-0.6,0.3C393.2,175.4,393.1,174.2,392.8,173.7z M398.4,173.3c0,0.3,0,0.4-0.1,0.6l-0.4,0.2
		C398,173.8,398.2,173.6,398.4,173.3z M399.1,173.6c0-0.1-0.1-0.2-0.1-0.2c0.6-1.9,0.5-1.1,0.6,0L399.1,173.6z M192.7,184.9
		c-0.5,0-0.9,0.1-1-0.3C192.9,184.2,193.8,185.9,192.7,184.9z M184.9,182.3c0.6,0.4,1.5,0.5,1.6,1.3h-1.6V182.3z M184.6,172.8
		C185,171.5,185,174.1,184.6,172.8L184.6,172.8z M161.5,169.3c0.1-0.1,0.1-0.2,0.2-0.4c0.1,0.2,0.1,0.4,0.1,0.6L161.5,169.3z
		 M168.3,187.2c-0.3,0.6-0.7,1.3-1.3,0.7C167.2,187.4,167.7,187.2,168.3,187.2z M167,185.9c0.4,0.1,0.2,0.6,0.7,0.7
		C167.5,187.4,166.6,186.6,167,185.9z M166.6,175.8c0.2,1-0.9,0.6-0.7,1.6c-0.5-0.1-0.1-1-0.7-1C165.6,176,166,175.8,166.6,175.8z
		 M166.6,186.9c-0.6,1.1-0.8-0.6-0.7-1.3C167.5,185.2,165.5,186.7,166.6,186.9z M166,193.7c0.7-0.7-0.3,1.6-1.3,1.3
		c-0.2-1.4,0.2-2.2,0.3-3.3C166.2,192.1,164.8,194.7,166,193.7z M163.7,168.6c0.6,0,0.4,0.9,1.3,0.7c-0.1,0.8-1,0.7-1.3,1.3
		C163.1,170.5,164.1,169.5,163.7,168.6z M164,185.2c1.1,2.1,0.1,2.4-1.6,2.6C161.5,184.8,163.5,187.8,164,185.2z M163.7,192.7
		c0.6,0.4,0.3,1.7,0.7,2.3c-1-0.1-1,0.7-2,0.7C162.4,194.2,164.1,194.5,163.7,192.7z M161.4,177.4c-0.4-0.4-0.5-0.1-1,0
		c-0.3,0,0.7-1.5,1.6-1.3C162.5,177.2,161,176.3,161.4,177.4z M160.8,195c-0.7,0.1-0.1-1.2-0.3-1.6
		C161.8,193.3,160.7,194.4,160.8,195z M160.1,188.2c-0.6-0.2,1.1-0.8,1-1.6c0.4,0.1,0.3,0.8,0.3,1.3
		C160.7,187.7,160.6,188.1,160.1,188.2z M159.9,193.7c0.1,0.9,0.4,1.7,0.2,3c-0.1,0-0.2,0.1-0.2,0.1V193.7z M160.8,173
		c-0.2,0.3-0.4,0.6-0.7,0.8c-0.1,0.1-0.2,0.2-0.2,0.3V173H160.8z M91.9,195l-28,0l-2,1v-23h30V195z M125.9,198h-32v-27.9l16-10.7
		l16,10.7V198z M127.9,173h30v23l-1.8-1h-28.2V173z M59.9,206v35h-3v-12h0.5c0.3,0,0.5-0.4,0.5-1c0-0.6-0.2-1-0.5-1s-0.5,0-0.5,0
		v-21H59.9z M61.9,241v-35h27.7v21c0,0-0.2,0-0.5,0c-0.3,0-0.5,0.4-0.5,1c0,0.6,0.2,1,0.5,1h0.5v12H61.9z M167.3,212
		c-0.2-0.1-0.3-0.3-0.4-0.4v-1.4c0.3-0.1,0.6-0.2,1.1-0.2C168.1,211,167.5,211.3,167.3,212z M166.9,209.7v-0.5
		c0.1-0.3,0.3-0.5,0.4-0.8c0.3,0.2,0.6,0.4,0.7,0C168.9,208.9,167.9,209.9,166.9,209.7z M130.2,241v-12c0,0,0.2,0,0.5,0
		c0.3,0,0.5-0.4,0.5-1c0-0.6-0.2-1-0.5-1h-0.5v-21h27.7v35H130.2z M159.9,241v-35h3v21h-0.5c-0.3,0-0.5,0.4-0.5,1c0,0.6,0.2,1,0.5,1
		c0.3,0,0.5,0,0.5,0v12H159.9z M166.9,241v-9.7c0.2-0.3,0.4-0.6,0.7-0.7c0,0.4,0.6,0.3,0.7,0.7c-0.4,0.9-0.4,1.1-1,0.3
		c0.3,0.9,0.7,2.6,1.3,1.3c0.9,1-1,4.4,1,4.5c0.2-1.6,0.3-3.8,0.1-5c1.7,0.1,0-1.2,1.2-1.4l0,10.1H166.9z M183.9,190.1
		c-0.5-0.3-0.7-0.8-0.7-1.6C184.4,188.2,183.8,189.5,183.9,190.1z M183,181.6c1.2-0.2,0.2,1.7,1.6,1.3
		C184.1,183.8,182.5,182.9,183,181.6z M182.3,169.6c0.6,0.1,0.7,0.6,0.7,1.3C182.4,170.8,182.2,170.3,182.3,169.6z M182,176.1
		c-0.6,0.1-1.9,0.8-2-0.7c0.3,0,0.3,0.4,0.3,0.7c0.7-0.3,1.2-1,1.3-2C182.4,174.2,181.8,175.5,182,176.1z M181,169.2h0.7
		c-0.6,0.8-1.6-0.5-1.3-1.6C181.1,167.7,181,168.4,181,169.2z M180.7,164c-0.1,0.8,0.1,1.3,0.3,1.6C180.8,166.3,178.5,164,180.7,164
		z M179.4,166.3c0.5,0.3,0.4,1.4,0.7,2C178.8,168.2,179.1,167.1,179.4,166.3z M179,182c-0.1,0.4-0.8,0.3-1.3,0.3v-1.6
		C179.1,180.2,177.7,182.5,179,182z M177.4,172.5c1.4,0.2,1.5,1.8,1.6,3.3C177.6,175.6,177.6,174,177.4,172.5z M177.1,164.7
		c0.3-0.1,0.3,0.1,0.3,0.3c0.1,0.5,0.4-0.1,1,0c0.1,0.8-0.6,0.7-0.3,1.6C177.4,166.4,176.9,165.8,177.1,164.7z M177.1,181
		C178.2,182.2,176.2,182.6,177.1,181L177.1,181z M177.4,183.3c-0.9,0.2-0.7-0.6-1.3-0.7C175.9,182.2,177.7,182.5,177.4,183.3z
		 M176.4,184.3C176.6,184.5,176.3,184.1,176.4,184.3L176.4,184.3z M176.8,203.5c0.6,0.1,0.7,0.6,0.7,1.3
		C176.8,204.7,176.7,204.2,176.8,203.5z M177.4,207.1c-0.7,0.1-0.1-1.2-0.3-1.6C178.5,205.3,177.3,206.5,177.4,207.1z M179.4,213.9
		c-0.3-0.2-0.5-0.3-1-0.3c0.6-1.2,0.4-0.6,0-2C179.2,211.9,179.5,212.7,179.4,213.9z M178.4,207.7
		C178.4,207.8,178.5,207.8,178.4,207.7C178.4,207.8,178.3,207.6,178.4,207.7z M179.4,190.1c-0.7-0.1-0.6-0.9-1.3-1
		c0-0.6,0.8,0.1,0.7,0.3c0.7-1.2,0-3.9,1-1.3C179.3,188.5,179.3,189.3,179.4,190.1z M180.3,190.4c-1-0.3,0.4-0.9,0.3-1.3
		c-0.2-0.3-0.3-0.5-0.3-1c0.6,0.7,0.9,1.7,1.3,2.6C181.2,190.8,180.4,189.7,180.3,190.4z M179.7,181.6c0.3,0,0.3,0.4,0.3,0.7
		c0.9-0.3-0.5-1,0-2c0.3,0,0.3,0.4,0.3,0.7c0.3,0.1,0.3-0.1,0.3-0.3c0.7,0.2-0.4,0.5,0.3,1c0.7,0.1,0.1-1.2,0.3-1.6
		c0.8,0.6,0.7,1.3,1,2.9C181,182.9,179.4,183.2,179.7,181.6z M182,195.7c0.4,0.1,0.7,0.4,0.7,1C182.2,196.5,182,196.2,182,195.7z
		 M183.3,213.6c-0.4-0.1-0.5-0.6-1-0.7c0-0.6,0.4-0.7,0.3-1.3C183.2,211.9,183.4,212.7,183.3,213.6z M183.6,211c0.4-1,0.9,0.3,0.7,1
		c0.4-0.1,0.3-0.6,0.3-1c1,0.4,0.4,2.3,1.3,2.6C184.1,215,184,212,183.6,211z M190.5,219.5c-0.1-0.1,0.1-0.6,0-0.7
		c-1.2-0.9-2.8-1.1-3.6-2.3c0.2-0.9-0.4-2.6,0.3-2.9c0.1,0.3,0,0.6,0.3,0.7c0.1-0.3,0-0.6,0.3-0.7c0.2,2.1,0.7,1.7,1.6,2.9
		c-0.2-1.3,1.2-1,1.3-2c0,1.4,1.4,0.4,1.3,0.3c0.3,0.3,0.2,0.8,0.3,1.2c-0.1,0.1-0.2,0.3-0.4,0.8c-0.3,0.6,0.3,1.7,0.3,1.6
		c-0.3,1.2,0.1,1,0.1,1.7c0,0.2,0,0.3-0.1,0.4C191.6,220.3,191,219.9,190.5,219.5z M191.1,225C192,226.3,190,227.1,191.1,225
		L191.1,225z M191.4,230.9c0.5-0.6,0.6-1.6,1.2-2c0,0.3,0.1,0.5,0.1,0.8c0,0.1,0,0.1,0,0.1c-0.2,0.5,0.2,0.5,0.3,2.1
		C192.5,231.6,192.1,231.1,191.4,230.9z M263.8,243v-25h13v25H263.8z M318.8,243h-41v-25v-1h-15v1v25h-6h-47v-31h47h62h9v1h-1.5v2
		h1.5v1h-4v2h4v1h-1.5v2h1.5v1h-4v2h4v1h-1.5v2h1.5v1h-4v2h4v1h-1.5v2h1.5v1h-4v2h4v1h-1.5v2h1.5v1h-4v2h4v1H318.8z M318.8,208h-114
		v-1h114h9h23v1h-5.1H318.8z M374.6,215.2C374.6,215.2,374.6,215.2,374.6,215.2C374.7,215.3,374.6,215.2,374.6,215.2z M442,224v-7h7
		v7H442z M449,225v7l-7,0v-7H449z M447.9,215l0.5,1H433v17l17,0v-17l1.9-0.9V234H431v-19H447.9z M434,225h7v7l-7,0V225z M434,224v-7
		h7v7H434z M431,236h20.9v7H431V236z M416,170.1l22,10V201h-44v-20.9L416,170.1z M381.4,216.9C380.5,214.9,382.1,216,381.4,216.9
		L381.4,216.9z M410,234h-16.2v-19H410V234z M387,218.7c0.1-1.7,0.6-1.3,0-2.5v-0.6c0.9,0.3,1,1.5,1.4,2.3c-0.6,0.2-0.9,0.7-1.4,1
		V218.7z M387,220.3c0.2-0.2,0.4-0.4,0.3-1c0.3,0.5,0.8,0.8,0.9,1.7c0.5-0.6,0.4-1.8,0.6-2.7c0.7,0.1,0,1.8,0.6,2
		c0.5-0.8,0.5-0.6,0.9,0.3c0.5-0.1,0.2-1.2,0.6-1.4c0.3,0.5,0.7,0.9,1,1.2V234h-3.4c-0.1-0.2-0.1-0.3-0.2-0.4
		c-0.1-0.1-0.2-0.1-0.4,0c-0.2,0-0.3-0.1-0.3-0.2c0-0.3-0.3-0.5-0.6-0.5V220.3z M389.6,217.3c-0.1-0.9,0.7-0.8,0.9-1.4
		C390.5,216.7,390,217,389.6,217.3z M391.8,240.9c-0.1,0.1-0.2,0.1-0.3,0c-0.2-0.2-0.4-0.2-0.6-0.1c-0.1,0.2-0.1-1.5,0.3-1.4
		c0.5,0.1,0.8-1.3,0.5-1.9c-0.2-0.4-0.6-0.3-0.8-0.5c0.1,0-0.3-0.6-0.7-1h1.8L391.8,240.9L391.8,240.9z M393.8,236H410v7h-16.2V236z
		 M381,213v0.9c-0.3-0.2-0.3-0.9,0-1V212l68.5,0l-2.2,1H381z"/>
	<path d="M388.1,182.9c0.2-0.1,0.3-0.2,0.4-0.4l-0.4-0.9C388.2,182,388,182.6,388.1,182.9z"/>
	<path d="M545.6,241v-1h0l0-2v-1h0l0-2v-1h0l0-2v-1h0l0-2v-1h0l0-2v-1h0l0-2v-1h0l0-2v-1h0l0-2v-1h0l0-2v-1h0l0-0.3
		c-0.8-0.2-1.5-0.7-2-1.8c-1.7-3.2-0.3-7.3-1.4-10.8c-0.1-0.4,0.1-0.8,0.5-0.9c0,0,0,0,0,0c0.3-0.1,0.7,0,0.9,0.3
		c0.4,0.7,1.1,1.4,2,2V200v-3v-3v-3v-3v-3v-3v-3h-1v-2.6V176h1.9c-1.4-0.4-2.4-1.7-2.4-3.3c0-1.9,1.5-3.5,3.4-3.5h0.4
		c3.8,0,6.9-3.1,6.9-6.9v-2.2c0-0.3,0-0.7,0.1-1c-1.1-0.8-2.4-1.4-4.1-1c-0.2,0-0.4,0-0.6-0.1c-1.3-1-3.4-0.9-4.1,0.1
		c-0.9,1.3-3.6,0.3-3.8,2.3c0,0.4-0.5,0.7-0.9,0.6c-1-0.3-2.5-0.5-3.4-0.4c-0.3,0.1-0.6-0.1-0.8-0.3c-1.5-2.5-6.9-1.4-5.7,1.3
		c0.2,0.4-0.1,0.8-0.4,1c-0.2,0.1-0.4,0.3-0.6,0.5c-0.2,0.3-0.7,0.4-1,0.2l-0.2-0.2c-0.2-0.1-0.3-0.2-0.5-0.1
		c-1,0.2-1.7,0.4-2.5,0.5c-1,0.1-4.4-1.1-4.4,0.9c0,0.4-0.4,0.7-0.7,0.7c-1,0-2,0.7-2,1.6c0,0.5-0.4,0.8-0.9,0.7
		c-0.5-0.1-0.9-0.2-1.1,0.1c-0.6,0.8-1.3,3.4-1,5c0.1,0.4-0.2,0.8-0.6,0.9c-0.5,0.1-0.9,0.4-1.2,0.8c-0.2,0.2-0.5,0.4-0.8,0.3
		L513,174c-0.2-0.1-0.4,0-0.6,0.1c-1.3,0.8-3.2,2-2.5,1.3c-0.7,0.7-2,2.3-2.6,3.5c-0.9,1.8-0.1,6.2,1.4,5.7c1.2-0.4,1.1,3.7,0.9,3.1
		c-0.7-0.2-1.4,0.9-1.8,1.4c-0.3,0.3-0.7,0.3-1,0l-0.3-0.3c-0.1-0.1-0.3-0.2-0.5-0.2c-1.2,0-2.2-0.2-3.1,0.9
		c-1.8,2.1,0.7,3.4,0.4,5.1c-0.3,1.5-1.8,1.4-2.2,2.9c-0.2,0.9,0,2.4,0.8,3.2c0.3,0.3,0.3,0.7,0,1c-0.2,0.3-0.4,0.6-0.4,1
		c0,0.3-0.2,0.5-0.5,0.6c-1.1,0.4-0.5,2.2-0.1,3c0.1,0.2,1.7,1,2.8,1.5c0.4,0.2,0.6,0.7,0.3,1.1c-1.6,2.4,4.1,2.5,4.6,2.8
		c0.7,0.4,1.7,2,2.2,2c1.2,0,2.1,0.1,2.1-1.2c0-0.7,1.7-1,2.3-1.3c0.1-0.1,0.3-0.1,0.4-0.1c0.6,0,1.1-0.2,1.4-0.6
		c0.2-0.3,0.5-0.4,0.8-0.3c0.3,0.2,0.7,0.2,1,0c0.6-0.2,3.2-0.9,4.3-1.4c0.3-0.1,0.6-0.1,0.8,0.2c2,2.1,5.8-2.2,7.2-3
		c1.9-1,1.4-1.2,2.9,1.7c1.2,2.3,5,3.9,5.9,6.4c0.9,2.7,0.6,11.5,0.5,17.4c0,1.1-0.7,11.9-0.9,13.5h4.2v-4H545.6z M535.3,206.6
		c-1.1-1.4-1.6-2-1.1-3.5c0.5-1.6,0.5-0.1,1.4-0.9c0.6-0.6,3.2-3.3,3.7-2.8C541.5,202,539.8,212.3,535.3,206.6z"/>
	<polygon points="548.1,245 548.1,245 543.6,245 	"/>
	<path d="M668.1,239.8c-0.4-0.3-0.8-0.6-1.1-0.9c-0.5-0.5-0.6-1-1-1.6c-0.3-0.6-0.6-0.5-1.1-0.9c-0.7-0.5-0.5-1.4-1.5-1.6
		c-0.5-0.2-1.5,0.2-1.7-0.4c-0.2-0.4,0-0.3,0.4-0.5c1-0.6,1.1-1.4,2.3-1.4c0.5,0,0.9,0.9,1.3,0.9c0.2,0,0.4,1,0.7,1
		c0.2,0,0.4-0.2,0.6-0.2c0,0.6,0.5,0.6,1.2,0.4V227h2h50v-9h-50v1.5c-0.2-0.2-0.5-0.4-0.8-0.5c0.2-0.3,0.4-0.6,0.5-1h-1.6v-2.3
		c-0.4,0-0.7,0.1-1,0.3c0.1-1.6-1.1-1.9-2.3-1.3c-0.4-0.6-0.2-1.1-1.1-1.2c-0.6-0.1-1.3,0.3-1.7,0.7c-0.5-1.5-1.9,0.9-2.1,0.8
		c-0.3-0.2-0.5-1-0.9-1.2c-0.5-0.4-1.1-0.6-1.7-0.7c-1.3-0.2-2.2,0.7-2.5,1.9c-0.5-0.7-2.3-0.6-2.3,0.5c-1-0.8-1.6,0.5-1.8,1.2
		c-0.8-0.9-1.5,0.6-1.7,1.3c-0.3,1.2-0.3,2.3,0.5,3.2c-1.5,0.5-2.4,2.3-1.3,3.6c0.6,0.7,1.4,0.6,2.2,0.8c1,0.3,0,0.7,0.4,1.5
		c-0.2,0-0.4,0-0.6-0.1c0.3-0.6-0.2-0.9-0.7-0.8c-0.5,0.1-0.9,0.5-1.3,0.7c-0.2,0.1-0.5,0.4-0.7,0.3c-0.2-0.1-0.2-0.9-0.3-1.1
		c-0.1-0.2-0.3-0.3-0.5-0.3c-1.1-0.3-1.4,1.4-2.2,1.2c-0.4-0.1-0.4-0.5-0.9-0.2c-0.4,0.2-0.5,0.8-0.9,0.9c0.2-0.1-0.6-0.5-0.7-0.5
		c-0.6-0.1-0.7,0.4-1.1,0.7c0,0.3-0.1,0.4-0.4,0.2c-0.2,0.1-0.3,0.2-0.4,0.4c-0.2,0.3,0,0.4-0.3,0.6c-0.3,0.3-0.5,0.1-0.7,0.5
		c-0.2,0.5,0.1,0.8,0,1.2c-0.1,0.4-0.5,0.6-0.3,1.2c0.1,0.4,0.4,0.6,0.8,0.8c-0.4,0.5-0.7,1.3-0.1,1.8c0.4,0.4,1.1,0.5,1.6,0.1
		c-0.1,1.1,0.7,1.2,1.5,0.8c0.2,0.3,0.1,0.6,0.6,0.8c0.4,0.1,0.9-0.2,1.3-0.4c0.3,0.8,0.9-0.2,1.1-0.3c0.6-0.3,0.2,0.4,0.8,0.6
		c0.6,0.2,0.8-0.3,1.4-0.4c0.4-0.1,1.3,0.2,1.4-0.4c0.3,0.5,1.5,0.4,1.5-0.3c0.7,0.5,1.1-0.3,1.2-0.8c0.5,0.6,0.7-0.4,1.1-0.4
		c0.3,0,2.5-0.8,2.7-0.6c0.8,0.7,0.4,2.1,0.9,3c1.3,2.4,3.6,2.1,5.6,3.2c0.9,0.5,0.7,1.5,1.7,2c0.5,0.2,0.7,0.2,0.6,0.8
		c-0.1,0.4-0.7,0.8-1,1c-0.9,0.6-2,0.6-3.1,0.6c-0.7,0-1.3-0.1-2,0.1c-0.6,0.2-1,0.6-1.6,0.8c5.8,0,11.7,0,17.5,0c0,0,0,0-0.1,0h-6
		V239.8z M708.1,219h11v7h-11V219z M696.1,219h11v7h-11V219z M682,219v7h-11v-7H682z M670,221.8v0.4
		C669.9,222.1,669.9,222,670,221.8z M668.6,224.7c0.2-0.2,0.5-0.2,0.8-0.3c0.4-0.2,0.6-0.5,0.7-0.9v1.9c-0.2,0.2-0.3,0.5-0.5,0.6
		c-0.1,0-0.2-0.4-0.3-0.5c-0.3-0.1-0.7,0-1,0.1C668.5,225.4,668.3,225,668.6,224.7z M654.9,229.9c-0.2,0.6,0.8,1.6,0.4,2
		c-0.3,0.4-1.9,0.2-2.4,0.4c0-0.5-0.1-0.8-0.4-1.2c1-0.3,1.6-1.5,0.8-2.4c1.1,0.3,2.3-0.8,3.1-1.4
		C656.1,228.3,655.3,228.9,654.9,229.9z M659.4,233.5c-0.5,0.6-0.3,0.9-0.2,1.7c-2.1,0.2-1.7-1.7-2.1-3.1c-0.1-0.6-0.8-1.5-0.6-2.1
		c0.1-0.3,0.4-0.5,0.5-0.8c0.2-0.4,0.2-0.9,0.3-1.3c0.4,1.4,1.4,2,2.7,1c0.4-0.3,0.8-1.4,1.4-1.4c0.5-0.1,0.7,0.6,1.3,0.6
		c0.8,0,1.5-1.6,1.9-1.4c0,0,0.2,0.6,0.3,0.6c0.3,0.2,0.9,0.1,1.2,0c0.7-0.2,1-0.7,1.2-1.4c0.2,0.1-0.3,1-0.4,1.1
		c-0.2,0.4-0.5,0.3-0.8,0.6c-0.2,0.2-0.4,0.6-0.3,0.9c0,0.1,0,0.2,0,0.3c0.2,0.2,0.1,0.4-0.1,0.5c-0.2,0.8-0.2,1.3,0.7,1.7
		c-0.2,0.3-0.1,1.1-0.6,0.8c-0.3-0.2-1-1-1.4-0.9c-0.6,0.1-0.9,0.5-1.5,0.5c-0.7,0-1.4,0.6-2.1,1
		C660.4,232.6,659.8,233.1,659.4,233.5z"/>
	<polygon class="st1" points="926.6,148.6 939.2,153.8 939.5,152.9 926.6,147.5 913.7,152.9 914.1,153.8 	"/>
	<polygon class="st1" points="926.1,165 926.1,161.3 926.1,160.5 920.6,160.5 920.6,165 924.2,165 	"/>
	<path class="st1" d="M917.6,153.4v1.2V167h18v-12.4v-1.2l-9-3.7L917.6,153.4z M933.6,166h-6.5h-1h-6.5v-12l14,0V166z"/>
	<rect x="927.1" y="160.5" class="st1" width="5.5" height="4.5"/>
	<polygon class="st1" points="932.6,155 929.1,155 927.1,155 927.1,158.9 927.1,159.5 932.6,159.5 	"/>
	<rect x="920.6" y="155" class="st1" width="5.5" height="4.5"/>
	<rect x="942.1" y="229" class="st1" width="4" height="4"/>
	<rect x="950.1" y="188" class="st1" width="5" height="6"/>
	<rect x="950.1" y="181" class="st1" width="5" height="6"/>
	<rect x="944.1" y="181" class="st1" width="5" height="6"/>
	<rect x="927.1" y="188" class="st1" width="5" height="6"/>
	<rect x="927.1" y="181" class="st1" width="5" height="6"/>
	<rect x="942.1" y="214" class="st1" width="4" height="4"/>
	<rect x="942.1" y="234" class="st1" width="4" height="4"/>
	<rect x="942.1" y="224" class="st1" width="4" height="4"/>
	<rect x="921.1" y="181" class="st1" width="5" height="6"/>
	<rect x="942.1" y="219" class="st1" width="4" height="4"/>
	<rect x="947.1" y="234" class="st1" width="4" height="4"/>
	<rect x="944.1" y="188" class="st1" width="5" height="6"/>
	<rect x="904.1" y="221" class="st1" width="5" height="6"/>
	<rect x="904.1" y="214" class="st1" width="5" height="6"/>
	<rect x="921.1" y="221" class="st1" width="5" height="6"/>
	<rect x="898.1" y="214" class="st1" width="5" height="6"/>
	<rect x="921.1" y="214" class="st1" width="5" height="6"/>
	<rect x="927.1" y="221" class="st1" width="5" height="6"/>
	<rect x="898.1" y="221" class="st1" width="5" height="6"/>
	<rect x="927.1" y="214" class="st1" width="5" height="6"/>
	<rect x="921.1" y="188" class="st1" width="5" height="6"/>
	<rect x="904.1" y="181" class="st1" width="5" height="6"/>
	<rect x="904.1" y="188" class="st1" width="5" height="6"/>
	<rect x="898.1" y="181" class="st1" width="5" height="6"/>
	<rect x="898.1" y="188" class="st1" width="5" height="6"/>
	<rect x="952.1" y="234" class="st1" width="4" height="4"/>
	<rect x="947.1" y="219" class="st1" width="4" height="4"/>
	<rect x="947.1" y="214" class="st1" width="4" height="4"/>
	<rect x="947.1" y="224" class="st1" width="4" height="4"/>
	<rect x="947.1" y="229" class="st1" width="4" height="4"/>
	<rect x="952.1" y="229" class="st1" width="4" height="4"/>
	<rect x="952.1" y="219" class="st1" width="4" height="4"/>
	<path class="st1" d="M956.1,224h-0.9c0,0.6-0.4,1-1,1c-0.6,0-1-0.4-1-1h-1.1v4h4V224z"/>
	<rect x="952.1" y="214" class="st1" width="4" height="4"/>
	<path class="st1" d="M962.1,243l-1,0v-2.5l-1,0V239h2v0h2l0-45.5l0-20.5h-75l0,34l0,32h47v0l2,0v1.5l-1,0v2.5h-1v2v1.5h26V245V243z
		 M903.6,177c4.1,0,7.5,1.3,7.5,3h-1v15h-13v-15h-1C896.1,178.3,899.5,177,903.6,177z M897.1,228v-15h-1c0-1.7,3.4-3,7.5-3
		c4.1,0,7.5,1.3,7.5,3h-1v15H897.1z M933.1,213v15h-13v-15h-1c0-1.7,3.4-3,7.5-3s7.5,1.3,7.5,3H933.1z M933.1,180v15h-13v-15h-1
		c0-1.7,3.4-3,7.5-3s7.5,1.3,7.5,3H933.1z M949.6,177c4.1,0,7.5,1.3,7.5,3h-1v15h-13v-15h-1C942.1,178.3,945.5,177,949.6,177z
		 M949.1,209c5.5,0,10,1.8,10,4h-20C939.1,210.8,943.6,209,949.1,209z M939.1,239l2,0v-26h16v26l2,0v1.5l-20,0V239z M938.1,241.5
		l2,0v0h19v0l1,0v1.5l-22,0V241.5z M937.1,245.5V244l24,0v1.5L937.1,245.5z"/>
	<rect x="580" y="158.1" class="st1" width="5.1" height="4.5"/>
	<rect x="580" y="163.6" class="st1" width="5.1" height="4.5"/>
	<rect x="559.1" y="218" class="st1" width="4.9" height="5.5"/>
	<rect x="559.8" y="149.3" class="st1" width="40.3" height="1"/>
	<rect x="574.1" y="158.1" class="st1" width="4.9" height="4.5"/>
	<path class="st1" d="M545.6,179v3l0-2h3.5v2h-3.5v3l0-2h4.5v2h-4.5v3l0-2h3.5v2h-3.5v3l0-2h4.5v2h-4.5v3l0-2h3.5v2h-3.5v3l0-2h4.5
		v2h-4.5v3l0-2h3.5v2h-3.5v1.5v1.5l0-2h4.5v2h-4.5v3l0-2h3.5v2h-3.5v1h1.6h64.4h2v-0.1V206h-3.5v-2h3.5l0,2v-3h-4.5v-2h4.5l0,2v-1.7
		V200h-3.5v-2h3.5l0,2v-3h-4.5v-2h4.5l0,2v-3h-3.5v-2h3.5l0,2v-3h-4.5v-2h4.5l0,2v-3h-3.5v-2h3.5l0,2v-3h-4.5v-2h4.5l0,2v-3h-3.5v-2
		h3.5l0,2v-3H545.6z M558.1,184h19v14h-19V184z M601.1,198h-13v-14h13V198z"/>
	<rect x="574.1" y="163.6" class="st1" width="4.9" height="4.5"/>
	<rect x="559.1" y="224.5" class="st1" width="4.9" height="5.5"/>
	<rect x="588.1" y="218" class="st1" width="4" height="7"/>
	<rect x="571" y="218" class="st1" width="5.1" height="5.5"/>
	<rect x="571" y="185" class="st1" width="5.1" height="5.5"/>
	<path class="st1" d="M580,134.3c-7.3,0-12.9,5.8-13.1,13h26.3C592.9,140.1,587.3,134.3,580,134.3z"/>
	<rect x="571" y="224.5" class="st1" width="5.1" height="5.5"/>
	<rect x="565" y="218" class="st1" width="5.1" height="5.5"/>
	<rect x="565" y="224.5" class="st1" width="5.1" height="5.5"/>
	<rect x="589.1" y="191.5" class="st1" width="4.9" height="5.5"/>
	<rect x="595" y="191.5" class="st1" width="5.1" height="5.5"/>
	<rect x="589.1" y="185" class="st1" width="4.9" height="5.5"/>
	<rect x="595" y="185" class="st1" width="5.1" height="5.5"/>
	<rect x="565" y="185" class="st1" width="5.1" height="5.5"/>
	<rect x="559.1" y="191.5" class="st1" width="4.9" height="5.5"/>
	<rect x="565" y="191.5" class="st1" width="5.1" height="5.5"/>
	<rect x="559.1" y="185" class="st1" width="4.9" height="5.5"/>
	<rect x="571" y="191.5" class="st1" width="5.1" height="5.5"/>
	<path class="st1" d="M556.5,162.3c0,4.8-3.8,8.7-8.6,8.7h-0.4c-0.9,0-1.7,0.8-1.7,1.7c0,1,0.8,1.7,1.7,1.7v1.6h64h0.1v-1.6
		c0.9,0,1.7-0.8,1.7-1.7c0-1-0.8-1.7-1.7-1.7c-4.7,0-8.6-3.9-8.6-8.7v-2.2c0-2.4-1.9-4.3-4.3-4.3h-0.9v-3.4h-36.2v3.4h-0.9
		c-2.4,0-4.3,1.9-4.3,4.3V162.3z M573.1,157.1h5.9v0h1v0h6.1v12h-13V157.1z"/>
	<path class="st1" d="M545.6,210v1h3.5v2h-3.5v1h4.5v2h-4.5v1h3.5v2h-3.5v1h4.5v2h-4.5v1h3.5v2h-3.5v1h4.5v2h-4.5v1h3.5v2h-3.5v1
		h4.5v2h-4.5v1h3.5v2h-3.5v1h4.5v2h-4.5v1h47v1h-1v3h1v-2h17v2h1v-3h-1l0-1h4v-1h-4.5v-2h4.5v-1h-3.5v-2h3.5v-1h-4.5v-2h4.5v-1h-3.5
		v-2h3.5v-1h-4.5v-2h4.5v-1h-3.5v-2h3.5v-1h-4.5v-2h4.5v-1h-3.5v-2h3.5v-1h-4.5v-2h4.5v-1h-3.5v-2h3.5v-1H545.6z M577.1,231h-19v-14
		h19V231z M594.6,222c0-3.6,2.9-6.5,6.5-6.5l0,0c3.6,0,6.5,2.9,6.5,6.5v14h-1v-14c0-3-2.5-5.5-5.5-5.5c-3,0-5.5,2.5-5.5,5.5v14h-1
		V222z M605.6,227.7c0,0.4-0.3,0.8-0.8,0.8c-0.4,0-0.8-0.3-0.8-0.8c0-0.4,0.3-0.7,0.8-0.8C605.2,227,605.6,227.3,605.6,227.7z
		 M594.6,237h13v2h-13V237z M593.6,240h15l0,2h-15V240z M587.1,217h6v9h-6V217z"/>
	<path d="M577.1,184h-19v14h19V184z M564,197h-4.9v-5.5h4.9V197z M564,190.5h-4.9V185h4.9V190.5z M570.1,197H565v-5.5h5.1V197z
		 M570.1,190.5H565V185h5.1V190.5z M576.1,197H571v-5.5h5.1V197z M571,190.5V185h5.1v5.5H571z"/>
	<path d="M601.1,149.3v-2H600h-4.9c-0.2-8.2-6.9-15-15.1-15c-8.2,0-14.9,6.8-15.1,15h-5h-1v2h1h40.3H601.1z M566.8,147.3
		c0.3-7.2,5.8-13,13.1-13s12.9,5.8,13.1,13H566.8z"/>
	<path d="M554.8,162.3c0,3.8-3.1,6.9-6.9,6.9h-0.4c-1.9,0-3.4,1.6-3.4,3.5c0,1.6,1,2.9,2.4,3.3h-1.9v0.4v2.6h1h68h1v-2.6V176h-1.9
		c1.4-0.4,2.4-1.7,2.4-3.3c0-1.9-1.5-3.5-3.4-3.5c-3.8,0-6.9-3.1-6.9-6.9v-2.2c0-0.7-0.1-1.4-0.4-2c-0.7-2.1-2.6-3.7-4.8-4v-1.7v0
		h1.5v-2h-1h-40.3h-1v2h1.1v1.7c-2.6,0.4-4.6,2.4-5.1,5c-0.1,0.3-0.1,0.6-0.1,1V162.3z M560.8,155.8h0.9v-3.4h36.2v3.4h0.9
		c2.4,0,4.3,1.9,4.3,4.3v2.2c0,4.8,3.8,8.7,8.6,8.7c0.9,0,1.7,0.8,1.7,1.7c0,1-0.8,1.7-1.7,1.7v1.6h-0.1h-64v-1.6
		c-0.9,0-1.7-0.8-1.7-1.7c0-1,0.8-1.7,1.7-1.7h0.4c4.7,0,8.6-3.9,8.6-8.7v-2.2C556.5,157.7,558.5,155.8,560.8,155.8z"/>
	<path d="M604.1,227.7c0,0.4,0.3,0.8,0.8,0.8c0.4,0,0.7-0.3,0.8-0.8c0-0.4-0.3-0.8-0.8-0.8C604.4,227,604.1,227.3,604.1,227.7z"/>
	<rect x="545.6" y="201" width="4.5" height="2"/>
	<rect x="545.6" y="198" width="3.5" height="2"/>
	<rect x="545.6" y="195" width="4.5" height="2"/>
	<rect x="545.6" y="192" width="3.5" height="2"/>
	<rect x="545.6" y="189" width="4.5" height="2"/>
	<rect x="545.6" y="186" width="3.5" height="2"/>
	<rect x="545.6" y="183" width="4.5" height="2"/>
	<polygon points="545.6,234 550.1,234 550.1,232 545.6,232 545.6,234 	"/>
	<polygon points="545.6,231 549.1,231 549.1,229 545.6,229 545.6,231 	"/>
	<polygon points="545.6,240 550.1,240 550.1,238 545.6,238 545.6,240 	"/>
	<polygon points="545.6,237 549.1,237 549.1,235 545.6,235 545.6,237 	"/>
	<polygon points="545.6,228 550.1,228 550.1,226 545.6,226 545.6,228 	"/>
	<polygon points="545.6,225 549.1,225 549.1,223 545.6,223 545.6,225 	"/>
	<polygon points="545.6,222 550.1,222 550.1,220 545.6,220 545.6,222 	"/>
	<polygon points="545.6,219 549.1,219 549.1,217 545.6,217 545.6,219 	"/>
	<polygon points="545.6,216 550.1,216 550.1,214 545.6,214 545.6,216 	"/>
	<rect x="609.1" y="201" width="4.5" height="2"/>
	<rect x="610.1" y="198" width="3.5" height="2"/>
	<rect x="545.6" y="204" width="3.5" height="2"/>
	<rect x="610.1" y="204" width="3.5" height="2"/>
	<rect x="609.1" y="195" width="4.5" height="2"/>
	<rect x="610.1" y="192" width="3.5" height="2"/>
	<rect x="609.1" y="189" width="4.5" height="2"/>
	<rect x="610.1" y="186" width="3.5" height="2"/>
	<rect x="545.6" y="180" width="3.5" height="2"/>
	<rect x="610.1" y="180" width="3.5" height="2"/>
	<rect x="609.1" y="183" width="4.5" height="2"/>
	<polygon points="609.1,234 613.6,234 613.6,234 613.6,232 609.1,232 	"/>
	<polygon points="610.1,231 613.6,231 613.6,231 613.6,229 610.1,229 	"/>
	<polygon points="609.1,240 613.6,240 613.6,240 613.6,238 609.1,238 	"/>
	<polygon points="610.1,237 613.6,237 613.6,237 613.6,235 610.1,235 	"/>
	<polygon points="609.1,228 613.6,228 613.6,228 613.6,226 609.1,226 	"/>
	<polygon points="610.1,225 613.6,225 613.6,225 613.6,223 610.1,223 	"/>
	<polygon points="609.1,222 613.6,222 613.6,222 613.6,220 609.1,220 	"/>
	<polygon points="610.1,219 613.6,219 613.6,219 613.6,217 610.1,217 	"/>
	<polygon points="545.6,213 545.6,213 549.1,213 549.1,211 545.6,211 545.6,212.7 	"/>
	<polygon points="610.1,213 613.6,213 613.6,213 613.6,211 610.1,211 	"/>
	<polygon points="609.1,216 613.6,216 613.6,216 613.6,214 609.1,214 	"/>
	<polygon points="614.6,207.4 614.6,207 613.7,207 613.6,207 611.6,207 547.2,207 545.6,207 544.6,207 544.6,207.4 544.6,210 
		545.6,210 613.6,210 614.6,210 614.6,209.2 614.6,207.9 	"/>
	<path d="M593.1,217h-6v9h6V217z M592.1,225h-4v-7h4V225z"/>
	<polygon class="st1" points="73.9,182 77.9,182 77.9,180.6 77.9,178 73.9,178 	"/>
	<rect x="73.9" y="183" class="st1" width="4" height="4"/>
	<polygon class="st1" points="82.9,214 79,214 78.9,214 78.9,214.2 78.9,218 82.9,218 	"/>
	<rect x="68.9" y="178" class="st1" width="4" height="4"/>
	<rect x="78.9" y="219" class="st1" width="4" height="4"/>
	<rect x="73.9" y="219" class="st1" width="4" height="4"/>
	<rect x="68.9" y="214" class="st1" width="4" height="4"/>
	<polygon class="st1" points="77.9,224 73.9,224 73.9,226.2 73.9,228 77.9,228 	"/>
	<polygon class="st1" points="73.9,190.2 73.9,192 77.9,192 77.9,188 73.9,188 	"/>
	<rect x="146.9" y="224" class="st1" width="4" height="4"/>
	<rect x="136.9" y="214" class="st1" width="4" height="4"/>
	<rect x="136.9" y="219" class="st1" width="4" height="4"/>
	<polygon class="st1" points="145.9,216.6 145.9,214 141.9,214 141.9,218 145.9,218 	"/>
	<path class="st1" d="M107.9,171.3v6.7h3.7h0.3v-0.7v-6v0c-0.2,0-0.3-0.1-0.5-0.1c0,0,0,0-0.1,0c-0.2,0-0.4-0.1-0.6-0.1
		c0,0,0,0-0.1,0c-0.2,0-0.5,0-0.7,0C109.2,171,108.5,171.1,107.9,171.3z"/>
	<rect x="68.9" y="183" class="st1" width="4" height="4"/>
	<rect x="136.9" y="224" class="st1" width="4" height="4"/>
	<rect x="112.9" y="184" class="st1" width="4" height="4"/>
	<rect x="107.9" y="189" class="st1" width="4" height="4"/>
	<polygon class="st1" points="107.9,184 107.9,187 107.9,188 111.9,188 111.9,184 109.1,184 	"/>
	<polygon class="st1" points="77.9,216.6 77.9,214 73.9,214 73.9,218 77.9,218 	"/>
	<polygon class="st1" points="107.9,179 107.9,183 109.5,183 111.9,183 111.9,179 111.2,179 	"/>
	<path class="st1" d="M102.9,178h4v-6.3C104.5,172.8,102.9,175.2,102.9,178z"/>
	<rect x="112.9" y="179" class="st1" width="4" height="4"/>
	<rect x="112.9" y="189" class="st1" width="4" height="4"/>
	<rect x="78.9" y="224" class="st1" width="4" height="4"/>
	<path class="st1" d="M116.8,177.2c0-0.1,0-0.1,0-0.2c0-0.2-0.1-0.4-0.1-0.6c0-0.1,0-0.1-0.1-0.2c-0.1-0.2-0.1-0.4-0.2-0.6
		c0,0,0-0.1,0-0.1c-0.6-1.7-1.9-3-3.5-3.8v0v3.2v3.1h4C116.9,177.7,116.9,177.5,116.8,177.2z"/>
	<polygon class="st1" points="141.9,226.2 141.9,228 145.9,228 145.9,224 141.9,224 	"/>
	<rect x="78.9" y="188" class="st1" width="4" height="4"/>
	<polygon class="st1" points="141.9,190.2 141.9,192 145.9,192 145.9,188 141.9,188 	"/>
	<rect x="136.9" y="183" class="st1" width="4" height="4"/>
	<rect x="136.9" y="178" class="st1" width="4" height="4"/>
	<path class="st1" d="M89.1,229c-0.3,0-0.5-0.4-0.5-1c0-0.6,0.2-1,0.5-1c0.3,0,0.5,0,0.5,0v-21H61.9v35h27.7v-12H89.1z M83.9,229
		h-16v-16h16V229z"/>
	<path class="st1" d="M61.9,196l2-1l28,0v-22h-30V196z M67.9,177h16v16h-16V177z"/>
	<rect x="136.9" y="188" class="st1" width="4" height="4"/>
	<rect x="102.9" y="179" class="st1" width="4" height="4"/>
	<polygon class="st1" points="78.9,178 78.9,178.2 78.9,182 82.9,182 82.9,178 79,178 	"/>
	<rect x="141.9" y="183" class="st1" width="4" height="4"/>
	<rect x="146.9" y="188" class="st1" width="4" height="4"/>
	<polygon class="st1" points="141.9,182 145.9,182 145.9,180.6 145.9,178 141.9,178 	"/>
	<rect x="102.9" y="184" class="st1" width="4" height="4"/>
	<polygon class="st1" points="102.9,193 105.4,193 106.9,193 106.9,189.4 106.9,189 102.9,189 	"/>
	<rect x="78.9" y="183" class="st1" width="4" height="4"/>
	<polygon class="st1" points="109.9,157 130.9,171 162.9,171 162.9,170.2 162.9,170 131.1,170 131.1,170 109.9,155.7 99.3,162.9 
		88.6,170 88.6,170 56.9,170 56.9,171 88.9,171 	"/>
	<circle class="st1" cx="114.9" cy="229.2" r="1"/>
	<rect x="146.9" y="183" class="st1" width="4" height="4"/>
	<path class="st1" d="M93.9,170.1V198h32v-27.9l-16-10.7L93.9,170.1z M117.9,178v16h-16v-16c0-4.4,3.6-8,8-8S117.9,173.6,117.9,178z
		"/>
	<path class="st1" d="M122.6,243v-2h1.3h2.3v-12h-0.5c-0.3,0-0.5-0.4-0.5-1c0-0.6,0.2-1,0.5-1s0.5,0,0.5,0v-21H93.6v21h0.5
		c0.3,0,0.5,0.4,0.5,1c0,0.6-0.2,1-0.5,1c-0.3,0-0.5,0-0.5,0v12h3.3h1.3v2h-1.3v2v1.5h1v-2h25v2h1V245v-2H122.6z M99.9,213h20v28h-1
		v-27h-18v27h-1V213z M117.9,215v26h-16v-26H117.9z M121.6,243.5H99.2V242h0.7h1v0h1.5h2.3h12.7h1.5v0h1h1.7V243.5z"/>
	<polygon class="st1" points="150.9,178 147,178 146.9,178 146.9,178.2 146.9,182 150.9,182 	"/>
	<rect x="68.9" y="188" class="st1" width="4" height="4"/>
	<polygon class="st1" points="171.9,204 171.9,203 157.9,203 61.9,203 47.9,203 47.9,204 	"/>
	<path class="st1" d="M156.1,195l1.8,1v-23h-30v22H156.1z M135.9,193v-16h16v16H135.9z"/>
	<rect x="141.9" y="219" class="st1" width="4" height="4"/>
	<rect x="146.9" y="219" class="st1" width="4" height="4"/>
	<polygon class="st1" points="150.9,218 150.9,214 147,214 146.9,214 146.9,214.2 146.9,218 	"/>
	<path class="st1" d="M162.9,229c0,0-0.2,0-0.5,0c-0.3,0-0.5-0.4-0.5-1c0-0.6,0.2-1,0.5-1h0.5v-21h-3v35h3V229z"/>
	<path class="st1" d="M157.9,206h-27.7v21h0.5c0.3,0,0.5,0.4,0.5,1c0,0.6-0.2,1-0.5,1c-0.3,0-0.5,0-0.5,0v12h27.7V206z M135.9,213
		h16v16h-16V213z"/>
	<path class="st1" d="M56.9,227c0,0,0.2,0,0.5,0s0.5,0.4,0.5,1c0,0.6-0.2,1-0.5,1h-0.5v12h3v-35h-3V227z"/>
	<rect x="68.9" y="224" class="st1" width="4" height="4"/>
	<rect x="68.9" y="219" class="st1" width="4" height="4"/>
	<rect x="776.1" y="239" class="st1" width="42" height="2"/>
	<rect x="776.1" y="236" class="st1" width="42" height="2"/>
	<rect x="744.1" y="179" class="st1" width="21" height="27"/>
	<rect x="696.1" y="179" class="st1" width="23" height="7"/>
	<rect x="708.1" y="219" class="st1" width="11" height="7"/>
	<rect x="658.1" y="179" class="st1" width="24" height="7"/>
	<rect x="696.1" y="219" class="st1" width="11" height="7"/>
	<rect x="776.1" y="242" class="st1" width="42" height="2"/>
	<rect x="671" y="219" class="st1" width="11" height="7"/>
	<rect x="776.1" y="221" class="st1" width="42" height="2"/>
	<rect x="776.1" y="218" class="st1" width="42" height="2"/>
	<rect x="760.1" y="218" class="st1" width="4" height="27"/>
	<path class="st1" d="M759.1,218h-16v27h16V218z M745.6,242c-0.3,0-0.5-0.2-0.5-0.5v-20c0-0.3,0.2-0.5,0.5-0.5s0.5,0.2,0.5,0.5v20
		C746.1,241.8,745.9,242,745.6,242z"/>
	<rect x="776.1" y="233" class="st1" width="42" height="2"/>
	<rect x="776.1" y="230" class="st1" width="42" height="2"/>
	<polygon class="st1" points="738.1,214 824.1,214 824.1,213 734.1,213 734.1,210 668.1,210 668.1,209 734.1,209 734.1,209 
		768.1,209 768.1,207 766.1,207 743.1,207 743.1,178 766.1,178 768.1,178 768.1,175 655.1,175 655.1,178 657.1,178 679.1,178 
		680.1,178 720.1,178 720.1,187 680.1,187 679.1,187 657.1,187 655.1,187 655.1,209 668.1,209 668.1,212.9 668.1,215.7 668.1,218 
		669.7,218 670,218 720.1,218 720.1,227 670,227 668.1,227 668.1,234.6 668.1,239.8 668.1,245 674.1,245 738.1,245 	"/>
	<rect x="776.1" y="227" class="st1" width="42" height="2"/>
	<rect x="776.1" y="224" class="st1" width="42" height="2"/>
	<rect x="937.1" y="244" width="24" height="1.5"/>
	<rect x="936.1" y="246.5" width="26" height="1.5"/>
	<polygon points="960.1,243 960.1,241.5 959.1,241.5 959.1,241.5 940.1,241.5 940.1,241.5 938.1,241.5 938.1,243 	"/>
	<path d="M959.1,240.5V239l-2,0v-26h-16v26l-2,0v1.5L959.1,240.5z M952.1,214h4v4h-4V214z M952.1,219h4v4h-4V219z M952.1,224h1.1
		c0,0.6,0.4,1,1,1c0.6,0,1-0.4,1-1h0.9v4h-4V224z M952.1,229h4v4h-4V229z M952.1,234h4v4h-4V234z M947.1,214h4v4h-4V214z M947.1,219
		h4v4h-4V219z M947.1,224h4v4h-4V224z M947.1,229h4v4h-4V229z M947.1,234h4v4h-4V234z M942.1,214h4v4h-4V214z M942.1,219h4v4h-4V219
		z M942.1,224h4v4h-4V224z M942.1,229h4v4h-4V229z M942.1,234h4v4h-4V234z"/>
	<path d="M919.6,166h6.5h1h6.5v-12l-14,0V166z M927.1,158.9V155h2h3.5v4.5h-5.5V158.9z M927.1,160.5h5.5v4.5h-5.5V160.5z M920.6,155
		h5.5v4.5h-5.5V155z M920.6,160.5h5.5v0.8v3.7h-1.9h-3.6V160.5z"/>
	<polygon class="st1" points="449.4,212 381,212 381,212.8 381,213 447.2,213 	"/>
	<rect x="442" y="217" class="st1" width="7" height="7"/>
	<rect x="397" y="217" class="st1" width="10" height="7"/>
	<rect x="426" y="190" class="st1" width="7" height="7"/>
	<path class="st1" d="M429,243v-28h-17v28v2v0v1h1v-2h15v2h1v-1v0V243z M428,243h-15v-1v-26h15v26V243z"/>
	<rect x="434" y="225" class="st1" width="7" height="7"/>
	<rect x="431" y="236" class="st1" width="20.9" height="7"/>
	<polygon class="st1" points="431,234 451.9,234 451.9,215.1 450,216 450,233 433,233 433,216 448.3,216 447.9,215 431,215 	"/>
	<path class="st1" d="M394,201h44v-20.9l-22-10l-22,10V201z M434,198l-17,0v-17h17V198z M398,181h17v17l-17,0V181z"/>
	<rect x="442" y="225" class="st1" width="7" height="7"/>
	<polygon class="st1" points="476,200.9 449.4,213 447.4,213.9 447.8,214.8 476,201.9 504.2,214.8 504.9,213.1 504.5,213.9 	"/>
	<rect x="434" y="217" class="st1" width="7" height="7"/>
	<path class="st1" d="M495,218h-38v27h1v-2h36v2h1V218z M494,242l-36,0v-2h36V242z M494,239l-36,0v-2h36V239z M494,236l-36,0v-2h36
		V236z M494,233l-36,0v-2h36V233z M494,230l-36,0v-2h36V230z M494,227l-36,0v-2h36V227z M494,224l-36,0v-2h36V224z M494,221l-36,0
		v-2h36V221z"/>
	<polygon class="st1" points="498,243 498,215 498,214.1 476,204.1 453.9,214.2 453.9,243 453.9,245 456,245 456,217 496,217 
		496,245 496.3,245 498,245 	"/>
	<polygon class="st1" points="399,197 403.3,197 406,197 406,190.6 406,190 399,190 	"/>
	<rect x="399" y="182" class="st1" width="7" height="7"/>
	<rect x="393.8" y="236" class="st1" width="16.2" height="7"/>
	<rect x="407" y="190" class="st1" width="7" height="7"/>
	<polygon class="st1" points="407,182 407,188.2 407,189 414,189 414,182 409.5,182 	"/>
	<polygon class="st1" points="387.8,180.8 416,167.9 444.2,180.8 444.5,180 416,166.9 387.4,179.9 388,181.2 388.2,181.6 
		388.6,182.5 388.6,182.6 	"/>
	<polygon class="st1" points="418,190 418,197 422.1,197 425,197 425,190.1 425,190 	"/>
	<polygon class="st1" points="389.5,182.2 388.6,182.6 389,182.4 392,181 	"/>
	<rect x="418" y="182" class="st1" width="7" height="7"/>
	<rect x="397" y="225" class="st1" width="10" height="7"/>
	<path class="st1" d="M427,217h-1.2H414v25h13V217z M424.9,231.9h-2c-0.6,0-1-0.4-1-1c0-0.6,0.4-1,1-1h2c0.6,0,1,0.4,1,1
		C425.9,231.5,425.4,231.9,424.9,231.9z"/>
	<polygon class="st1" points="426,187.7 426,189 433,189 433,182 428.4,182 426,182 	"/>
	<path class="st1" d="M393.8,234H410v-19h-16.2V234z M408,216v8h0v1h0v8l-12,0v-17H408z"/>
	<rect x="294.4" y="218" class="st1" width="8" height="7"/>
	<rect x="305.4" y="218" class="st1" width="8" height="7"/>
	<rect x="219.8" y="218" class="st1" width="34" height="17"/>
	<path class="st1" d="M322.8,198h-4v1h9v-1h-4v-2h4v-1h-1.5v-2h1.5v-1h-4v-2h4v-1v0h-1.5v-2h1.5v-1h-9v1h1.5v2h-1.5v1h4v2h-4v1h1.5
		v2h-1.5v1h4V198z M321.3,189v-2h4v2H321.3z M321.3,195v-2h4v2H321.3z"/>
	<rect x="283.4" y="218" class="st1" width="8" height="7"/>
	<path class="st1" d="M263.8,218v25h13v-25H263.8z M275.8,233.7c0,0.6-0.4,1-1,1h-1c-0.6,0-1-0.4-1-1v-1c0-0.6,0.4-1,1-1h1
		c0.6,0,1,0.4,1,1V233.7z"/>
	<path class="st1" d="M323.8,242v-2h4v-1h-1.5v-2h1.5v-1h-4v-2h4v-1h-1.5v-2h1.5v-1h-4v-2h4v-1h-1.5v-2h1.5v-1h-4v-2h4v-1h-1.5v-2
		h1.5v-1h-4v-2h4v-1h-1.5v-2h1.5v-1h-9h-62h-47v31h47h6v-25v-1h15v1v25h41h9v-1H323.8z M259.8,242h-46v-1h46V242z M259.8,240h-46v-1
		h46V240z M259.8,238h-46v-1h5v0h36v0h5V238z M259.8,218h-5v1h5v1h-5v1h5v1h-5v1h5v1h-5v1h5v1h-5v1h5v1h-5v1h5v1h-5v1h5v1h-5v1h5v1
		h-5v1h5v1h-5v0h-36v0h-5v-1h5v-1h-5v-1h5v-1h-5v-1h5v-1h-5v-1h5v-1h-5v-1h5v-1h-5v-1h5v-1h-5v-1h5v-1h-5v-1h5v-1h-5v-1h5v-1h-5v-1
		h5h36h5V218z M259.8,216h-46v-1h46V216z M259.8,214h-46v-1h46V214z M292.4,226h-10v-9h10V226z M303.4,226h-10v-9h10V226z
		 M314.4,226h-10v-9h10V226z M325.3,237v2h-4v-2H325.3z M325.3,231v2h-4v-2H325.3z M325.3,225v2h-4v-2H325.3z M325.3,219v2h-4v-2
		H325.3z M321.3,213h4v2h-4V213z M318.8,213h1.5v2h-1.5V213z M318.8,216h4v2h-4V216z M318.8,219h1.5v2h-1.5V219z M318.8,222h4v2h-4
		V222z M318.8,225h1.5v2h-1.5V225z M318.8,228h4v2h-4V228z M318.8,231h1.5v2h-1.5V231z M318.8,234h4v2h-4V234z M318.8,237h1.5v2
		h-1.5V237z M322.8,242h-4v-2h4V242z"/>
	<polygon class="st1" points="328.8,212 328.8,243 345.7,243 345.7,226.1 345.7,212 	"/>
	<polygon class="st1" points="350.8,207 327.8,207 318.8,207 204.8,207 204.8,208 318.8,208 345.7,208 350.8,208 	"/>
	<path d="M293.4,226h10v-9h-10V226z M294.4,218h8v7h-8V218z"/>
	<path d="M282.4,226h10v-9h-10V226z M283.4,218h8v7h-8V218z"/>
	<path d="M304.4,226h10v-9h-10V226z M305.4,218h8v7h-8V218z"/>
	<polygon points="328.8,186 328.8,184 317.8,184 317.8,186 318.8,186 327.8,186 	"/>
	<polygon points="254.8,237 218.8,237 218.8,237 213.8,237 213.8,238 259.8,238 259.8,237 254.8,237 	"/>
	<path d="M218.8,217h-5v1h5v1h-5v1h5v1h-5v1h5v1h-5v1h5v1h-5v1h5v1h-5v1h5v1h-5v1h5v1h-5v1h5v1h-5v1h5v1h-5v1h5v0h36v0h5v-1h-5v-1h5
		v-1h-5v-1h5v-1h-5v-1h5v-1h-5v-1h5v-1h-5v-1h5v-1h-5v-1h5v-1h-5v-1h5v-1h-5v-1h5v-1h-5v-1h5v-1h-5H218.8z M253.8,235h-34v-17h34
		V235z"/>
	<rect x="213.8" y="241" width="46" height="1"/>
	<rect x="213.8" y="239" width="46" height="1"/>
	<rect x="213.8" y="215" width="46" height="1"/>
	<rect x="213.8" y="213" width="46" height="1"/>
	<rect x="318.8" y="240" width="4" height="2"/>
	<rect x="321.3" y="237" width="4" height="2"/>
	<rect x="318.8" y="237" width="1.5" height="2"/>
	<rect x="318.8" y="234" width="4" height="2"/>
	<rect x="321.3" y="231" width="4" height="2"/>
	<rect x="318.8" y="231" width="1.5" height="2"/>
	<rect x="318.8" y="228" width="4" height="2"/>
	<rect x="321.3" y="225" width="4" height="2"/>
	<rect x="318.8" y="225" width="1.5" height="2"/>
	<rect x="318.8" y="222" width="4" height="2"/>
	<rect x="321.3" y="219" width="4" height="2"/>
	<rect x="318.8" y="219" width="1.5" height="2"/>
	<rect x="318.8" y="216" width="4" height="2"/>
	<rect x="321.3" y="213" width="4" height="2"/>
	<rect x="318.8" y="213" width="1.5" height="2"/>
	<rect x="321.3" y="193" width="4" height="2"/>
	<rect x="318.8" y="193" width="1.5" height="2"/>
	<rect x="318.8" y="190" width="4" height="2"/>
	<rect x="321.3" y="187" width="4" height="2"/>
	<rect x="326.3" y="187" width="1.5" height="2"/>
	<rect x="318.8" y="187" width="1.5" height="2"/>
	<path d="M274.8,231.7h-1c-0.6,0-1,0.4-1,1v1c0,0.6,0.4,1,1,1h1c0.6,0,1-0.4,1-1v-1C275.8,232.2,275.3,231.7,274.8,231.7z"/>
	<polygon points="496,217 456,217 456,245 457,245 457,218 495,218 495,245 496,245 	"/>
	<rect x="458" y="219" width="36" height="2"/>
	<rect x="458" y="222" width="36" height="2"/>
	<rect x="458" y="225" width="36" height="2"/>
	<rect x="458" y="228" width="36" height="2"/>
	<rect x="458" y="231" width="36" height="2"/>
	<rect x="458" y="234" width="36" height="2"/>
	<rect x="458" y="237" width="36" height="2"/>
	<rect x="458" y="240" width="36" height="2"/>
	<polygon points="458,243 458,245 458,245 494,245 494,245 494,243 	"/>
	<path d="M417,181v17l17,0v-17H417z M425,190.1v6.9l-2.8,0H418v-7h7V190.1z M433,197l-7,0v-7h7V197z M428.4,182h4.6v7h-7v-1.3V182
		H428.4z M425,189h-7v-7h7V189z"/>
	<path d="M415,181h-17v17l17,0V181z M406,190.6v6.4l-2.7,0l-4.3,0v-7h7V190.6z M406,189h-7v-7h7V189z M414,197l-7,0v-7h7V197z
		 M414,189h-7v-0.8V182h2.5h4.4V189z"/>
	<path d="M396,233l12,0v-8h0v-1h0v-8h-12V233z M407,232h-10v-7h10V232z M407,217v7h-10v-7H407z"/>
	<path d="M428,216h-15v26v1h15v-1V216z M414,242v-25h11.8h1.2v25H414z"/>
	<path d="M424.9,229.9h-2c-0.6,0-1,0.4-1,1c0,0.6,0.4,1,1,1h2c0.6,0,1-0.4,1-1C425.9,230.4,425.4,229.9,424.9,229.9z"/>
	<polygon points="413,244 413,246 413,246 428,246 428,246 428,244 	"/>
	<polygon points="118.9,242 118.9,242 117.4,242 104.7,242 102.4,242 100.9,242 100.9,242 99.9,242 99.2,242 99.2,243.5 
		121.6,243.5 121.6,242 119.9,242 	"/>
	<polygon points="97.9,244.5 97.9,246.5 97.9,246.5 122.9,246.5 122.9,244.5 	"/>
	<polygon points="100.9,214 118.9,214 118.9,241 119.9,241 119.9,213 99.9,213 99.9,241 100.9,241 	"/>
	<path d="M151.9,229v-16h-16v16H151.9z M146.9,228v-4h4v4H146.9z M150.9,219v4h-4v-4H150.9z M146.9,214.2V214h0.1h3.9v4h-4V214.2z
		 M141.9,214h4v2.6v1.4h-4V214z M140.9,228h-4v-4h4V228z M140.9,223h-4v-4h4V223z M140.9,218h-4v-4h4V218z M145.9,228h-4v-1.8V224h4
		V228z M141.9,223v-4h4v4H141.9z"/>
	<path d="M67.9,229h16v-16h-16V229z M72.9,228h-4v-4h4V228z M78.9,214.2V214H79h3.9v4h-4V214.2z M78.9,219h4v4h-4V219z M78.9,224h4
		v4h-4V224z M73.9,214h4v2.6v1.4h-4V214z M73.9,219h4v4h-4V219z M73.9,226.2V224h4v4h-4V226.2z M68.9,214h4v4h-4V214z M72.9,219v4
		h-4v-4H72.9z"/>
	<path d="M117.9,241v-26h-16v26H117.9z M114.9,228.2c0.6,0,1,0.4,1,1c0,0.6-0.4,1-1,1c-0.6,0-1-0.4-1-1
		C113.9,228.6,114.3,228.2,114.9,228.2z"/>
	<path d="M151.9,177h-16v16h16V177z M146.9,178.2V178h0.1h3.9v4h-4V178.2z M146.9,183h4v4h-4V183z M140.9,192h-4v-4h4V192z
		 M140.9,187h-4v-4h4V187z M140.9,182h-4v-4h4V182z M145.9,192h-4v-1.8V188h4V192z M145.9,187h-4v-4h4V187z M145.9,180.6v1.4h-4v-4
		h4V180.6z M146.9,192v-4h4v4H146.9z"/>
	<path d="M83.9,177h-16v16h16V177z M72.9,192h-4v-4h4V192z M72.9,187h-4v-4h4V187z M72.9,182h-4v-4h4V182z M77.9,192h-4v-1.8V188h4
		V192z M77.9,187h-4v-4h4V187z M77.9,180.6v1.4h-4v-4h4V180.6z M82.9,192h-4v-4h4V192z M82.9,187h-4v-4h4V187z M82.9,182h-4v-3.8
		V178H79h3.9V182z"/>
	<path d="M101.9,178v16h16v-16c0-4.4-3.6-8-8-8S101.9,173.6,101.9,178z M106.9,189.4v3.6h-1.5h-2.5v-4h4V189.4z M106.9,188h-4v-4h4
		V188z M106.9,183h-4v-4h4V183z M106.9,178h-4c0-2.8,1.6-5.2,4-6.3V178z M111.9,193h-4v-4h4V193z M111.9,188h-4v-1v-3h1.2h2.8V188z
		 M111.9,183h-2.4h-1.6v-4h3.3h0.7V183z M112.9,174.9v-3.2v0c1.6,0.8,2.9,2.1,3.5,3.8c0,0,0,0.1,0,0.1c0.1,0.2,0.1,0.4,0.2,0.6
		c0,0.1,0,0.1,0.1,0.2c0,0.2,0.1,0.4,0.1,0.6c0,0.1,0,0.1,0,0.2c0,0.3,0,0.5,0,0.8h-4V174.9z M112.9,179h4v4h-4V179z M112.9,184h4v4
		h-4V184z M112.9,189h4v4h-4V189z M110.7,171c0.2,0,0.4,0.1,0.6,0.1c0,0,0,0,0.1,0c0.2,0,0.3,0.1,0.5,0.1v0v6v0.7h-0.3h-3.7v-6.7
		c0.6-0.2,1.3-0.3,2-0.3C110.1,171,110.4,171,110.7,171C110.6,171,110.7,171,110.7,171z"/>
	<rect x="594.6" y="237" width="13" height="2"/>
	<path d="M595.6,222c0-3,2.5-5.5,5.5-5.5c3,0,5.5,2.5,5.5,5.5v14h1v-14c0-3.6-2.9-6.5-6.5-6.5l0,0c-3.6,0-6.5,2.9-6.5,6.5v14h1V222z
		"/>
	<rect x="593.6" y="240" width="15" height="2"/>
	<polygon points="592.6,242 592.6,241 545.6,241 543.6,241 543.6,245 548.1,245 591.6,245 591.6,245 591.6,242 	"/>
	<polygon points="609.6,242 610.6,242 610.6,245 610.6,245 615.6,245 615.6,241 613.6,241 609.6,241 	"/>
	<polygon points="592.6,243 592.6,245 592.6,245 609.6,245 609.6,245 609.6,243 	"/>
	<path d="M746.1,221.5c0-0.3-0.2-0.5-0.5-0.5s-0.5,0.2-0.5,0.5v20c0,0.3,0.2,0.5,0.5,0.5s0.5-0.2,0.5-0.5V221.5z"/>
	<path d="M897.1,195h13v-15h1c0-1.7-3.4-3-7.5-3c-4.1,0-7.5,1.3-7.5,3h1V195z M903.1,194h-5v-6h5V194z M903.1,187h-5v-6h5V187z
		 M909.1,194h-5v-6h5V194z M909.1,187h-5v-6h5V187z"/>
	<path d="M943.1,195h13v-15h1c0-1.7-3.4-3-7.5-3c-4.1,0-7.5,1.3-7.5,3h1V195z M949.1,194h-5v-6h5V194z M949.1,187h-5v-6h5V187z
		 M955.1,194h-5v-6h5V194z M955.1,187h-5v-6h5V187z"/>
	<path d="M910.1,213h1c0-1.7-3.4-3-7.5-3c-4.1,0-7.5,1.3-7.5,3h1v15h13V213z M903.1,227h-5v-6h5V227z M903.1,220h-5v-6h5V220z
		 M909.1,227h-5v-6h5V227z M909.1,220h-5v-6h5V220z"/>
	<path d="M588.1,184v14h13v-14H588.1z M594,197h-4.9v-5.5h4.9V197z M595,185h5.1v5.5H595V185z M595,191.5h5.1v5.5H595V191.5z
		 M594,190.5h-4.9V185h4.9V190.5z"/>
	<path d="M558.1,217v14h19v-14H558.1z M564,230h-4.9v-5.5h4.9V230z M564,223.5h-4.9V218h4.9V223.5z M570.1,230H565v-5.5h5.1V230z
		 M570.1,223.5H565V218h5.1V223.5z M576.1,230H571v-5.5h5.1V230z M576.1,223.5H571V218h5.1V223.5z"/>
	<path d="M586.1,157.1H580v0h-1v0h-5.9v12h13V157.1z M579,168.1h-4.9v-4.5h4.9V168.1z M579,162.6h-4.9v-4.5h4.9V162.6z M585.1,168.1
		H580v-4.5h5.1V168.1z M585.1,162.6H580v-4.5h5.1V162.6z"/>
	<polygon points="937.1,243 937.1,240.5 938.1,240.5 938.1,239 936.1,239 888.1,239 888.1,245 936.1,245 936.1,243 	"/>
	<path d="M926.6,177c-4.1,0-7.5,1.3-7.5,3h1v15h13v-15h1C934.1,178.3,930.7,177,926.6,177z M926.1,194h-5v-6h5V194z M926.1,187h-5
		v-6h5V187z M932.1,194h-5v-6h5V194z M932.1,187h-5v-6h5V187z"/>
	<path d="M926.6,210c-4.1,0-7.5,1.3-7.5,3h1v15h13v-15h1C934.1,211.3,930.7,210,926.6,210z M926.1,227h-5v-6h5V227z M926.1,220h-5
		v-6h5V220z M932.1,227h-5v-6h5V227z M932.1,220h-5v-6h5V220z"/>
	<path d="M959.1,213c0-2.2-4.5-4-10-4c-5.5,0-10,1.8-10,4H959.1z"/>
	<path d="M964.1,173h4v-1h-83v-1h83l-4-15l-22-13h-18v-2h-10v2h-3l-22,13l-1.4,5.1c-1.1,0-2.3,0.4-2.9,1.3c-0.2,0.3-0.5,0.4-0.7,0.3
		c-0.8-0.1-2.3,0.1-3.3,0.4c-0.4,0.1-0.9-0.2-0.9-0.6c-0.2-2-2.9-1-3.8-2.2c-0.7-1-2.7-1.1-4.1-0.1c-0.2,0.1-0.4,0.2-0.6,0.1
		c-3.4-0.7-5.7,2.7-6.2,3.2c-1.2,1-2.5,1.5-3.6,2.4c-0.4,0.3-1.3,1.7-1.6,2c-1,0.8-1.9,0.3-3,1.4c-0.5,0.5-1,2.1-1.4,3.1
		c-0.2,0.3-0.7,1.4-1,2c-0.1,0.2-0.1,0.4,0,0.6c0.2,0.4,0,0.7-0.5,0.9c-0.3,0.1-0.6,0.1-0.8-0.2c-0.2-0.2-0.3-0.4-0.6-0.5
		c-1.9-0.6-1.9-0.1-3.3,1.2c-1.6,1.5-1.1,1.8-0.5,3.5c0.1,0.4-0.1,0.8-0.5,0.9c-1.1,0.3-3.1,1.1-3.2,1.2c-0.5,0.3-1.4-0.4-1.3,0.8
		c0.1,1.1,1.2,1.5,2.3,1.4c0.1,0-2,4.9,0.1,5.2c0.4,0.1,0.6,0.4,0.6,0.8c0,0.5,0.1,0.4-1,1.1c-0.9,0.6-0.8-0.8-2-0.6
		c-1.3,0.2-3.9,1.6-1.8,2.6c0.4,0.2,0.5,0.7,0.3,1.1c-0.4,0.6-0.9,1.5-0.5,2.6c0.2,0.5,1.4,1.9,1.8,2.2c1.2,0.7,5.3,0.7,2.2,2.1
		c-2.3,1-5.9-1.5-6.5,1.9c-0.3,1.5,3,5,5,5.9c0.3,0.1,0.5,0.4,0.4,0.8c0,0.1,0,0.1,0,0.2c0.1,0.3-0.1,0.7-0.4,0.8
		c-0.7,0.3-1.7,0.7-2.2,0.9c-0.2,0.1-0.3,0.2-0.4,0.4c-0.4,1.1,0,1.3,0.8,2.2c0.7,0.8,2.1,0.6,3,0.9c0.4,0.1,0.6,0.6,0.4,1
		c-0.3,0.5-0.1,0.9,0.4,1.3c0.6,0.4,1.2,0.4,1.7,0c0.3-0.2,0.6-0.2,0.9,0c0.5,0.4,1,0.6,1.8,0.4c1.2-0.4,1.3-1.2,2.3-1.6
		c1.3-0.5,3.7-0.5,4.3-2.2c0.2-0.4,3.6-0.8,4-0.5c1.2,0.9,0.5,1.4,2.4,1.5c2.8,0.2,8.2-2.5,10.8,0.8c1.9,2.4-0.2,26.5-0.5,28.9h8.6
		c-0.1-1.6-0.8-12.1-0.8-13.1c-0.1-5.8-0.4-14.4,0.5-17c0.9-2.4,4.6-4,5.8-6.3c0.4-0.8,0.6-1.3,0.8-1.7l0-34H964.1z M935.6,154.6
		V167h-18v-12.4v-1.2l9-3.7l9,3.7V154.6z M926.6,147.5l12.9,5.4l-0.4,0.9l-12.6-5.2l-12.6,5.2l-0.4-0.9L926.6,147.5z M869.8,213.3
		c-0.5,0.3-1.2,0.5-1.8,0.7c-0.6,0.1-3.7,0.1-3.5-0.5c0-0.1,2.8-0.7,2.8-0.8c0.7-2.1,1.6-1.7,2.7-0.5
		C870.3,212.6,870.2,213.1,869.8,213.3z M880,201.3c-1.1,3.4,0.3,7.4-1.4,10.5c-2.2,4-6.7,0.4-8.2-2.8c-0.2-0.4,0-0.8,0.3-1
		c0.3-0.2,0.6-0.4,0.6-0.8c0.1-0.3,0.4-0.6,0.7-0.5c1.3,0,2.8-1.2,2.6-2.6c-0.1-0.4,0.1-0.7,0.5-0.8c1.2-0.3,2.8-1.4,3.4-2.5
		c0.2-0.3,0.5-0.4,0.9-0.3c0,0,0,0,0,0C879.9,200.5,880.2,200.9,880,201.3z M886.8,207.6c-4.5,5.5-6-5.4-2.9-6.6
		c0.6-0.2,2,1.7,2.6,2.3c0.8,0.8,0.8-0.7,1.4,0.9C888.4,205.7,887.9,206.3,886.8,207.6z"/>
	<rect x="885.1" y="171" class="st1" width="83" height="1"/>
</g>
</svg>
