<?xml version="1.0" encoding="utf-8"?>
<!-- Generator: Adobe Illustrator 24.2.3, SVG Export Plug-In . SVG Version: 6.00 Build 0)  -->
<svg version="1.1" id="Layer_1" xmlns="http://www.w3.org/2000/svg" xmlns:xlink="http://www.w3.org/1999/xlink" x="0px" y="0px"
	 viewBox="0 0 512 392" style="enable-background:new 0 0 512 392;" xml:space="preserve">
<style type="text/css">
	.st0{fill:#42A5F6;}
</style>
<g>
	<circle class="st0" cx="96" cy="249.2" r="8"/>
	<path class="st0" d="M256,161.2c-48.5,0-88,39.5-88,88s39.5,88,88,88s88-39.5,88-88S304.5,161.2,256,161.2L256,161.2z M256.4,241.2
		c17.5,0.2,31.6,14.5,31.6,32c0,14.4-9.5,26.5-22.5,30.6c-0.9,0.3-1.5,1-1.5,1.9v7.2c0,4.3-3.2,8-7.5,8.3c-4.7,0.3-8.5-3.4-8.5-8
		v-7.5c0-0.9-0.6-1.7-1.4-1.9c-12.9-4-22.3-15.9-22.6-30c-0.1-4.5,3.2-8.4,7.6-8.6c4.6-0.2,8.4,3.5,8.4,8c0,9.1,7.6,16.4,16.8,16
		c8.1-0.4,14.8-7.1,15.2-15.2c0.4-9.2-6.9-16.8-16-16.8c-17.6,0-32-14.4-32-32c0-14.4,9.5-26.5,22.5-30.6c0.9-0.3,1.5-1,1.5-1.9
		v-7.2c0-4.3,3.2-8,7.5-8.3c4.7-0.3,8.5,3.4,8.5,8v7.5c0,0.9,0.6,1.7,1.4,1.9c12.9,4,22.3,15.9,22.6,30c0.1,4.5-3.2,8.4-7.6,8.6
		c-4.6,0.2-8.4-3.5-8.4-8c0-8.8-7.2-16-16-16c-8.9,0-16.1,7.3-16,16.2C240.1,234.2,247.6,241.1,256.4,241.2L256.4,241.2z"/>
	<path class="st0" d="M488,113.2H24c-13.2,0-24,10.8-24,24v224c0,13.2,10.8,24,24,24h464c13.2,0,24-10.8,24-24v-224
		C512,123.9,501.2,113.2,488,113.2L488,113.2z M168,353.2H64c-4.4,0-8-3.5-8-7.9c0-8.9-7.2-16.1-16.1-16.1c-4.4,0-7.9-3.6-7.9-8
		v-144c0-4.4,3.5-8,7.9-8c8.9,0,16.1-7.2,16.1-16.1c0-4.4,3.6-7.9,8-7.9h103.7c4.3,0,8,3.2,8.3,7.5c0.3,4.7-3.4,8.5-8,8.5H73.2
		c-1.3,0-2.4,0.8-2.8,2.1c-3.2,9.6-10.8,17.1-20.3,20.3c-1.2,0.4-2.1,1.5-2.1,2.8v125.6c0,1.3,0.8,2.4,2.1,2.8
		c9.6,3.2,17.1,10.8,20.3,20.3c0.4,1.2,1.5,2.1,2.8,2.1h94.5c4.3,0,8,3.2,8.3,7.5C176.3,349.3,172.6,353.2,168,353.2L168,353.2z
		 M120,249.2c0,13.2-10.8,24-24,24s-24-10.8-24-24s10.8-24,24-24S120,235.9,120,249.2z M256,353.2c-57.3,0-104-46.7-104-104
		s46.7-104,104-104s104,46.7,104,104S313.3,353.2,256,353.2z M480,321.2c0,4.4-3.5,8-7.9,8c-8.9,0-16.1,7.2-16.1,16.1
		c0,4.4-3.6,7.9-8,7.9H344.3c-4.3,0-8-3.2-8.3-7.5c-0.3-4.7,3.4-8.5,8-8.5h94.8c1.3,0,2.4-0.8,2.8-2.1c3.2-9.6,10.8-17.1,20.3-20.3
		c1.2-0.4,2.1-1.5,2.1-2.8V186.4c0-1.3-0.8-2.4-2.1-2.8c-9.6-3.2-17.1-10.8-20.3-20.3c-0.4-1.2-1.5-2.1-2.8-2.1h-94.5
		c-4.3,0-8-3.2-8.3-7.5c-0.3-4.7,3.4-8.5,8-8.5h104c4.4,0,8,3.5,8,7.9c0,8.9,7.2,16.1,16.1,16.1c4.4,0,7.9,3.6,7.9,8L480,321.2
		L480,321.2z M392,249.2c0-13.2,10.8-24,24-24s24,10.8,24,24s-10.8,24-24,24S392,262.4,392,249.2z"/>
	<circle class="st0" cx="416" cy="249.2" r="8"/>
	<path class="st0" d="M482,72.2c-1.6-13.2-13.8-22.6-27.1-20.8L149.2,95.2c-1.2,0.2-1.1,2,0.1,2h333.5c1.2,0,2.1-1.1,2-2.2L482,72.2
		z"/>
	<path class="st0" d="M437.1,37.8c1.2-0.2,1.9-1.3,1.6-2.5L435.7,23c-3.2-13-16.5-20.9-29.6-17.3L154.6,76.2c-1.2,0.3-0.8,2.1,0.4,2
		C218.2,69.1,390.6,44.5,437.1,37.8z"/>
</g>
</svg>
