<?xml version="1.0" encoding="utf-8"?>
<!-- Generator: Adobe Illustrator 24.2.3, SVG Export Plug-In . SVG Version: 6.00 Build 0)  -->
<svg version="1.1" id="Layer_1" xmlns="http://www.w3.org/2000/svg" xmlns:xlink="http://www.w3.org/1999/xlink" x="0px" y="0px"
	 viewBox="0 0 792 792" style="enable-background:new 0 0 792 792;" xml:space="preserve">
<style type="text/css">
	.st0{fill-rule:evenodd;clip-rule:evenodd;fill:#42A5F6;}
</style>
<g>
	<path class="st0" d="M771.2,121.8c16,55.9,5.9,114.7-42.1,162.7c-43.5,43.5-114.8,59.2-174,38.3c-11.7-4.1-23.9-1.4-32.7,7.4
		L215,637.5c-6.7,6.7-9.8,15.1-9.1,24.6c2.1,27-7.2,54.8-27.9,75.4c-37.6,37.6-98.5,37.6-136.1,0C4.4,700,4.4,639.1,42,601.5
		c20.7-20.7,48.4-30,75.4-27.9c9.5,0.7,17.9-2.4,24.6-9.1l307.4-307.4c8.8-8.8,11.5-21,7.4-32.7c-20.9-59.2-5.3-130.5,38.3-174
		c48-48,106.7-58.1,162.7-42.1L554.2,111.8l25.9,87.5l87.5,25.9L771.2,121.8L771.2,121.8z M121.4,627l31.2,31.2l-11.4,42.6
		l-42.6,11.4L67.4,681l11.4-42.6L121.4,627L121.4,627z"/>
	<path class="st0" d="M145.3,224.8l-33.9-11.7c-23.7-34.7-47.7-70-69.1-101.3l20.2-20.2c31.3,21.3,66.6,45.4,101.3,69.1l11.7,33.9
		L324,343l-30.3,30.3L145.3,224.8L145.3,224.8z M449.4,442.6l10.8,10.8c30.3-9.8,64.9-2.7,88.9,21.3L716,641.5
		c34,34,34,89.6,0,123.6s-89.6,34-123.6,0l-167-166.8c-23.9-23.9-31-58.6-21.3-88.9l-10.8-10.8L449.4,442.6L449.4,442.6z M483,556.3
		L637.7,711c10.9,10.9-5.6,27.5-16.5,16.5L466.4,572.8C455.5,561.9,472,545.3,483,556.3L483,556.3z M523.6,515.7l154.8,154.8
		c10.9,10.9-5.6,27.5-16.5,16.5L507.1,532.2C496.1,521.2,512.6,504.7,523.6,515.7L523.6,515.7z"/>
</g>
</svg>
