<?xml version="1.0" encoding="utf-8"?>
<!-- Generator: Adobe Illustrator 24.2.3, SVG Export Plug-In . SVG Version: 6.00 Build 0)  -->
<svg version="1.1" id="_x2018_ëîé_x5F_1" xmlns="http://www.w3.org/2000/svg" xmlns:xlink="http://www.w3.org/1999/xlink"
	 x="0px" y="0px" viewBox="0 0 5000 789.2" style="enable-background:new 0 0 5000 789.2;" xml:space="preserve">
<style type="text/css">
	.st0{fill:#B6D3FB;}
</style>
<path class="st0" d="M5000,684.5v-202h-115v20h-0.2h-22.7l-9.8,2.2l-0.7,15.1c0,0-32.3,20.9-107.2,20.9c-7.3,0-14.2-0.2-20.8-0.6
	v-123H4623v85.4h-16.9V282.7l-6.4-29.5l-51.4-20.7l-11.8,7.3c0-2.7-7.5-2.4-7.5-2.4h-2l-0.2-26.9c2.6-2.4,8.8,1.2,10.8,3.2
	c2.2,2.2,3.2,3,5.8,1c3.7-2.9,1.9-5.3,1.9-5.3s-3.3-3.2-5.8-4.3c-2.9-1.3-5.1-2.6-7.2-4.8c-1.7-1.7-4.4-2.9-5.6-3.3v-2.3
	c0-0.3-0.2-0.5-0.5-0.5s-0.5,0.2-0.5,0.5l-0.4,42.8h-52.2c-17.1,0-15.3,4-15.3,4v26.3c-10.2,0-14.5,4.8-14.5,4.8v285H4390V409.5
	h-143v199.2h-22.6v-2.5h-5.9v-44l-2.2-3.7h-4.8v-26.4l-2.5-3.7h-32.8v-49.1l-33.2-20.7l-8.2-2.2v-13.2l6.5-19.7v-6.7l-22-6.7
	c0-0.1,0-0.1,0-0.2v-3.8l19.4,6.5v2.5c0,0.4,0.3,0.8,0.7,0.8s0.7-0.4,0.7-0.8v-30c0-0.4-0.3-0.8-0.7-0.8s-0.7,0.3-0.7,0.8v15.4
	l-19.4-6.5v-0.7c0-0.4-0.3-0.8-0.7-0.8c-0.4,0-0.7,0.3-0.7,0.8v0.5h-14.3v-1.9h-1.5v1.9h-14.3v-0.5c0-0.4-0.3-0.8-0.7-0.8
	s-0.7,0.3-0.7,0.8v0.7l-19.4,6.5v-15.2c0-0.4-0.3-0.8-0.7-0.8s-0.7,0.3-0.7,0.8v30c0,0.4,0.3,0.8,0.7,0.8s0.7-0.4,0.7-0.8v-2.5
	l19.4-6.5v3.8c0,0.1,0,0.1,0,0.2l-22,6.7v6.7l6.5,19.7v13.2l-8.2,2.2l-33.2,20.7v49.1H3997l-2.5,3.7v26.2h-4.8l-2.2,3.7v44h-5.9v2.5
	h-22.7v-2.5h-11.6v2.5h-23v-2.5h-11.6v2.5h-15.5V254.1h-164.8v276.4h-27.1V188.6l-23.9-22.5l-43.1,53h-5.1l-13.8,9h-7.6l-13.9,8.5
	h-14.4l-22.4,13.6v159.3h-56.8v-96.1v-79.8V196H3482v-23.7h-3v-14.2l-29-7.7v-3.5l-1.8-1.4l-1.8,1.4v3.5l-29,7.7v14.2h-3V196h-22.3
	v37.6v79.8v45.2H3359V236.3h-31.8v-7.2h-5l-0.3-61h3.6c0.2,0,0.4-0.2,0.4-0.4c0-0.2-0.2-0.4-0.4-0.4h-0.2l-0.1-10.2
	c0,0,0-0.1-0.1-0.1c0,0-0.1,0-0.1,0.1l-0.1,10.2h-3.1l-0.1-12.4c0-0.3-0.2-0.6-0.5-0.7v-47.9c0-0.2-0.1-0.3-0.3-0.3
	s-0.3,0.1-0.3,0.3v47.9c-0.3,0.1-0.5,0.4-0.5,0.7l-0.1,12.4h-3.1l-0.1-10.2c0,0,0-0.1-0.1-0.1c0,0-0.1,0-0.1,0.1l-0.1,10.2h-0.2
	c-0.2,0-0.4,0.2-0.4,0.4c0,0.2,0.2,0.4,0.4,0.4h3.6l-0.3,61H3286h-40.9v7.2h-26.4v230.1h-6.7V50.8h-48.8v3.7H3064v-3.7h-48.8v273.7
	h-62.4V207.1h-7.9v477.4h-3V207.1h-5.1v477.4h-3V207.1h-5.1v477.4h-3V207.1h-5.1v477.4h-3V207.1h-5.1v477.4h-3V207.1h-5.1v477.4h-3
	V207.1h-5.1v477.4h-3V207.1h-5.1v477.4h-3V207.1h-5.1v477.4h-3V207.1h-5.1v477.4h-3V207.1h-5.1v477.4h-3V207.1h-5.1v477.4h-3V207.1
	h-5.1v477.4h-3V207.1h-7.9v333.4h-10.4v-55.1v-124v-75.3l-3.5,6.1h-8.7v-30.5l-3.5,6.1h-8.7v-30.5l-3.5,6.1h-8.7v-30.5l-3.5,6.1
	h-8.7v-30.5l-3.5,6.1h-8.7v-30.5l-2.5,4.5c0,0-3.4,4-5.8-1.4c-1.5-3.5-3.9-13.4-3.9-13.4s-2.4,9.9-3.9,13.4
	c-2.5,6.1-5.8,1.4-5.8,1.4l-2.5-4.5v30.5h-8.7l-3.5-6.1V219h-8.7l-3.5-6.1v30.6h-8.7l-3.5-6.1v30.5h-8.7l-3.5-6.1v30.5h-8.7
	l-3.5-6.1v75.3v123.9v73.1h-12.4V436.6h-112.2v237.9h-28.6v-16.3h-1.4l-2-30.8h-0.8l-9-354.2h-1.5V269h-1.6v-11.9h-2.6l-0.6-7.5
	l4.9-5.5l-7.2-1.8l-3.9-6.3l-3.9,6.3l-7.2,1.8l4.7,5.5l-0.5,7.5h-2.6V269h-1.6v4.2h-1.5l-9,354.2h-0.8l-2,30.8h-1.4v16.3H2459v-92
	h-28.8V398.7h1.4v-3.4h-1.4v-2h-2.8l0.3-5.9c0,0,0.5-0.4,0.3-0.8c0,0-1.2-0.8-2-0.8s-2,0.8-2,0.8c-0.3,0.4,0.3,0.8,0.3,0.8l0.3,5.9
	h-3.1v2h-45.7v-28.8h0.4v-0.6h-0.2v-4.6h0.4v-0.5h-0.2v-1.3l0,0l-0.4-0.9l0.5-0.5v-0.4h0.2l-0.2-0.3l-2.5-0.2l0.3-1.7h-2.4l0.3-1.3
	c0,0-0.7-0.6-2.8-0.8v-1.2l0.4-6.1c0,0,0.5-0.3,0-0.8s-1.6-0.8-2-0.8c-0.3,0-1.5,0.3-2,0.8s0,0.8,0,0.8l0.4,6.1v1.2
	c-0.3,0-0.5,0-0.8,0.1v-15.6c0,0,0.4-0.4,0.4-0.9h-0.3v-2.7c0,0,1.7-1.2,1.7-1.6v-0.4l0.3-0.4h0.2v-0.2c0,0-0.6-0.3-1.8-0.3l0.3-1.1
	l-0.4-0.2v-1.6l-0.3-0.1v-2h0.3v-0.6h-0.4V325h-0.7v-0.5h-0.6v-0.8h0.2v-0.4h-0.4l0.6-1v-0.8l-1.7-4.5l-0.7-0.5l-0.7,0.5l-1.7,4.5
	v0.8l0.6,1h-0.4v0.4h0.2v0.8h-0.6v0.6h-0.7v0.8h-3.2v-3.8c0,0,0.3-0.1,0.3-1c0,0-0.2-0.4-0.9-0.6v-15.2c0,0,0.3-0.1,0.3-0.7
	c0,0,0.5-0.7,0-1.4c0,0,0.3-0.8-0.2-1.3c0,0,1.6-1.5,1.1-3c0,0,0.1-1.2-0.2-1.5c0,0-0.2-0.1-0.3,0s-0.3-0.4-0.2-0.7
	c0-0.3-0.2-0.4-0.4-0.1c-0.2,0.4-0.6,0-0.4-0.3c0,0,0.8-1.9-2.8-3.1c0,0,1.5-1.8-1.9-3c0,0,0.9-1.4-1.2-2.2c0,0,0.5-0.7-1.1-1.5
	c0,0-0.2-0.7-0.8-1V282c0,0,1.9-0.8-0.1-2.3c0,0-0.1-0.5-1-0.7c0,0,0-1-1.1-1s-1.1,1-1.1,1c-0.9,0.2-1,0.7-1,0.7
	c-2,1.5-0.1,2.3-0.1,2.3v3.5c-0.6,0.4-0.8,1-0.8,1c-1.6,0.8-1.1,1.5-1.1,1.5c-2.1,0.9-1.2,2.2-1.2,2.2c-3.4,1.2-1.9,3-1.9,3
	c-3.6,1.2-2.8,3.1-2.8,3.1c0.1,0.3-0.2,0.7-0.4,0.3c-0.2-0.4-0.5-0.2-0.4,0.1c0,0.3-0.1,0.8-0.2,0.7c-0.1-0.1-0.3,0-0.3,0
	c-0.3,0.3-0.2,1.5-0.2,1.5c-0.6,1.5,1.1,3,1.1,3c-0.5,0.5-0.2,1.3-0.2,1.3c-0.5,0.6,0,1.4,0,1.4c-0.1,0.6,0.3,0.7,0.3,0.7v15.2
	c-0.7,0.2-0.9,0.6-0.9,0.6c0,0.9,0.3,1,0.3,1v3.8h-3.2v-0.8h-0.7v-0.6h-0.6v-0.8h0.2v-0.4h-0.4l0.6-1v-0.8l-1.7-4.5l-0.7-0.5
	l-0.7,0.5l-1.7,4.5v0.8l0.6,1h-0.4v0.4h0.2v0.8h-0.6v0.6h-0.7v0.8h-0.4v0.6h0.3v2l-0.3,0.1v1.6l-0.4,0.2l0.3,1.1
	c-1.2,0-1.8,0.3-1.8,0.3v0.2h0.2l0.3,0.4v0.4c0,0.4,1.7,1.6,1.7,1.6v2.7h-0.3c0,0.5,0.4,0.9,0.4,0.9v15.6c-0.3,0-0.6-0.1-0.8-0.1
	v-1.2l0.4-6.1c0,0,0.5-0.3,0-0.8s-1.6-0.8-2-0.8c-0.3,0-1.5,0.3-2,0.8s0,0.8,0,0.8l0.4,6.1v1.2c-2.1,0.2-2.8,0.8-2.8,0.8l0.3,1.3
	h-2.4l0.4,1.7l-2.5,0.2l-0.2,0.3h0.2v0.4l0.5,0.5l-0.4,0.9v1.2h-0.2v0.5h0.4v4.6h-0.2v0.6h0.4v28.8h-45.7v-2h-3.1l0.3-5.9
	c0,0,0.5-0.4,0.3-0.8c0,0-1.2-0.8-2-0.8s-2,0.8-2,0.8c-0.3,0.4,0.3,0.8,0.3,0.8l0.3,5.9h-2.8v2h-1.5v3.4h1.5v170.2H2237v-78.4h-66.8
	V294.2h-12.3v-6.9h-8.9v-7.2h-9.2v-20.2v-11.6l-15.4-23.6h-25.7v-4.4h-4.8v-4.8h-4.6v-4.3h-4.4v-3.9h-1.6v-5.9h2.9V195h-35.4v6.4
	h2.9v5.9h-1.6v3.9h-4.4v4.3h-4.6v4.8h-4.8v4.4h-25.7l-15.4,23.6v11.6v20.2h-9.2v7.2h-8.9v6.9h-1.5v-5.7h-162.8v-2.7h162.8v-14.3h-26
	v-18.6H1829v18.6h-14.5V108.9h-27.7V96.4h-91.2v12.5h-23v316h-31.7v-61h-123v112.2h-27.7V186.8h-1.2v-2.2h2.1v-1.4h1.2v-1.8h-161.5
	v1.8h1.2v1.4h2.1v2.2h-1.2v391.6h-35.8v-42.2h-27.4v-250h-102V393h-121v162.3L918.6,406.8l-0.9-6.9h-7.2l-0.9,6.6l-20.4,24.1
	l-20.5-23.8l-0.9-6.9h-7.2l-0.9,6.6L727.3,563l-91.4-105.9l-0.8-5.9h-6.2l-0.8,5.7L611,477l-17.2-19.9l-0.8-5.9h-6.2l-0.8,5.7
	L458,608.1V280.9c-65.1-27.6-159.8-36.2-159.8-36.2v7.3c-5-0.6-7.9-0.8-7.9-0.8v58.5h13.1v47.5h-5.2v2h-7.9v247.9h-11.1v-88.2H152.7
	v45.5h-38.2v-99.2H17v170.3H0v49v19v81h5000V684.5L5000,684.5z M4119.5,395.6l19.4,6.5v1.9l-19.4-6.5V395.6z M4119.5,399.1l19.4,6.5
	v1.9l-19.4-6.5V399.1z M4119.5,402.6l19.4,6.5v1.9l-19.4-6.5V402.6z M4086.5,404.5l-19.4,6.5v-1.9l19.4-6.5V404.5z M4086.5,401
	l-19.4,6.5v-1.9l19.4-6.5V401z M4086.5,397.5l-19.4,6.5v-1.9l19.4-6.5V397.5z M4790.4,639.7c12.2,0,14.6,14.5,14.6,14.5h-0.7v4h-1v1
	l1.6,2.6l0.3,22.7h-29.5l0.3-22.7l1.6-2.6v-1h-1v-4h-0.7C4775.9,654.2,4778.2,639.7,4790.4,639.7z M4744.4,639.7
	c12.2,0,14.6,14.5,14.6,14.5h-0.7v4h-1v1l1.6,2.6l0.3,22.7h-29.5l0.3-22.7l1.6-2.6v-1h-1v-4h-0.7
	C4729.9,654.2,4732.2,639.7,4744.4,639.7z M3823.5,662h1.8v2.6h-1.8V662z M3826.7,662h10.9v2.6h-10.9V662z M3872.1,638.5v4.1h-10.9
	v-4.1H3872.1z M3839.1,654.4v-2.6h1.8v2.6H3839.1z M3859.7,650.3L3859.7,650.3h-1.8l0,0H3859.7z M3840.9,650.3L3840.9,650.3h-1.8
	l0,0H3840.9z M3857.9,654.4v-2.6h1.8v2.6H3857.9z M3861.2,654.4v-2.6h10.9v2.6H3861.2z M3861.2,650.3L3861.2,650.3h10.9l0,0H3861.2z
	 M3873.5,650.3h1.8l0,0H3873.5L3873.5,650.3z M3859.7,638.5v4.1h-1.8v-4.1H3859.7z M3840.9,638.5v4.1h-1.8v-4.1H3840.9z
	 M3837.6,638.5v4.1h-10.9v-4.1H3837.6z M3837.6,650.3L3837.6,650.3h-10.9l0,0H3837.6z M3837.6,651.9v2.6h-10.9v-2.6H3837.6z
	 M3839.1,662h1.8v2.6h-1.8V662z M3857.9,662h1.8v2.6h-1.8V662z M3861.2,662h10.9v2.6h-10.9V662z M3873.5,662h1.8v2.6h-1.8V662z
	 M3873.5,654.4v-2.6h1.8v2.6H3873.5z M3873.5,642.7v-4.2h1.8v4.1h-1.8V642.7z M3825.3,638.5v4.1h-1.8v-4.1H3825.3z M3825.3,650.3
	L3825.3,650.3h-1.8l0,0H3825.3z M3825.3,651.9v2.6h-1.8v-2.6H3825.3z M4016.4,587.6v7.1h-1.8v-7.1H4016.4z M4015.9,562.1v-11.5h4.7
	v11.5H4015.9z M4016.4,596.3v5.6h-1.8v-5.6H4016.4z M4016.4,603.5v5.6h-1.8v-5.6H4016.4z M4016.4,636v7.1h-1.8V636H4016.4z
	 M4016.4,644.7v5.6h-1.8v-5.6H4016.4z M4016.4,651.9v5.6h-1.8v-5.6H4016.4z M4016.4,659.1v5.6h-1.8v-5.6H4016.4z M4016.4,666.3v7
	h-1.8v-7H4016.4z M3906.5,650.3h-9.4v-5.6h9.4V650.3z M3906.5,651.9v5.6h-9.4v-5.6H3906.5z M3906.5,659.1v5.6h-9.4v-5.6H3906.5z
	 M3906.5,666.3v7h-9.4v-7H3906.5z M4102.3,496.3v8.3h-4.5v-8.3H4102.3z M4097.8,495.6v-4.8h4.5v4.8H4097.8z M4102.3,506.2v3.3h-4.5
	v-3.3H4102.3z M4098.5,544.8h8.9v2.7h-8.9V544.8z M4110.2,544.8v2.7h-1.3v-2.7H4110.2z M4108.9,543.2v-3.6h1.3v3.6H4108.9z
	 M4119.9,587.6v7.6h-18.5v-7.6H4119.9z M4115.9,496.3v8.3h-4.5v-8.3H4115.9z M4111.4,495.6v-4.8h4.5v4.8H4111.4z M4115.9,506.2v3.3
	h-4.5v-3.3H4115.9z M4191.4,596.3v5.6h-1.8v-5.6H4191.4z M4189.6,594.7v-7.1h1.8v7.1H4189.6z M4191.4,603.5v5.6h-1.8v-5.6H4191.4z
	 M4191.4,636v7.1h-1.8V636H4191.4z M4191.4,644.7v5.6h-1.8v-5.6H4191.4z M4191.4,651.9v5.6h-1.8v-5.6H4191.4z M4191.4,659.1v5.6
	h-1.8v-5.6H4191.4z M4191.4,666.3v7h-1.8v-7H4191.4z M4192.8,664.7v-5.6h10.9v5.6H4192.8z M4203.7,666.3v7h-10.9v-7H4203.7z
	 M4192.8,657.5v-5.6h10.9v5.6H4192.8z M4192.8,650.3v-5.6h10.9v5.6H4192.8z M4192.8,643.1V636h10.9v7.1H4192.8z M4194.6,624.5v-2.6
	h7.3v2.6H4194.6z M4192.8,609.1v-5.6h10.9v5.6H4192.8z M4192.8,601.9v-5.6h10.9v5.6H4192.8z M4191.5,562.1v-11.5h4.7v11.5H4191.5z
	 M4119.5,684.5V661h11v23.5H4119.5z M4119.9,604.3v6h-18.5v-6H4119.9z M4101.5,602.7v-6h18.5v6H4101.5z M4119.9,611.9v6h-18.5v-6
	H4119.9z M4119.9,628.5v5.7h-18.5v-5.7H4119.9z M4119.9,635.8v4.4h-18.5v-4.4H4119.9z M4130.5,611.9v6h-9.1v-6H4130.5z
	 M4121.4,610.3v-6h9.1v6H4121.4z M4130.5,628.5v5.7h-9.1v-5.7H4130.5z M4130.5,635.8v4.4h-9.1v-4.4H4130.5z M4130.5,602.7h-9.1v-6
	h9.1V602.7z M4114.3,547.5v-2.7h8.9v2.7H4114.3z M4111.6,543.2v-3.6h1.3v3.6H4111.6z M4112.9,544.8v2.7h-1.3v-2.7H4112.9z
	 M4113.1,661v23.5h-11.6V661H4113.1z M4100,684.5h-11.6V661h11.6V684.5z M4242.9,636h1.8v7.1h-1.8V636z M4242.9,644.7h1.8v5.6h-1.8
	V644.7z M4242.9,651.9h1.8v5.6h-1.8V651.9z M4242.9,659.1h1.8v5.6h-1.8V659.1z M4242.9,666.3h1.8v7h-1.8V666.3z M4232.9,621.9h7.3
	v2.6h-7.3V621.9z M4230.5,636h10.9v7.1h-10.9V636z M4230.5,644.7h10.9v5.6h-10.9V644.7z M4230.5,651.9h10.9v5.6h-10.9V651.9z
	 M4230.5,659.1h10.9v5.6h-10.9V659.1z M4230.5,666.3h10.9v7h-10.9V666.3z M4227.3,636h1.8v7.1h-1.8V636z M4227.3,644.7h1.8v5.6h-1.8
	V644.7z M4227.3,651.9h1.8v5.6h-1.8V651.9z M4227.3,659.1h1.8v5.6h-1.8V659.1z M4227.3,666.3h1.8v7h-1.8V666.3z M4205.2,587.6h1.8
	v7.1h-1.8V587.6z M4205.2,596.3h1.8v5.6h-1.8V596.3z M4205.2,603.5h1.8v5.6h-1.8V603.5z M4205.2,636h1.8v7.1h-1.8V636z
	 M4205.2,644.7h1.8v5.6h-1.8V644.7z M4205.2,651.9h1.8v5.6h-1.8V651.9z M4205.2,659.1h1.8v5.6h-1.8V659.1z M4205.2,666.3h1.8v7h-1.8
	V666.3z M4203.7,594.7h-10.9v-7.1h10.9V594.7z M4185.4,544.8h10.8v4.2h-10.8V544.8z M4185.4,550.6h4.7v11.5h-4.7V550.6z
	 M4167.4,587.6h10.8v21.5h-10.8V587.6z M4167.4,641.8h10.8v21.5h-10.8V641.8z M4159,492l7,2.1v17.8l-7-1.4V492z M4155.7,539.7
	l10.3,1.5v7.7l-10.3-1.3V539.7z M4130.5,595.2h-9.1v-7.6h9.1V595.2z M4124.7,539.6h1.3v3.6h-1.3V539.6z M4124.7,544.8h1.3v2.7h-1.3
	V544.8z M4123.2,543.2h-8.9v-3.6h8.9V543.2z M4121.9,506.2v3.3h-4.5v-3.3H4121.9z M4117.4,504.6v-8.3h4.5v8.3H4117.4z M4121.9,490.7
	v4.8h-4.5v-4.8H4121.9z M4103.7,395.3h14.3v1.9h-14.3V395.3z M4103.7,398.8h14.3v1.9h-14.3V398.8z M4103.7,402.4h14.3v1.9h-14.3
	V402.4z M4103.7,405.9h14.3v4h-14.3V405.9z M4103.7,490.7h4.5v4.8h-4.5V490.7z M4103.7,496.3h4.5v8.3h-4.5V496.3z M4103.7,506.2h4.5
	v3.3h-4.5V506.2z M4107.4,539.6v3.6h-8.9v-3.6H4107.4z M4087.9,395.3h14.3v1.9h-14.3L4087.9,395.3L4087.9,395.3z M4087.9,398.8h14.3
	v1.9h-14.3L4087.9,398.8L4087.9,398.8z M4087.9,402.4h14.3v1.9h-14.3L4087.9,402.4L4087.9,402.4z M4087.9,405.9h14.3v4h-14.3
	L4087.9,405.9L4087.9,405.9z M4095.8,543.2v-3.6h1.3v3.6H4095.8z M4097.1,544.8v2.7h-1.3v-2.7H4097.1z M4093.1,543.2v-3.6h1.3v3.6
	H4093.1z M4094.4,544.8v2.7h-1.3v-2.7H4094.4z M4090,509.5v-3.3h4.5v3.3H4090z M4090,504.6v-8.3h4.5v8.3H4090z M4090,495.6v-4.8h4.5
	v4.8H4090z M4084.1,490.7h4.5v4.8h-4.5V490.7z M4084.1,496.3h4.5v8.3h-4.5V496.3z M4084.1,506.2h4.5v3.3h-4.5V506.2z M4082.8,539.6
	h8.9v3.6h-8.9V539.6z M4082.8,544.8h8.9v2.7h-8.9V544.8z M4081.5,587.6h18.5v7.6h-18.5V587.6z M4081.5,596.7h18.5v6h-18.5V596.7z
	 M4081.5,604.3h18.5v6h-18.5V604.3z M4081.5,611.9h18.5v6h-18.5V611.9z M4081.5,628.5h18.5v5.7h-18.5V628.5z M4081.5,635.8h18.5v4.4
	h-18.5V635.8z M4080,539.6h1.3v3.6h-1.3V539.6z M4080,544.8h1.3v2.7h-1.3V544.8z M4071,587.6h9.1v7.6h-9.1V587.6z M4071,596.7h9.1v6
	h-9.1V596.7z M4071,604.3h9.1v6h-9.1V604.3z M4071,611.9h9.1v6h-9.1V611.9z M4071,628.5h9.1v5.7h-9.1V628.5z M4071,635.8h9.1v4.4
	h-9.1V635.8z M4082,661v23.5h-11V661H4082z M4040,494.1l7-2.1v18.5l-7,1.4V494.1z M4040,541.2l10.3-1.5v7.9l-10.3,1.3V541.2z
	 M4027.8,587.6h10.8v21.5h-10.8V587.6z M4027.8,641.8h10.8v21.5h-10.8V641.8z M4009.8,544.8h10.8v4.2h-10.8V544.8z M4009.8,550.6
	h4.7v11.5h-4.7V550.6z M4002.3,587.6h10.9v7.1h-10.9V587.6z M4002.3,596.3h10.9v5.6h-10.9V596.3z M4002.3,603.5h10.9v5.6h-10.9
	V603.5z M4011.3,621.9v2.6h-7.3v-2.6H4011.3z M4002.3,636h10.9v7.1h-10.9V636z M4002.3,644.7h10.9v5.6h-10.9V644.7z M4002.3,651.9
	h10.9v5.6h-10.9V651.9z M4002.3,659.1h10.9v5.6h-10.9V659.1z M4002.3,666.3h10.9v7h-10.9V666.3z M3999,587.6h1.8v7.1h-1.8V587.6z
	 M3999,596.3h1.8v5.6h-1.8V596.3z M3999,603.5h1.8v5.6h-1.8V603.5z M3999,636h1.8v7.1h-1.8V636z M3999,644.7h1.8v5.6h-1.8V644.7z
	 M3999,651.9h1.8v5.6h-1.8V651.9z M3999,659.1h1.8v5.6h-1.8V659.1z M3999,666.3h1.8v7h-1.8V666.3z M3976.9,636h1.8v7.1h-1.8V636z
	 M3976.9,644.7h1.8v5.6h-1.8V644.7z M3976.9,651.9h1.8v5.6h-1.8V651.9z M3976.9,659.1h1.8v5.6h-1.8V659.1z M3976.9,666.3h1.8v7h-1.8
	V666.3z M3965.8,621.9h7.3v2.6h-7.3V621.9z M3964.6,636h10.9v7.1h-10.9V636z M3964.6,644.7h10.9v5.6h-10.9V644.7z M3964.6,651.9
	h10.9v5.6h-10.9V651.9z M3964.6,659.1h10.9v5.6h-10.9V659.1z M3964.6,666.3h10.9v7h-10.9V666.3z M3961.3,636h1.8v7.1h-1.8V636z
	 M3961.3,644.7h1.8v5.6h-1.8V644.7z M3961.3,651.9h1.8v5.6h-1.8V651.9z M3961.3,659.1h1.8v5.6h-1.8V659.1z M3961.3,666.3h1.8v7h-1.8
	V666.3z M3942.4,636h1.8v7.1h-1.8V636z M3942.4,644.7h1.8v5.6h-1.8V644.7z M3942.4,651.9h1.8v5.6h-1.8V651.9z M3942.4,659.1h1.8v5.6
	h-1.8V659.1z M3942.4,666.3h1.8v7h-1.8V666.3z M3931.9,621.9h7.3v2.6h-7.3V621.9z M3930.1,636h10.9v7.1h-10.9V636z M3930.1,644.7
	h10.9v5.6h-10.9V644.7z M3930.1,651.9h10.9v5.6h-10.9V651.9z M3930.1,659.1h10.9v5.6h-10.9V659.1z M3930.1,666.3h10.9v7h-10.9V666.3
	z M3926.8,636h1.8v7.1h-1.8V636z M3926.8,644.7h1.8v5.6h-1.8V644.7z M3926.8,651.9h1.8v5.6h-1.8V651.9z M3926.8,659.1h1.8v5.6h-1.8
	V659.1z M3926.8,666.3h1.8v7h-1.8V666.3z M3908,636h1.8v7.1h-1.8V636z M3908,644.7h1.8v5.6h-1.8V644.7z M3908,651.9h1.8v5.6h-1.8
	V651.9z M3908,659.1h1.8v5.6h-1.8V659.1z M3908,666.3h1.8v7h-1.8V666.3z M3898,621.9h7.3v2.6h-7.3V621.9z M3906.5,636v7.1h-9.4V636
	H3906.5z M3738,380.1h124.4v-7.6H3738v-4.1h124.4v-7.6H3738v-4.1h124.4v-7.6H3738V345h124.4v-7.6H3738v-4.1h124.4v-7.8H3738v-4.1
	h124.4v-7.6H3738v-4.1h124.4v-7.6H3738V298h124.4v-7.6H3738v-4.1h153.4v4.1H3870v7.6h21.4v4.1H3870v7.6h21.4v4.1H3870v7.6h21.4v4.1
	H3870v7.6h21.4v4.1H3870v7.6h21.4v4.1H3870v7.6h21.4v4.1H3870v7.6h21.4v4.1H3870v7.6h21.4v4.1H3738V380.1z M3738,485.8h94v-7.6h-94
	v-4.1h94v-7.6h-94v-4.1h94v-7.6h-94v-4.1h94v-7.6h-94V439h94v-7.6h-94v-4.1h94v-7.8h-94v-4.1h94v-7.6h-94v-4.1h94v-7.6h-94V392
	h153.4v4.1h-51.8v7.6h51.8v4.1h-51.8v7.6h51.8v4.1h-51.8v7.6h51.8v4.1h-51.8v7.6h51.8v4.1h-51.8v7.6h51.8v4.1h-51.8v7.6h51.8v4.1
	h-51.8v7.6h51.8v4.1h-51.8v7.6h51.8v4.1H3738V485.8z M3738,591.6h51.8V584H3738v-4.1h51.8v-7.6H3738v-4.1h51.8v-7.7H3738v-4.1h51.8
	v-7.6H3738v-4.1h51.8v-7.6H3738v-4.2h51.8v-7.6H3738v-4.1h51.8v-7.7H3738v-4.1h51.8v-7.6H3738v-4.1h153.4v4.1h-94v7.6h94v4.1h-94
	v7.6h94v4.1h-94v7.6h94v4.2h-94v7.6h94v4.1h-94v7.6h94v4.1h-94v7.6h94v4.1h-94v7.6h94v4.1h-94v7.6h94v4.2H3738V591.6z M3738,673.8
	h21.4v-7.6H3738v-4.1h21.4v-7.6H3738v-4.2h21.4v-7.6H3738v-4.2h21.4v-7.6H3738v-4.1h21.4v-7.6H3738v-4.1h21.4v-7.6H3738v-4.1h153.4
	v4.1h-1.8v-1.2H3878v1.2h-23v-1.2h-11.6v1.2H3767v7.6h32.3v4.1H3767v7.6h32.3v4.1H3767v7.6h32.3v4.1H3767v7.6h32.3v4.2H3767v7.6
	h32.3v4.1H3767v7.6h32.3v4.1H3767v6.6h-7.6v-6.6H3738V673.8z M3482.3,322.3v362.2h-1.3V322.3H3482.3z M3473.2,250v434.5h-2.1V250
	H3473.2z M3464.6,162.5h5.6v6.9h-5.6V162.5z M3462.3,204.4v480.1h-2.1V204.4H3462.3z M3454.6,204.4v480.1h-3.5V204.4H3454.6z
	 M3444.9,204.4v480.1h-3.5V204.4H3444.9z M3435.8,204.4v480.1h-2.1V204.4H3435.8z M3425.8,162.5h5.6v6.9h-5.6V162.5z M3424.8,250
	v434.5h-2.1V250H3424.8z M3415,322.3v362.2h-1.3V322.3H3415z M3069.1,63.7h88.9v3.7h-88.9V63.7z M3069.1,73.2h88.9v3.7h-88.9V73.2z
	 M3069.1,82.6h88.9v3.7h-88.9V82.6z M3069.1,92.1h88.9v3.7h-88.9V92.1z M3069.1,101.5h88.9v3.7h-88.9V101.5z M3069.1,111h88.9v3.7
	h-88.9V111z M3069.1,120.4h88.9v3.7h-88.9V120.4z M3069.1,129.9h88.9v3.7h-88.9V129.9z M3069.1,139.4h88.9v3.7h-88.9V139.4z
	 M3069.1,148.8h88.9v3.7h-88.9V148.8z M3069.1,158.3h88.9v3.7h-88.9V158.3z M3069.1,167.7h88.9v3.7h-88.9V167.7z M3069.1,177.2h88.9
	v3.7h-88.9V177.2z M3069.1,186.6h88.9v3.7h-88.9V186.6z M3069.1,196.1h88.9v3.7h-88.9V196.1z M3069.1,205.6h88.9v3.7h-88.9V205.6z
	 M3069.1,215h88.9v3.7h-88.9V215z M3069.1,224.5h88.9v3.7h-88.9V224.5z M3069.1,233.9h88.9v3.7h-88.9V233.9z M3069.1,243.4h88.9v3.7
	h-88.9V243.4z M3069.1,252.8h88.9v3.7h-88.9V252.8z M3069.1,262.3h88.9v3.7h-88.9V262.3z M3069.1,271.7h88.9v3.7h-88.9V271.7z
	 M3069.1,281.2h88.9v3.7h-88.9V281.2z M3069.1,290.7h88.9v3.7h-88.9V290.7z M3069.1,300.1h88.9v3.7h-88.9V300.1z M3069.1,309.6h88.9
	v3.7h-88.9V309.6z M3069.1,319h88.9v3.7h-88.9V319z M3069.1,328.5h88.9v3.7h-88.9V328.5z M3069.1,337.9h88.9v3.7h-88.9V337.9z
	 M3069.1,347.4h88.9v3.7h-88.9V347.4z M3069.1,356.9h88.9v3.7h-88.9V356.9z M3069.1,366.3h88.9v3.7h-88.9V366.3z M3069.1,375.8h88.9
	v3.7h-88.9V375.8z M3069.1,385.2h88.9v3.7h-88.9V385.2z M3069.1,394.7h88.9v3.7h-88.9V394.7z M3069.1,404.1h88.9v3.7h-88.9V404.1z
	 M3069.1,413.6h88.9v3.7h-88.9V413.6z M3069.1,423h88.9v3.7h-88.9V423z M3069.1,432.5h88.9v3.7h-88.9V432.5z M3069.1,442h88.9v3.7
	h-88.9V442z M3069.1,451.4h88.9v3.7h-88.9V451.4z M3069.1,460.9h88.9v3.7h-88.9V460.9z M3069.1,470.3h88.9v3.7h-88.9V470.3z
	 M3069.1,479.8h88.9v3.7h-88.9V479.8z M3069.1,489.2h88.9v3.7h-88.9V489.2z M3069.1,498.7h88.9v3.7h-88.9V498.7z M3069.1,508.1h88.9
	v3.7h-88.9V508.1z M3069.1,517.6h88.9v3.7h-88.9V517.6z M3069.1,527h88.9v3.7h-88.9V527z M3069.1,536.5h88.9v3.7h-88.9V536.5z
	 M3069.1,546h88.9v3.7h-88.9V546z M3069.1,555.4h88.9v3.7h-88.9V555.4z M3069.1,564.9h88.9v3.7h-88.9V564.9z M3069.1,574.3h88.9v3.7
	h-88.9V574.3z M3069.1,583.8h88.9v3.7h-88.9V583.8z M3069.1,593.2h88.9v3.7h-88.9V593.2z M3069.1,602.7h88.9v3.7h-88.9V602.7z
	 M3069.1,612.2h88.9v3.7h-88.9V612.2z M3069.1,621.6h88.9v3.7h-88.9V621.6z M3069.1,631.1h88.9v3.7h-88.9V631.1z M3069.1,640.5h88.9
	v3.7h-88.9V640.5z M3069.1,650h88.9v3.7h-88.9V650z M3069.1,659.4h88.9v3.7h-88.9V659.4z M3069.1,668.9h88.9v3.7h-88.9V668.9z
	 M3069.1,678.3h88.9v3.7h-88.9V678.3z M1966.5,322.6h-152v-2.7h152V322.6z M1966.5,337v2.7h-152V337H1966.5z M1966.5,354.1v2.7h-152
	v-2.7H1966.5z M1966.5,371.1v2.7h-152v-2.7H1966.5z M1966.5,388.2v2.7h-152v-2.7H1966.5z M1966.5,405.2v2.7h-152v-2.7H1966.5z
	 M1966.5,422.3v2.7h-152v-2.7H1966.5z M1966.5,439.3v2.7h-152v-2.7H1966.5z M1966.5,456.4v2.7h-152v-2.7H1966.5z M1966.5,473.4v2.7
	h-152v-2.7H1966.5z M1966.5,490.5v2.7h-152v-2.7H1966.5z M1966.5,507.5v2.7h-152v-2.7H1966.5z M1966.5,524.6v2.7h-152v-2.7H1966.5z
	 M1966.5,541.6v2.7h-152v-2.7H1966.5z M1966.5,558.7v2.7h-152v-2.7H1966.5z M1966.5,575.7v2.7h-152v-2.7H1966.5z M1966.5,592.8v2.7
	h-152v-2.7H1966.5z M1966.5,609.8v2.7h-152v-2.7H1966.5z M1966.5,626.9v2.7h-152v-2.7H1966.5z M1966.5,643.9v2.7h-152v-2.7H1966.5z
	 M1966.5,661v2.7h-152V661H1966.5z M1966.5,678v2.7h-152V678H1966.5z M2508.9,282.6h1.8v1.8h-1.8V282.6z M2505.4,282.6h1.8v1.8h-1.8
	V282.6z M2503.7,288.2h1.9v5.4h-1.9V288.2z M2501.9,282.6h1.8v1.8h-1.8V282.6z M2499,288.2h1.9v5.4h-1.9V288.2z M2496.4,282.6h1.8
	v1.8h-1.8V282.6z M2496.3,288.2v5.4h-1.9v-5.4H2496.3z M2492.8,282.6h1.8v1.8h-1.8V282.6z M2489.3,282.6h1.8v1.8h-1.8V282.6z
	 M2368,346.9h0.7l-0.5,5.3h-0.4L2368,346.9z M2366.9,346.9l0.2,5.3h-0.4l-0.5-5.3H2366.9z M2357.1,326.7c0,0,0-0.2,0.3-0.2
	s0.3,0.2,0.3,0.2s0.2,0.4,0,0.6c-0.1,0.2,0,0.5,0,0.5c-0.1,0-0.1,0.3-0.1,0.3h-0.5c0,0,0-0.3-0.1-0.3c0,0,0.1-0.4,0-0.5
	C2357,327.2,2357.1,326.7,2357.1,326.7z M2355.9,326.7c0,0,0-0.2,0.3-0.2s0.3,0.2,0.3,0.2s0.2,0.4,0,0.6c-0.1,0.2,0,0.5,0,0.5
	c-0.1,0-0.1,0.3-0.1,0.3h-0.5c0,0,0-0.3-0.1-0.3c0,0,0.1-0.4,0-0.5C2355.8,327.2,2355.9,326.7,2355.9,326.7z M2348.9,303.5
	c0,0,0.6,0,0.7,0.3v15.6c0,0-0.3-0.1-0.7-0.1V303.5z M2345.1,282c0.2,0,0.5,0.2,0.5,0.2v2.2c-0.2-0.2-0.5-0.2-0.5-0.2V282z
	 M2342.9,282.2c0,0,0.3-0.2,0.5-0.2v2.2c0,0-0.4,0.1-0.5,0.2V282.2z M2338.9,303.7c0.1-0.3,0.7-0.3,0.7-0.3v15.7
	c-0.4,0-0.7,0.1-0.7,0.1V303.7z M2332.1,326.7c0,0,0-0.2,0.3-0.2s0.3,0.2,0.3,0.2s0.2,0.4,0,0.6c-0.1,0.2,0,0.5,0,0.5
	c-0.1,0-0.1,0.3-0.1,0.3h-0.5c0,0,0-0.3-0.1-0.3c0,0,0.1-0.4,0-0.5S2332.1,326.7,2332.1,326.7z M2330.9,326.7c0,0,0-0.2,0.3-0.2
	s0.3,0.2,0.3,0.2s0.2,0.4,0,0.6c-0.1,0.2,0,0.5,0,0.5c-0.1,0-0.1,0.3-0.1,0.3h-0.5c0,0,0-0.3-0.1-0.3c0,0,0.1-0.4,0-0.5
	C2330.7,327.2,2330.9,326.7,2330.9,326.7z M2321.7,346.9h0.7l-0.5,5.3h-0.4L2321.7,346.9z M2320.6,346.9l0.2,5.3h-0.4l-0.5-5.3
	H2320.6z M1966.5,302.9v2.7h-152v-2.7H1966.5z M591.6,506.6l0.6,2.3l-0.7,0.9l-0.5-2.5L591.6,506.6z M591.5,501.9l0.5-0.6l0.6,2.1
	l-0.6,0.8L591.5,501.9z M627,515v-1.5l0.2-1.7l0.1,0.2l0.2,3.8L627,515z M627.6,517.9l0.2,4.2l-0.9-1.3V517L627.6,517.9z
	 M627.2,463.9l-13,16.7l-0.8-0.9l14-17.2L627.2,463.9z M866.2,465.5l0.7,2.8l-0.9,1.2l-0.6-3L866.2,465.5z M866.1,460l0.7-0.8
	l0.8,2.6l-0.8,0.9L866.1,460z M1046.8,661.9c-34.7,2.7-61.2,20.5-80.3,22.6h-6.8c-3.7-0.5-7.1-1.9-10.1-4.5
	c-5.2-4.5-12.5-7.8-21.1-10.2l12.3-66.5c36.5,0.9,72,3,106,6.2V661.9z M565.6,613c-0.3,0-0.6,0.1-0.9,0.1c-0.4,0.1-0.7,0.1-1.1,0.2
	c-0.2,0-0.4,0.1-0.5,0.1l2.8-5.6l-0.5,3.8l0,0L565.6,613z M561.6,613.7L561.6,613.7l3.3-16.6l3.1-5.7l-1.8,13.1L561.6,613.7z
	 M529,619.3l-4.1,0.8l4.8-10.4l13.2-18.7l-8.1,19.7L529,619.3z M532.6,615.9l-1.2,3l-0.9,0.2L532.6,615.9z M586.8,548.9l0.2,5.3
	l-2.7,4.9l0.1-6.2L586.8,548.9z M584.5,550.6l0.1-5.4l2-3.2l0.2,4.7L584.5,550.6z M860.6,515.6l0.3,6.4l-3.2,5.9l0.1-7.4
	L860.6,515.6z M857.8,517.9l0.1-6.5l2.4-3.8l0.2,5.7L857.8,517.9z M1035.3,588c-2.7-0.1-5.4-0.3-8-0.4l-106-160.7l-0.2-1.7
	L1035.3,588z M920.7,422.4l-0.2-1.5l124.6,167.6c-0.4,0-0.7,0-1.1-0.1c-0.6,0-1.2-0.1-1.8-0.1c-0.9,0-1.7-0.1-2.6-0.1
	s-1.8-0.1-2.7-0.1L920.7,422.4z M1025.7,587.5h-1l-23.5-27.2L922,431.9l-0.3-1.9L1025.7,587.5z M952.7,576.6l-6.6-22.3l12.8,20.7
	l3.5,10.3l-4.8-0.1L952.7,576.6z M956.2,585.1h-0.9l-0.9-3.2L956.2,585.1z M945.4,578.9l-5.5-22.1l11.7,20.4l2.3,7.9l-5.3-0.1
	L945.4,578.9z M947.2,585h-0.3l-0.2-1L947.2,585z M906.5,665.6l-11.6-62.9h1.1c12.2,0,24.7,0.1,37.2,0.4l-12,64.9
	C916.6,667,911.6,666.2,906.5,665.6z M856.4,664.9l-11.3-61.4c12.9-0.3,25.8-0.6,38.3-0.6l-11.3,61.4
	C866.8,664.3,861.6,664.6,856.4,664.9z M627.1,683.4l-11.4-61.9c10.9-1.4,22.1-2.8,33.3-4l-11.8,64.1
	C634,682.2,630.6,682.9,627.1,683.4z M590.5,550.2l0.5,5.1l-2.6,5.2l-0.2-5.9L590.5,550.2z M588.1,552.4l-0.2-5.2l2.1-3.5l0.4,4.6
	L588.1,552.4z M591.2,557.4l0.5,5.8l-3,6.5l-0.3-6.9L591.2,557.4z M592,565.4l0.7,6.8l-3.4,8.2l-0.3-8.3L592,565.4z M592.1,555.5
	l2.3-4.6l0.7,4.8l-2.5,5.4L592.1,555.5z M623,490.9l0.8-1.4l-0.1,1l-0.4,0.7L623,490.9z M623.2,493.9l-0.1,1l-0.1,0.2l-0.2-0.3
	L623.2,493.9z M622.2,490l-0.4-0.4l2.5-4.3l-0.1,1.1L622.2,490z M621,494.5l0.4,0.5l-0.8,1.5l-0.4-0.5L621,494.5z M620.4,491.9
	l0.8-1.3l0.4,0.5l-0.8,1.4L620.4,491.9z M620.8,498.6l0.3,0.4l-0.8,1.7l-0.4-0.5L620.8,498.6z M620.6,502.9l0.3,0.4l-0.8,1.9
	l-0.4-0.5L620.6,502.9z M619,503.6l-0.4-0.6l0.8-1.7l0.4,0.6L619,503.6z M616.4,504.8l-0.6-0.9l0.9-1.6l0.6,0.8L616.4,504.8z
	 M618,504.2l0.5,0.7l-0.8,1.8l-0.5-0.8L618,504.2z M600.5,500l0.8,1.6l-0.8,1.1l-0.8-1.7l0,0L600.5,500z M599.5,499.5l-0.3-2.1
	l0.7,1.5L599.5,499.5z M601.3,499.1l0.8-1l0.8,1.5l-0.8,1.1L601.3,499.1z M603.5,500.7l0.8,1.5l-0.9,1.2l-0.8-1.6L603.5,500.7z
	 M604.8,503.3l0.8,1.5l-0.9,1.4l-0.8-1.6L604.8,503.3z M606.2,506l0.8,1.5l-1,1.5l-0.8-1.6L606.2,506z M610.4,513.9l0.7,1.4l-1,2.1
	l-0.7-1.6L610.4,513.9z M608.8,514.5l-0.8-1.6l1-1.7l0.8,1.4L608.8,514.5z M612.8,512l-1,2l-0.7-1.4l1-1.8L612.8,512z M612.7,509.7
	l1-1.8l0.7,1.1l-0.9,1.9L612.7,509.7z M611.8,516.5l0.7,1.4l-1.1,2.3l-0.7-1.5L611.8,516.5z M612.4,515.2l1-2l0.7,1.2l-1,2.2
	L612.4,515.2z M614,512l1-1.9l0.6,1l-0.9,2L614,512z M614.9,507.8l-0.6-1l0.9-1.7l0.6,0.9L614.9,507.8z M613.6,505.7l-0.7-1.1
	l0.9-1.5l0.7,1L613.6,505.7z M613,506.8l-1,1.7l-0.7-1.2l1-1.6L613,506.8z M611.4,509.7l-1,1.8l-0.7-1.4l1-1.7L611.4,509.7z
	 M609.1,508.9l-0.7-1.4l1-1.5l0.8,1.3L609.1,508.9z M608.4,510.1l-1,1.7l-0.8-1.6l1-1.6L608.4,510.1z M606.7,512.9l-1,1.8l-0.8-1.8
	l1-1.6L606.7,512.9z M607.3,514.1l0.8,1.6l-1.1,2l-0.8-1.8L607.3,514.1z M608.7,517l0.8,1.6l-1.1,2.2l-0.8-1.8L608.7,517z
	 M610.1,519.9l0.8,1.6l-1.1,2.5l-0.8-1.8L610.1,519.9z M611.5,522.8l0.8,1.6l-1.1,2.8l-0.8-1.8L611.5,522.8z M612.1,521.4l1.1-2.4
	l0.7,1.3l-1,2.6L612.1,521.4z M613.8,517.8l1-2.2l0.6,1.1l-1,2.4L613.8,517.8z M616.1,517.9l0.6,1l-0.9,2.6l-0.6-1.2L616.1,517.9z
	 M616,515.4l-0.6-1l1-2.1l0.6,0.9L616,515.4z M616.2,509.8l-0.6-0.9l0.9-1.8l0.5,0.8L616.2,509.8z M615.1,502.9l-0.6-1l0.9-1.5
	l0.6,0.9L615.1,502.9z M613.8,500.9l-0.7-1l0.9-1.4l0.7,0.9L613.8,500.9z M613.1,502l-0.9,1.5l-0.7-1.1l0.9-1.4L613.1,502z
	 M611.6,504.6l-0.9,1.6l-0.7-1.3l0.9-1.5L611.6,504.6z M609.3,503.8l-0.7-1.3l0.9-1.3l0.7,1.2L609.3,503.8z M608.6,504.9l-0.9,1.5
	l-0.8-1.5l0.9-1.4L608.6,504.9z M606.3,503.8l-0.8-1.5l0.9-1.3l0.8,1.4L606.3,503.8z M605,501.2l-0.8-1.5l0.8-1.1l0.8,1.4L605,501.2
	z M603.6,498.6l-0.8-1.5l0.8-1l0.8,1.4L603.6,498.6z M602.2,496l-0.8-1.5l0.7-0.9l0.8,1.4L602.2,496z M601.5,496.9l-0.8,1l-0.8-1.6
	l0.7-0.9L601.5,496.9z M599.4,495.2l-0.6-1.3l-0.1-0.4l0.6-0.7l0.8,1.6L599.4,495.2z M598.8,542.3l0.6,4.3l-0.5,1.1l-0.8-4
	L598.8,542.3z M599.6,548.6l0.7,4.9l-0.2,0.5l-0.9-4.5L599.6,548.6z M600.2,505l0.8,1.7l-0.4,0.6L600.2,505z M601,504l0.9-1.2
	l0.8,1.6l-0.9,1.2L601,504z M603.2,505.6l0.8,1.6l-0.9,1.4l-0.8-1.7L603.2,505.6z M604.6,508.4l0.8,1.6l-1,1.6l-0.8-1.8L604.6,508.4
	z M605,515.9l-1.1,1.9l-0.8-2l1.1-1.7L605,515.9z M605.5,517.1l0.8,1.8l-1.2,2.1l-0.8-2L605.5,517.1z M606.9,520.3l0.8,1.8l-1.2,2.4
	l-0.8-2L606.9,520.3z M608.3,523.4l0.8,1.9l-1.2,2.7l-0.8-2.1L608.3,523.4z M609.7,526.7l0.8,1.9l-1.2,3l-0.8-2.2L609.7,526.7z
	 M611.2,530l0.8,1.9l-1.2,3.4l-0.9-2.2L611.2,530z M611.7,528.5l1.2-2.8l0.8,1.6l-1.1,3.1L611.7,528.5z M613.5,524.3l1.1-2.6
	l0.7,1.3l-1,2.8L613.5,524.3z M615.9,524.3l0.6,1.2l-1,3.2l-0.7-1.5L615.9,524.3z M616.4,522.9l1-2.7l0.5,0.9L617,524L616.4,522.9z
	 M617.2,517.5l-0.5-0.9l0.9-2.3l0.5,0.8L617.2,517.5z M617.4,511.8l-0.5-0.8l0.9-2l0.5,0.7L617.4,511.8z M619,510.9l0.4,0.6
	l-0.8,2.3l-0.4-0.7L619,510.9z M618.8,508.5l-0.4-0.7l0.9-1.9l0.4,0.6L618.8,508.5z M617.8,502l-0.5-0.7l0.9-1.6l0.5,0.7L617.8,502z
	 M616.6,500.2l-0.6-0.8l0.9-1.5l0.6,0.8L616.6,500.2z M615.3,498.4l-0.6-0.9l0.9-1.4l0.6,0.8L615.3,498.4z M614,496.4l-0.7-1
	l0.8-1.3l0.7,0.9L614,496.4z M613.3,497.5l-0.9,1.4l-0.7-1.1l0.9-1.3L613.3,497.5z M611.8,499.9l-0.9,1.4l-0.7-1.2l0.9-1.3
	L611.8,499.9z M609.5,499l-0.8-1.2l0.8-1.2l0.8,1.2L609.5,499z M608.8,500.1l-0.9,1.3l-0.8-1.3l0.9-1.2L608.8,500.1z M606.5,498.9
	l-0.8-1.4l0.8-1.1l0.8,1.3L606.5,498.9z M605.1,496.5l-0.8-1.4l0.8-1l0.8,1.3L605.1,496.5z M603.7,494l-0.8-1.4l0.7-0.9l0.8,1.4
	L603.7,494z M602.3,491.5l-0.8-1.4l0.7-0.8l0.8,1.4L602.3,491.5z M601.5,492.5l-0.7,0.9l-0.8-1.5l0.7-0.8L601.5,492.5z M599.5,490.7
	l-1.5-2.9l-0.3-2.2l2.5,4.3L599.5,490.7z M598.7,491.6l-0.2,0.2l-0.1-0.8L598.7,491.6z M598,536.5l0.5,3.8l-0.8,1.6l-0.7-3.6
	L598,536.5z M597.3,545.3l0.8,4.1L596,554l-0.7-4.7L597.3,545.3z M598.5,551.2l0.9,4.6l-2.3,5.6l-0.8-5.4L598.5,551.2z M599.8,557.8
	l1,5.2l-2.5,6.9l-0.9-6.3L599.8,557.8z M600.5,555.9l0.1-0.2l0.3,2.2L600.5,555.9z M600.8,509.1l0.8-1.1l0.8,1.8l-1,1.5l-0.4-1
	L600.8,509.1z M601.8,512.5l1-1.5l0.8,1.8l-1,1.7L601.8,512.5z M601.9,515.6l-0.2,0.3l-0.1-1.1L601.9,515.6z M602.4,516.9l0.8,2
	l-0.9,1.5l-0.4-2.8L602.4,516.9z M603.7,520.3l0.8,2.1l-1.2,2.2l-0.7-1.9l-0.1-0.4L603.7,520.3z M603.8,526l1.3-2.3l0.8,2.1
	l-1.3,2.5L603.8,526z M603.9,529.7l-0.3,0.5l-0.3-2.1L603.9,529.7z M606.4,527.2l0.8,2.2l-1.3,2.9l-0.8-2.4L606.4,527.2z
	 M607.8,530.8l0.9,2.3l-1.4,3.3l-0.9-2.6L607.8,530.8z M609.3,534.6l0.9,2.4l-1.4,3.8l-0.9-2.7L609.3,534.6z M610.8,538.5l1,2.5
	l-1.4,4.4l-1-3L610.8,538.5z M611.4,536.9l1.3-3.5l0.9,2l-1.2,3.9L611.4,536.9z M613.2,531.8l1.1-3.2l0.8,1.6l-1.1,3.5L613.2,531.8z
	 M615.8,531.7l0.7,1.5l-1,4l-0.8-1.9L615.8,531.7z M617.3,534.8l0.3,0.6l-0.7,5l-0.7-1.6L617.3,534.8z M617,531.6l-0.7-1.4l1-3.3
	l0.6,1.1L617,531.6z M618.1,531.5l-0.2,1.9l-0.2-0.3L618.1,531.5z M617.8,525.3l0.9-3l0.5,0.8l-0.8,3.2L617.8,525.3z M618.4,519.6
	l-0.5-0.8l0.9-2.5l0.4,0.7L618.4,519.6z M619.9,518.5l-0.4,2.9l-0.3-0.6L619.9,518.5z M619.7,515.5l-0.4-0.6l0.8-2.3l0.3,0.4
	L619.7,515.5z M619.9,510.1l-0.3-0.5l0.8-2l0.3,0.4L619.9,510.1z M621,510.3l-0.2,1.2l-0.2-0.3L621,510.3z M620.9,506.3l0.8-1.9
	l0.1,0.1l-0.1,0.7l-0.5,1.5L620.9,506.3z M621.4,502.1l-0.3-0.4l0.8-1.7l0.2,0.3L621.4,502.1z M621.7,497.8l-0.3-0.4l0.8-1.6
	l0.3,0.3L621.7,497.8z M622,493.8l-0.3-0.4l0.8-1.4l0.3,0.3L622,493.8z M621,488.6l-0.5-0.5l4.3-6.8l-0.2,1.1L621,488.6z
	 M619.8,487.2l-0.6-0.6l6.1-9.2l-0.2,1.2L619.8,487.2z M619.9,489.1l0.5,0.6l-0.8,1.3l-0.5-0.6L619.9,489.1z M619.8,493l0.5,0.6
	l-0.8,1.4l-0.5-0.6L619.8,493z M619.6,497l0.4,0.5l-0.8,1.6l-0.5-0.6L619.6,497z M618,497.6l-0.5-0.7l0.8-1.4l0.5,0.7L618,497.6z
	 M616.8,495.8l-0.6-0.8l0.8-1.3l0.6,0.7L616.8,495.8z M615.4,494.1l-0.7-0.9l0.8-1.2l0.7,0.8L615.4,494.1z M614.1,492.2l-0.7-0.9
	l0.8-1.2l0.7,0.9L614.1,492.2z M613.4,493.2l-0.8,1.2l-0.7-1l0.8-1.2L613.4,493.2z M611.9,495.5l-0.8,1.3l-0.7-1.1l0.8-1.2
	L611.9,495.5z M609.6,494.6l-0.8-1.2l0.8-1.1l0.8,1.1L609.6,494.6z M608.9,495.6l-0.8,1.2l-0.8-1.3l0.8-1.1L608.9,495.6z
	 M606.7,494.4l-0.8-1.3l0.8-1l0.8,1.2L606.7,494.4z M605.2,492.1l-0.8-1.3l0.7-0.9l0.8,1.3L605.2,492.1z M603.8,489.7l-0.8-1.4
	l0.7-0.8l0.9,1.3L603.8,489.7z M602.3,487.3l-5.7-9.2l-0.2-1.5l6.5,9.9L602.3,487.3z M601.5,488.3l-0.7,0.8l-3.6-6.3L597,481
	L601.5,488.3z M597.3,531.1l0.5,3.5l-1.1,2l-0.7-3.3L597.3,531.1z M596.2,539.8l0.7,3.7l-1.9,3.8l-0.6-4.2L596.2,539.8z
	 M595.4,557.8l0.8,5.6l-2.7,6.7l-0.6-6.6L595.4,557.8z M596.6,565.5l1,6.5l-3,8.4l-0.8-8L596.6,565.5z M597.9,574.3l1.2,7.9
	l-3.3,10.7l-0.9-10L597.9,574.3z M598.6,572.2l2.6-7.1l1.2,6.1l-2.6,8.6L598.6,572.2z M602.9,573.5l0.4,1.9l0.9,6.5l-2.6,10
	l-1.4-9.6L602.9,573.5z M603.9,532.2l0.5-1l0.9,2.5l-0.9,2L603.9,532.2z M605.8,535.3l0.9,2.7l-1.5,3.7l-0.6-3.9L605.8,535.3z
	 M607.2,539.5l1,2.9l-1.6,4.3l-1-3.4L607.2,539.5z M608.8,544l1.1,3.1l-1.6,5.1l-1.1-3.7L608.8,544z M610.5,548.9l1.2,3.5l-1.5,6
	l-1.3-4.2L610.5,548.9z M611,547.1l1.4-4.5l1,2.7l-1.3,5.1L611,547.1z M613,540.9l1.2-4l0.9,2.1l-1.1,4.5L613,540.9z M615.8,540.6
	l0.9,1.9l-0.3,2l-0.7,3.4l-1.1-2.7L615.8,540.6z M617.2,586.2l5.4,18.3l-5.6,0.8l-1.6-6.4L617.2,586.2z M617.6,583.6l1.4-10.1
	l6.1,17.7l-0.1,13.1l-1.1,0.2L617.6,583.6z M619.3,571l1.1-8.2l4.8,12.4l-0.1,12.7L619.3,571z M620.7,560.6l0.9-6.9l3.8,8.6
	l-0.1,9.9L620.7,560.6z M621.9,551.6l0.8-5.8l2.8,5.8l-0.1,8L621.9,551.6z M622.9,543.8l0.7-5l2,3.7l-0.1,6.6L622.9,543.8z
	 M623.8,536.9l0.6-4.4l1.2,2.1l-0.1,5.6L623.8,536.9z M624.7,530.6l0.5-3.9l0.5,0.9l-0.1,4.8L624.7,530.6z M625.4,524.9l0.3-2.6v3.1
	L625.4,524.9z M625.7,474.8l-7.3,10.8l-0.6-0.7l8-11.4L625.7,474.8z M618.6,487.5l0.6,0.7l-0.8,1.3l-0.6-0.7L618.6,487.5z
	 M618.5,491.4l0.5,0.7l-0.8,1.3l-0.6-0.7L618.5,491.4z M616.9,491.7l-0.6-0.8l0.8-1.2l0.6,0.7L616.9,491.7z M615.6,490l-0.7-0.9
	l0.8-1.1l0.7,0.8L615.6,490z M614.1,488.2l-0.7-0.9l0.8-1.1l0.7,0.9L614.1,488.2z M613.5,489.2l-0.8,1.1l-0.7-1l0.8-1.1L613.5,489.2
	z M612,491.3l-0.8,1.2l-0.8-1.1l0.8-1.1L612,491.3z M609.7,490.4l-0.8-1.1l0.8-1l0.8,1.1L609.7,490.4z M609,491.3l-0.8,1.1l-0.8-1.2
	l0.8-1L609,491.3z M606.7,490.2l-0.8-1.2l0.7-0.9l0.8,1.2L606.7,490.2z M605.3,487.9l-0.8-1.3l0.7-0.8l0.9,1.2L605.3,487.9z
	 M595.6,470.3l-0.2-1.2l10.5,14.1l-0.7,0.8L595.6,470.3z M604.4,484.8l-0.7,0.8L596,474l-0.2-1.3L604.4,484.8z M596.4,526.3l0.5,1.9
	l0.1,1.1l-1.4,2.3l-0.6-3.1L596.4,526.3z M595.2,534.7l0.7,3.4l-1.8,3.2l-0.6-3.8L595.2,534.7z M594.2,549l-2.2,4.4l-0.5-5l2.1-3.8
	L594.2,549z M591.3,546.5l-0.4-4.4l1.8-3.1l0.6,3.9L591.3,546.5z M590.7,540.1l-0.4-4l1.6-2.5l0.5,3.6L590.7,540.1z M590.1,534.3
	l-0.4-3.7l1.4-2.1l0.5,3.4L590.1,534.3z M589.6,528.8l-0.3-3.4l1.2-1.7l0.5,3.1L589.6,528.8z M589.3,537.6l0.4,4.1l-2,3.3l-0.2-4.6
	L589.3,537.6z M587.5,538.5l-0.2-4.2l1.5-2.3l0.4,3.8L587.5,538.5z M587.5,564.7l0.3,7.1l-3.6,8l0.1-8.6L587.5,564.7z M587.9,574.3
	l0.4,8.6l-4.3,10.4l0.1-10.7L587.9,574.3z M588.4,585.5l0.5,10.6l-5,13.9l0.2-13.8L588.4,585.5z M589,599l0.4,10.3
	c-0.8,0.1-1.6,0.2-2.4,0.4c-0.7,0.1-1.3,0.2-2,0.3L589,599z M589.4,583.1l3.5-8.5l0.8,8.2l-3.8,10.6L589.4,583.1z M593.9,585.4
	l1,10.3l-4.2,13.5c-0.1,0-0.1,0-0.2,0l0,0l-0.5-12.8L593.9,585.4z M595.1,598.5l0.9,9.8l-4.2,0.6L595.1,598.5z M596,595.8l3.4-11.1
	l1.5,9.9l-3.5,13.5c-0.1,0-0.2,0-0.2,0L596,595.8z M601.3,597.4l1.5,9.9l-4.2,0.6L601.3,597.4z M601.9,594.7l2.5-9.9l1.5,11.5
	l-2.2,10.9h-0.1L601.9,594.7z M606.5,599.6l0.9,7.1c-0.8,0.1-1.6,0.2-2.4,0.4L606.5,599.6z M607.1,556.1l-0.7-5.4l0.2-0.6l1.1,3.9
	L607.1,556.1z M608.3,556l1.3,4.4l-1.3,5l-0.9-6.7L608.3,556z M610.2,562.5l1.5,5.2l-1.7,8.8l-0.4-1.5l-0.9-6.7L610.2,562.5z
	 M612.4,569.9l0.4,1.3l-1.4,10.8l-0.8-3.1L612.4,569.9z M612.2,565.4l-1.5-5l1.6-6.2l1.3,3.9L612.2,565.4z M614.1,561.3l-1,7.3
	l-0.3-1L614.1,561.3z M614.1,556l-1.3-3.7l1.3-5.3l1.1,2.9L614.1,556z M615.1,601.9l0.9,3.5l-1.4,0.2L615.1,601.9z M631.3,536.5
	l0.6,6.7l-2.4-4.1l-0.2-5.8L631.3,536.5z M629.2,531l-0.2-5l1.5,2.3l0.5,5.6L629.2,531z M721.9,590.4l-3.3-4.7l2.9-3.5l3.4,4.5
	L721.9,590.4z M725.7,587.7l3.5,4.7l-0.3,0.4l-4.5,0.4h-0.5l-1.2-1.8L725.7,587.7z M722.6,593.4l-1.5,0.1l0.8-1.1L722.6,593.4z
	 M721.2,591.3l-1.8,2.4l-2.2,0.2l-2.4-3.6l3-3.7L721.2,591.3z M715.9,594l-3.6,0.3l-0.4-0.4l2.2-2.7L715.9,594z M714.1,589.2
	l-3.1-4.7l3-3.5l3.2,4.5L714.1,589.2z M713.3,590.1l-2.3,2.8l-3.7-4.2l2.8-3.3L713.3,590.1z M710.3,593.8l-0.2,0.2l-0.9-1.5
	L710.3,593.8z M699.9,588.4l-11.4-19.9l16.1,18.7l0.9,1.5l-2.7,3.2L699.9,588.4z M702.5,595.2l-0.8,0.1l0.5-0.6L702.5,595.2z
	 M654.3,594.4L653,585l3.3,13.2L654.3,594.4z M656.1,600.3l-1,0.1l-0.4-2.8L656.1,600.3z M631.7,588.7l-0.6-13.2l5,11.3l1.5,15.7
	l-0.5,0.1L631.7,588.7z M636,602.8l-3.7,0.5l-0.5-11.1L636,602.8z M637.5,590l5.2,11.9l-4,0.5L637.5,590z M637.2,586.5l-1.3-13.3
	l5.6,11.5l2.5,17.1h-0.1L637.2,586.5z M649.8,527.6l-2.8-7.1l4.2,4.8l3.7,8.5L649.8,527.6z M656.6,537.7l4.7,10.7l-6.7-8.6l-3.4-8.7
	L656.6,537.7z M645.8,517.3l-2.8-7l-0.7-5.2l7.3,16.7L645.8,517.3z M644.8,518l2.7,6.9l-3.1-3.8l-0.6-4.3L644.8,518z M648.9,528.3
	l3.3,8.5l-4.8-6.1l-2.5-7.1L648.9,528.3z M646.5,531.3l2.9,8.4l-3-4l-0.7-5.4L646.5,531.3z M648.6,534l5.1,6.5l4.2,10.6l-6.3-8.4
	L648.6,534z M659.4,555.2l5.4,13.7l-8.3-11.8l-3.7-10.9L659.4,555.2z M656.1,543.5l7.1,9.1l6.1,13.9l-8.9-11.9L656.1,543.5z
	 M659.2,540.8l7.5,9.1l6.8,14l-9.4-12L659.2,540.8z M657.5,537l-3.9-8.8l5.7,6.6l5.2,10.8L657.5,537z M652.1,524.6l-10.3-23.5
	l-0.5-3.6l16.2,33.4L652.1,524.6z M642.5,554.7l0.4,3l-0.7-3.5L642.5,554.7z M643.3,565.4l1.9,9.9l0.4,2.9l-5.6-10.7l-1.5-10.5
	L643.3,565.4z M646.1,581.3l1.9,14.4l-5.5-11.4l-2-13.5L646.1,581.3z M647.2,541.5l-0.4-3.4l3.9,5.2l3.6,10.6l-5.9-8.4L647.2,541.5z
	 M655.6,557.8l4.7,13.6l-7.7-11.6l-3.2-10.8L655.6,557.8z M661.8,575.7l6.3,18.3l-10.2-16.6l-4.1-13.9L661.8,575.7z M657.9,561
	l8.6,12.3l7.3,18.5L662.7,575L657.9,561z M661.9,558.5l9.3,12.5l8.2,18.7l-11.9-17L661.9,558.5z M665.9,556.1l9.9,12.6l9.1,18.9
	l-12.7-17.1L665.9,556.1z M669.7,553.6l10.6,12.8l10,19L676.7,568L669.7,553.6z M673.4,551.1l11.2,13l11,19.2l-14.5-17.6
	L673.4,551.1z M677.6,561.4l-10-12.2l-5.4-11.2l8,9.2L677.6,561.4z M660.3,534.1l-19.5-40.2l-0.4-2.8l27.3,51.7L660.3,534.1z
	 M641.2,544.4l1,7.5l-0.5-0.9l-1.7-8.5L641.2,544.4z M642.6,561.9l-4.6-8l-1.2-8.4l3.8,6.2L642.6,561.9z M637,554.3l1.5,10.2
	l-4.2-7.9l-0.8-8.4L637,554.3z M639,567.9l1.9,13.1l-5.3-11l-1-10.4L639,567.9z M643,587.9l5.5,11.3l0.3,2l-3.7,0.5L643,587.9z
	 M648.1,548.5l2.4,8.1l-1.6-2.5L648.1,548.5z M651.6,560.3l4,13.5l-5.3-8.5l-1.2-8.6L651.6,560.3z M656.9,578l5.4,18.1l-9.4-16.4
	l-1.1-4.6l-0.9-7L656.9,578z M653.8,583.7l9.1,15.8l-5,0.6L653.8,583.7z M659.1,581.6l10.6,17.2l-5.3,0.6l0,0L659.1,581.6z
	 M664.2,579.4l11.6,17.5l0.4,1.1l-5.3,0.6l-0.2-0.3L664.2,579.4z M669.3,577.2l12.5,17.8l1,2.2c-0.7,0.1-1.3,0.1-2,0.2
	c-1,0.1-2,0.2-3,0.3l-1-1.5L669.3,577.2z M682.7,594.4l-8.5-19.3l13.4,18l1.7,3.5l-4.7,0.5L682.7,594.4z M688.5,592.4l-9.4-19.5
	l14.3,18.2l2.5,4.8c-0.7,0.1-1.4,0.1-2.1,0.2c-0.8,0.1-1.6,0.2-2.3,0.2L688.5,592.4z M694.2,590.4l-10.4-19.7l15.2,18.5l2.5,4.3
	l-1.7,2c-0.5,0-1,0.1-1.5,0.1L694.2,590.4z M703.7,593l2.6-3.1l2.9,4.7l-3.9,0.4L703.7,593z M703.9,595.1h-0.2l-0.4-0.8L703.9,595.1
	z M706.5,587.6l-1.1-1.2l-66.7-108.2l-0.2-1.5l70.9,107.5L706.5,587.6z M700.8,581l-15.3-17.7l-46.2-80.6l-0.2-1.8L700.8,581z
	 M681.6,558.8L671,546.5l-31-58.7l-0.3-2.2L681.6,558.8z M639.9,535.5l0.9,6.4l-1.4-2.2l-1.4-7L639.9,535.5z M638.4,540.2l1.6,8.2
	l-3.6-5.9l-1-6.9L638.4,540.2z M636.6,551.3l-3.3-5.8l-0.7-6.9l2.8,4.5L636.6,551.3z M632.4,536.1l-0.6-5.8l2.1,3.3l1,6.7
	L632.4,536.1z M631.6,527.8l-0.5-5l1.6,2.3l0.8,5.7L631.6,527.8z M632.2,546l0.8,8.2l-3-5.7l-0.3-6.9L632.2,546z M633.3,557l1,10.1
	l-3.8-7.8l-0.4-8.3L633.3,557z M634.5,570.3l1.2,13l-4.7-10.8l-0.4-10.3L634.5,570.3z M630.6,589l0.6,14.4l-0.8,0.1l-4.3-12.6
	l0.1-13L630.6,589z M629.3,603.6l-3.4,0.5l0.1-9.9L629.3,603.6z M655.7,616.8c62.2-6.9,123.4-11.3,182-13.1l11.3,61.8
	c-6.7,0.6-13,1.3-18.8,2.2c-36.7,5.4-62,14.7-100.9,4.7c-33.5-8.6-50.8,0.3-85.4,7.9L655.7,616.8z M913.7,563l-0.7-15.8l5.9,13.6
	l2,20.7L913.7,563z M920.9,584.8c-2.1,0-4.2,0-6.3,0l-0.8-18L920.9,584.8z M888.7,551.4l2.2-10.9l0.5,1.9l-1.7,13L888.7,551.4z
	 M889.2,558.8l-0.1,0.6l-0.3-2L889.2,558.8z M865,517.2l0.6,6.1l-3.1,6.2l-0.3-7.1L865,517.2z M862,519.9l-0.3-6.3l2.5-4.2l0.5,5.5
	L862,519.9z M865.8,525.7l0.7,7l-3.6,7.8l-0.4-8.3L865.8,525.7z M882.9,509.1l1.9-4.6l1.2,3.5l-1.9,5.2L882.9,509.1z M883.4,515.2
	l-0.1,0.2l-0.1-0.9L883.4,515.2z M901.1,451.2l0.5,0.6l-0.9,1.9l-0.5-0.7L901.1,451.2z M900.3,448.2l1-1.7l0.5,0.6l-0.9,1.7
	L900.3,448.2z M897.6,454.9l-0.7-0.9l1-1.7l0.6,0.8L897.6,454.9z M899.4,454.2l0.5,0.7l-1,1.9l-0.6-0.8L899.4,454.2z M875.3,449.1
	l1,1.9l-0.9,1.1l-0.9-1.8v-0.2L875.3,449.1z M874.3,448.3l-0.2-1.4l0.5,1L874.3,448.3z M881.9,461.7l1,1.8l-1.1,1.7l-0.9-2
	L881.9,461.7z M880.2,461.9l-0.9-1.9l1-1.4l1,1.8L880.2,461.9z M890.9,475.8l1.2-2.5l0.8,1.4l-1.2,2.6L890.9,475.8z M891.1,478.9
	l-1.3,2.8l-0.9-1.9l1.3-2.6L891.1,478.9z M892.8,472l1.2-2.3l0.8,1.2l-1.1,2.5L892.8,472z M893.9,467.1l-0.8-1.3l1.1-2l0.7,1.1
	L893.9,467.1z M893.2,468.4l-1.1,2.3l-0.8-1.4l1.2-2.1L893.2,468.4z M891.3,472.1l-1.2,2.4l-0.9-1.7l1.2-2.2L891.3,472.1z
	 M889.4,475.8l-1.3,2.5l-0.9-1.9l1.3-2.3L889.4,475.8z M886.6,475.1l-0.9-1.9l1.3-2.1l0.9,1.8L886.6,475.1z M885,471.8l-0.9-1.9
	l1.2-1.9l1,1.8L885,471.8z M883.4,468.5l-0.9-1.9l1.2-1.7l1,1.8L883.4,468.5z M882.6,469.7l-1.2,1.9l-0.9-2.1l1.2-1.8L882.6,469.7z
	 M883.2,471.1l1,2l-1.3,2.2l-0.9-2.1L883.2,471.1z M884.9,474.5l1,2l-1.3,2.4l-1-2.2L884.9,474.5z M886.5,477.8l1,2l-1.4,2.7l-1-2.2
	L886.5,477.8z M888.1,481.3l0.9,2l-1.4,3l-1-2.2L888.1,481.3z M889.8,484.7l0.9,2l-1.4,3.3l-1-2.2L889.8,484.7z M891.5,488.2l0.9,2
	L891,494l-1-2.3L891.5,488.2z M891.4,485.1l-0.9-1.9l1.3-2.9l0.9,1.6L891.4,485.1z M892.5,478.9l1.2-2.7l0.8,1.4l-1.2,2.9
	L892.5,478.9z M894.4,474.7l1.2-2.5l0.7,1.1l-1.1,2.7L894.4,474.7z M895.4,469.5l-0.7-1.2l1.1-2.2l0.7,1L895.4,469.5z M895.6,463.6
	l-0.7-1.1l1.1-2l0.7,1L895.6,463.6z M895.9,458l-0.7-1l1.1-1.8l0.7,0.9L895.9,458z M895.2,459.3l-1.1,1.9l-0.8-1.2l1.1-1.8
	L895.2,459.3z M893.4,462.5l-1.1,2l-0.8-1.3l1.1-1.9L893.4,462.5z M891.6,465.8l-1.1,2.1l-0.9-1.5l1.2-2L891.6,465.8z M889.7,469.3
	l-1.2,2.2l-0.9-1.7l1.2-2L889.7,469.3z M886.9,468.4l-0.9-1.7l1.2-1.9l0.9,1.6L886.9,468.4z M885.3,465.3l-0.9-1.8l1.1-1.7l0.9,1.7
	L885.3,465.3z M883.7,462.3l-1-1.8l1.1-1.5l1,1.7L883.7,462.3z M882.1,459.2l-0.9-1.8l1-1.4l1,1.7L882.1,459.2z M880.4,456.1l-1-1.8
	l1-1.2l1,1.7L880.4,456.1z M879.6,457.3l-1,1.3l-1-2l1-1.2L879.6,457.3z M876.8,457.8l1,2l-1,1.4l-0.9-2.1L876.8,457.8z
	 M875.5,457.3l-0.4-2.8l0.1-0.1l1,2L875.5,457.3z M877,455.3l-1-2l0.9-1.1l1,1.9L877,455.3z M874.8,507.7l0.7,5.1l-0.7,1.5l-0.9-4.8
	L874.8,507.7z M875.8,515.2l0.8,5.9l-0.3,0.8l-1.1-5.3L875.8,515.2z M876.4,463.8L876.4,463.8l1,2l-0.6,0.9L876.4,463.8z
	 M877.3,462.5l1.1-1.4l1,2l-1.1,1.5L877.3,462.5z M880,464.4l1,2l-1.2,1.7l-0.9-2.1L880,464.4z M880.5,473l-1.3,2l-0.9-2.3l1.2-1.8
	L880.5,473z M881.1,474.4l1,2.2l-1.3,2.3l-0.9-2.4L881.1,474.4z M882.7,478l1,2.2l-1.4,2.6l-1-2.4L882.7,478z M884.4,481.7l1,2.2
	l-1.4,2.9l-1-2.5L884.4,481.7z M886,485.5l1,2.3l-1.5,3.2l-1-2.6L886,485.5z M887.7,489.3l1,2.3l-1.5,3.7l-1-2.6L887.7,489.3z
	 M889.4,493.2l1,2.4l-1.5,4.1l-1.1-2.8L889.4,493.2z M891.2,497.3l1.1,2.4l-1.5,4.7l-1.1-2.9L891.2,497.3z M891.8,495.5l1.4-3.8
	l0.9,1.9l-1.3,4.2L891.8,495.5z M893,488.4l-0.9-1.9l1.3-3.2l0.8,1.6L893,488.4z M894.1,481.9l1.2-3l0.7,1.3l-1.1,3.2L894.1,481.9z
	 M895.9,477.4l1.1-2.8l0.6,1l-1.1,3L895.9,477.4z M896.8,471.8l-0.6-1l1.1-2.4l0.6,0.9L896.8,471.8z M897.1,465.8l-0.6-1l1.1-2.1
	l0.6,0.9L897.1,465.8z M897.3,460.2l-0.6-0.9l1-1.9l0.6,0.8L897.3,460.2z M896.1,452.9l-0.7-1l1-1.6l0.7,0.9L896.1,452.9z
	 M895.4,454.1l-1,1.7l-0.8-1.1l1-1.7L895.4,454.1z M893.6,457.1l-1.1,1.8l-0.8-1.3l1.1-1.7L893.6,457.1z M891.8,460.1l-1.1,1.8
	l-0.9-1.4l1.1-1.7L891.8,460.1z M890,463.2l-1.1,1.9l-0.9-1.6l1.1-1.8L890,463.2z M887.2,462.3l-0.9-1.6l1.1-1.6l0.9,1.5
	L887.2,462.3z M885.6,459.4l-0.9-1.6l1.1-1.5l1,1.5L885.6,459.4z M883.9,456.6l-1-1.7l1-1.4l1,1.6L883.9,456.6z M882.3,453.7l-1-1.7
	l1-1.2l1,1.6L882.3,453.7z M880.6,450.7l-1-1.7l0.9-1.1l1,1.6L880.6,450.7z M879.7,451.8l-0.9,1.2l-1-1.8l0.9-1.1L879.7,451.8z
	 M877.2,449.9l-1-1.8l0.8-1l1,1.8L877.2,449.9z M875.5,446.8l-1.9-3.6l-0.4-2.7l3.1,5.4L875.5,446.8z M874.5,505.5l-1,2.1l-0.9-4.4
	l1.3-2.3L874.5,505.5z M873,511.4l1,4.9l-2.5,5.6l-0.8-5.7L873,511.4z M874.4,518.4l1.1,5.5l-2.8,6.7l-1-6.5L874.4,518.4z
	 M875.9,526.2l1.2,6.3l-3,8.2l-1.1-7.6L875.9,526.2z M876.8,524.1l0.2-0.5l0.6,4.6L876.8,524.1z M877.1,469.6l-0.1-1l1-1.4l0.9,2.2
	l-1.2,1.8L877.1,469.6z M878.4,476.3l-0.3,0.5l-0.3-2L878.4,476.3z M879,477.8l1,2.4l-1.1,1.9l-0.5-3.4L879,477.8z M880.5,481.8
	l1,2.5L880,487l-0.9-2.7v-0.1L880.5,481.8z M880.8,493l-0.4,0.8l-0.4-3.3L880.8,493z M880.6,488.6l1.5-2.8l1,2.6l-1.6,3.1
	L880.6,488.6z M883.8,490l1,2.6l-1.6,3.5l-1-3L883.8,490z M885.4,494.2l1.1,2.7l-1.6,4l-1.1-3.1L885.4,494.2z M887.2,498.7l1.1,2.9
	l-1.7,4.6l-1.2-3.4L887.2,498.7z M889,503.3l1.2,3l-1.6,5.3l-1.2-3.6L889,503.3z M890.9,508.2l1.3,3.2l-1.6,6.2l-1.4-4L890.9,508.2z
	 M891.5,506.3l1.5-4.8l1.1,2.5l-1.4,5.4L891.5,506.3z M893.6,499.6l1.3-4.3l0.9,1.9l-1.2,4.8L893.6,499.6z M894.7,491.8l-0.9-1.8
	l1.3-3.5l0.8,1.5L894.7,491.8z M895.6,484.9l1.2-3.2l0.7,1.1l-1.1,3.5L895.6,484.9z M897.4,480l1.1-3l0.5,0.8l-1,3.2L897.4,480z
	 M898.2,474.1l-0.6-0.9l1.1-2.6l0.5,0.8L898.2,474.1z M898.4,467.8l-0.6-0.8l1-2.3l0.5,0.7L898.4,467.8z M898.7,462.1l-0.6-0.8l1-2
	l0.5,0.7L898.7,462.1z M900.6,461.2l0.4,0.5l-0.9,2.3l-0.5-0.7L900.6,461.2z M900.3,458.6l-0.5-0.6l1-2l0.4,0.6L900.3,458.6z
	 M899.2,451.9l-0.6-0.8l1-1.7l0.6,0.7L899.2,451.9z M897.8,450l-0.7-0.9l1-1.6l0.7,0.8L897.8,450z M896.2,448l-0.8-1l1-1.5l0.8,0.9
	L896.2,448z M895.5,449.2l-1,1.6l-0.8-1.1l1-1.5L895.5,449.2z M893.7,452l-1,1.6l-0.8-1.2l1-1.5L893.7,452z M892,454.8l-1.1,1.7
	l-0.9-1.3l1.1-1.6L892,454.8z M890.2,457.6l-1.1,1.7l-0.9-1.5l1.1-1.6L890.2,457.6z M887.4,456.7l-0.9-1.5l1-1.5l0.9,1.4
	L887.4,456.7z M885.8,454l-1-1.5l1-1.4l1,1.5L885.8,454z M884.1,451.2l-1-1.6l1-1.2l1,1.5L884.1,451.2z M882.4,448.4l-1-1.6l0.9-1.1
	l1,1.5L882.4,448.4z M880.6,445.6l-1-1.6l0.9-1l1,1.6L880.6,445.6z M879.8,446.7l-0.9,1.1l-1-1.7l0.9-1L879.8,446.7z M877.2,444.8
	l-4.4-7.7l-0.3-2.3l5.5,9L877.2,444.8z M873,494.5l0.6,4.2l-1.4,2.5l-0.8-4L873,494.5z M871.7,504.9l0.9,4.5l-2.3,4.6l-0.7-5.1
	L871.7,504.9z M869.6,518.1l0.9,5.8l-3,6.5l-0.7-6.8L869.6,518.1z M870.8,526.2l1,6.7l-3.3,8l-0.8-8L870.8,526.2z M872.1,535.3
	l1.1,7.8l-3.6,10.1l-0.9-9.6L872.1,535.3z M873.7,545.8l1.4,9.4l-4,12.9l-1.1-11.9L873.7,545.8z M874.5,543.3l3.1-8.5l1.5,7.4
	l-3.2,10.2L874.5,543.3z M879.6,544.8l0.7,3.4l0.9,6.5l-3.1,12.2l-1.7-11.5L879.6,544.8z M880.7,496.1l0.7-1.4l1.1,3.1l-1.2,2.6
	L880.7,496.1z M883,499.5l1.1,3.2l-1.8,4.5l-0.2-0.7l-0.5-3.8L883,499.5z M884,517.2l1.4,4.7l-0.8,2.7l-0.9-6.5L884,517.2z
	 M884.7,515.3l1.9-5.3l1.3,3.8l-1.9,6.1L884.7,515.3z M888.6,515.7l1.4,4.2l-1.9,7.2l-1.5-5.1L888.6,515.7z M890.8,522l1.6,4.7
	l-1.7,8.7l-1.8-6L890.8,522z M891.3,519.8l1.6-6.3l1.4,3.6l-1.5,7.3L891.3,519.8z M893.5,511.3l1.4-5.5l1.1,2.5l-0.2,1.1l-1.1,5.3
	L893.5,511.3z M895.4,503.8l1.3-4.9l0.5,1l-0.8,6L895.4,503.8z M896.3,495.2l-0.9-1.8l1.2-3.9l0.7,1.4L896.3,495.2z M897.9,494.1
	l-0.5,3.5l-0.3-0.6L897.9,494.1z M897.9,489.1l-0.7-1.3l1.1-3.6l0.6,1L897.9,489.1z M898.8,482.6l1-3.3l0,0l-0.6,4.1L898.8,482.6z
	 M899.5,476.2l-0.5-0.7l1-2.8l0.4,0.6L899.5,476.2z M899.7,469.8l-0.5-0.7l1-2.5l0.4,0.5L899.7,469.8z M901.2,469.4l-0.3,2.2
	l-0.3-0.5L901.2,469.4z M900.9,465.2l1-2.3l0.2,0.3l-0.1,0.4l-0.8,2.1L900.9,465.2z M901.6,460.3l-0.4-0.5l1-2.1l0.3,0.4
	L901.6,460.3z M901.9,455.2l-0.4-0.5l1-1.9l0.3,0.4L901.9,455.2z M903,455.8l-0.1,0.8l-0.2-0.2L903,455.8z M902.2,450.5l-0.4-0.5
	l1-1.7l0.4,0.5L902.2,450.5z M903.8,450.1l-0.2,1.3l-0.2,0.5l-0.3-0.4L903.8,450.1z M903.8,447.4l-0.4-0.4l1.1-2l-0.2,1.3
	L903.8,447.4z M902.5,445.9l-0.5-0.6l3.1-5.3l-0.2,1.4L902.5,445.9z M901.1,444.3l-0.6-0.7l5.3-8.4l-0.2,1.5L901.1,444.3z
	 M899.6,442.6l-0.7-0.8l7.4-11.1l-0.2,1.5L899.6,442.6z M899.8,444.8l0.6,0.7l-1,1.6l-0.7-0.8L899.8,444.8z M897.9,445.3l-0.7-0.9
	l1-1.5l0.7,0.8L897.9,445.3z M896.4,443.4l-0.8-1l1-1.4l0.8,0.9L896.4,443.4z M895.6,444.5l-1,1.5l-0.8-1.1l1-1.4L895.6,444.5z
	 M893.9,447.1l-1,1.5l-0.9-1.2l1-1.4L893.9,447.1z M892.1,449.7l-1,1.5l-0.9-1.3l1-1.4L892.1,449.7z M890.3,452.4l-1,1.5l-0.9-1.4
	l1-1.5L890.3,452.4z M887.6,451.4l-0.9-1.4l1-1.3l0.9,1.3L887.6,451.4z M885.9,448.8l-1-1.5l1-1.2l1,1.4L885.9,448.8z M884.1,446.2
	l-1-1.5l0.9-1.1l1,1.5L884.1,446.2z M882.4,443.5l-1-1.5l0.9-1l1,1.5L882.4,443.5z M880.6,440.8l-9.2-13.9l-0.2-1.7l10.3,14.7
	L880.6,440.8z M879.7,441.8l-0.8,1l-6.8-11.1l-0.3-1.9L879.7,441.8z M872,488.9l0.7,3l0.1,0.5l-1.7,2.9l-0.7-3.8L872,488.9z
	 M870.5,498.8l0.8,4.1l-2.1,3.9l-0.7-4.6L870.5,498.8z M869.3,515.9l-2.7,5.3l-0.6-6l2.5-4.6L869.3,515.9z M866.7,535.2l0.8,8.2
	l-4,9.8l-0.4-10L866.7,535.2z M863.1,575l0.4,10.5l-4.3,0.1L863.1,575z M863.6,556.2l4.2-10.2l0.9,9.9l-4.6,12.7L863.6,556.2z
	 M868.9,558.9l1.2,12.3l-4.4,14.3h-0.9l-0.6-13.5L868.9,558.9z M870.4,574.4l1,10.9l-4.4,0.1L870.4,574.4z M871.4,571.3l4.1-13.3
	l1.7,11.8l-3.9,15.3h-0.6L871.4,571.3z M877.7,573.1l1.8,12.1l-4.9,0.1L877.7,573.1z M878.5,570l3.1-12.1l1.8,13.7l-2.7,13.5
	L878.5,570z M883.9,575.5l1.3,9.6l-3.2,0.1L883.9,575.5z M884.9,527.6l1.1-3.5l1.6,5.4l-1.6,6.2L884.9,527.6z M888.3,531.7l1.9,6.3
	l-2.1,10.6l-0.6-2.5l-1-7.2L888.3,531.7z M891.4,538l1.8-8.9v0.1l-1.4,10.3L891.4,538z M894.1,578.3l1.6,6.7h-2.5L894.1,578.3z
	 M894.5,574.9l2-15.2l7.5,25.2l-7,0.1L894.5,574.9z M896.9,556.7l1.6-12.1l7.3,21.2l-0.2,19h-0.4L896.9,556.7z M898.9,541.8l1.3-9.8
	l5.8,14.9l-0.2,15.2L898.9,541.8z M900.6,529.5l1.1-8.2l4.6,10.4l-0.1,11.9L900.6,529.5z M902,518.8l0.9-7l3.5,7.1l-0.1,9.6
	L902,518.8z M903.3,509.6l0.8-6l2.5,4.6l-0.1,8L903.3,509.6z M904.4,501.3l0.7-5.3l1.5,2.7l-0.1,6.8L904.4,501.3z M905.4,493.9
	l0.6-4.7l0.7,1.2l-0.1,5.8L905.4,493.9z M906.3,487.2l0.5-4l-0.1,4.8L906.3,487.2z M906.8,427.8l-8.7,13l-0.8-0.9l9.7-13.7
	L906.8,427.8z M907.1,569.3l5.3,15.5c-0.9,0-1.9,0-2.8,0c-0.9,0-1.8,0-2.7,0L907.1,569.3z M907.1,565.6l0.2-15.6l5.2,13.3l0.9,20.4
	L907.1,565.6z M918.3,540.7l-1.2-12.5l5.3,10l2.3,15.7L918.3,540.7z M918.6,556.7l-5.7-13l-0.5-12.4l4.8,9.8L918.6,556.7z
	 M921.7,525.1l5.8,10.2l2.5,12.8l0.3,2.6l-6.9-13L921.7,525.1z M934.2,491.4l4,10.2l-5.8-7.4l-3-8.6L934.2,491.4z M928.8,482.7
	l-0.7-5.2l1.3,1.5l3.3,8.4L928.8,482.7z M939.9,505.8l5,12.8l-7.6-10.2l-3.6-10.4L939.9,505.8z M936.8,494.5l6.5,7.9l5.6,12.9
	l-8.1-10.3L936.8,494.5z M939.7,491l6.9,8l6.3,13l-8.6-10.4L939.7,491z M941.4,498l-6.1-7.5l-3.4-8.6l5,5.8L941.4,498z M930.4,478.2
	l-3.4-8.7l-0.8-6.3l8.9,20.3L930.4,478.2z M927.4,528.2l-1.2-6.1l0.5,0.8L927.4,528.2z M930.2,493.5l1.1,1.4l3.5,10.1l-3.7-5
	L930.2,493.5z M936.2,509.1l4.4,12.7l-7.1-10.1l-1.5-5.2l-0.5-3.8L936.2,509.1z M938.7,512.4l8,10.8l6.4,16.5l-9.9-14.2L938.7,512.4
	z M942.6,509.3l8.5,10.8l7.3,16.6l-10.6-14.3L942.6,509.3z M946.3,506l9,10.9l8.1,16.8l-11.3-14.5L946.3,506z M949.8,502.7l9.6,11.1
	l9,16.9l-12-14.6L949.8,502.7z M947.6,498.1l-23.2-47.9l-0.5-3.4l32.7,61.8L947.6,498.1z M944.4,494.4l-6.5-7.5l-12.3-28.1l-0.6-4.5
	L944.4,494.4z M925.1,510.6l1.2,9.1l-0.8-1.3l-2-10.2L925.1,510.6z M926.8,531.4l-5.6-9.7l-1.5-10.1l4.6,7.5L926.8,531.4z
	 M920.1,522.2l1.8,12.3l-5-9.5l-1-10.1L920.1,522.2z M916.8,537.5l-4.5-9.4l-0.4-10l3.8,7.2L916.8,537.5z M911.7,515.2l-0.4-8.3
	l3,5.3l0.9,9.8L911.7,515.2z M912.3,559.5l-5-12.8l0.1-12.2l4.2,9.6L912.3,559.5z M920.6,564.4l8.5,19.5l0.1,1h-0.6
	c-2,0-4.1,0-6.1,0L920.6,564.4z M920.2,560.3l-1.5-16l6.7,13.8l3.1,20.9L920.2,560.3z M924.2,541.5l6.8,12.8l2.3,17.2l-6.7-13.9
	L924.2,541.5z M933,514.5l3.1,10.5l-2.1-3.2L933,514.5z M934.7,515.6l7.4,10.6l5.6,16.4l-9.2-14L934.7,515.6z M949.4,547.5l7.6,22
	l-12.3-19.9l-4.9-16.7L949.4,547.5z M944.7,529.9l10.4,14.8l8.7,22.2l-13.3-20.2L944.7,529.9z M949.5,527l11.1,15l9.8,22.4
	l-14.3-20.3L949.5,527z M954.2,524.1l11.9,15.2l10.9,22.6l-15.3-20.6L954.2,524.1z M958.7,521.1l12.7,15.4l12.1,22.8l-16.4-20.8
	L958.7,521.1z M963.1,518.2l13.4,15.5l13.2,23l-17.3-21L963.1,518.2z M922.7,437.1l-0.3-2.2l73.5,119.2l-18.4-21.3L922.7,437.1z
	 M973.1,527.7L960.4,513l-36.9-69.8l-0.4-2.7L973.1,527.7z M923.7,499.9l1,7.7l-1.9-2.8l-1.7-8.4L923.7,499.9z M921.7,505.4l2,9.9
	l-4.4-7.1l-1.2-8.4L921.7,505.4z M918.1,508.9l1.4,9.9l-4-7l-0.8-8.3L918.1,508.9z M914.5,500.6l-0.7-7l2.6,3.9l1.2,8.1L914.5,500.6
	z M913.6,490.8l-0.6-6l2,2.8l1,6.9L913.6,490.8z M913,498.2l-2.2-3.6l-0.3-6l1.8,2.8L913,498.2z M913.3,501.1l0.8,8.1l-2.9-5l-0.3-7
	L913.3,501.1z M911,528.6l0.5,12l-4-9.2l0.1-9.9L911,528.6z M907.4,423.4l-10.9,15.5l-0.8-1l12-16.1L907.4,423.4z M895.7,440l-1,1.3
	l-0.9-1l1-1.3L895.7,440z M893.9,442.5l-1,1.4l-0.9-1.1l1-1.3L893.9,442.5z M892.2,444.9l-1,1.4l-0.9-1.2l1-1.3L892.2,444.9z
	 M890.4,447.4l-1,1.4l-0.9-1.3l1-1.3L890.4,447.4z M887.7,446.4l-1-1.4l1-1.2l1,1.3L887.7,446.4z M885.9,443.9l-1-1.4l0.9-1.1l1,1.4
	L885.9,443.9z M884.1,441.3l-1-1.5l0.9-1l1,1.4L884.1,441.3z M882.3,438.8l-11.5-16.4l-0.2-1.5l12.6,16.9L882.3,438.8z M870.8,477.4
	l0.4,3.2l-0.7-2.8L870.8,477.4z M870.7,484l0.8,3.2l-1.6,2.5l-0.7-3.5L870.7,484z M869.4,493.1l0.8,3.8l-1.9,3.2l-0.6-4.2
	L869.4,493.1z M868.2,508.6l-2.4,4.4l-0.5-5.4l2.2-3.8L868.2,508.6z M865.1,505.5l-0.5-4.9l1.9-3.1l0.6,4.3L865.1,505.5z
	 M864.4,498.5L864,494l1.7-2.5l0.6,4L864.4,498.5z M863.8,492l-0.4-4.2l1.4-2l0.6,3.8L863.8,492z M863.6,502.3l0.5,5l-2.4,4
	l-0.2-5.6L863.6,502.3z M861.3,503.5l-0.2-5.1l1.8-2.7l0.4,4.6L861.3,503.5z M861.3,531.8l-3.8,7.5l0.1-8.6l3.3-6.1L861.3,531.8z
	 M861.4,534.4l0.4,8.5l-4.4,9.6l0.1-10.3L861.4,534.4z M861.9,545.7l0.4,10.2l-5.1,12.4l0.1-12.8L861.9,545.7z M862.4,559l0.5,12.7
	l-5,13.9H857l0.2-13.9L862.4,559z M856.9,427.8L749.3,588.5l-3.8-4.4l111.6-157.9L856.9,427.8z M850,585.9l-6.6,0.2h-0.1l12.7-27.7
	l-0.1,13.1L850,585.9z M855.9,574.9l-0.1,10.8l-4.4,0.1L855.9,574.9z M833.8,586.4l-2,0.1l2.8-13.8l3.9-7.1l-2.1,15.7L833.8,586.4z
	 M835.8,585.2l-0.2,1.1h-0.4L835.8,585.2z M763.1,590.2l-4.7,0.3h-0.1v0.2l-0.1-0.2h-0.1l7.2-11.4l21.5-25.4L771,580.4L763.1,590.2z
	 M766.6,588l-1.2,2.1h-0.5L766.6,588z M832.7,548.8l-8.4,13.3l5.1-16.5l6.7-9.9L832.7,548.8z M833.8,549.5l6-9.6l-2.5,12.6
	l-7.6,12.9L833.8,549.5z M837.2,508.5l4-5.1l-2.9,9.4l-5.1,6.8L837.2,508.5z M830.6,523.1l-7.5,10.1l5.7-13.9l5.9-7.6L830.6,523.1z
	 M836.2,507.8l-5.5,7.1l4.7-11.4l4.3-5.3L836.2,507.8z M827.8,518.5l-8.1,10.4l6.5-14.2l6.4-7.9L827.8,518.5z M816.3,533.2
	l-11.9,15.3l9.3-18.5l9.3-11.4L816.3,533.2z M817.3,534.1l8.6-11.1l-5.8,14.3l-11,14.8L817.3,534.1z M821.1,538.1l8-10.7l-5,13.8
	L814,555.5L821.1,538.1z M831.7,523.9l5.4-7.3l-3.4,11l-6.9,9.7L831.7,523.9z M839.4,513.5l3.6-4.9l-2.3,9.1l-4.6,6.6L839.4,513.5z
	 M840.5,509.8l2.8-9.1l2.5-3.2l-2,7.9L840.5,509.8z M842.3,499.9l-3.6,4.7l3.4-9.4l2.7-3.4L842.3,499.9z M843.4,491.4l2.9-8.1l1.7-2
	l-2.2,7.1L843.4,491.4z M841,494.4l-3.9,4.8l3.9-9.6l3-3.5L841,494.4z M834.3,502.6l-5.9,7.3l5.3-11.6l4.6-5.5L834.3,502.6z
	 M825.2,513.8l-8.7,10.7l7.3-14.6l6.9-8.1L825.2,513.8z M812.8,529.1L800,544.9l10.4-18.9l10-11.8L812.8,529.1z M795.5,550.4
	l-19.1,23.4l15.2-25.8l14.6-17.2L795.5,550.4z M796.4,551.3l13.6-16.7l-9.6,19.1l-17.7,22.7L796.4,551.3z M801.4,554.5l12.6-16.1
	l-8.5,18.5l-16.4,22L801.4,554.5z M806.5,557.8l11.6-15.6l-7.3,17.9l-15.1,21.3L806.5,557.8z M811.8,560.9l10.7-15.1l-6.3,17.4
	l-13.8,20.7L811.8,560.9z M825.2,541.9l7.3-10.3l-4.2,13.4l-9.3,13.8L825.2,541.9z M830.7,541.4l4.1-13.1l5-7l-2.8,10.8L830.7,541.4
	z M841.8,518.4l3.3-4.7l-1.8,8.9l-4.2,6.3L841.8,518.4z M842.7,514.9l2.3-8.9l1.8-2.4l-0.8,5.9l-0.2,1.1L842.7,514.9z M845.8,502.7
	l2-7.7l0.1-0.2l-0.8,6.2L845.8,502.7z M846.7,494.2l-2.2,2.9l2.4-7.9l1.6-1.9L846.7,494.2z M847.9,485.9l2.1-6.7l-0.6,4.4l-0.2,0.7
	L847.9,485.9z M849,478.1l-1.4,1.7l3.7-10.4l-0.3,2.2L849,478.1z M845.3,482.6l-2.7,3.1l9.7-23.7l-0.2,1.5L845.3,482.6z M840,488.8
	l-4.2,5l17.4-38.1l-0.2,1.4L840,488.8z M832.7,497.4l-6.4,7.5l27.6-54.8l-0.2,1.3L832.7,497.4z M822.8,509.1l-9.4,11.1l41.2-75.2
	l-0.2,1.3L822.8,509.1z M809.3,525l-13.8,16.2l59.7-101.3l-0.2,1.4L809.3,525z M790.7,547.1l-20.4,24.1l85.6-135.9l-0.2,1.5
	L790.7,547.1z M764.3,578.2l-10.7,12.6l-2.1,0.2l-1.3-1.5l106.3-158.8l-0.2,1.5L764.3,578.2z M759.3,586.3l-2.8,4.4l-1,0.1
	L759.3,586.3z M772,581.4l20-24.6l-14.2,25.9l-5.4,6.9l-5.5,0.4L772,581.4z M778.8,583.6l18.6-23.9l-12.7,25.2l-3.1,4.1l-6,0.4
	L778.8,583.6z M785.7,585.7l17.2-23.1l-11.1,24.3l-1.1,1.5l-6.6,0.4L785.7,585.7z M792.7,587.8l15.8-22.3l-9.2,22.5l-6.8,0.4
	L792.7,587.8z M814.3,568.3l-7,19.3l-6.2,0.3L814.3,568.3z M817.2,564l9.8-14.6l-5.2,16.9l-12.5,19.9L817.2,564z M820.3,571l-5,16.2
	l-5.3,0.2L820.3,571z M822.8,567l8.8-14l-4.2,16.3L817,587.1h-0.4L822.8,567z M826.3,573.7l-3.4,13.1l-4.5,0.2L826.3,573.7z
	 M828.6,569.9l8-13.5l-3.2,15.9l-7.9,14.5h-1.2L828.6,569.9z M832.6,576.4l-2,10.1l-3.6,0.1L832.6,576.4z M835.4,568.6l3.1-15.5
	l2.1-3.6l-1.7,12.6L835.4,568.6z M839.3,549.3l2.5-12.3l0.7-1.1l-1.4,10.4L839.3,549.3z M840.6,536.3l-5.7,9.1l3.3-12.7l4.5-6.8
	L840.6,536.3z M843.4,528.5l-0.6,4.2l-0.4,0.6L843.4,528.5z M843.6,582.6l2.3-17.5l10.3-20.5l-0.1,10.6L843.6,582.6z M846.5,561.3
	l1.8-13.6l8.1-14.8l-0.1,8.8L846.5,561.3z M848.7,544.2l1.5-11l6.3-10.6l-0.1,7.6L848.7,544.2z M850.6,530l1.2-9.1l4.7-7.5l-0.1,6.6
	L850.6,530z M852.3,517.8l1-7.8l3.4-5l-0.1,5.9L852.3,517.8z M853.7,507.1l0.9-6.8l2.1-3l-0.1,5.4L853.7,507.1z M855,497.5l0.8-6
	l1-1.4l-0.1,4.9L855,497.5z M856.2,488.8l0.7-5.5l0,0l-0.1,4.6L856.2,488.8z M750.1,591.1l-1,0.1l0.4-0.7L750.1,591.1z M748.7,589.5
	l-1.2,1.8l-2.9,0.2l-2.3-2.8l2.6-3.7L748.7,589.5z M743.1,591.6l-3.2,0.3l1.6-2.2L743.1,591.6z M738.3,592h-0.6l-3.4-4.3l2.7-3.6
	l3.7,4.5L738.3,592z M736.3,592.2l-5.5,0.5l-0.1-0.1l2.8-3.8L736.3,592.2z M889.2,612.6l9.7,52.3c-6.3-0.5-12.7-0.7-19.2-0.7
	L889.2,612.6z M930.9,584.8l-0.7-1.5l-3.1-21.5l6.7,13.8l1.2,9.3L930.9,584.8z M934.4,524.7l3,4.6l4.8,16.2l-6.4-10.4L934.4,524.7z
	 M943.6,550.2l6.4,21.7l-11.2-19.6l-1.5-6.2l-1.1-7.9L943.6,550.2z M943,574.4l-2.6-4.9l-1.6-12.1L943,574.4z M944.2,579.4l1.4,5.6
	h-3.1l-1.6-11.8L944.2,579.4z M961.9,579.9l3.4,5.4h-1.5L961.9,579.9z M960,574.4l-7.8-22.6l13.9,21l5,12.7l-4.3-0.1L960,574.4z
	 M969.4,577.8l5.1,7.7h-2.1L969.4,577.8z M967.2,572.1l-9-22.9l14.9,21.3l6.7,15.3c-1.2,0-2.5-0.1-3.7-0.1L967.2,572.1z
	 M976.8,575.7l7.1,10.1h-0.2c-0.8,0-1.7-0.1-2.5-0.1L976.8,575.7z M974.2,569.7L964,546.6l16,21.5l8.6,17.8l-3.2-0.1L974.2,569.7z
	 M984.1,573.6l9.3,12.5c-1,0-1.9-0.1-2.9-0.1h-0.4L984.1,573.6z M981.1,567.3L969.8,544l17.1,21.8l10.8,20.4l-2.6-0.1L981.1,567.3z
	 M991.4,571.5l11.7,14.9c-0.6,0-1.2,0-1.8-0.1c-0.7,0-1.4,0-2-0.1L991.4,571.5z M987.9,565l-12.5-23.6l18.2,22l13.3,23.1
	c-0.3,0-0.6,0-0.9,0c-0.4,0-0.8,0-1.2,0L987.9,565z M998.5,569.4l14.4,17.5c-0.7,0-1.4-0.1-2.1-0.1c-0.8,0-1.6-0.1-2.4-0.1
	L998.5,569.4z M994.6,562.6l-13.7-23.8l19.3,22.3l16,25.9c-0.2,0-0.4,0-0.6,0c-0.3,0-0.6,0-0.9,0L994.6,562.6z M1005.5,567.2
	l17.4,20.1c-0.8,0-1.6-0.1-2.4-0.1c-0.9,0-1.8-0.1-2.7-0.1L1005.5,567.2z M922.2,490.2l0.4,1.7l0.7,5.3l-2.7-3.9l-1.4-7.1
	L922.2,490.2z M919.4,493.9l1.6,8.2l-3.4-5.2l-1-7.1L919.4,493.9z M916.2,487l-0.9-6l2.1,2.9l1.4,6.9L916.2,487z M914.9,478.2
	l-0.8-5.3l1.6,2l1.2,5.9L914.9,478.2z M914.6,484.7l-1.8-2.6l-0.5-5.3l1.5,2L914.6,484.7z M912,474.4l-0.4-4.6l1,1.2l0.8,5.1
	L912,474.4z M912.1,488.6l-1.7-2.6l-0.2-5.3l1.3,1.9L912.1,488.6z M910.5,515.7l0.4,9.7l-3.3-6.7l0.1-8.2L910.5,515.7z M894.7,436.9
	l-0.9-1l14.3-18.4l-0.2,1.7L894.7,436.9z M893.9,438l-0.9,1.3l-0.9-1.1l0.9-1.2L893.9,438z M892.2,440.3l-0.9,1.3l-0.9-1.2l0.9-1.2
	L892.2,440.3z M890.4,442.7l-1,1.3l-1-1.3l0.9-1.2L890.4,442.7z M887.7,441.6l-1-1.3l0.9-1.1l1,1.3L887.7,441.6z M885.9,439.2
	l-1-1.4l0.9-1l1,1.3L885.9,439.2z M884.1,436.7l-13.8-18.6l-0.2-1.4l14.9,19L884.1,436.7z M870.1,472.3l0.4,3.3l-0.4,0.6l-0.7-2.9
	L870.1,472.3z M869.5,479.2l0.8,3.1l-1.4,2.1l-0.7-3.4L869.5,479.2z M868.3,487.6l0.7,3.6l-1.7,2.7l-0.6-4L868.3,487.6z
	 M866.4,488.1l-0.5-3.7l1.4-1.9l0.7,3.4L866.4,488.1z M865.6,482.5l-0.5-3.5l1.2-1.6l0.6,3.3L865.6,482.5z M864.8,477.1l-0.5-3.4
	l1-1.2l0.6,3.2L864.8,477.1z M864.6,483.9l-1.4,1.9l-0.4-3.9l1.2-1.6L864.6,483.9z M862.7,480l-0.4-3.7l1-1.2l0.5,3.4L862.7,480z
	 M862.3,489.4l0.4,4.2l-1.7,2.6l-0.2-4.7L862.3,489.4z M860.7,489.4l-0.2-4.3l1.2-1.7l0.4,4L860.7,489.4z M857.5,423.4L744.6,583
	l-3.7-4.2l116.7-157L857.5,423.4z M743.9,584l-2.6,3.7l-3.7-4.5l2.6-3.5L743.9,584z M736.8,582.2l-3.5-4.3l2.5-3.3l3.5,4.1
	L736.8,582.2z M736.1,583.1l-2.7,3.6l-3.5-4.5l2.7-3.4L736.1,583.1z M732.7,587.7l-2.8,3.8l-3.5-4.7l2.8-3.6L732.7,587.7z
	 M725.6,585.7l-3.3-4.5l2.8-3.4l3.4,4.3L725.6,585.7z M721.4,580.1l-3.2-4.3l2.7-3.2l3.2,4.1L721.4,580.1z M720.7,581l-2.9,3.5
	l-3.2-4.5l2.8-3.3L720.7,581z M713.9,578.9l-76.2-108.6l-0.2-1.2l79.2,106.6L713.9,578.9z M713.1,579.8l-2.9,3.5l-72-109.2l-0.2-1.3
	L713.1,579.8z M638.8,527.4l0.2,0.8l0.6,4.8l-2.2-3.1l-1.2-5.9L638.8,527.4z M636.4,530.5l1.3,6.8l-2.8-4.3l-0.9-5.8L636.4,530.5z
	 M633.7,524.6l-0.7-5l1.8,2.4l1.1,5.7L633.7,524.6z M632.7,517.2l-0.6-4.4l1.3,1.6l1,4.9L632.7,517.2z M632.4,522.7l-1.5-2.1
	l-0.4-4.4l1.2,1.6L632.4,522.7z M630.3,514l-0.4-3.9l0.8,1l0.6,4.3L630.3,514z M630.3,525.9l-1.4-2.1l-0.2-4.3l1.1,1.6L630.3,525.9z
	 M629.3,556.9l-2.7-5.6l0.1-6.8l2.3,4.3L629.3,556.9z M629.4,559.7l0.4,10l-3.4-7.7l0.1-8.2L629.4,559.7z M629.9,572.8l0.5,12.8
	l-4.2-10.7l0.1-10.2L629.9,572.8z M626.2,471.1l-9.1,12.9l-0.7-0.8l10-13.4L626.2,471.1z M617.2,485.9l0.6,0.7l-0.8,1.2l-0.6-0.8
	L617.2,485.9z M615.6,486.1l-0.7-0.9l0.8-1.1l0.7,0.8L615.6,486.1z M614.2,484.4l-0.8-0.9l0.8-1l0.7,0.9L614.2,484.4z M613.5,485.3
	l-0.8,1l-0.8-1l0.8-1L613.5,485.3z M612,487.3l-0.8,1.1l-0.8-1.1l0.8-1L612,487.3z M609.7,486.3l-0.8-1.1l0.8-0.9l0.8,1L609.7,486.3
	z M609,487.3l-0.8,1l-0.8-1.2l0.8-0.9L609,487.3z M606.7,486.1l-0.8-1.2l0.7-0.8l0.9,1.1L606.7,486.1z M606.6,482.2l-11.5-15.5
	l-0.1-1.1l12.4,15.8L606.6,482.2z M595.4,516.7l0.2,1.6l-0.3-1.4L595.4,516.7z M595.4,522.1l0.7,2.7l-1.3,2.1l-0.6-2.9L595.4,522.1z
	 M594.2,529.8l0.6,3.2l-1.6,2.7l-0.5-3.5L594.2,529.8z M592.5,530.4l-0.5-3.3l1.3-1.9l0.6,3L592.5,530.4z M591.8,525.5l-0.4-3.1
	l1.1-1.6l0.6,2.8L591.8,525.5z M591.1,520.8l-0.4-2.9l0.9-1.3l0.5,2.7L591.1,520.8z M590.5,516.3l-0.5-2.8l0.8-1l0.5,2.6
	L590.5,516.3z M590.2,522.1l-1.1,1.6l-0.3-3.2l1-1.3L590.2,522.1z M588.6,518.7l-0.3-3l0.8-1l0.4,2.8L588.6,518.7z M588.6,530.2
	l-1.4,2.1l-0.2-3.8l1.2-1.8L588.6,530.2z M587,526.6l-0.2-3.6l1-1.3l0.3,3.3L587,526.6z M587.2,556.4l0.3,6.1l-3.1,6.2l0.1-7.2
	L587.2,556.4z M584.1,471.1l-113,159.8c-0.2,0-0.4,0.1-0.6,0.1c-2.4,0.5-4.8,1.1-7.2,1.6h-0.2l121.1-162.9L584.1,471.1z
	 M583.8,473.6l-0.2,1.2L480.5,628.9c-2.6,0.5-5.1,1.1-7.7,1.7L583.8,473.6z M559.2,551.2l-6.7,8.6l5.4-11.8l5.3-6.5L559.2,551.2z
	 M565.6,538.5l3.5-4.3l-2.9,8l-4.5,5.8L565.6,538.5z M560.1,551.9l4.9-6.2l-3.4,9.5l-6.2,8.3L560.1,551.9z M567.2,542.8l3.3-4.2
	l-2.4,7.8l-4.2,5.6L567.2,542.8z M572.3,536.2l2.1-2.7l-1.7,6.6l-2.7,3.7L572.3,536.2z M571.4,535.5l-3,3.8l2.8-7.7l2.2-2.8
	L571.4,535.5z M572.4,528.3l2.4-6.7l1.4-1.6l-1.8,5.9L572.4,528.3z M570.3,530.9l-3.2,3.9l3.3-8l2.4-2.9L570.3,530.9z M564.7,537.8
	l-4.9,6l4.4-9.7l3.8-4.5L564.7,537.8z M557,547.3l-7.2,8.9l6.1-12.1l5.7-6.7L557,547.3z M546.5,560.2l-10.7,13.1l8.6-15.8l8.3-9.8
	L546.5,560.2z M547.3,561l7.7-9.5l-5.6,12.2l-9.9,12.7L547.3,561z M550.4,564.4l7.2-9.2l-4.9,11.9l-9.2,12.4L550.4,564.4z
	 M553.6,567.7l6.6-8.9l-4.2,11.5l-8.4,11.9L553.6,567.7z M557,571l6.1-8.6l-3.5,11.2l-7.7,11.5L557,571z M558.5,567l4-11.2l4.5-6.1
	l-2.9,9.2L558.5,567z M569,547l3-4l-1.9,7.6l-3.8,5.4L569,547z M573.7,540.7l1.4-1.8l-0.8,5.7l-2.5,3.5L573.7,540.7z M574.5,537.8
	l1.6-6.3l-0.7,5.1L574.5,537.8z M575.1,530.7l-1.8,2.3l2-6.5l1.3-1.6L575.1,530.7z M576.2,523.6l1.6-5l-0.5,3.7v0.1L576.2,523.6z
	 M577.1,517.2l-1.1,1.3l2.9-8.2l-0.2,1.7L577.1,517.2z M573.9,520.9l-2.1,2.5l8-19.4l-0.1,1.1L573.9,520.9z M569.5,526.2l-3.5,4.1
	l14.5-31.6l-0.1,1L569.5,526.2z M563.3,533.4l-5.2,6.2l23-45.7l-0.1,1L563.3,533.4z M555,543.2l-7.8,9.2l34.5-63l-0.1,1L555,543.2z
	 M543.6,556.7l-11.4,13.5l50.1-85l-0.1,1.1L543.6,556.7z M527.9,575.3l-17,20.1l71.9-114.1l-0.2,1.1L527.9,575.3z M528.7,576.1
	l12.1-14.3l-8.9,16.3L516,597.6L528.7,576.1z M532.8,578.9l11.3-13.9l-8,15.9l-14.8,19L532.8,578.9z M536.9,581.6l10.5-13.5
	l-7.1,15.4l-13.7,18.4L536.9,581.6z M541.2,584.3l9.7-13.1l-6.1,14.9l-12.6,17.8L541.2,584.3z M545.7,586.9l8.9-12.6l-5.2,14.5
	L537.9,606L545.7,586.9z M550.3,589.6l8.2-12.2l-4.4,14.1l-10.5,16.6L550.3,589.6z M555,592.1l7.4-11.7l-3.5,13.7l-9.4,16L555,592.1
	z M559.9,594.6l6.6-11.3l-2.7,13.2l-8.4,15.5L559.9,594.6z M560.9,590.6l3.4-13.3l5-8l-2.1,10.5L560.9,590.6z M563.3,576.8l-7,11.1
	l4.2-13.7l5.5-8.3L563.3,576.8z M561.8,570.4l3.4-10.9l4.1-5.8l-2.3,8.9L561.8,570.4z M571,551.2l2.7-3.9l-1.5,7.4l-3.5,5.2
	L571,551.2z M574.6,590.4l8.6-17l-0.1,8.8l-10.4,22.7L574.6,590.4z M575.1,587l1.5-11.3l6.7-12.2l-0.1,7.4L575.1,587z M577,572.6
	l1.2-9.1l5.2-8.8l-0.1,6.3L577,572.6z M578.6,560.6l1-7.6l3.9-6.1l-0.1,5.5L578.6,560.6z M580,550.4l0.9-6.5l2.7-4l-0.1,4.9
	L580,550.4z M581.2,541.4l0.8-5.6l1.7-2.4v4.4L581.2,541.4z M582.2,533.3l0.7-5l0.7-1v4.1L582.2,533.3z M583.2,526l0.5-3.6v3
	L583.2,526z M583.3,477.4l-0.2,1.2l-77.5,123L483,628.4c-0.3,0.1-0.6,0.1-0.9,0.2L583.3,477.4z M501.2,608.6L489.6,627
	c-1.6,0.3-3.2,0.7-4.8,1L501.2,608.6z M506.5,602.4l18-21.2l-13.2,22.3l-18.6,22.9l-1.5,0.3L506.5,602.4z M507.4,610.1l-8.9,15.1
	l-0.4,0.1c-1.2,0.2-2.4,0.5-3.6,0.7L507.4,610.1z M512.1,604.3l16.7-20.6L517,605.3l-14.9,19.2c-0.4,0.1-0.8,0.2-1.2,0.3
	c-0.3,0.1-0.6,0.1-0.9,0.2L512.1,604.3z M513.6,611.6l-6.5,11.9c-0.6,0.1-1.2,0.2-1.7,0.3s-1,0.2-1.5,0.3L513.6,611.6z M517.9,606.1
	l15.5-19.9l-10.6,21l-11.5,15.5c-0.9,0.2-1.9,0.4-2.8,0.5L517.9,606.1z M519.8,613.1l-4.4,8.8l-2.5,0.5L519.8,613.1z M523.7,607.9
	l14.4-19.3l-9.3,20.3l-8.5,12l-3.3,0.6h-0.1L523.7,607.9z M526.2,614.6l-2.7,5.8l-1.7,0.3L526.2,614.6z M535.7,611.3l12-18
	l-6.9,19.1l-3.4,5.3l-4.8,0.9L535.7,611.3z M541.8,613.1l11-17.4l-5.7,18.5l-1.3,2.2c-0.9,0.2-1.8,0.3-2.7,0.5s-1.8,0.3-2.8,0.5
	L541.8,613.1z M548,614.8l9.9-16.8l-4.4,17.1l-5.9,1L548,614.8z M563.2,600.2l-2.7,13.6c-0.9,0.1-1.7,0.3-2.6,0.4
	c-0.9,0.1-1.7,0.3-2.6,0.4L563.2,600.2z M565.7,593.3l2.6-12.9l1.6-2.8l-1.4,10.5L565.7,593.3z M568.9,577.1l2.1-10.3l0.5-0.7
	l-1.2,8.7L568.9,577.1z M570,566.3l-4.7,7.5l2.7-10.6l3.8-5.6L570,566.3z M572.1,561.3l-0.3,2l-0.2,0.3L572.1,561.3z M572.1,608.7
	l10.9-23.8l-0.1,11l-6.3,15.4c-0.9,0.1-1.8,0.3-2.7,0.4l-2,0.3l-0.1-0.6L572.1,608.7z M582.9,598.9l-0.1,11.4
	c-1.3,0.2-2.6,0.4-4,0.6l-0.9,0.1L582.9,598.9z M606,622.8l-11.4,61.6c-3.4-0.4-6.6-1.1-9.7-1.8l-10.2-55.5
	C585.8,625.5,596.1,624.1,606,622.8z M601.1,684.5l9.9-53.4l9.8,53.3c-0.4,0-0.7,0.1-1.1,0.1L601.1,684.5L601.1,684.5z
	 M1046.8,576.5L919.6,414.2l-0.2-1.3l127.4,154.6V576.5z M1046.8,578.6v10L920.1,418.1l-0.2-1.4L1046.8,578.6z M920.2,474.4l0.7,5.1
	l-0.2-0.2l-1.5-6.1L920.2,474.4z M919.6,480l1.7,6.9l-2.8-3.8l-1.2-6.1L919.6,480z M916.8,474.3l-1-5.3l1.7,2l1.5,5.9L916.8,474.3z
	 M915.2,466.3l-0.9-4.7l1.1,1.3l1.3,5.2L915.2,466.3z M915.1,472.1l-1.4-1.8l-0.7-4.6l1.1,1.3L915.1,472.1z M912.7,463.2l-0.6-4.2
	l0.6,0.7l0.9,4.5L912.7,463.2z M912.2,468.4l-0.8-1.1l-0.4-4.2l0.6,0.7L912.2,468.4z M911.3,480.1l-1.2-1.7l-0.2-4.6l0.9,1.2
	L911.3,480.1z M910,504.6l0.3,8l-2.6-4.9l0.1-6.9L910,504.6z M907.9,498.3l0.1-6l1.7,2.7l0.3,6.8L907.9,498.3z M908,489.9l0.1-5.2
	l1.2,1.9l0.2,5.8L908,489.9z M908,482.4l0.1-4.6l0.8,1.2l0.2,5.1L908,482.4z M908.1,475.5v-2.4l0.2-1.5l0.3,0.4l0.2,4.5L908.1,475.5
	z M908.5,414.9l-15.6,20l-1-1.1l16.8-20.6L908.5,414.9z M892.1,435.9l-0.9,1.2l-1-1.2l0.9-1.1L892.1,435.9z M890.4,438.2l-0.9,1.2
	l-1-1.3l0.9-1.1L890.4,438.2z M887.6,437l-1-1.3l0.9-1.1l1,1.2L887.6,437z M885.8,434.7l-16.1-20.5l-0.2-1.3l17.1,20.8L885.8,434.7z
	 M869.6,468.7l0.2,1.7l-0.9,1.2l-0.7-2.9l1-1.2L869.6,468.7z M868.4,474.5l0.7,3l-1.2,1.7l-0.6-3.2L868.4,474.5z M866.9,474.3
	l-0.6-3.1l1-1.2l0.7,2.9L866.9,474.3z M865,464.8l-0.6-2.9l0.6-0.7l0.7,2.7L865,464.8z M865,470.8l-0.9,1.1l-0.5-3.2l0.8-0.9
	L865,470.8z M863.3,466.9l-0.5-3.1l0.6-0.7l0.6,2.9L863.3,466.9z M863,473.3l-0.9,1.1l-0.3-3.5l0.7-0.9L863,473.3z M861.6,469
	l-0.3-3.4l0.5-0.6l0.5,3.2L861.6,469z M861.6,481.5l-1.1,1.5l-0.2-4.1l1-1.2L861.6,481.5z M860.2,476.9l-0.2-3.8l0.7-0.8l0.3,3.6
	L860.2,476.9z M860.2,505.3l-2.3,3.6l0.1-5.8l2-3L860.2,505.3z M858,500.8l0.1-5.3l1.6-2.3l0.2,4.7L858,500.8z M740.1,577.8
	l-3.5-4.1l121.7-156.3l-0.2,1.7L740.1,577.8z M858.7,470.1l0.1,2.4l-0.5,0.6L858.7,470.1z M858.2,481.7l0.9-1.2l0.2,4.1l-1.2,1.6
	L858.2,481.7z M858.2,479.5v-4.2l0.6-0.8l0.2,3.9L858.2,479.5z M858.6,414.9L735.7,572.7l-3.4-3.9l126.5-155.6L858.6,414.9z
	 M735,573.6l-2.5,3.2l-3.4-4.1l2.5-3.1L735,573.6z M731.7,577.8l-2.6,3.4l-3.4-4.3l2.6-3.2L731.7,577.8z M724.9,575.8l-3.2-4.1
	l2.6-3l3.3,4L724.9,575.8z M720.8,570.7l-84.1-107.3l-0.1-1l86.8,105.3L720.8,570.7z M720.1,571.6l-2.7,3.2l-80.3-108l-0.1-1.1
	L720.1,571.6z M637.1,514l0.6,4.2l0,0l-1.2-5L637.1,514z M636.6,518.8l1.4,5.7l-2.3-3.1l-1-5L636.6,518.8z M634.3,513.9l-0.9-4.4
	l1.3,1.6l1.2,4.9L634.3,513.9z M633,507.2l-0.8-3.9l0.9,1l1.1,4.3L633,507.2z M632.8,512l-1.1-1.4l-0.6-3.8l0.8,1L632.8,512z
	 M630.8,504.5l-0.5-3.4l0.5,0.5l0.7,3.8L630.8,504.5z M630.3,508.9l-0.7-0.8l-0.3-3.4l0.4,0.5L630.3,508.9z M629.6,518.8l-1-1.4
	l-0.2-3.8l0.7,1L629.6,518.8z M628.5,539.5l0.3,6.7l-2.1-4.1l0.1-5.8L628.5,539.5z M626.7,534.2l0.1-4.9l1.4,2.2l0.2,5.6
	L626.7,534.2z M626.7,467.5l-11.1,14.9l-0.7-0.8l12-15.4L626.7,467.5z M613.4,481.6l-0.8,1l-0.8-1l0.8-0.9L613.4,481.6z
	 M611.9,483.5l-0.8,1l-0.8-1l0.8-0.9L611.9,483.5z M609.7,482.5l-0.8-1.1l0.7-0.8l0.8,1L609.7,482.5z M608.9,483.4l-0.7,0.9
	l-0.8-1.1l0.7-0.9L608.9,483.4z M608.1,480.5l-13.5-17.2l-0.1-1l14.3,17.3L608.1,480.5z M594.8,512.3l0.4,2.7l-0.3,0.4l-0.6-2.4
	L594.8,512.3z M594.4,518.1l0.6,2.6l-1.2,1.7l-0.5-2.8L594.4,518.1z M593,518.1l-0.5-2.6l0.9-1.3l0.6,2.5L593,518.1z M592.2,513.9
	l-0.5-2.6l0.8-1l0.6,2.4L592.2,513.9z M590.6,505.9l-0.5-2.4l0.5-0.6l0.6,2.3L590.6,505.9z M590.5,511l-0.7,0.9l-0.4-2.7l0.6-0.7
	L590.5,511z M589.2,507.7l-0.4-2.6l0.4-0.5l0.5,2.4L589.2,507.7z M588.9,513.1l-0.7,0.9l-0.3-2.9l0.6-0.7L588.9,513.1z M587.8,509.4
	l-0.3-2.8l0.4-0.5l0.4,2.6L587.8,509.4z M587.7,520l-0.9,1.2l-0.1-3.4l0.8-1L587.7,520z M586.5,516.1l-0.1-3.2l0.5-0.7l0.3,2.9
	L586.5,516.1z M586.5,540.1l-1.9,3l0.1-4.8l1.6-2.5L586.5,540.1z M461.5,633.1c-1.1,0.3-2.3,0.5-3.4,0.8v-5l126.7-162.7l-0.2,1.3
	L461.5,633.1z M584.8,520.1l0.7-1l0.1,3.4l-0.9,1.2L584.8,520.1z M584.9,518.3v-3.5l0.5-0.6l0.1,3.2L584.9,518.3z M585,512.8
	l0.2-1.8l0.1,1.4L585,512.8z M585.1,463.9L458.1,627v-8l127.2-156.4L585.1,463.9z M568.3,628l9.7,52.8c-18-5.1-35-12.8-65.5-13.2
	c-25.9-0.3-43.4,3.5-54.5,7.4v-28.2C482.8,642,520.8,635,568.3,628z M1460.3,203.3h22.6v8.4h-22.6V203.3z M1370.5,196h82.1v45.8
	h-82.1V196z M1340.3,203.3h22.6v8.4h-22.6V203.3z M1046.8,557.3v8.1l-127.7-155l-0.2-1.2L1046.8,557.3z M919,467l0.5,1.7l0.4,3.2
	l-1.4-1.7l-1.3-5.3L919,467z M913.8,431.1l0.9,2l0.2,1.3l-1.2-2.7L913.8,431.1z M913.4,434.1l2.1,4.8l0.2,1.8l-2.4-6.2L913.4,434.1z
	 M913,437.1l3.5,8.9l0.4,3l-3.9-11.4V437.1z M912.5,440.3l5.2,14.9l0.7,5.4l-5.9-20V440.3z M912.1,443.7l6,20.2l-1.6-1.8L912,444
	L912.1,443.7z M911.6,447.4l3.1,12.7l-0.9-1.1l-2.2-11.3L911.6,447.4z M911,451.5l1.1,5.6l-0.4-0.5l-0.7-4.8L911,451.5z
	 M910.5,457.2l0.6,4.1l-0.4-0.5l-0.4-3.8L910.5,457.2z M910.6,472.5l-0.8-1l-0.2-4.2l0.5,0.7L910.6,472.5z M909.6,462.1l0.3,3.4
	l-0.4-0.5l-0.1-1.9L909.6,462.1z M909.3,408.9l-0.2,1.7l-18,22.1l-1-1.2L909.3,408.9z M889.3,432.6l1,1.2l-0.9,1.1l-1-1.2
	L889.3,432.6z M888.4,431.6l-0.9,1l-18.3-22.2l-0.2-1.2L888.4,431.6z M868.8,465.9l-0.9,1.2l-0.7-2.8l0.8-1L868.8,465.9z
	 M868.5,460.6L868.5,460.6l-0.8-2.5l0.4-0.4L868.5,460.6z M863.9,431.1l0.9,1.9l0.2,1.3l-1.2-2.7L863.9,431.1z M863.5,434.1l2.1,4.8
	l0.2,1.9l-2.4-6.2L863.5,434.1z M863.1,437.1l3.5,8.9l0.4,3l-3.9-11.4V437.1z M862.7,440.3l5.1,14.9l0.1,0.6l-0.6,0.7l-4.7-15.8
	L862.7,440.3z M862.2,443.7l4.1,13.9l-0.6,0.7l-3.6-14.4L862.2,443.7z M861.7,447.4l3,12.2l-0.6,0.7l-2.5-12.6L861.7,447.4z
	 M861.2,451.5l2,10l-0.5,0.6l-1.5-10.3V451.5z M860.5,456.2l1,7.1l-0.4,0.5l-0.7-7.1L860.5,456.2z M860.5,470.4l-0.6,0.7l-0.2-3.6
	l0.4-0.5L860.5,470.4z M859.7,462.1l0.3,3l-0.3,0.4l-0.1-2.4L859.7,462.1z M858,493.2l0.1-4.8l1.3-1.7l0.2,4.4L858,493.2z
	 M859.4,408.9l-0.2,1.8L731.5,567.8l-3.3-3.8L859.4,408.9z M727.4,564.9l3.3,3.8l-2.5,3l-3.2-3.9L727.4,564.9z M726.6,563.9
	l-2.4,2.9l-87.8-106.6l-0.1-1L726.6,563.9z M636.1,507.8l0.3,1l0.4,3l-1-1.3l-1.1-4.4L636.1,507.8z M631.8,477.7l0.6,1.3l0.1,0.9
	l-0.8-1.8L631.8,477.7z M631.4,480.2l1.6,3.7l0.2,1.4l-1.8-4.7V480.2z M631.1,482.8l2.8,7l0.3,2.2l-3.1-9V482.8z M630.7,485.5
	l4.1,12.1l0.6,4.2l-4.7-16L630.7,485.5z M630.3,488.4l5,16.7l-1.2-1.4l-3.7-15.1L630.3,488.4z M629.9,491.6l2.5,10.3l-0.7-0.8
	l-1.8-9.3V491.6z M629.4,495l0.8,4.3l-0.3-0.4L629.4,495L629.4,495z M629,499.6l0.5,3.3l-0.3-0.4l-0.3-3.1L629,499.6z M629,512.3
	l-0.6-0.8l-0.1-3.4l0.4,0.5L629,512.3z M628.2,504.1l0.2,2.3l-0.3-0.3l-0.1-1.2L628.2,504.1z M628.1,529.1l-1.2-2v-4.3l1,1.5
	L628.1,529.1z M627.8,458.9l-0.2,1.4l-15,18.5l-0.8-1L627.8,458.9z M611,478.8l0.8,1l-0.7,0.9l-0.8-1L611,478.8z M610.3,477.9
	l-0.7,0.8l-15.3-18.6l-0.1-1L610.3,477.9z M594.1,508.2l0.2,0.6l0.2,1.9l-0.6,0.9l-0.6-2.4L594.1,508.2z M593,507.8l-0.6-2.3
	l0.7-0.8l0.6,2.2L593,507.8z M593.1,500l0.2,1.8l-0.5-1.6L593.1,500z M589.7,477.7l0.6,1.3l0.1,0.9l-0.8-1.8L589.7,477.7z
	 M589.4,480.2l1.6,3.7l0.2,1.4l-1.8-4.7V480.2z M589,482.8l2.8,7l0.3,2.2l-3.1-9V482.8z M588.7,485.5l4.2,12.1l0.1,0.9l-0.4,0.5
	l-3.9-13.2L588.7,485.5z M588.3,488.4l3.4,11.5l-0.5,0.6l-2.9-11.9V488.4z M587.8,491.6l2.5,10l-0.4,0.5L587.8,491.6L587.8,491.6z
	 M587.4,495l1.6,8.1l-0.4,0.4L587.4,495L587.4,495z M586.8,499.1l0.8,5.6l-0.3,0.4l-0.5-5.6V499.1z M586.8,510.6l-0.5,0.6l-0.1-3
	l0.3-0.4L586.8,510.6z M586.2,504.1l0.2,2.1l-0.2,0.3l-0.1-1.6L586.2,504.1z M586.2,533.9l-1.6,2.3v-4.4l1.3-1.9L586.2,533.9z
	 M586,528.1l-1.2,1.7v-4l1-1.4L586,528.1z M585.8,459l-0.2,1.4L458.1,617.2v-7.3L585.8,459z"/>
</svg>
