<?xml version="1.0" encoding="utf-8"?>
<!-- Generator: Adobe Illustrator 24.2.3, SVG Export Plug-In . SVG Version: 6.00 Build 0)  -->
<svg version="1.1" id="Ebene_1" xmlns="http://www.w3.org/2000/svg" xmlns:xlink="http://www.w3.org/1999/xlink" x="0px" y="0px"
	 viewBox="0 0 1000 300" style="enable-background:new 0 0 1000 300;" xml:space="preserve">
<style type="text/css">
	.st0{fill:#B6D3FB;}
	.st1{fill:#FFFFFF;}
</style>
<path class="st0" d="M750.9,255.2v-26.3h2.4h26.3h1.2h47.7v-10.8h-47.7h-1.2h-26.3h-2.4v-3.6h134.8v3.6h-2.4h-27.4v34.7h27.4h2.4
	v2.4h-40.6h-78.8v1.2h78.8v3.6h107.4h4.8v-4.8h-4.8v-15.5c0-0.7-0.5-1.2-1.2-1.2c-0.7,0-1.2,0.5-1.2,1.2v1.2h-40.8
	c-0.7-1.1-1.9-1.9-2.6-3.1c1.1,1.3,1.4-0.4,3.2,0c0.4,1,2.3,1.7,3.2,1c0.1-1.8-1.4-2-2.3-2.9c1.1,0,1.4,0.6,1.9-0.4
	c-0.6-1.1-2.1-1.3-3.2-1.9c0.5,0,0.7-0.1,1-0.4c1.3-0.2,1.3,0.8,2.6,0.6c-0.4-2.5,2.5-0.6,3.9-1v-1.6c-1.2-0.7-2,0.1-2.6-1
	c1.3-0.1,1.4-0.6,0.6-1.3c0.5,0.1,0.6,0.5,1.3,0.4c0.7-1,2.1-3,0.4-2.9c0.8-0.4,1.3-1.1,1.3-2.3c-2.5-0.1-4.1,2.6-6.4,3.6
	c0.8-1.2,1.9-2.2,2.3-3.9c-2.7,0.7-3.7,3.5-5.1,5.5c-0.7-0.8-3.2,1.1-3.6,0.6c0-0.7,0.6-1,0.4-1.9c-1.6-0.6-2.1,2.4-3.6,2.9
	c-0.5-0.8-1,0.6-1.3-0.4c1.4-0.4,3.9-2.5,2.3-3.9c-1.3,1-2.6,2-3.6,3.2v-1.3c-1.3,1.1-2.6-0.2-3.6-1.3c1.7-0.4,1.9-2.2,4.2-1.9
	c0.6-1.1-1.2-1.3-0.4-1.7c2.4,1.3,2.3,1.7,5.9,1.7c-1.2-1.8,0.1-2.2-1-3.9c1.2,1.1,2.1,1.3,4.9,1.3c0-1.9-1.7-2-2.9-2.6
	c1.6,0.2,0.8-1,2.6-1c0.8,1.1,1.9,2,3.9,1.9c0.5-1.8-1.7-1-1.7-2.3c1.9,0,3.2,0.6,4.9,0c0.4-1.3-1-0.8-1-1.7c1.9-0.2,1.8,0,3.6-0.6
	c-0.6-2.6-3.9-1.6-5.1-1.3c0-0.7,0.6-1,0.4-1.9c-1.7-0.4-1,1.7-2.3,1.7c0-0.4-0.4-0.5-0.4-1c1.3-0.4,2-1.3,2.3-2.6
	c-3,0.6-3.7,2-5.5,3.2c0.4-1.8,1-2.2,1-3.9c-1.8,0.5-1.8,2.8-3.2,3.9c-1.2,0.8-3,1.2-4.2,1.3c-0.4-1.1,1-0.5,1.7-0.6
	c0.4-1.9-1.7-1.3-2.3-2.3c2.4-0.2,4.5-0.7,6.4-1.3c-0.5-2.3-4.1,0-4.5-1c2.2-1.9,3.5-2.8,4.9-5.5c-2.5,0-3.2,1.8-4.9,2.6
	c0.1-0.5,0.5-0.6,0.4-1.3c-1.7,0.4-2.3,1.6-3.6,2.3c0-2-1.2-2.9-2.6-3.6c1.9-0.1,3.6-0.5,3.9-2.3c1.1-0.1,2.6,0.2,3.2-0.4
	c0.4-1.2-1.1-0.6-1.3-1.3c1.3-0.1,2.4-2.2,0.6-2.6c1.3-0.6,2.1-1.8,2.3-3.6c-3.1,0.5-3.8,3.2-5.5,3.9c0.6-0.8,0.5-3.1-1-2.9
	c-0.7,4.2-4.5,5.4-6.2,8.7c0.1-1.2,0.8-1.2,0.4-2.3c-1-0.1-1.9,1.3-2.3,0.6c1.2-1.6,2.5-3.1,4.5-3.9c0.4-1.2-1.2-0.5-1-1.7
	c1.2,0.1,1.7-0.2,1.9-1c-1-1.1-3.2,0.5-3.6,0c0.4-0.8,1.1-2.3,0.4-3.2c-1.7,0.2-1.7,2-2.3,3.2c-0.7-1-1.9-3.6-3.2-1.9
	c0.1,0.4,1.2,1.6,0.6,1.7c-0.6-0.1-0.8-0.7-1.7-0.6c-0.4,1.2,0.8,1,0.6,1.9c-1.6-0.2-2.3,1.9-2.9,1.3c0.7-0.5,0.5-1.9,1-2.6
	c-0.8,0.1-1.1-0.5-1-1.3c1.9-2.4,6.6-1.8,6.8-5.9c1.2-0.7,3.5-0.5,3.6-2.3c-1.6,0.1-2,0.4-3.6,1c0.7-1.7,2.4-2.3,2.9-4.2
	c-0.8-0.5-1.3,1-1.7,0c0.6-0.8,1.3-1.4,1.3-2.9c-2.4,0.4-2.6,1.8-3.6,2.9c0.1-0.8-0.1-1.4-1-1.3c-0.1,0.2-0.2,0.4-0.6,0.4
	c0.1,1.6-0.5,2.4-1,3.2c-0.2-1.6,1.8-3.9,0-4.9c-1.1,0.7-0.5,3.1-1.7,3.9c0-0.7,0.6-1,0.4-1.9c-1.2-0.4-2.3,1.2-2.6,0.6
	c1-0.7,1.8-1.4,2.3-2.6c-0.2-0.6-1.6,0-1.7-0.6c1.3-1.3,0.8-2.8,1.9-4.5c-1.2-0.2-1.2,0.7-2.3,0.6c0.6-1.2,2.3-1.4,2.3-3.2
	c-1-0.5-1.8,1-2.3,0c0.7-1.7,1-2.8,0-4.2c-0.5,0.7-1.1,1.3-1.7,1.9c0-2-0.4-3.7-1.7-4.5c-1.1,2.2-0.4,5.5-1.3,7.2
	c-0.1-1.4-2-1.3-2.9-1c0.1,3.7,3.8,3,3.2,5.1c-0.2-0.5-1.3-1.7-1.9-0.6c0.7,1.7,1.3,5.5,1.7,7.2c-1.9-0.6-1.9-3.1-4.2-3.2
	c0,1.3-0.2,2-1,3.2c1.1,0.2,1.9,0.7,2.6,1.3c-1.2,0-2.4,0-2.9,0.6c0.4,1.1,2.3,0.6,2.6,1.7c-1.1-0.4-0.8,0.5-1.3,0.6
	c-1-2.2-3.1-3.1-3.9-5.5c-1,0-1.8-0.7-2.6,0c0,1,0.7,1.3,1,1.9c-0.1,0.1-1.4-1-1.6-0.8c-0.7,0.5,0.2,1,0.2,1.8
	c0.5,1.2,1.6,1.9,2.6,2.6c-1.3,0-2.1,0.4-1.9,1.9c3-0.4,4.5,0.6,6.2,1.7c-1.3-0.1-0.8,1.4-1.7,1.9c-0.8-0.6-1.6-1.2-2.9-1.3
	c0.1,2.2,2,2.5,2.9,3.9c-1.1-0.4-0.7,0-1.9,0c0,1.6,1.9,1.4,2.6,2.3c-0.1,0.5,0.4,1.7-0.4,1.7c-0.8-0.8-2-2.6-3.6-1.7
	c0.5,2.3,1.7,1.7,2.6,3.6c-0.7-0.4-0.8,0.1-1.7-0.6c-0.4,0.5-0.4,1.2-1,1.3c-1.8-1-2-3.5-3.9-4.2c-1,1.4,0.5,2.6,1,3.6
	c-2.9-1.4-4.1-4.7-7.2-5.9c0.2,2,2,2.5,2.9,3.9c-1.9-1.1-3.7-2.3-6.2-2.9c-0.7,0.7,0.6,1.3,1,1.9c-0.1,0.6-1.3,0.2-1,1.3
	c1.4,1.2,2.1,1,3.6,1.9c-1,0.5-2.1,0.6-2.3,1.9c1.2,1.1,3.3-1.1,3.9-0.6c-0.4,1.4-1.3,1.8-1.9,3.6c1.6,0.6,3.1-1.3,4.2-2.3
	c0.1,0.8-0.6,0.7-0.4,1.7c1.3-0.5,0.5,0.2,1.9,0.6c-0.4,0.7-1.7,0.6-1.7,1.7c0,0.1,0.1,0.1,0.1,0.2h-3.2c-0.5-0.5-0.8-1-1.6-1.2
	c-0.2,0.4-0.2,0.8-0.2,1.2h-0.6c-0.7-1-1.4-2-2.4-2.9c-0.5,0.2,0,1.2-0.6,1.3c-0.6-1-1.7-1.7-3.2-1.7c0,2,2.4,1.8,3.2,2.9
	c-0.8,0-1.1,0-1.1,0.2H854c-1-0.5-2-0.8-3.1-0.2c0,0.1,0.1,0.1,0.2,0.2h-82.2c-1.4-2.3-5.4-4.7-5.3-4.2
	c-0.4-1.8-10.5-12.1-14.1-10.9c-0.5,0.1-1.1,0-1.4-0.4c-1.3-1.6-4.8-3.3-6.7-3.7c-0.5-0.1-1-0.6-1-1.1c-0.2-2.5-5.3-0.7-6.3-0.5
	c-3.3,0.7-3.8,1-6.7-1.1c-2.9-1.9-2.7-2.6-6.2-2.2c-2.3,0.4-4.4,0.8-4.9,3c-0.1,0.7-0.8,1.2-1.6,1.1c-2.9-0.6-5.5,0.8-7.9,0
	c-0.7-0.2-1.8-1.9-2.9-2.4c-1.8-0.8-2.3-0.2-3.6-0.4c-3.8-0.6-6.9-1.4-9.2,2.8c-0.8,1.4-0.2,3.2-0.7,4.4c0.2,0.7,0.5,1.6,0.5,2.4
	v2.6c0,4.5,3.7,8.3,8.2,8.3c2.3,0,4.1,1.9,4.1,4.2c0,1.9-1.2,3.5-2.9,3.9h2.3v0.5v3.1h-1.2v3.6v3.6v3.6v3.6v3.6v3.6v3.6v1.6
	c0.1,0,0.2,0,0.4,0c0.5-0.1,1,0,1.3,0.4c0.8,1.1,2,2.3,2.1,2.4c1.7,0.5,1.6-1.7,3.2-0.6c0.8,0.5,1,5.7,1.1,8.9
	c0,1.1-1.1,1.7-1.9,1.2c-1.8-1.1-3.5-2.5-5.1-4.2v1.4c2.4,2.3,4.5,4.5,5.5,7.8c1.8,5.5,0.7,12.8,0,18.4c-0.2,2.2,0.5,8.4,0.5,8.4
	l-1.9,8.4h0.1c0.7,0,7,0,10,0h1.7c-0.1-2.5-1-16.9-1.2-18.5c-0.5-2.9-1.6-6.7-0.8-9.6c1.4-5.4,9.1-12.6,14.7-13.4
	c0.7-0.1,8.1,3.5,9.2,1.8c0.2-0.4,0.7-0.7,1.2-0.6c2.1,0.2,1.7-2,3.8-2.5c0.1,0,5.3,2.2,6.3,2c0.2,0,10.3,1.1,10.5,1.2
	c1.2,0.7,2.9,1.1,4.3,1.1v-4.7H750.9z M799.8,219.3h27.4v8.4h-27.4V219.3z M754.4,219.3h28.6v8.4h-28.6V219.3z M713.9,254
	c0,0.1-0.1,2.6-0.6,2.5c-1.4-0.2-2.3-4.9-2.6-7.7c-0.1-0.7,0.5-1.4,1.2-1.6c0.2,0,0.6,0,0.8-0.1c0.7-0.2,1.6,0.4,1.7,1.1
	C714.5,250,714.2,251.8,713.9,254z M725.7,239c-0.4,0.4,2.1,0,1.9,0.1c-0.4,1.4-0.7,2.6-2.4,3.3C722.2,243.8,725.8,238.8,725.7,239z
	 M718.6,255.3c-1.3,0.8-1.6-6.1-1.4-6.8c0.5-2.6,1.7-2.9,2-4.8c0.1-0.5,0.6-0.8,1.1-1c0.1,0,0.1,0,0.2,0c1-0.2,1.8,0.6,1.7,1.6
	c-0.5,3.2-1.4,6-2.7,9.2C719.2,254.2,719,254.8,718.6,255.3z M730.5,254c-0.1,0.2-0.2,0.6-0.2,0.8c0,0.6-0.4,1.1-0.8,1.3
	c-0.8,0.2-1.7,0.6-2.5,1.1c-1.3,0.6-2.6,1.3-3.9,2c-1.1,0.6-2.3-0.4-1.9-1.4c1-3.3,1.4-6.8,3-9.8c0.6-1.2,3.1-5.4,4.7-5.5
	c1.9-0.1,0.8,1,1.6,1.8c0.4,0.4,0.4,0.8,0.2,1.3c-0.7,1.9-1.2,6,0,7.2C730.7,253,730.7,253.5,730.5,254z M881.1,206.2
	c-0.7,0.7-1.8-1.1-1.7-2.3h1C880.8,204.9,880,205.5,881.1,206.2z M893.4,239.7c0.2-1.2,1-2.2,1.9-2.6
	C894.5,237.9,894.8,239.6,893.4,239.7z M902.7,242c-0.5,1-0.8,1.9-1.9,2.3c-0.2-2.2-1.8-1.2-4.5-1.7c0.4-0.2,0.6-0.4,1-0.6H902.7z
	 M910.2,251.4c-0.5-0.6-1.2-1-1.9-1.3C907.4,249.6,911,249.8,910.2,251.4z M902.4,254.3c0.1-1.2-0.7-1.4-1.3-1.9
	c0.2-0.4,1.2,0.2,1.9-0.4C903.4,253.2,904.1,254.1,902.4,254.3z M901.1,250.1c0.1-0.8,1.3,0,1,0.6
	C901.3,251,901.6,250.1,901.1,250.1z M893,252.4c0.6,0,1.1-0.2,1.3-0.6c1,0.5-0.4,1.9-0.4,1.9c-0.7-0.1-2.1-0.8-2.6,0.4
	c-0.4-0.1-1.2-1-1-1c-1-0.7-1.2-0.1-2.3-2c1.9,0,4.2,0.4,4.2-1.7c-0.1-0.1-0.2-0.2-0.4-0.2h0.7C892.8,250.2,892.2,251.3,893,252.4z
	 M892,247.5c0.2,0.1,0.4,0.4,0.5,0.5H891C891.3,247.7,891.7,247.6,892,247.5z M910.3,248l-0.1-0.1c0.6,0,1.1,0,1.6,0.1H910.3z
	 M906,242.6c-0.1-0.1-0.1-0.4-0.2-0.6h1.1C906.5,242.2,906.1,242.4,906,242.6z M890.4,236.5h1.7c0.5,0.5,0.4,1.4,0.4,2.3
	C892.2,237.4,890.7,237.6,890.4,236.5z M887.9,225.7c0.5-2-1-0.6-1.3-1.3c0.5-1.2,2.1-1.3,1.9-3.2c1.4,0.5,3.3,0.4,4.2,1.3
	C891,222.4,890.5,225.7,887.9,225.7z M882.1,251.6h-25.1v-32.3h25.1V251.6z M896.2,251.7c1.6,0.2,2.3,1.9,2.2,3.5h-5.3
	C894.4,254.3,895.9,254.1,896.2,251.7z M913.9,255.2c0.1-0.2,0.4-0.6,0.2-1.2c-1.7,0.6-2.4,0.7-3.6,1.2h-0.5
	c-0.5-0.6-0.2-0.7-0.5-1.4c-0.7,0.1-1.3,0.4-1.9,0.6c0-0.4,0.4-0.5,0.4-1c-1,0.1-1.7,0.5-2.3,1c-0.1-1.2-1.2-2.8-1.9-4.2
	c2.9,1.7,4.7,3,7.8,3.9c0.7-1,0.2-2.4,0.6-2.9c0.8-0.1,3,1.2,3.2-0.6c-0.6-0.7-1.8-1-2.7-1.2h1.6c0.4,0.1,0.7,0.2,1.3,0.2
	c0.1-0.1,0.1-0.2,0.2-0.2h34.5v6h-36.4V255.2z M950.2,248h-34.5c-0.4-0.7-1.3-1.2-0.8-1.4c1.4,0.8,2.5,1.7,4.2,1
	c0.5-0.8-1.3-1.1-0.4-1.3c1,0.2,1.6,0.1,2.9,0c-0.2-2.4-3.1-2.3-4.5-1.9c0.1-0.6,1-0.6,0.6-1.7c-1-0.1-2.7,0.7-3.9,0.6
	c-0.2-0.8-0.1-0.8-0.1-1.3H950v6.1H950.2z M905,238.8c1-0.2,1.7,1.3,2.1,2h-1.9C904.9,239.8,904.6,238.9,905,238.8z M901.5,239.4
	c0.7,0,1.1-0.2,1-1c0.4,1.1,1.3,1.7,2,2.4h-0.6c0,0-0.1-0.1-0.2-0.1l-0.1,0.1h-3.2c-0.2-1.2-0.8-1.9-1.6-2.8
	C899.3,237.6,900.8,239,901.5,239.4z M899,240.8h-0.6c0.1-0.1,0.1-0.2,0.1-0.5C898.6,240.6,898.8,240.7,899,240.8z M896.6,238.4
	c1.1-0.4,0.2,1.1,1.3,0.6c-0.2,1.2-1.1-0.2-1.3,1C895.6,239.7,897.1,239.2,896.6,238.4z M895.3,224.8c-0.1-0.7,0.5-0.6,1-0.6
	C896.1,224.5,895.9,224.8,895.3,224.8z M902.1,222.5c-0.6,0.1-0.7-0.4-0.4-0.4c-0.1-0.2-1.4-0.8-1.3-0.4
	C899.4,220.2,903.3,221.9,902.1,222.5z M898.5,215c1.3,0.2,1.2,0,1.9,0.4c-1,0.6-1.6,1.6-3.2,1.3C897.4,215.9,899,216.4,898.5,215z
	 M896.2,205.3c0.4,1-0.7,0.6-1.3,0.6C895.1,205.5,895.6,205.3,896.2,205.3z M891.4,208.5c1.2,0,1.9,0.5,2.9,0.6c1-0.1,0.6-1,0-1.3
	c-0.4-0.2,1.9-0.1,3.2-0.4c0.2,1.1-0.2,1.6-0.4,2.3c-1.2-2.2-3.1,1.2-3.2,3.2c-0.5-0.4-0.5-1.2-1-1.7c-0.8,0.2-1.1,1.1-1,2.3
	c-0.7,0.1-0.7-0.6-1.6-0.4v-3.6C891,209.5,891.3,209.2,891.4,208.5z M888.1,200.7c1.2,0.5,1.1,1.7,0.6,2.9c-0.5-0.1-1-1.8-1.3-1
	C886.7,202.2,888.7,201.9,888.1,200.7z M886.6,202.6c0.7,1,1.6,3.2,0.4,4.2C886.3,205.6,886.4,203.7,886.6,202.6z M885.2,188.1
	c-0.2,0.2-0.5,0.8,0,1c-0.2,0.6-0.7,0.2-0.6-0.4C883.4,189.6,884.3,187.8,885.2,188.1z M883.9,207.5c0.8,0.4,0.1,1.6,0,2.2h-0.1
	C883.3,209.3,884.3,208.5,883.9,207.5z M880,196.4c-1.2,0.6,0,1.2,1.3,1c0.1,0.6,0.1,1.4,1,1.3c-1,0.7-2.9-2-3.9-1.3
	C877.5,196.9,879.2,196.3,880,196.4z M873.5,208.1c0.5,0.1,0.2,0.8,0.4,1.3c1.4-0.2,1.8-1.4,1.9-2.9c1,0.4,1.9-0.1,2.9,0.6
	c-0.7,1.3-2.4,0.6-3.2,2.3c0,0.1,0,0.1,0,0.2h-3.6C872.6,209.3,873.2,208.9,873.5,208.1z M871.9,207.5c0,0.6-1.1,0.2-1,1
	C870.3,208.4,871.3,207.3,871.9,207.5z M865.8,206.2c0.4-0.4,0.1-1.2,1-1C866.7,206,866.5,206.2,865.8,206.2z M870.3,209.5
	c0,0.1,0,0.1,0,0.2h-0.7C869.8,209.6,870.1,209.5,870.3,209.5z"/>
<path class="st0" d="M701.3,252.8h0.1l-0.1-0.1V252.8z"/>
<path class="st0" d="M999.9,291.4c-0.2-0.7-0.7-1.3-1.4-1.7l0.1-0.1c0.4-0.5,0.4-1,0.2-1.6c-0.1-0.6-1.2-1.4-1.4-1.9
	c-0.5-1.1-0.4-2.5-1.4-3.1c-0.6-0.5-2-0.7-2.5-1c-0.6-0.4-0.7-0.7-1.1-1.2c-0.2-0.4-0.2-0.8,0.1-1.1c1.1-1.1,1.3-2.9,1-4.5
	c-0.1-0.5-1.1-1-1.3-1.4c-0.8-1.9-1.6-3.1-3.5-2.2c-0.4,0.2-0.7,0.1-1-0.2c-0.6-0.7-1.6-0.2-2.3-0.6c-0.6-0.2-0.8-1.1-1.6-1.2
	c-0.6-0.1-1.8,0.5-2.1,0.4c-1.4-0.2-2.2-0.7-3.8-0.7c-0.2,0-0.5,0.1-0.6,0.2l-0.1,0.1c-0.2,0.4-0.7,0.4-1.1,0.1l-0.4-0.2
	c-0.2-0.1-0.5-0.1-0.6-0.1c-0.6,0.1-1,0.1-1.4,0.5c-0.4,0.2-0.8,0.1-1.1-0.1c-1.7-2-3.8-1.3-5.6-0.8c-1.2,0.4-1.7,0.4-2.7,0.6
	c-0.2,0-0.5,0.2-0.6,0.5c-0.2,0.6-0.7,0.7-1.2,0.5c-0.4-0.1-0.7-0.2-1-0.4c-0.1,0-0.2,0-0.4,0c-2.9,0.2-6.1,0.8-7,4.2
	c-0.2,0.8-0.2,1.6-0.1,2.4c0.1,0.4-0.1,0.8-0.5,1c-0.1,0.1-0.4,0.2-0.4,0.4c-0.2,0.5-0.5,0.7-0.7,1.1v-17.9H849.9v37.1h6v-32.3H875
	v32.3h1.2v-32.3h4.8v32.3h14.3h50.1h4.2h3h41.9c0,0,0-0.1,0.1-0.1c0.5-0.2,0.7-0.6,0.8-1.1c0-0.4,0.4-0.7,0.7-0.7
	C998.7,296.1,1000.4,294.3,999.9,291.4C999.9,291.5,999.9,291.4,999.9,291.4z M945.4,269.5v2.4h-50.1v-2.4H945.4z M945.4,273.1v2.4
	h-50.1v-2.4H945.4z M945.4,276.7v2.4h-50.1v-2.4H945.4z M945.4,280.3v2.4h-50.1v-2.4H945.4z M945.4,283.9v2.4h-50.1v-2.4H945.4z
	 M945.4,287.4v2.4h-50.1v-2.4H945.4z M895.3,291h50.1v2.4h-50.1V291z M945.4,265.9v2.4h-50.1v-2.4H945.4z M895.3,297v-2.4h50.1v2.4
	H895.3z"/>
<path class="st0" d="M590.8,295.5c-0.1-0.7,0.8-1.2,0.1-2c-0.4-0.5-0.8-0.4-1.3-0.4c-0.1,0-0.1,0-0.2,0.1l-0.1,0.1
	c-0.1,0.1-0.2,0.1-0.4,0c-0.2-0.2-0.5-0.2-0.7-0.1c-0.1,0.2-0.1-1.8,0.4-1.7c0.6,0.1,1-1.6,0.6-2.3c-0.2-0.5-0.7-0.4-1-0.6
	c0.1,0-0.6-1.1-1.1-1.3c-0.1,0-0.1,0-0.2,0l-0.2,0.1c-0.1,0-0.2,0-0.4-0.1c-0.1-0.1-0.2-0.2-0.5-0.4c-0.1,0-0.2-0.2-0.2-0.4
	c0.1-0.6-0.1-1.7-0.4-1.9c-0.1-0.1-0.2-0.1-0.5,0c-0.2,0-0.4-0.1-0.4-0.2c0-0.4-0.4-0.6-0.8-0.6c-0.1,0-0.2-0.1-0.4-0.2
	c0-0.8-1.4-0.4-1.8-0.4c-0.4,0-0.6-0.1-1-0.2c-0.1,0-0.1,0-0.2,0l-0.1,0.1c-0.1,0.1-0.4,0-0.4-0.1c-0.1-0.1-0.1-0.1-0.2-0.2
	c-0.1-0.1-0.2-0.2-0.1-0.4c0.5-1.1-1.7-1.6-2.3-0.5c-0.1,0.1-0.2,0.1-0.4,0.1c-0.4,0-1,0-1.3,0.1c-0.1,0-0.4-0.1-0.4-0.2
	c-0.1-0.8-1.2-0.4-1.6-1c-0.2-0.4-1.1-0.5-1.7,0c-0.1,0-0.1,0.1-0.2,0c-1.3-0.2-2.3,1.1-2.5,1.3c-0.5,0.4-1.1,0.6-1.4,1
	c-0.1,0.1-0.5,0.7-0.7,0.8c-0.4,0.4-0.7,0.1-1.2,0.6l-0.1,0.1v-22.5l4.1,1.8l1-2.2l-33.5-15.3l-33.7,15.4l-0.5-1l2.4-1.1l31.6-14.5
	l34.1,15.5l0.5-1l-19.1-8.7v-45.3h-50.1v-9.6h0.2h1v-2.4h-9.5v2.4h1h0.2v9.6h-24.3l-4.5-2c0-0.8,0-1.7,0.4-2.2
	c0.6,0.8,1.3,1.6,1.8,2.4c0.5-0.5,0.7-2.2,0.7,0c0.5-1.4,0.7-1.6,1.8-1.7c-1-0.4-2.6-1.8-4.5-2.9c-0.1-0.8,0.2-1.1,0.4-1.7
	c0.4,0.6,1.3,0.6,1.8,1.2c0-2.4,1.1,1,1.1-2c0.4,0.2,0.4,1,1.1,0.8c-0.2-2.5-3.2-1.7-4.5-3.7c-1-0.8-1.2-2.8-2.7-2.9
	c0-1,0.2-1.9-0.5-2c0.1-0.5,0.5-0.4,0.5-0.8c0.6,0.4,0.6,1.4,1.1,2c1-0.4-0.5-1.3,0-2.4c0.5,1.6,1.3,0.6,1.8,2.4
	c0.5-0.1,1.1,1.4,1.6,1.4c1.1,0.6,0.7-0.8,1.2-0.7c-0.6-0.5-0.8-1.2-1.6-1.9c-2.6-1.4-1.6-3-4.8-3.7c0.4-0.4,0.2-1.1,0.7-1.2
	c0.1-1.1-1.9,0.4-1.4-1.2c-1.4,0-2.3,0.8-3.5,0c0.6-1.8,1.7-1.1,3.1-1.2c-0.7-1-2.6-1.3-3.7-1.9c-0.8-0.5-0.8-1.1-1.6-1.8
	c0.4-0.5,1-0.7,0.7-2c0.2-0.5,1.6,0.5,1.1-1.7c0.8,1.7,0.8-1.6,2.1-0.8c-1.1-1.2,1.1-0.5,1.4-1.2c-1.1-1-3.1,0.5-4.5,0.4
	c-0.5-0.4,0.2-2.9,1.4-1.7c-0.8-2.3,3.5-4.8,2.7-5.7c-0.8-1.1-0.5,0.8-2,0.2c0.2,0.6-1.2,0.8-1.1,1.4c-0.7-2.4-2.5,0.4-3.8-0.8
	c0.5-0.2,1.7-0.5,1.8-0.4c0-0.5,0.1-2.2-0.4-3.2c0.2-0.5,1.3-1.9,1.4-1.2c-0.1-1.6-0.4-3.9,2.1-4.4c-0.1-0.6-0.8-0.4-1.4-0.4
	c0.5-0.6,0.6-1.7,1.4-2c-1-0.2-1.6,1.6-2.1,1.7c-0.4,0-1.1,1.7-1.1,1.7c-0.1,0.1-1.6-1.1-1.1,0.4c-0.6-1-0.1-1.4-0.7-2.4
	c0.2-0.8,1.7-0.1,0.7-1.2c1.2-0.4,1.4,0.7,2.1,0c-0.5-0.6-1.3-1-1.8-0.4c0.6-1.1,0.5-3,2.1-2.9c-0.2-0.4-0.5-0.7,0-0.8
	c-0.8-0.4-2.4,1.9-3.5,2.4c-0.7-2.8-1-1.1,0.4-3c-0.2-1-0.6-2.2-0.6-2.2c-0.6,0.1-0.1-4.1-0.8-1c-1.7-0.1-2.4-0.1-1.8,0.8
	c0.1,1.1-0.4,1.8,1.1,1.7c0,1.1-0.6,0.8,0,1.7c-0.1,0.7-1.1-0.4-1.4,0.8c-1.6-1.2-1.8-2.2-3.5-3.7c0.5,0.6,0.6,1.7,1.4,2
	c-0.1,0.6-1.1,0.1-1.1,0.8c-0.8,0.7,1.2,0.4,1.9,0.6c0,0.4-0.6,1-1,1c2,1,1.1,1.3,0.5,2.5c0.5,0.1,0.8,0.7,1.8,1.2
	c-1.1,1,0.8,3-0.7,3.2c0.2,0.6,0.8,0.8,1.8,0.8c-0.8,0.5-1.7,0.8-2.7,0.5c-1.3-0.5-2.9-1.8-3.8-1.3c1.4,1.1,3.6,3.5,2.7,5.7
	c0.1,0.6,0.5-0.1,1.1,0c0.6,0.1,0.2,1.4,0.7,1.7c-0.7-0.1-1,0.4-1.7,0.2c-1-0.1-2.3-0.8-3.2-1.1c1.2,1.7,2.7,0.8,2.7,3.2
	c1-1.3,0.6,2,1.8,0.4c0,1,0,1.9,0.4,2.4c-0.6,0.8-0.2,2-1.1,2.5c-0.8,0.5-3,0.2-3.8,0.8c1.3,0.7,1.9,0.1,3.1,1.2
	c-0.7,1.4-2.1,0.4-3.5,0.4c0.4,1.2-0.8,0.7-1.4,0.8c0.2,0.6,0.5,1.1,0.7,1.7c-0.8,0.6-2.1,0.8-3.5,0.8c-1.3,1.2-2.3,0.6-3.3,1.7
	c-0.1,0.1-0.2,0.4-0.2,0.6c0,0.5-0.7,2-0.6,1.8c0.1,1.2,1.4-0.1,1.8,0.8c0-1.7,1.4-0.4,1.4-0.4c0.4-0.1,0.1-2,0.7-0.4
	c0.5-1,1.9-0.8,1.8-2.4c0.8,0.1,0.2,2.2,0,2.4c0.6,1,0.5-2.5,2.1-1.7c-0.5,3-3.2,3.3-3.5,6.5c-1.1,1.2-3.2,1.2-3.5,3.2
	c0.5-0.1,0.6-0.7,1.1-0.8c-0.2,1.2-0.2,0.8,0,2c0.6,0.1,0.7-0.4,0.7-0.8c0.8,1.4-1.2,3.2-3.1,2.9c0.4,1.7,1.9-0.6,1.4,2
	c0.5-0.1,0.1-1.2,0.7-1.2c0.5,0.1-0.1,0.5,0,1.2c0.7-0.7,1.7-1.1,1.8-2.4c0.6,0.4,0.7,1.3,0.7,2.4c0.7,0.2,0.7-0.6,0.7-1.2
	c0.7,0.1,0.1,1.3,0.5,1.4c0.2-0.1,1.1-0.1,1.2-0.2c-0.2,0.2-0.5,0.4-0.6,0.4c-3.8,2.2-7.3,3.6-12.1,2.5c0.4,0.6,1.2,0.8,1.1,2
	c0.5-0.1,0.7-0.5,0.7-1.2c0.7-0.1,0.1,1.4,0.4,2c0.7,0.2,1.9,0.6,2.1-0.8c0.7,0,0.1,1.7,0.4,2.4c0.5,0,1-0.1,1.1,0.4
	c0.4-0.7,1.3-0.7,1.1-2c1.2,0.4-1.2,3.2,0.7,3.2v-3.2c1.1,0.6,0.4,2.8,0,4.1c-3.5,0.4-5.8-0.5-8.4-1.2c0.4,0.7,1.1,1,2.1,0.8
	c-0.4,2.5-3.3,1.8-3.8,4.1c0.6-0.1,0.7,0.4,0.7,0.8c0.5-0.5,0.7-2.2,0.7,0c0.4-0.2,0.5-0.7,0.7-1.2c0.6,0.1,0.8,0.7,0.7,1.7
	c0.8-0.7,1.7-1.6,1.4-3.7c0.6,1.1,0.6,3.1,0.4,4.1c2,0.8,1.8,0.1,2.4,2c0.5-0.1,0.7-0.5,0.7-1.2c0.6,0.1,0.2,1.4,0.7,1.7
	c0.7,0.2,0.5-0.8,1.1-0.8c0.7,0,0.7,0.7,0.7,1.6L433,219c-1.8,0-3.3-0.2-4.3-0.8c0,2.2,2.4,1.7,2.7,4.1c0.4-0.4,1-0.5,1.8-0.4
	c0.1,0,0.1,0,0.1,0l-0.7-1.6l34.1-15.5l34.1,15.7l-0.5,1L465.5,206l-33.7,15.4l1,2.2l1.1-0.5l3-1.3l-3.6,1.7c0,0.4,0,0.7,0,1
	c1-1.2,1.7,0,2.1-0.4c0.8,0.4,0.7,1.9,1.4,2.4v8.6c-1.7,0.2-3.8-0.6-4.9-1.2c-0.2,0.5-0.5,1.1-0.4,2c1.2,0.6,0.2-1.4,1.1-1.2
	c0.7,0.4-0.8,1.4-0.4,2.9c0.5-0.5,0.6-0.1,1.1,0c-0.1,2-1.8,2.3-3.8,2c-0.5-0.5,0.8-1.2-0.4-2c-0.7-0.1-0.1,1.4-0.4,2
	c-0.6-0.2-2,0.5-2.1-0.4c-1.3,0.8,1.1,1,0.7,2c0.7-0.2,0.7-1.2,1.4-0.4c-0.7,3.5-4.2,3.6-4.9,6.9c0.4,0,1.1,0.1,1.1-0.1
	c0.8,1.2,0.4-0.2,2,0.1v-1.2c1,1,1.4-0.1,2.1,1.2c0.7-0.1-0.5-1.1,0.7-1.2c0.4,0.1,0.2,0.7,0.4,1.2c0.2-1.2,1.2-1.1,1.8-1.7
	c-0.1,0.1,1.3,1.3,1.4-0.4c0.1,1.2,0.4,1.3,0.1,2.9c1-1.6,2.9-1.6,3-4.1c0.4,0,0.2,0.5,0.4,0.8v0.5l-10.9,10.9c-0.5,0.4-1,0.6-1.3,1
	c-0.7,0.6-0.5,1.3-1.6,1.2c-0.6,2.3-4.2,3.2-5.6,3.2c-0.2,0-0.4-0.8-0.4-0.8c-0.6,0.1-1.3,1.2-1.2,1.6c-0.2-0.2-0.6-1-1-1.4
	c2.5,0.1,2-1.2,1.8-3.1c0.2,0.4,0.6,0.5,1,0.4c0.5-0.5-1.3-1.7-0.6-2.5c0.7-0.8,1.3-0.1,1.7-1.2c0.4-1.1,1-1.9,1.1-2.8
	c0.1-0.7,1.4-2.8,1-3c1.6,0.5,0.6-1.8,1-2.9c-0.5-0.8-1.6-1.2-1.7-2c-0.1-0.8,1.3-0.5,0.2-1.9c-0.2,0.1,1.6-1.2,0.8-1.8
	c-2.1-1.8-1.7-0.1-1.4-3.5c0-0.5,0.1-2.2,0.1-2.5c-0.2-0.6,0.2-1.6-1.2-2.2c0.5-0.5-1.9-4.3-3.3-6c0-0.1,0-0.2,0-0.4
	c-1.2-2.2-2.3-2.6-4.2-3.1c-0.2-2.9-5-5.7-6.1-5.3c-0.1-0.6-0.2-1.3-0.5-1.9c-1-0.4-1.8,0.1-2.4,1.6c-0.7,0.8-1.3,0.8-1.9-0.1
	c0-0.5-0.2-0.8-0.5-1.2c0.6-1,0.5-1.6-0.2-1.8c-0.8,0.4-1.7,0.5-2.6,0.4c-1.1-0.6,0.2-2-0.7-2.4c0.6,0.1-4.4-0.1-3.7-0.2
	c-0.8,0.1-2.6,1.3-3.2,1.2c-1-0.1-1.3-0.8-1.1-2c-1.2-0.5-2,0.1-2.7,1.8c-1.9-0.1-1.2-1.3-3.7-0.8c-0.7,0.1-3.2,2.5-4.2,3
	c-0.8,0.4-1.9,1.4-2.7,1.9c-0.4-0.6-0.8-0.8-1.6-0.8c-0.8,0.6-1.4,1.4-1.7,2.5c-1.7,0.5-1.2,1.1-2.3,1.7c-4.7,2.6-4.1,3.7-4.2,4.1
	c-0.8,2.2-4.3,3.9-2.9,6.1c-1.8-0.1-2,0.4-2.1,1.2v1.2h-4.8v2.4h4.8v1.2h-1.8v2.4h1.8v1.2h-4.8v2.4h4.8v1.2h-10.7v-1.2h4.8v-2.4
	h-4.8v1.2H223.2l-3.5,4.3c-0.2-0.5-0.6-1.1-1-1.8c-0.5-0.7-0.2-1.3-1-1.8c-0.1-1.1-0.4-1.9-0.7-2.6c-0.2,0-0.5,0.2-0.6,0.8
	c-0.4-0.6-0.7-1.6-1.1-2c-0.4-0.5-1.3-3-1.7-3.1c-1-0.5-0.7,0.7-1.4,1c-0.2-1.8-0.6-2.4-1.1-1.9c0.1,1.3,0,1.9-0.4,2.2
	c-0.2,0-1-1.2-1.3-1.3c0.2,0.1-1.7,0.4-1.4,0.2c-0.4,0.4,0.1,1.9-0.2,2.5c-0.4,0.1-0.7,0-1-0.4c-0.2,0.2-0.4,1-0.1,1.9
	c-0.1,0.4-0.2,0.7-0.2,1.3c-0.2,1-0.5,1.1-0.7,0.1c-0.2-1.4-0.6-1.9-1-1.6c-0.1,0.6-0.1,1.3-0.2,1.9c-0.4-0.5-2.3,2.5-2.4,5.6
	c-0.7,0.5-1.2,1.1-1.7,3.2c0,0.1,0,0.2,0,0.4c-0.6,1.8-1.4,5.6-1.3,6.2c-1.3-0.1-2.3-0.6-2.4-2c0.6-0.1,0.6-0.5,1.2,0
	c0.6-1.4-1.2-2.4-0.4-2.8c1-0.1-0.2,1.8,1.2,1.2c0.1-1-0.1-1.6-0.4-1.9c-1.8,0.8-5.5,2-7.4,0.4c0.5-0.6,1.6-0.5,1.6-1.6
	c-1.6-0.4-2.9-1-3.5-2.4c0.8-4.2-1.9-4.8-0.4-9c-0.1,1.7,1.3,2,0.4,3.5c2.4,0.5,0.5,5.3,2.7,5.9c0.1-2.8-1.4-5.5,0-7.4v3.5
	c2.1,0.5,1.4-1.9,2.7-2.4c0.5,0.4,1.3-0.8,2.4,0.4c0.1-0.6-0.1-1.4,0.4-1.6c0,0.7,0.4,1,0.8,1.2c0.2-0.6-0.5-2,0.4-1.9
	c1-0.1,1.6,0.1,1.9,0.4c0.5-2.4,3.1-1.8,3.1-3.9c-3,1.6-11.2,0.7-14.4-1.2c-0.4-1.6-0.1-3,0.8-4.3c0.2,1,0.6,1.8,0.4,3.1
	c1.9,0.5-0.4-3.2,1.6-2.8c-0.6,1.1-0.7,4.2,0.8,4.3c0-1.1-0.2-2.3,0.8-2.4c0.6,0,0.4,1,1.2,0.8c0.6-0.2,0-1.6,0.8-1.6
	c0,0.7,0.4,1,0.8,1.2c0.7-1.9,0.5-1.1,2.7-1.9c-0.2-0.8-0.2-2.9,0.4-3.9c-0.4,2,0.6,2.8,1.6,3.5c-0.1-0.8,0.1-1.4,0.8-1.6
	c0.2,0.5,0.4,0.8,0.8,1.2c0-2,0.2-0.5,0.8,0c0-0.5,0.1-1,0.8-0.8c-0.5-2.2-3.9-1.6-4.3-3.9c1.1,0.1,2-0.1,2.4-0.8
	c-2.7,0.7-5.5,1.6-9.3,1.2c-0.4-1.2-1.2-3.3,0-3.9v3.1c2.1,0-0.5-2.8,0.8-3.1c-0.2,1.3,0.8,1.3,1.2,1.9c0.1-0.5,0.6-0.5,1.2-0.4
	c0.2-0.7-0.5-2.3,0.4-2.4c0.2,1.3,1.4,1,2.4,0.8c0.2-0.6-0.5-2,0.4-1.9c0,0.7,0.4,1,0.8,1.2c-0.1-1.2,0.7-1.3,1.2-1.9
	c-5.3,1-9.1-0.4-13.4-2.4c-0.1,0-0.4,0-0.6-0.4c0.2,0.1,0.5,0.2,0.6,0.4c0.5-0.1,0.6-1.4,1.3-1.4c0,0.6,0,1.3,0.8,1.2
	c-0.1-1.1,0.1-2,0.8-2.4c0.1,1.3,1.2,1.7,1.9,2.4c0.1-0.7-0.6-1,0-1.2c0.6,0,0.2,1.1,0.8,1.2c-0.6-2.5,1.2-0.4,1.6-1.9
	c-2.1,0.4-4.4-1.3-3.5-2.8c0,0.5,0.1,1,0.8,0.8c0.2-1.2,0.2-0.7,0-1.9c0.6,0.1,0.6,0.6,1.2,0.8c-0.4-2-2.7-1.9-3.9-3.1
	c-0.4-3-3.3-3.5-3.9-6.2c1.9-0.8,1.7,2.5,2.4,1.6c-0.4-0.2-0.8-2.2,0-2.4c-0.1,1.6,1.4,1.4,1.9,2.4c0.6-1.6,0.4,0.2,0.8,0.4
	c0,0,1.6-1.2,1.6,0.4c0.4-1,1.8-0.8,1.9-1.9c0.1,0.4,0.4,0.5,0.8,0.4c-1.3-1.6-3.9-1.8-5.5-3.1c-1.6,0-3-0.2-3.9-0.8
	c0.2-0.6,0.6-1,0.8-1.6c-0.7-0.1-1.9,0.4-1.6-0.8c-1.6-0.1-3.1,1.1-3.9-0.4c1.3-1.1,2-0.5,3.5-1.2c-1-0.5-3.2-0.4-4.2-0.7
	c-1-0.5-0.6-1.6-1.2-2.4c0.5-0.5,0.5-1.4,0.4-2.4c1.3,1.6,0.8-1.7,1.9-0.4c0.1-2.3,1.8-1.6,3.1-3.1c-1.1,0.1-2.5,0.8-3.6,1
	c-0.7,0.1-1.1-0.2-1.9-0.2c0.6-0.2,0-1.6,0.8-1.6c0.7-0.1,1,0.6,1.2,0c-0.8-2.2,1.6-4.4,3.1-5.5c-1.2-0.5-2.9,0.7-4.3,1.2
	c-1.2,0.4-2.1,0-3.1-0.5c1,0,1.7-0.2,1.9-0.8c-1.7-0.2,0.5-2.2-0.8-3.1c1.1-0.5,1.4-1.1,1.9-1.2c-0.7-1.1-1.8-1.4,0.5-2.4
	c-0.4-0.1-1-0.6-1-1c0.8-0.2,3.1,0.1,2.1-0.6c0-0.6-1.1-0.2-1.2-0.8c0.8-0.4,1-1.3,1.6-1.9c-1.9,1.4-2.1,2.3-3.9,3.5
	c-0.4-1.2-1.4-0.1-1.6-0.8c0.6-0.7,0-0.5,0-1.6c1.6,0.1,0.8-1.6,2.7-0.4c0.6-1.6-1.7-0.1-1.6-1.2c0.7-1,1.1-2.3,2.4-2.8
	c-1.3-0.6-2.5,1.8-4.3,1.9c-0.8-3.1,1.7-2.8,2.7-3.9c-1.2-0.2-2.4,1.4-2.7,0.8c0.2-1.4,2.9-2.3,1.9-3.5c0.1,1.1-1.4,0.4-1.6,1.2
	c-2,1.4-1.3,6.3-1.9,6.2c0,0-1.8-1.1-2.1-0.2c1.4,1.9,3.2,2.6,2.5,5.3c-1.3-0.6-3-2.6-3.9-2.4c0.5,0.1,0.2,0.5,0,0.8
	c1.8-0.1,1.7,1.7,2.4,2.8c-0.5-0.5-1.4-0.1-1.9,0.4c0.7,0.7,1-0.4,2.4,0c-1.1,1.1,0.6,0.4,0.8,1.2c-0.6,1-0.1,1.4-0.8,2.4
	c0.6-1.4-1-0.2-1.2-0.4c0,0-0.8-1.6-1.2-1.6c-0.6-0.1-1.3-1.8-2.4-1.6c0.8,0.4,1,1.3,1.6,1.9c-0.6,0.1-1.4-0.1-1.6,0.4
	c2.7,0.5,2.5,2.9,2.4,4.3c0.1-0.7,1.3,0.7,1.6,1.2c-0.5,1-0.4,2.6-0.4,3.1c0.1,0,1.4,0.1,1.9,0.4c-1.6,1.1-3.5-1.4-4.3,0.8
	c0.2-0.6-1.4-0.8-1.2-1.3c-1.8,0.6-1.4-1.2-2.4-0.2c-0.7,0.8,4.1,3.3,3.1,5.5c1.3-1.2,2.1,1.2,1.6,1.6c-1.7,0.1-3.8-1.3-5-0.4
	c0.4,0.7,2.7,0,1.6,1.2c1.4-0.7,1.3,2.4,2.4,0.8c-0.5,2,1,1.1,1.2,1.6c-0.4,1.2,0.4,1.4,0.8,1.9c-0.7,0.6-0.7,1.2-1.7,1.7
	c-1.2,0.5-3.3,1-4.1,1.8c1.7,0.1,2.9-0.6,3.5,1.2c-1.4,0.7-2.3,0-3.9,0c0.6,1.6-1.7,0.1-1.6,1.2c0.6,0.1,0.5,0.8,0.8,1.2
	c-1.8,0.4-3.5,0.8-4.9,1.4l-14.8-7.4h-11.9v-3.6h1.2v-2.4h-9.5v2.4h1.2v3.6h-11.5l-13.6-9.2l-14.9,9.1H56.1L37,208.5h37.9l12.6-8.5
	l12.6-8.5l25.4,17.1h37.9l-0.7-0.4c0.1-0.2,0.2-0.5,0.5-0.6c0,0.5,0.7,0.4,0.8,0.8c-0.2,0-0.5,0.1-0.6,0.4v1h-38.2l-25.1-16.7
	l-25.1,16.7H37.1v2.4h3.6v28.7l-14.3,7.2h16.7h114.6h16.7v1.2h-148v2.4h6v5.3c-0.2,0.1-0.4,0.1-0.7,0.1c-0.6-1.4-1.4-1.9-2.4-1.6
	c0.2,1.1,0,1.7-0.8,1.8c-0.6,0-2-1-2.7-1.1c0.6,0-3.7,0.4-3.2,0.1c-1,0.2,0.2,1.6-0.7,2c-0.7,0.1-1.6,0-2.3-0.4
	c-0.6,0.2-0.7,0.7-0.2,1.6c-0.2,0.2-0.5,0.6-0.5,1.1c-0.5,0.8-1.1,0.8-1.7,0.1c-0.5-1.2-1.2-1.7-2-1.3c-0.2,0.5-0.4,1.1-0.5,1.7
	c-0.8-0.4-5.1,2.2-5.3,4.7c-1.7,0.5-2.5,0.8-3.6,2.8c0,0.1,0,0.2,0,0.4c-1.3,1.6-3.3,4.8-3,5.3c-1.2,0.6-0.8,1.4-1.1,1.9
	c-0.1,0.2,0,1.8,0.1,2.2c0.1,2.9,0.6,1.4-1.3,3c-0.7,0.6,1,1.7,0.7,1.6c-1,1.2,0.2,1,0.2,1.7s-1.1,1.1-1.4,1.8
	c0.2,1-0.5,2.9,0.8,2.5c-0.4,0.2,0.7,1.9,0.8,2.6c0.1,0.8,0.6,1.4,1,2.4c0.4,1,0.8,0.4,1.4,1.1c0.6,0.7-1,1.7-0.6,2.2
	c0.4,0.1,0.6,0,0.8-0.4c-0.1,0.7-0.2,1.3-0.1,1.8h49.3h31.4v-2.4h1.6v-2.4h-1.6h-3.9v-14.4c0,0,0.2,0,0.6,0c0.4,0,0.6-0.5,0.6-1.2
	c0-0.7-0.2-1.2-0.6-1.2h-0.6v-25.1h39v25.1c0,0-0.2,0-0.6,0s-0.6,0.5-0.6,1.2c0,0.7,0.2,1.2,0.6,1.2h0.6v14.4h-2.7h-1.6v2.4h1.6v2.4
	h56h4.1c0.1-2.8-0.5-15.8,0-17c1.9,0.4,1.3,1.3,5,2.2c0.2-0.8-0.5-2.5,0.4-2.8c-0.2,1.4,1.1,1.3,1.6,1.9c0.4-0.4,0.1-1.4,1.2-1.2
	c-0.4,1.2,0.6,1.2,1.2,1.6c0.1-1.1,1.2-1.1,1.6-1.9c-0.5,1.1-0.4,2.3,0.4,3.1c0.8-0.7,0.8-2.3,1.9-2.8c-0.2,1.3,0.8,0.6,1.2,0.4
	c0.1,0.5-0.1,1.1,0.4,1.2c0.1-0.4,0-0.7,0.4-0.8c0.4,0.7-1.2,1.3,0,1.6c0.6-0.2,1.9-0.2,2.4-0.8c0.6,0.2,0,1.6,0.8,1.6
	c0.5-1.1,0.5-1.3,1.2-0.4c0.7-0.2-0.1-2.2,0.8-2.4c0.2,1.1,0.1,2.4,0.8,3.1c0-1,0.7-1.3,1.2-1.9c-0.2,1,0.2,1.2,0.7,1.3
	c-0.1,1.4-0.1,2.4,0.7,2.3c-0.5,2-0.8,3.5,0.7,5.5c0.6,0.8,0.2,0.8,1,1.6c1.4,1.4,0.1,2.6,1.4,1.2c0.1,0.7,0.1,2.8,0.5,1.4
	c0,0.7,0.1,1.3,0.1,1.9h1.1v-0.1v0.1h13.5h168.6v-2.4h-6.1h-20.2v-37.1h20.2v16.9c1-0.1,2.9-0.4,2.7-0.4c0.6,2.6,4.3,0.7,5.5,3.2
	c1.8,3.7,1.8,8.6,1.1,14.4c0,0.4-0.2,3.6-0.5,5.4h5.5c-0.1-1-0.4-2.2-0.7-3.2c-2.1-6.2-0.6-12.6-1.1-18.8c3.1,2.6,4.3-0.2,5.6-1.8
	c1.6-1.8,2.3,1.2,2.9-2.4c2.4,3.1,2.9,1.8,3.3-1.7c1.1,1.2,1.2-0.7,1.3-1.3c3.3,1.4,0.1,0.2,3.7-1.2c1.9-0.7,0.8-0.8,2.4-1.6
	c1.4-0.7,2.1-1.3,2.6-1.9c0,0.1,0.8,1.2,0.8,1.3c1.1-1.7,0.2-1.1,1.3-3.1c0,0.6,0.5,1.8,1.1,2.9c0.4-1.3,0.2-2.2,1.1-3.7
	c0.8,0.4-0.1,2.9,0.7,3.2c0.5-1.1,1.2-0.8,1.1,0.8c1.6-1,0.7-3.1,0.7-5.3c0.7,1.2,0.7,3.2,1.1,4.9c1.1-1.3,0.1,1.2,1.4,0.8
	c0.8-0.8-0.2-1.4,0-2.9c0.6,0.4,0.4,1.7,0.7,2.4c1.1-0.4-0.2-1.3,0-2c0.5,0.2,0.7,0.4,0.7,0.4c-0.1-0.1-0.1-0.4,0.4-0.8
	c0.5-0.4,2.4,1.3,1.4-0.4c0.1,0.1,0.4,0.2,0.5,0.4v19.6c-0.2,0-0.5-0.1-0.7-0.1c-0.1,0-0.1,0-0.2,0l-0.1,0.1c-0.1,0.1-0.4,0-0.4-0.1
	c-0.1-0.1-0.1-0.1-0.2-0.2c-0.1-0.1-0.2-0.2-0.1-0.4c0.5-1.1-1.7-1.6-2.3-0.5c-0.1,0.1-0.2,0.1-0.4,0.1c-0.4,0-1,0-1.3,0.1
	c-0.1,0-0.4-0.1-0.4-0.2c-0.1-0.8-1.2-0.4-1.6-1c-0.2-0.4-1.1-0.5-1.7,0c-0.1,0-0.1,0.1-0.2,0c-1.3-0.2-2.3,1.1-2.5,1.3
	c-0.5,0.4-1.1,0.6-1.4,1c-0.1,0.1-0.5,0.7-0.7,0.8c-0.4,0.4-0.7,0.1-1.2,0.6c-0.2,0.2-0.4,0.8-0.6,1.2c-0.1,0.1-0.2,0.6-0.4,0.8
	c0,0.1,0,0.1,0,0.2c0.1,0.1,0,0.2-0.2,0.4c-0.1,0-0.2,0-0.4-0.1s-0.1-0.1-0.2-0.2c-0.7-0.2-0.7,0-1.3,0.5c-0.6,0.6-0.5,0.7-0.2,1.4
	c0,0.1,0,0.4-0.2,0.4c-0.5,0.1-1.3,0.5-1.3,0.5c-0.2,0.1-0.6-0.1-0.5,0.4c0,0.5,0.5,0.6,1,0.6c0,0-0.8,2,0,2.2
	c0.1,0,0.2,0.1,0.2,0.4c0,0.2,0,0.1-0.4,0.5c-0.4,0.2-0.4-0.4-0.8-0.2c-0.5,0.1-1.6,0.6-0.7,1.1c0.1,0.1,0.2,0.2,0.1,0.5
	c-0.2,0.2-0.4,0.6-0.2,1.1c0.1,0.2,0.6,0.8,0.7,0.8c0.5,0.2,1.1,1.4,1.1,1.4h10.1h32.2h3.6h6.1v-2.4v-33.5h20.3v33.5v2.4h29.7v-2.4
	v-34.4l26.4-12.1l26.3,12v1.1v33.5v2.4h-2h30c0-0.1,0-0.2,0-0.4c0.4-0.4,0.4-1,0.4-1.3C591.6,295.9,591,296.1,590.8,295.5z
	 M440,193.4C439.5,195,439.5,191.8,440,193.4L440,193.4z M431.2,208.4c-1.2,1.2-0.2-1,1.1-0.4C432.2,208.5,431.8,208.5,431.2,208.4z
	 M464.1,197.5c1.1-0.2,2,1.6,1.8,1.7c-0.5-0.1-0.6-0.5-1.1,0C465.2,197.7,463.6,198.8,464.1,197.5z M462.3,188.1
	c-0.4,1.1,0.7,2.4,0,2.4c-0.4-0.7-1.3-0.7-1.4-1.7C461.8,189.3,461.6,188.1,462.3,188.1z M459.2,197c0.6,0,1.2,0.2,1.4,0.8
	c-0.6,0-0.2,1.1-0.7,1.2C460.2,197.9,458.8,198.3,459.2,197z M449.1,205.6c-0.7,0-0.5,1.1-1.4,0.8
	C447.3,205.4,449.2,205,449.1,205.6z M448,203.6C448.9,205.6,446.8,205,448,203.6L448,203.6z M446.6,183.6c0.6-0.1,1,0.6,1.1,0
	c0-0.2,0-0.5,0.4-0.4c0.2,1.4-0.2,2.2-1.1,2.4C447.3,184.5,446.4,184.6,446.6,183.6z M447.6,193c-0.1,1.8-0.2,3.8-1.8,4.1
	C446.1,195.2,446.1,193.2,447.6,193z M447.3,203.1v2c-0.5-0.1-1.3,0.1-1.4-0.4C447.4,205.4,445.8,202.5,447.3,203.1z M444.9,187.7
	c0.4-0.7,0.1-2,0.7-2.4C445.8,186.3,446.1,187.6,444.9,187.7z M444.2,182.4c2.3-0.1-0.1,2.9-0.4,2
	C444.1,184,444.3,183.4,444.2,182.4z M444.5,186.9c0.4,1.4-0.8,3.1-1.4,2h0.7C443.7,187.9,443.7,187,444.5,186.9z M443.1,195
	c0.1,1.2,0.6,2,1.4,2.4c0.1-0.4,0-0.8,0.4-0.8c-0.1,1.9-1.4,1-2.1,0.8C443,196.8,442.3,195.1,443.1,195z M441.7,190.9
	c-0.1-1,0.1-1.6,0.7-1.7C442.5,190.2,442.3,190.8,441.7,190.9z M443.5,202.3c0.2,0.6-0.4,2.2,0.4,2c0.7-0.6-0.5-1,0.4-1.2
	c0,0.2,0,0.5,0.4,0.4c0.1-0.4,0-0.8,0.4-0.8c0.5,1.2-1,2,0,2.4c0.1-0.4,0-0.8,0.4-0.8c0.2,1.9-1.4,1.6-2.7,1.7
	C442.6,204,442.6,203.1,443.5,202.3z M439.6,212.5c0.5,0.7,0.7,1.7,0.8,2.5l-1.2,0.5C439.2,214.2,439.4,213.4,439.6,212.5z
	 M441.3,212.9c0,1-0.2,1.7-0.7,2C440.8,214.1,440.1,212.5,441.3,212.9z M441.7,204.3c0.6,1.6-1.2,2.6-1.8,1.7
	C441.4,206.5,440.4,204.1,441.7,204.3z M439.6,205.2v1.7h-1.8C438,205.8,438.9,205.6,439.6,205.2z M437.8,212.9
	c1.6-0.5,0.1,2.6,1,2.9l-0.7,0.4C438.3,215,438.2,213.5,437.8,212.9z M444.5,212.5c0,0.4,0,0.5-0.1,0.7l-0.5,0.2
	C444.1,213.1,444.3,212.8,444.5,212.5z M445.4,212.8c0-0.1-0.1-0.2-0.1-0.2c0.7-2.3,0.6-1.3,0.7,0L445.4,212.8z M199.1,226.3
	c-0.6,0-1.1,0.1-1.2-0.4C199.3,225.5,200.4,227.5,199.1,226.3z M189.7,223.2c0.7,0.5,1.8,0.6,1.9,1.6h-1.9V223.2z M189.4,211.9
	C189.9,210.3,189.9,213.4,189.4,211.9L189.4,211.9z M161.8,207.7c0.1-0.1,0.1-0.2,0.2-0.5c0.1,0.2,0.1,0.5,0.1,0.7L161.8,207.7z
	 M169.9,229.1c-0.4,0.7-0.8,1.6-1.6,0.8C168.6,229.3,169.2,229.1,169.9,229.1z M168.4,227.5c0.5,0.1,0.2,0.7,0.8,0.8
	C169,229.3,167.9,228.4,168.4,227.5z M167.9,215.4c0.2,1.2-1.1,0.7-0.8,1.9c-0.6-0.1-0.1-1.2-0.8-1.2
	C166.7,215.7,167.2,215.4,167.9,215.4z M167.9,228.7c-0.7,1.3-1-0.7-0.8-1.6C169,226.7,166.6,228.5,167.9,228.7z M167.2,236.9
	c0.8-0.8-0.4,1.9-1.6,1.6c-0.2-1.7,0.2-2.6,0.4-3.9C167.4,234.9,165.8,238,167.2,236.9z M164.4,206.8c0.7,0,0.5,1.1,1.6,0.8
	c-0.1,1-1.2,0.8-1.6,1.6C163.7,209.1,164.9,207.9,164.4,206.8z M164.8,226.7c1.3,2.5,0.1,2.9-1.9,3.1
	C161.8,226.2,164.2,229.8,164.8,226.7z M164.4,235.7c0.7,0.5,0.4,2,0.8,2.8c-1.2-0.1-1.2,0.8-2.4,0.8
	C162.9,237.4,164.9,237.8,164.4,235.7z M161.7,217.4c-0.5-0.5-0.6-0.1-1.2,0c-0.4,0,0.8-1.8,1.9-1.6
	C163,217.1,161.2,216,161.7,217.4z M161,238.4c-0.8,0.1-0.1-1.4-0.4-1.9C162.2,236.4,160.9,237.7,161,238.4z M160.1,230.3
	c-0.7-0.2,1.3-1,1.2-1.9c0.5,0.1,0.4,1,0.4,1.6C160.9,229.7,160.7,230.2,160.1,230.3z M159.9,236.9c0.1,1.1,0.5,2,0.2,3.6
	c-0.1,0-0.2,0.1-0.2,0.1V236.9z M161,212.1c-0.2,0.4-0.5,0.7-0.8,1c-0.1,0.1-0.2,0.2-0.2,0.4v-1.3H161z M78.8,238.4H45.3l-2.4,1.2
	v-27.5h35.8V238.4z M119.3,242H81.1v-33.4l19.1-12.8l19.1,12.8V242z M121.7,212.1h35.8v27.5l-2.1-1.2h-33.7V212.1L121.7,212.1z
	 M40.6,251.6v41.9H37v-14.4h0.6c0.4,0,0.6-0.5,0.6-1.2s-0.2-1.2-0.6-1.2c-0.4,0-0.6,0-0.6,0v-25.1H40.6z M43,293.4v-41.9H76v25.1
	c0,0-0.2,0-0.6,0c-0.4,0-0.6,0.5-0.6,1.2s0.2,1.2,0.6,1.2H76v14.4H43z M168.7,258.7c-0.2-0.1-0.4-0.4-0.5-0.5v-1.7
	c0.4-0.1,0.7-0.2,1.3-0.2C169.7,257.5,169,257.9,168.7,258.7z M168.3,256v-0.6c0.1-0.4,0.4-0.6,0.5-1c0.4,0.2,0.7,0.5,0.8,0
	C170.7,255,169.5,256.2,168.3,256z M124.5,293.4v-14.4c0,0,0.2,0,0.6,0c0.4,0,0.6-0.5,0.6-1.2s-0.2-1.2-0.6-1.2h-0.6v-25.1h33.1
	v41.9H124.5z M159.9,293.4v-41.9h3.6v25.1h-0.6c-0.4,0-0.6,0.5-0.6,1.2s0.2,1.2,0.6,1.2s0.6,0,0.6,0v14.4H159.9z M168.3,293.4v-11.6
	c0.2-0.4,0.5-0.7,0.8-0.8c0,0.5,0.7,0.4,0.8,0.8c-0.5,1.1-0.5,1.3-1.2,0.4c0.4,1.1,0.8,3.1,1.6,1.6c1.1,1.2-1.2,5.3,1.2,5.4
	c0.2-1.9,0.4-4.5,0.1-6c2,0.1,0-1.4,1.4-1.7v12.1h-4.8V293.4z M188.6,232.5c-0.6-0.4-0.8-1-0.8-1.9
	C189.1,230.3,188.4,231.8,188.6,232.5z M187.5,222.4c1.4-0.2,0.2,2,1.9,1.6C188.8,225,186.9,223.9,187.5,222.4z M186.6,208
	c0.7,0.1,0.8,0.7,0.8,1.6C186.8,209.5,186.5,208.9,186.6,208z M186.3,215.8c-0.7,0.1-2.3,1-2.4-0.8c0.4,0,0.4,0.5,0.4,0.8
	c0.8-0.4,1.4-1.2,1.6-2.4C186.8,213.5,186,215.1,186.3,215.8z M185.1,207.5h0.8c-0.7,1-1.9-0.6-1.6-1.9
	C185.2,205.8,185.1,206.6,185.1,207.5z M184.7,201.3c-0.1,1,0.1,1.6,0.4,1.9C184.9,204.1,182.1,201.3,184.7,201.3z M183.2,204.1
	c0.6,0.4,0.5,1.7,0.8,2.4C182.5,206.4,182.8,205,183.2,204.1z M182.7,222.9c-0.1,0.5-1,0.4-1.6,0.4v-1.9
	C182.8,220.7,181.2,223.5,182.7,222.9z M180.8,211.5c1.7,0.2,1.8,2.2,1.9,3.9C181,215.2,181,213.3,180.8,211.5z M180.4,202.2
	c0.4-0.1,0.4,0.1,0.4,0.4c0.1,0.6,0.5-0.1,1.2,0c0.1,1-0.7,0.8-0.4,1.9C180.8,204.2,180.2,203.5,180.4,202.2z M180.4,221.7
	C181.7,223.1,179.4,223.6,180.4,221.7L180.4,221.7z M180.8,224.4c-1.1,0.2-0.8-0.7-1.6-0.8C179,223.1,181.2,223.5,180.8,224.4z
	 M179.6,225.6C179.8,225.8,179.5,225.4,179.6,225.6L179.6,225.6z M180.1,248.6c0.7,0.1,0.8,0.7,0.8,1.6
	C180.1,250,180,249.4,180.1,248.6z M180.8,252.9c-0.8,0.1-0.1-1.4-0.4-1.9C182.1,250.7,180.7,252.2,180.8,252.9z M183.2,261
	c-0.4-0.2-0.6-0.4-1.2-0.4c0.7-1.4,0.5-0.7,0-2.4C182.9,258.6,183.3,259.6,183.2,261z M182,253.6C182,253.7,182.1,253.7,182,253.6
	C182,253.7,181.9,253.5,182,253.6z M183.2,232.5c-0.8-0.1-0.7-1.1-1.6-1.2c0-0.7,1,0.1,0.8,0.4c0.8-1.4,0-4.7,1.2-1.6
	C183.1,230.6,183.1,231.6,183.2,232.5z M184.3,232.9c-1.2-0.4,0.5-1.1,0.4-1.6c-0.2-0.4-0.4-0.6-0.4-1.2c0.7,0.8,1.1,2,1.6,3.1
	C185.3,233.4,184.4,232.1,184.3,232.9z M183.5,222.4c0.4,0,0.4,0.5,0.4,0.8c1.1-0.4-0.6-1.2,0-2.4c0.4,0,0.4,0.5,0.4,0.8
	c0.4,0.1,0.4-0.1,0.4-0.4c0.8,0.2-0.5,0.6,0.4,1.2c0.8,0.1,0.1-1.4,0.4-1.9c1,0.7,0.8,1.6,1.2,3.5
	C185.1,223.9,183.2,224.3,183.5,222.4z M186.3,239.2c0.5,0.1,0.8,0.5,0.8,1.2C186.5,240.2,186.3,239.8,186.3,239.2z M187.8,260.7
	c-0.5-0.1-0.6-0.7-1.2-0.8c0-0.7,0.5-0.8,0.4-1.6C187.7,258.6,188,259.6,187.8,260.7z M188.2,257.5c0.5-1.2,1.1,0.4,0.8,1.2
	c0.5-0.1,0.4-0.7,0.4-1.2c1.2,0.5,0.5,2.8,1.6,3.1C188.8,262.3,188.7,258.7,188.2,257.5z M196.4,267.7c-0.1-0.1,0.1-0.7,0-0.8
	c-1.4-1.1-3.3-1.3-4.3-2.8c0.2-1.1-0.5-3.1,0.4-3.5c0.1,0.4,0,0.7,0.4,0.8c0.1-0.4,0-0.7,0.4-0.8c0.2,2.5,0.8,2,1.9,3.5
	c-0.2-1.6,1.4-1.2,1.6-2.4c0,1.7,1.7,0.5,1.6,0.4c0.4,0.4,0.2,1,0.4,1.4c-0.1,0.1-0.2,0.4-0.5,1c-0.4,0.7,0.4,2,0.4,1.9
	c-0.4,1.4,0.1,1.2,0.1,2c0,0.2,0,0.4-0.1,0.5C197.7,268.7,197,268.2,196.4,267.7z M197.1,274.3C198.2,275.8,195.8,276.8,197.1,274.3
	L197.1,274.3z M197.5,281.3c0.6-0.7,0.7-1.9,1.4-2.4c0,0.4,0.1,0.6,0.1,1c0,0.1,0,0.1,0,0.1c-0.2,0.6,0.2,0.6,0.4,2.5
	C198.8,282.2,198.3,281.6,197.5,281.3z M283.9,295.8v-29.9h15.5v29.9H283.9z M349.5,295.8h-48.9v-29.9v-1.2h-17.9v1.2v29.9h-7.2
	h-56.1v-37.1h56.1h74h10.7v1.2h-1.8v2.4h1.8v1.2h-4.8v2.4h4.8v1.2h-1.8v2.4h1.8v1.2h-4.8v2.4h4.8v1.2h-1.8v2.4h1.8v1.2h-4.8v2.4h4.8
	v1.2h-1.8v2.4h1.8v1.2h-4.8v2.4h4.8v1.2h-1.8v2.4h1.8v1.2h-4.8v2.4h4.8v1.2H349.5z M349.5,254h-136v-1.2h136h10.7h27.4v1.2h-6.1
	H349.5z M416.1,262.6C416.2,262.7,416.1,262.6,416.1,262.6L416.1,262.6z M496.6,273.1v-8.4h8.4v8.4H496.6z M504.9,274.3v8.4h-8.4
	v-8.4H504.9z M503.6,262.3l0.6,1.2h-18.4v20.3h20.3v-20.3l2.3-1.1v22.6h-24.9v-22.7H503.6z M487,274.3h8.4v8.4H487V274.3z
	 M487,273.1v-8.4h8.4v8.4H487z M483.4,287.4h24.9v8.4h-24.9V287.4z M465.5,208.6l26.3,12v25h-52.5v-25L465.5,208.6z M424.2,264.6
	C423.2,262.2,425.1,263.5,424.2,264.6L424.2,264.6z M458.4,285.1H439v-22.7h19.3V285.1z M430.9,266.8c0.1-2,0.7-1.6,0-3V263
	c1.1,0.4,1.2,1.8,1.7,2.8c-0.7,0.2-1.1,0.8-1.7,1.2V266.8z M430.9,268.7c0.2-0.2,0.5-0.5,0.4-1.2c0.4,0.6,1,1,1.1,2
	c0.6-0.7,0.5-2.2,0.7-3.2c0.8,0.1,0,2.2,0.7,2.4c0.6-1,0.6-0.7,1.1,0.4c0.6-0.1,0.2-1.4,0.7-1.7c0.4,0.6,0.8,1.1,1.2,1.4v16.3h-4.1
	c-0.1-0.2-0.1-0.4-0.2-0.5c-0.1-0.1-0.2-0.1-0.5,0c-0.2,0-0.4-0.1-0.4-0.2c0-0.4-0.4-0.6-0.7-0.6V268.7L430.9,268.7z M434,265.1
	c-0.1-1.1,0.8-1,1.1-1.7C435.1,264.4,434.5,264.7,434,265.1z M436.7,293.3c-0.1,0.1-0.2,0.1-0.4,0c-0.2-0.2-0.5-0.2-0.7-0.1
	c-0.1,0.2-0.1-1.8,0.4-1.7c0.6,0.1,1-1.6,0.6-2.3c-0.2-0.5-0.7-0.4-1-0.6c0.1,0-0.4-0.7-0.8-1.2h2.1L436.7,293.3z M439,287.4h19.3
	v8.4H439V287.4z M423.8,259.9v1.1c-0.4-0.2-0.4-1.1,0-1.2v-1.1h81.7l-2.6,1.2H423.8z"/>
<path class="st0" d="M432.2,223.9c0.2-0.1,0.4-0.2,0.5-0.5l-0.5-1.1C432.4,222.9,432.1,223.6,432.2,223.9z"/>
<path class="st0" d="M620.2,293.4v-1.2v-2.4v-1.2v-2.4v-1.2v-2.4v-1.2v-2.4v-1.2v-2.4v-1.2v-2.4v-1.2v-2.4v-1.2v-2.4v-1.2v-2.4v-1.2
	v-0.4c-1-0.2-1.8-0.8-2.4-2.2c-2-3.8-0.4-8.7-1.7-12.9c-0.1-0.5,0.1-1,0.6-1.1c0.4-0.1,0.8,0,1.1,0.4c0.5,0.8,1.3,1.7,2.4,2.4v-1.8
	v-3.6v-3.6v-3.6V230v-3.6v-3.6v-3.6H619v-3.1v-0.5h2.3c-1.7-0.5-2.9-2-2.9-3.9c0-2.3,1.8-4.2,4.1-4.2h0.5c4.5,0,8.2-3.7,8.2-8.3
	v-2.6c0-0.4,0-0.8,0.1-1.2c-1.3-1-2.9-1.7-4.9-1.2c-0.2,0-0.5,0-0.7-0.1c-1.6-1.2-4.1-1.1-4.9,0.1c-1.1,1.6-4.3,0.4-4.5,2.8
	c0,0.5-0.6,0.8-1.1,0.7c-1.2-0.4-3-0.6-4.1-0.5c-0.4,0.1-0.7-0.1-1-0.4c-1.8-3-8.2-1.7-6.8,1.6c0.2,0.5-0.1,1-0.5,1.2
	c-0.2,0.1-0.5,0.4-0.7,0.6c-0.2,0.4-0.8,0.5-1.2,0.2l-0.2-0.2c-0.2-0.1-0.4-0.2-0.6-0.1c-1.2,0.2-2,0.5-3,0.6
	c-1.2,0.1-5.3-1.3-5.3,1.1c0,0.5-0.5,0.8-0.8,0.8c-1.2,0-2.4,0.8-2.4,1.9c0,0.6-0.5,1-1.1,0.8c-0.6-0.1-1.1-0.2-1.3,0.1
	c-0.7,1-1.6,4.1-1.2,6c0.1,0.5-0.2,1-0.7,1.1c-0.6,0.1-1.1,0.5-1.4,1c-0.2,0.2-0.6,0.5-1,0.4l-0.7-0.6c-0.2-0.1-0.5,0-0.7,0.1
	c-1.6,1-3.8,2.4-3,1.6c-0.8,0.8-2.4,2.8-3.1,4.2c-1.1,2.2-0.1,7.4,1.7,6.8c1.4-0.5,1.3,4.4,1.1,3.7c-0.8-0.2-1.7,1.1-2.1,1.7
	c-0.4,0.4-0.8,0.4-1.2,0l-0.4-0.4c-0.1-0.1-0.4-0.2-0.6-0.2c-1.4,0-2.6-0.2-3.7,1.1c-2.1,2.5,0.8,4.1,0.5,6.1
	c-0.4,1.8-2.1,1.7-2.6,3.5c-0.2,1.1,0,2.9,1,3.8c0.4,0.4,0.4,0.8,0,1.2c-0.2,0.4-0.5,0.7-0.5,1.2c0,0.4-0.2,0.6-0.6,0.7
	c-1.3,0.5-0.6,2.6-0.1,3.6c0.1,0.2,2,1.2,3.3,1.8c0.5,0.2,0.7,0.8,0.4,1.3c-1.9,2.9,4.9,3,5.5,3.3c0.8,0.5,2,2.4,2.6,2.4
	c1.4,0,2.5,0.1,2.5-1.4c0-0.8,2-1.2,2.7-1.6c0.1-0.1,0.4-0.1,0.5-0.1c0.7,0,1.3-0.2,1.7-0.7c0.2-0.4,0.6-0.5,1-0.4
	c0.4,0.2,0.8,0.2,1.2,0c0.7-0.2,3.8-1.1,5.1-1.7c0.4-0.1,0.7-0.1,1,0.2c2.4,2.5,6.9-2.6,8.6-3.6c2.3-1.2,1.7-1.4,3.5,2
	c1.4,2.8,6,4.7,7,7.7c1.1,3.2,0.7,13.8,0.6,20.8c0,1.3-0.8,14.2-1.1,16.1h5v-4.8H620.2L620.2,293.4z M607.9,252.3
	c-1.3-1.7-1.9-2.4-1.3-4.2c0.6-1.9,0.6-0.1,1.7-1.1c0.7-0.7,3.8-3.9,4.4-3.3C615.3,246.8,613.3,259.1,607.9,252.3z"/>
<path class="st0" d="M766.4,292c-0.5-0.4-1-0.7-1.3-1.1c-0.6-0.6-0.7-1.2-1.2-1.9c-0.4-0.7-0.7-0.6-1.3-1.1
	c-0.8-0.6-0.6-1.7-1.8-1.9c-0.6-0.2-1.8,0.2-2-0.5c-0.2-0.5,0-0.4,0.5-0.6c1.2-0.7,1.3-1.7,2.7-1.7c0.6,0,1.1,1.1,1.6,1.1
	c0.2,0,0.5,1.2,0.8,1.2c0.2,0,0.5-0.2,0.7-0.2c0,0.7,0.6,0.7,1.4,0.5v-9.1h2.4h59.7v-10.8h-59.7v1.8c-0.2-0.2-0.6-0.5-1-0.6
	c0.2-0.4,0.5-0.7,0.6-1.2h-1.9v-2.8c-0.5,0-0.8,0.1-1.2,0.4c0.1-1.9-1.3-2.3-2.7-1.6c-0.5-0.7-0.2-1.3-1.3-1.4
	c-0.7-0.1-1.6,0.4-2,0.8c-0.6-1.8-2.3,1.1-2.5,1c-0.4-0.2-0.6-1.2-1.1-1.4c-0.6-0.5-1.3-0.7-2-0.8c-1.6-0.2-2.6,0.8-3,2.3
	c-0.6-0.8-2.7-0.7-2.7,0.6c-1.2-1-1.9,0.6-2.1,1.4c-1-1.1-1.8,0.7-2,1.6c-0.4,1.4-0.4,2.8,0.6,3.8c-1.8,0.6-2.9,2.8-1.6,4.3
	c0.7,0.8,1.7,0.7,2.6,1c1.2,0.4,0,0.8,0.5,1.8c-0.2,0-0.5,0-0.7-0.1c0.4-0.7-0.2-1.1-0.8-1c-0.6,0.1-1.1,0.6-1.6,0.8
	c-0.2,0.1-0.6,0.5-0.8,0.4c-0.2-0.1-0.2-1.1-0.4-1.3c-0.1-0.2-0.4-0.4-0.6-0.4c-1.3-0.4-1.7,1.7-2.6,1.4c-0.5-0.1-0.5-0.6-1.1-0.2
	c-0.5,0.2-0.6,1-1.1,1.1c0.2-0.1-0.7-0.6-0.8-0.6c-0.7-0.1-0.8,0.5-1.3,0.8c0,0.4-0.1,0.5-0.5,0.2c-0.2,0.1-0.4,0.2-0.5,0.5
	c-0.2,0.4,0,0.5-0.4,0.7c-0.4,0.4-0.6,0.1-0.8,0.6c-0.2,0.6,0.1,1,0,1.4c-0.1,0.5-0.6,0.7-0.4,1.4c0.1,0.5,0.5,0.7,1,1
	c-0.5,0.6-0.8,1.6-0.1,2.2c0.5,0.5,1.3,0.6,1.9,0.1c-0.1,1.3,0.8,1.4,1.8,1c0.2,0.4,0.1,0.7,0.7,1c0.5,0.1,1.1-0.2,1.6-0.5
	c0.4,1,1.1-0.2,1.3-0.4c0.7-0.4,0.2,0.5,1,0.7c0.7,0.2,1-0.4,1.7-0.5c0.5-0.1,1.6,0.2,1.7-0.5c0.4,0.6,1.8,0.5,1.8-0.4
	c0.8,0.6,1.3-0.4,1.4-1c0.6,0.7,0.8-0.5,1.3-0.5c0.4,0,3-1,3.2-0.7c1,0.8,0.5,2.5,1.1,3.6c1.6,2.9,4.3,2.5,6.7,3.8
	c1.1,0.6,0.8,1.8,2,2.4c0.6,0.2,0.8,0.2,0.7,1c-0.1,0.5-0.8,1-1.2,1.2c-1.1,0.7-2.4,0.7-3.7,0.7c-0.8,0-1.6-0.1-2.4,0.1
	c-0.7,0.2-1.2,0.7-1.9,1c6.9,0,14,0,20.9,0c0,0,0,0-0.1,0h-7.2v-6H766.4z M814.1,267.1h13.1v8.4h-13.1V267.1z M799.8,267.1h13.1v8.4
	h-13.1V267.1z M783,267.1v8.4h-13.1v-8.4H783z M768.6,270.5v0.5C768.5,270.8,768.5,270.7,768.6,270.5z M767,273.9
	c0.2-0.2,0.6-0.2,1-0.4c0.5-0.2,0.7-0.6,0.8-1.1v2.3c-0.2,0.2-0.4,0.6-0.6,0.7c-0.1,0-0.2-0.5-0.4-0.6c-0.4-0.1-0.8,0-1.2,0.1
	C766.9,274.8,766.6,274.3,767,273.9z M750.6,280.1c-0.2,0.7,1,1.9,0.5,2.4c-0.4,0.5-2.3,0.2-2.9,0.5c0-0.6-0.1-1-0.5-1.4
	c1.2-0.4,1.9-1.8,1-2.9c1.3,0.4,2.7-1,3.7-1.7C752.1,278.2,751.1,279,750.6,280.1z M756,284.5c-0.6,0.7-0.4,1.1-0.2,2
	c-2.5,0.2-2-2-2.5-3.7c-0.1-0.7-1-1.8-0.7-2.5c0.1-0.4,0.5-0.6,0.6-1c0.2-0.5,0.2-1.1,0.4-1.6c0.5,1.7,1.7,2.4,3.2,1.2
	c0.5-0.4,1-1.7,1.7-1.7c0.6-0.1,0.8,0.7,1.6,0.7c1,0,1.8-1.9,2.3-1.7c0,0,0.2,0.7,0.4,0.7c0.4,0.2,1.1,0.1,1.4,0
	c0.8-0.2,1.2-0.8,1.4-1.7c0.2,0.1-0.4,1.2-0.5,1.3c-0.2,0.5-0.6,0.4-1,0.7c-0.2,0.2-0.5,0.7-0.4,1.1c0,0.1,0,0.2,0,0.4
	c0.2,0.2,0.1,0.5-0.1,0.6c-0.2,1-0.2,1.6,0.8,2c-0.2,0.4-0.1,1.3-0.7,1c-0.4-0.2-1.2-1.2-1.7-1.1c-0.7,0.1-1.1,0.6-1.8,0.6
	c-0.8,0-1.7,0.7-2.5,1.2C757.2,283.4,756.5,284,756,284.5z"/>
<path class="st1" d="M667.3,194.3h-6.1v5.4h6.1V194.3z"/>
<path class="st1" d="M667.3,200.9h-6.1v5.4h6.1V200.9z"/>
<path class="st1" d="M642.2,265.9h-5.9v6.6h5.9V265.9z"/>
<path class="st1" d="M685.2,183.7h-48.1v1.2h48.1V183.7z"/>
<path class="st1" d="M660,194.3h-5.8v5.4h5.8V194.3z"/>
<path class="st1" d="M620.2,219.3v3.6v-2.4h4.2v2.4h-4.2v3.6v-2.4h5.4v2.4h-5.4v3.6v-2.4h4.2v2.4h-4.2v3.6v-2.4h5.4v2.4h-5.4v3.6
	v-2.4h4.2v2.4h-4.2v3.6v-2.4h5.4v2.4h-5.4v3.6V242h4.2v2.4h-4.2v1.8v1.8v-2.4h5.4v2.4h-5.4v3.6v-2.4h4.2v2.4h-4.2v1.2h1.9H699h2.4
	v-0.1v-1.1h-4.2v-2.4h4.2v2.4V248H696v-2.4h5.4v2.4v-2v-1.6h-4.2V242h4.2v2.4v-3.6H696v-2.4h5.4v2.4v-3.6h-4.2v-2.4h4.2v2.4v-3.6
	H696v-2.4h5.4v2.4V230h-4.2v-2.4h4.2v2.4v-3.6H696v-2.4h5.4v2.4v-3.6h-4.2v-2.4h4.2v2.4v-3.6H620.2z M635.1,225.3h22.7V242h-22.7
	V225.3z M686.4,242h-15.5v-16.7h15.5V242z"/>
<path class="st1" d="M660,200.9h-5.8v5.4h5.8V200.9z"/>
<path class="st1" d="M642.2,273.7h-5.9v6.6h5.9V273.7z"/>
<path class="st1" d="M675.7,265.9h-4.8v8.4h4.8V265.9z"/>
<path class="st1" d="M656.6,265.9h-6.1v6.6h6.1V265.9z"/>
<path class="st1" d="M656.6,226.4h-6.1v6.6h6.1V226.4z"/>
<path class="st1" d="M661.2,165.8c-8.7,0-15.4,6.9-15.6,15.5H677C676.6,172.7,670,165.8,661.2,165.8z"/>
<path class="st1" d="M656.6,273.7h-6.1v6.6h6.1V273.7z"/>
<path class="st1" d="M649.4,265.9h-6.1v6.6h6.1V265.9z"/>
<path class="st1" d="M649.4,273.7h-6.1v6.6h6.1V273.7z"/>
<path class="st1" d="M677.9,234.2h-5.8v6.6h5.8V234.2z"/>
<path class="st1" d="M685.2,234.2h-6.1v6.6h6.1V234.2z"/>
<path class="st1" d="M677.9,226.4h-5.8v6.6h5.8V226.4z"/>
<path class="st1" d="M685.2,226.4h-6.1v6.6h6.1V226.4z"/>
<path class="st1" d="M649.4,226.4h-6.1v6.6h6.1V226.4z"/>
<path class="st1" d="M642.2,234.2h-5.9v6.6h5.9V234.2z"/>
<path class="st1" d="M649.4,234.2h-6.1v6.6h6.1V234.2z"/>
<path class="st1" d="M642.2,226.4h-5.9v6.6h5.9V226.4z"/>
<path class="st1" d="M656.6,234.2h-6.1v6.6h6.1V234.2z"/>
<path class="st1" d="M633.2,199.3c0,5.7-4.5,10.4-10.3,10.4h-0.5c-1.1,0-2,1-2,2c0,1.2,1,2,2,2v1.9h76.4h0.1v-1.9c1.1,0,2-1,2-2
	c0-1.2-1-2-2-2c-5.6,0-10.3-4.7-10.3-10.4v-2.6c0-2.9-2.3-5.1-5.1-5.1h-1.1v-4.1h-43.2v4.1h-1.1c-2.9,0-5.1,2.3-5.1,5.1v2.6H633.2z
	 M653,193.1h7h1.2h7.3v14.4H653V193.1z"/>
<path class="st1" d="M620.2,256.3v1.2h4.2v2.4h-4.2v1.2h5.4v2.4h-5.4v1.2h4.2v2.4h-4.2v1.2h5.4v2.4h-5.4v1.2h4.2v2.4h-4.2v1.2h5.4
	v2.4h-5.4v1.2h4.2v2.4h-4.2v1.2h5.4v2.4h-5.4v1.2h4.2v2.4h-4.2v1.2h5.4v2.4h-5.4v1.2h56.1v1.2h-1.2v3.6h1.2v-2.4h20.3v2.4h1.2v-3.6
	h-1.2v-1.2h4.8v-1.2H696v-2.4h5.4v-1.2h-4.2v-2.4h4.2v-1.2H696v-2.4h5.4v-1.2h-4.2v-2.4h4.2v-1.2H696v-2.4h5.4v-1.2h-4.2v-2.4h4.2
	v-1.2H696v-2.4h5.4v-1.2h-4.2v-2.4h4.2v-1.2H696v-2.4h5.4v-1.2h-4.2v-2.4h4.2v-1.2H620.2z M657.8,281.5h-22.7v-16.7h22.7V281.5z
	 M678.7,270.7c0-4.3,3.5-7.8,7.8-7.8s7.8,3.5,7.8,7.8v16.7H693v-16.7c0-3.6-3-6.6-6.6-6.6c-3.6,0-6.6,3-6.6,6.6v16.7h-1.2V270.7z
	 M691.8,277.5c0,0.5-0.4,1-1,1c-0.5,0-1-0.4-1-1c0-0.5,0.4-0.8,1-1C691.3,276.7,691.8,277,691.8,277.5z M678.7,288.6h15.5v2.4h-15.5
	V288.6z M677.5,292.2h17.9v2.4h-17.9V292.2z M669.7,264.7h7.2v10.8h-7.2V264.7z"/>
<path class="st0" d="M657.8,225.3h-22.7V242h22.7V225.3z M642.2,240.8h-5.9v-6.6h5.9V240.8z M642.2,233h-5.9v-6.6h5.9V233z
	 M649.4,240.8h-6.1v-6.6h6.1V240.8z M649.4,233h-6.1v-6.6h6.1V233z M656.6,240.8h-6.1v-6.6h6.1V240.8z M650.5,233v-6.6h6.1v6.6
	H650.5z"/>
<path class="st0" d="M686.4,183.7v-2.4h-1.3h-5.8c-0.2-9.8-8.2-17.9-18-17.9c-9.8,0-17.8,8.1-18,17.9h-6h-1.2v2.4h1.2h48.1H686.4z
	 M645.5,181.4c0.4-8.6,6.9-15.5,15.6-15.5s15.4,6.9,15.6,15.5H645.5z"/>
<path class="st0" d="M631.2,199.3c0,4.5-3.7,8.3-8.2,8.3h-0.5c-2.3,0-4.1,1.9-4.1,4.2c0,1.9,1.2,3.5,2.9,3.9H619v0.5v3.1h1.2h81.2
	h1.2v-3.1v-0.5h-2.3c1.7-0.5,2.9-2,2.9-3.9c0-2.3-1.8-4.2-4.1-4.2c-4.5,0-8.2-3.7-8.2-8.3v-2.6c0-0.8-0.1-1.7-0.5-2.4
	c-0.8-2.5-3.1-4.4-5.7-4.8v-2h1.8v-2.4h-1.2h-48.1h-1.2v2.4h1.3v2c-3.1,0.5-5.5,2.9-6.1,6c-0.1,0.4-0.1,0.7-0.1,1.2v2.6H631.2z
	 M638.3,191.5h1.1v-4.1h43.2v4.1h1.1c2.9,0,5.1,2.3,5.1,5.1v2.6c0,5.7,4.5,10.4,10.3,10.4c1.1,0,2,1,2,2c0,1.2-1,2-2,2v1.9H699
	h-76.4v-1.9c-1.1,0-2-1-2-2c0-1.2,1-2,2-2h0.5c5.6,0,10.3-4.7,10.3-10.4v-2.6C633.2,193.8,635.6,191.5,638.3,191.5z"/>
<path class="st0" d="M690,277.5c0,0.5,0.4,1,1,1c0.5,0,0.8-0.4,1-1c0-0.5-0.4-1-1-1C690.4,276.7,690,277,690,277.5z"/>
<path class="st0" d="M625.6,245.6h-5.4v2.4h5.4V245.6z"/>
<path class="st0" d="M624.4,242h-4.2v2.4h4.2V242z"/>
<path class="st0" d="M625.6,238.4h-5.4v2.4h5.4V238.4z"/>
<path class="st0" d="M624.4,234.8h-4.2v2.4h4.2V234.8z"/>
<path class="st0" d="M625.6,231.2h-5.4v2.4h5.4V231.2z"/>
<path class="st0" d="M624.4,227.6h-4.2v2.4h4.2V227.6z"/>
<path class="st0" d="M625.6,224.1h-5.4v2.4h5.4V224.1z"/>
<path class="st0" d="M620.2,285.1h5.4v-2.4h-5.4V285.1z"/>
<path class="st0" d="M620.2,281.5h4.2v-2.4h-4.2V281.5z"/>
<path class="st0" d="M620.2,292.2h5.4v-2.4h-5.4V292.2z"/>
<path class="st0" d="M620.2,288.6h4.2v-2.4h-4.2V288.6z"/>
<path class="st0" d="M620.2,277.9h5.4v-2.4h-5.4V277.9z"/>
<path class="st0" d="M620.2,274.3h4.2v-2.4h-4.2V274.3z"/>
<path class="st0" d="M620.2,270.7h5.4v-2.4h-5.4V270.7z"/>
<path class="st0" d="M620.2,267.1h4.2v-2.4h-4.2V267.1z"/>
<path class="st0" d="M620.2,263.5h5.4v-2.4h-5.4V263.5z"/>
<path class="st0" d="M701.3,245.6H696v2.4h5.4V245.6z"/>
<path class="st0" d="M701.3,242h-4.2v2.4h4.2V242z"/>
<path class="st0" d="M624.4,249.2h-4.2v2.4h4.2V249.2z"/>
<path class="st0" d="M701.3,249.2h-4.2v2.4h4.2V249.2z"/>
<path class="st0" d="M701.3,238.4H696v2.4h5.4V238.4z"/>
<path class="st0" d="M701.3,234.8h-4.2v2.4h4.2V234.8z"/>
<path class="st0" d="M701.3,231.2H696v2.4h5.4V231.2z"/>
<path class="st0" d="M701.3,227.6h-4.2v2.4h4.2V227.6z"/>
<path class="st0" d="M624.4,220.5h-4.2v2.4h4.2V220.5z"/>
<path class="st0" d="M701.3,220.5h-4.2v2.4h4.2V220.5z"/>
<path class="st0" d="M701.3,224.1H696v2.4h5.4V224.1z"/>
<path class="st0" d="M696,285.1h5.4v-2.4H696V285.1z"/>
<path class="st0" d="M697.2,281.5h4.2v-2.4h-4.2V281.5z"/>
<path class="st0" d="M696,292.2h5.4v-2.4H696V292.2z"/>
<path class="st0" d="M697.2,288.6h4.2v-2.4h-4.2V288.6z"/>
<path class="st0" d="M696,277.9h5.4v-2.4H696V277.9z"/>
<path class="st0" d="M697.2,274.3h4.2v-2.4h-4.2V274.3z"/>
<path class="st0" d="M696,270.7h5.4v-2.4H696V270.7z"/>
<path class="st0" d="M697.2,267.1h4.2v-2.4h-4.2V267.1z"/>
<path class="st0" d="M620.2,259.9h4.2v-2.4h-4.2v2V259.9z"/>
<path class="st0" d="M697.2,259.9h4.2v-2.4h-4.2V259.9z"/>
<path class="st0" d="M696,263.5h5.4v-2.4H696V263.5z"/>
<path class="st0" d="M702.5,253.2v-0.5h-1.1h-0.1H699h-76.9h-1.9H619v0.5v3.1h1.2h81.2h1.2v-1v-1.6V253.2z"/>
<path class="st0" d="M676.9,264.7h-7.2v10.8h7.2V264.7z M675.7,274.3h-4.8v-8.4h4.8V274.3z"/>
<path class="st1" d="M57.3,222.9h4.8v-1.7v-3.1h-4.8V222.9z"/>
<path class="st1" d="M62.1,224.1h-4.8v4.8h4.8V224.1z"/>
<path class="st1" d="M68,261.1h-4.7h-0.1v0.2v4.5H68V261.1z"/>
<path class="st1" d="M56.1,218.1h-4.8v4.8h4.8V218.1z"/>
<path class="st1" d="M68,267.1h-4.8v4.8H68V267.1z"/>
<path class="st1" d="M62.1,267.1h-4.8v4.8h4.8V267.1z"/>
<path class="st1" d="M56.1,261.1h-4.8v4.8h4.8V261.1z"/>
<path class="st1" d="M62.1,273.1h-4.8v2.6v2.2h4.8V273.1z"/>
<path class="st1" d="M57.3,232.7v2.2h4.8V230h-4.8V232.7z"/>
<path class="st1" d="M149.2,273.1h-4.8v4.8h4.8V273.1z"/>
<path class="st1" d="M137.2,261.1h-4.8v4.8h4.8V261.1z"/>
<path class="st1" d="M137.2,267.1h-4.8v4.8h4.8V267.1z"/>
<path class="st1" d="M143.2,264.2v-3.1h-4.8v4.8h4.8V264.2z"/>
<path class="st1" d="M97.9,210.1v8h4.4h0.4v-0.8v-7.2c-0.2,0-0.4-0.1-0.6-0.1c0,0,0,0-0.1,0c-0.2,0-0.5-0.1-0.7-0.1c0,0,0,0-0.1,0
	c-0.2,0-0.6,0-0.8,0C99.4,209.7,98.6,209.8,97.9,210.1z"/>
<path class="st1" d="M56.1,224.1h-4.8v4.8h4.8V224.1z"/>
<path class="st1" d="M137.2,273.1h-4.8v4.8h4.8V273.1z"/>
<path class="st1" d="M108.6,225.3h-4.8v4.8h4.8V225.3z"/>
<path class="st1" d="M102.6,231.2h-4.8v4.8h4.8V231.2z"/>
<path class="st1" d="M97.9,225.3v3.6v1.2h4.8v-4.8h-3.3H97.9z"/>
<path class="st1" d="M62.1,264.2v-3.1h-4.8v4.8h4.8V264.2z"/>
<path class="st1" d="M97.9,219.3v4.8h1.9h2.9v-4.8h-0.8H97.9z"/>
<path class="st1" d="M91.9,218.1h4.8v-7.5C93.8,211.9,91.9,214.7,91.9,218.1z"/>
<path class="st1" d="M108.6,219.3h-4.8v4.8h4.8V219.3z"/>
<path class="st1" d="M108.6,231.2h-4.8v4.8h4.8V231.2z"/>
<path class="st1" d="M68,273.1h-4.8v4.8H68V273.1z"/>
<path class="st1" d="M108.5,217.1c0-0.1,0-0.1,0-0.2c0-0.2-0.1-0.5-0.1-0.7c0-0.1,0-0.1-0.1-0.2c-0.1-0.2-0.1-0.5-0.2-0.7v-0.1
	c-0.7-2-2.3-3.6-4.2-4.5v3.8v3.7h4.8C108.6,217.7,108.6,217.5,108.5,217.1z"/>
<path class="st1" d="M138.4,275.7v2.2h4.8v-4.8h-4.8V275.7z"/>
<path class="st1" d="M68,230h-4.8v4.8H68V230z"/>
<path class="st1" d="M138.4,232.7v2.2h4.8V230h-4.8V232.7z"/>
<path class="st1" d="M137.2,224.1h-4.8v4.8h4.8V224.1z"/>
<path class="st1" d="M137.2,218.1h-4.8v4.8h4.8V218.1z"/>
<path class="st1" d="M75.4,279.1c-0.4,0-0.6-0.5-0.6-1.2s0.2-1.2,0.6-1.2c0.4,0,0.6,0,0.6,0v-25.1H43v41.9H76v-14.4H75.4z
	 M69.2,279.1H50.1v-19.1h19.1V279.1z"/>
<path class="st1" d="M43,239.6l2.4-1.2h33.4v-26.3H43V239.6L43,239.6z M50.1,216.9h19.1V236H50.1V216.9z"/>
<path class="st1" d="M137.2,230h-4.8v4.8h4.8V230z"/>
<path class="st1" d="M96.7,219.3h-4.8v4.8h4.8V219.3z"/>
<path class="st1" d="M63.2,218.1v0.2v4.5H68v-4.8h-4.7H63.2z"/>
<path class="st1" d="M143.2,224.1h-4.8v4.8h4.8V224.1z"/>
<path class="st1" d="M149.2,230h-4.8v4.8h4.8V230z"/>
<path class="st1" d="M138.4,222.9h4.8v-1.7v-3.1h-4.8V222.9z"/>
<path class="st1" d="M96.7,225.3h-4.8v4.8h4.8V225.3z"/>
<path class="st1" d="M91.9,236h3h1.8v-4.3v-0.5h-4.8V236z"/>
<path class="st1" d="M68,224.1h-4.8v4.8H68V224.1z"/>
<path class="st1" d="M100.2,193l25.1,16.7h38.2v-1v-0.2h-37.9l-25.3-17.1L87.6,200l-12.8,8.5H37v1.2h38.2L100.2,193z"/>
<path class="st1" d="M106.2,280.5c0.7,0,1.2-0.5,1.2-1.2s-0.5-1.2-1.2-1.2c-0.7,0-1.2,0.5-1.2,1.2S105.6,280.5,106.2,280.5z"/>
<path class="st1" d="M149.2,224.1h-4.8v4.8h4.8V224.1z"/>
<path class="st1" d="M81.1,208.6V242h38.2v-33.4l-19.1-12.8L81.1,208.6z M109.8,218.1v19.1H90.7v-19.1c0-5.3,4.3-9.6,9.5-9.6
	C105.5,208.5,109.8,212.8,109.8,218.1z"/>
<path class="st1" d="M115.4,295.8v-2.4h1.6h2.7v-14.4h-0.6c-0.4,0-0.6-0.5-0.6-1.2s0.2-1.2,0.6-1.2c0.4,0,0.6,0,0.6,0v-25.1H80.8
	v25.1h0.6c0.4,0,0.6,0.5,0.6,1.2s-0.2,1.2-0.6,1.2c-0.4,0-0.6,0-0.6,0v14.4h3.9h1.6v2.4h-1.6v2.4v1.8h1.2v-2.4h29.8v2.4h1.2v-1.8
	v-2.4H115.4z M88.3,259.9h23.9v33.5H111v-32.3H89.5v32.3h-1.2V259.9z M109.8,262.3v31.1H90.7v-31.1H109.8z M114.2,296.4H87.5v-1.8
	h0.8h1.2h1.8H94h15.2h1.8h1.2h2V296.4L114.2,296.4z"/>
<path class="st1" d="M149.2,218.1h-4.7h-0.1v0.2v4.5h4.8V218.1z"/>
<path class="st1" d="M56.1,230h-4.8v4.8h4.8V230z"/>
<path class="st1" d="M174.2,249.2V248h-16.7H43H26.3v1.2H174.2z"/>
<path class="st1" d="M155.4,238.4l2.1,1.2v-27.5h-35.8v26.3H155.4z M131.3,236v-19.1h19.1V236H131.3z"/>
<path class="st1" d="M143.2,267.1h-4.8v4.8h4.8V267.1z"/>
<path class="st1" d="M149.2,267.1h-4.8v4.8h4.8V267.1z"/>
<path class="st1" d="M149.2,265.9v-4.8h-4.7h-0.1v0.2v4.5H149.2z"/>
<path class="st1" d="M163.5,279.1c0,0-0.2,0-0.6,0s-0.6-0.5-0.6-1.2s0.2-1.2,0.6-1.2h0.6v-25.1h-3.6v41.9h3.6V279.1z"/>
<path class="st1" d="M157.5,251.6h-33.1v25.1h0.6c0.4,0,0.6,0.5,0.6,1.2s-0.2,1.2-0.6,1.2c-0.4,0-0.6,0-0.6,0v14.4h33.1V251.6z
	 M131.3,259.9h19.1v19.1h-19.1V259.9z"/>
<path class="st1" d="M37,276.7c0,0,0.2,0,0.6,0c0.4,0,0.6,0.5,0.6,1.2s-0.2,1.2-0.6,1.2H37v14.4h3.6v-41.9H37V276.7z"/>
<path class="st1" d="M56.1,273.1h-4.8v4.8h4.8V273.1z"/>
<path class="st1" d="M56.1,267.1h-4.8v4.8h4.8V267.1z"/>
<path class="st1" d="M827.2,219.3h-27.4v8.4h27.4V219.3z"/>
<path class="st1" d="M827.2,267.1h-13.1v8.4h13.1V267.1z"/>
<path class="st1" d="M783.1,219.3h-28.6v8.4h28.6V219.3z"/>
<path class="st1" d="M812.9,267.1h-13.1v8.4h13.1V267.1z"/>
<path class="st1" d="M783,267.1h-13.1v8.4H783V267.1z"/>
<path class="st1" d="M849.9,261.1h102.6v-1.2H845.1v-3.6h-78.8v-1.2h78.8h40.6v-2.4h-2.4h-27.4v-34.7h27.4h2.4v-3.6H750.9v3.6h2.4
	h26.3h1.2h47.7v10.8h-47.7h-1.2h-26.3h-2.4v26.3h15.5v4.7v3.3v2.8h1.9h0.4h59.8v10.8h-59.8h-2.3v9.1v6.2v6.2h7.2h76.4V261.1z"/>
<path class="st1" d="M505.4,258.7h-81.6v1v0.2h79L505.4,258.7z"/>
<path class="st1" d="M504.9,264.7h-8.4v8.4h8.4V264.7z"/>
<path class="st1" d="M454.8,264.7h-11.9v8.4h11.9V264.7z"/>
<path class="st1" d="M485.8,232.4h-8.4v8.4h8.4V232.4z"/>
<path class="st1" d="M481,295.8v-33.5h-20.3v33.5v2.4v1.2h1.2V297h17.9v2.4h1.2v-1.2V295.8z M479.9,295.8H462v-1.2v-31.1h17.9v31.1
	V295.8z"/>
<path class="st1" d="M495.4,274.3H487v8.4h8.4V274.3z"/>
<path class="st1" d="M508.4,287.4h-24.9v8.4h24.9V287.4z"/>
<path class="st1" d="M483.4,285.1h24.9v-22.6l-2.3,1.1v20.3h-20.3v-20.3h18.3l-0.5-1.2h-20.2V285.1z"/>
<path class="st1" d="M439.3,245.6h52.5v-25l-26.3-12l-26.3,12V245.6z M487,242h-20.3v-20.3H487V242z M444.1,221.7h20.3V242h-20.3
	V221.7z"/>
<path class="st1" d="M504.9,274.3h-8.4v8.4h8.4V274.3z"/>
<path class="st1" d="M537.1,245.5l-31.7,14.5L503,261l0.5,1.1l33.7-15.4l33.7,15.4l0.8-2l-0.5,1L537.1,245.5z"/>
<path class="st1" d="M495.4,264.7H487v8.4h8.4V264.7z"/>
<path class="st1" d="M559.8,265.9h-45.3v32.3h1.2v-2.4h43v2.4h1.2V265.9z M558.6,294.6h-43v-2.4h43V294.6z M558.6,291h-43v-2.4h43
	V291z M558.6,287.4h-43v-2.4h43V287.4z M558.6,283.9h-43v-2.4h43V283.9z M558.6,280.3h-43v-2.4h43V280.3z M558.6,276.7h-43v-2.4h43
	V276.7z M558.6,273.1h-43v-2.4h43V273.1z M558.6,269.5h-43v-2.4h43V269.5z"/>
<path class="st1" d="M563.4,295.8v-33.5v-1.1l-26.3-12l-26.4,12.1v34.4v2.4h2.5v-33.5H561v33.5h0.4h2V295.8z"/>
<path class="st1" d="M445.2,240.8h5.1h3.2v-7.7v-0.7h-8.4V240.8z"/>
<path class="st1" d="M453.6,222.9h-8.4v8.4h8.4V222.9z"/>
<path class="st1" d="M458.4,287.4H439v8.4h19.3V287.4z"/>
<path class="st1" d="M463.1,232.4h-8.4v8.4h8.4V232.4z"/>
<path class="st1" d="M454.8,222.9v7.4v1h8.4v-8.4h-5.4H454.8z"/>
<path class="st1" d="M431.9,221.4l33.7-15.4l33.7,15.4l0.4-1l-34-15.7l-34.1,15.5l0.7,1.6l0.2,0.5l0.5,1.1v0.1L431.9,221.4z"/>
<path class="st1" d="M467.9,232.4v8.4h4.9h3.5v-8.3v-0.1H467.9z"/>
<path class="st1" d="M433.9,223.1l-1.1,0.5l0.5-0.2l3.6-1.7L433.9,223.1z"/>
<path class="st1" d="M476.3,222.9h-8.4v8.4h8.4V222.9z"/>
<path class="st1" d="M454.8,274.3h-11.9v8.4h11.9V274.3z"/>
<path class="st1" d="M478.7,264.7h-1.4h-14.1v29.9h15.5V264.7z M476.2,282.5h-2.4c-0.7,0-1.2-0.5-1.2-1.2c0-0.7,0.5-1.2,1.2-1.2h2.4
	c0.7,0,1.2,0.5,1.2,1.2C477.3,282.1,476.7,282.5,476.2,282.5z"/>
<path class="st1" d="M477.5,229.7v1.6h8.4v-8.4h-5.5h-2.9V229.7z"/>
<path class="st1" d="M439,285.1h19.3v-22.7H439V285.1z M456,263.5v9.6v1.2v9.6h-14.3v-20.3H456z"/>
<path class="st1" d="M330,265.9h-9.5v8.4h9.5V265.9z"/>
<path class="st1" d="M343.1,265.9h-9.5v8.4h9.5V265.9z"/>
<path class="st1" d="M272,265.9h-40.6v20.3H272V265.9z"/>
<path class="st1" d="M354.3,242h-4.8v1.2h10.7V242h-4.8v-2.4h4.8v-1.2h-1.8V236h1.8v-1.2h-4.8v-2.4h4.8v-1.2h-1.8v-2.4h1.8v-1.2
	h-10.7v1.2h1.8v2.4h-1.8v1.2h4.8v2.4h-4.8v1.2h1.8v2.4h-1.8v1.2h4.8V242z M352.5,231.2v-2.4h4.8v2.4H352.5z M352.5,238.4V236h4.8
	v2.4H352.5z"/>
<path class="st1" d="M316.8,265.9h-9.5v8.4h9.5V265.9z"/>
<path class="st1" d="M283.9,265.9v29.9h15.5v-29.9H283.9z M298.2,284.7c0,0.7-0.5,1.2-1.2,1.2h-1.2c-0.7,0-1.2-0.5-1.2-1.2v-1.2
	c0-0.7,0.5-1.2,1.2-1.2h1.2c0.7,0,1.2,0.5,1.2,1.2V284.7z"/>
<path class="st1" d="M355.5,294.6v-2.4h4.8V291h-1.8v-2.4h1.8v-1.2h-4.8v-2.4h4.8v-1.2h-1.8v-2.4h1.8v-1.2h-4.8v-2.4h4.8v-1.2h-1.8
	v-2.4h1.8v-1.2h-4.8v-2.4h4.8v-1.2h-1.8v-2.4h1.8v-1.2h-4.8v-2.4h4.8v-1.2h-1.8v-2.4h1.8v-1.2h-10.7h-74h-56.1v37.1h56.1h7.2v-29.9
	v-1.2h17.9v1.2v29.9h48.9h10.7v-1.2H355.5z M279.1,294.6h-54.9v-1.2h54.9V294.6z M279.1,292.2h-54.9V291h54.9V292.2z M279.1,289.8
	h-54.9v-1.2h6h43h6V289.8z M279.1,265.9h-6v1.2h6v1.2h-6v1.2h6v1.2h-6v1.2h6v1.2h-6v1.2h6v1.2h-6v1.2h6v1.2h-6v1.2h6v1.2h-6v1.2h6
	v1.2h-6v1.2h6v1.2h-6v1.2h6v1.2h-6h-43h-6v-1.2h6v-1.2h-6v-1.2h6v-1.2h-6v-1.2h6v-1.2h-6v-1.2h6v-1.2h-6v-1.2h6v-1.2h-6v-1.2h6v-1.2
	h-6v-1.2h6v-1.2h-6v-1.2h6v-1.2h-6v-1.2h6v-1.2h-6v-1.2h6h43h6V265.9z M279.1,263.5h-54.9v-1.2h54.9V263.5z M279.1,261.1h-54.9v-1.2
	h54.9V261.1z M318,275.5h-11.9v-10.8H318V275.5z M331.2,275.5h-11.9v-10.8h11.9V275.5z M344.3,275.5h-11.9v-10.8h11.9V275.5z
	 M357.3,288.6v2.4h-4.8v-2.4H357.3z M357.3,281.5v2.4h-4.8v-2.4H357.3z M357.3,274.3v2.4h-4.8v-2.4H357.3z M357.3,267.1v2.4h-4.8
	v-2.4H357.3z M352.5,259.9h4.8v2.4h-4.8V259.9z M349.5,259.9h1.8v2.4h-1.8V259.9z M349.5,263.5h4.8v2.4h-4.8V263.5z M349.5,267.1
	h1.8v2.4h-1.8V267.1z M349.5,270.7h4.8v2.4h-4.8V270.7z M349.5,274.3h1.8v2.4h-1.8V274.3z M349.5,277.9h4.8v2.4h-4.8V277.9z
	 M349.5,281.5h1.8v2.4h-1.8V281.5z M349.5,285.1h4.8v2.4h-4.8V285.1z M349.5,288.6h1.8v2.4h-1.8V288.6z M354.3,294.6h-4.8v-2.4h4.8
	V294.6z"/>
<path class="st1" d="M361.5,258.7v37.1h20.2v-20.2v-16.9H361.5z"/>
<path class="st1" d="M387.7,252.8h-27.4h-10.7h-136v1.2h136h32.1h6.1V252.8z"/>
<path class="st0" d="M319.2,275.5h11.9v-10.8h-11.9V275.5z M320.4,265.9h9.5v8.4h-9.5V265.9z"/>
<path class="st0" d="M306.1,275.5H318v-10.8h-11.9V275.5z M307.3,265.9h9.5v8.4h-9.5V265.9z"/>
<path class="st0" d="M332.4,275.5h11.9v-10.8h-11.9V275.5z M333.5,265.9h9.5v8.4h-9.5V265.9z"/>
<path class="st0" d="M361.5,227.6v-2.4h-13.1v2.4h1.2h10.7H361.5z"/>
<path class="st0" d="M273.2,288.6h-43h-6v1.2h54.9v-1.2H273.2z"/>
<path class="st0" d="M230.2,264.7h-6v1.2h6v1.2h-6v1.2h6v1.2h-6v1.2h6v1.2h-6v1.2h6v1.2h-6v1.2h6v1.2h-6v1.2h6v1.2h-6v1.2h6v1.2h-6
	v1.2h6v1.2h-6v1.2h6v1.2h-6v1.2h6h43h6v-1.2h-6v-1.2h6v-1.2h-6v-1.2h6v-1.2h-6v-1.2h6v-1.2h-6v-1.2h6v-1.2h-6v-1.2h6v-1.2h-6v-1.2h6
	v-1.2h-6v-1.2h6v-1.2h-6v-1.2h6v-1.2h-6v-1.2h6v-1.2h-6H230.2z M272,286.2h-40.6v-20.3H272V286.2z"/>
<path class="st0" d="M279.1,293.4h-54.9v1.2h54.9V293.4z"/>
<path class="st0" d="M279.1,291h-54.9v1.2h54.9V291z"/>
<path class="st0" d="M279.1,262.3h-54.9v1.2h54.9V262.3z"/>
<path class="st0" d="M279.1,259.9h-54.9v1.2h54.9V259.9z"/>
<path class="st0" d="M354.3,292.2h-4.8v2.4h4.8V292.2z"/>
<path class="st0" d="M357.3,288.6h-4.8v2.4h4.8V288.6z"/>
<path class="st0" d="M351.3,288.6h-1.8v2.4h1.8V288.6z"/>
<path class="st0" d="M354.3,285.1h-4.8v2.4h4.8V285.1z"/>
<path class="st0" d="M357.3,281.5h-4.8v2.4h4.8V281.5z"/>
<path class="st0" d="M351.3,281.5h-1.8v2.4h1.8V281.5z"/>
<path class="st0" d="M354.3,277.9h-4.8v2.4h4.8V277.9z"/>
<path class="st0" d="M357.3,274.3h-4.8v2.4h4.8V274.3z"/>
<path class="st0" d="M351.3,274.3h-1.8v2.4h1.8V274.3z"/>
<path class="st0" d="M354.3,270.7h-4.8v2.4h4.8V270.7z"/>
<path class="st0" d="M357.3,267.1h-4.8v2.4h4.8V267.1z"/>
<path class="st0" d="M351.3,267.1h-1.8v2.4h1.8V267.1z"/>
<path class="st0" d="M354.3,263.5h-4.8v2.4h4.8V263.5z"/>
<path class="st0" d="M357.3,259.9h-4.8v2.4h4.8V259.9z"/>
<path class="st0" d="M351.3,259.9h-1.8v2.4h1.8V259.9z"/>
<path class="st0" d="M357.3,236h-4.8v2.4h4.8V236z"/>
<path class="st0" d="M351.3,236h-1.8v2.4h1.8V236z"/>
<path class="st0" d="M354.3,232.4h-4.8v2.4h4.8V232.4z"/>
<path class="st0" d="M357.3,228.8h-4.8v2.4h4.8V228.8z"/>
<path class="st0" d="M360.3,228.8h-1.8v2.4h1.8V228.8z"/>
<path class="st0" d="M351.3,228.8h-1.8v2.4h1.8V228.8z"/>
<path class="st0" d="M297,282.3h-1.2c-0.7,0-1.2,0.5-1.2,1.2v1.2c0,0.7,0.5,1.2,1.2,1.2h1.2c0.7,0,1.2-0.5,1.2-1.2v-1.2
	C298.2,282.9,297.6,282.3,297,282.3z"/>
<path class="st0" d="M561,264.7h-47.7v33.5h1.2v-32.3h45.3v32.3h1.2V264.7z"/>
<path class="st0" d="M558.6,267.1h-43v2.4h43V267.1z"/>
<path class="st0" d="M558.6,270.7h-43v2.4h43V270.7z"/>
<path class="st0" d="M558.6,274.3h-43v2.4h43V274.3z"/>
<path class="st0" d="M558.6,277.9h-43v2.4h43V277.9z"/>
<path class="st0" d="M558.6,281.5h-43v2.4h43V281.5z"/>
<path class="st0" d="M558.6,285.1h-43v2.4h43V285.1z"/>
<path class="st0" d="M558.6,288.6h-43v2.4h43V288.6z"/>
<path class="st0" d="M558.6,292.2h-43v2.4h43V292.2z"/>
<path class="st0" d="M515.7,295.8v2.4h43v-2.4H515.7z"/>
<path class="st0" d="M466.7,221.7V242H487v-20.3H466.7z M476.3,232.5v8.3h-3.3h-5v-8.4h8.4V232.5z M485.8,240.8h-8.4v-8.4h8.4V240.8
	z M480.3,222.9h5.5v8.4h-8.4v-1.6v-6.8H480.3z M476.3,231.2h-8.4v-8.4h8.4V231.2z"/>
<path class="st0" d="M464.3,221.7h-20.3V242h20.3V221.7z M453.6,233.1v7.7h-3.2h-5.1v-8.4h8.4V233.1z M453.6,231.2h-8.4v-8.4h8.4
	V231.2z M463.1,240.8h-8.4v-8.4h8.4V240.8z M463.1,231.2h-8.4v-1v-7.4h3h5.3v8.4H463.1z"/>
<path class="st0" d="M441.7,283.9H456v-9.6v-1.2v-9.6h-14.3V283.9z M454.8,282.7h-11.9v-8.4h11.9V282.7z M454.8,264.7v8.4h-11.9
	v-8.4H454.8z"/>
<path class="st0" d="M479.9,263.5H462v31.1v1.2h17.9v-1.2V263.5z M463.1,294.6v-29.9h14.1h1.4v29.9H463.1z"/>
<path class="st0" d="M476.2,280.1h-2.4c-0.7,0-1.2,0.5-1.2,1.2c0,0.7,0.5,1.2,1.2,1.2h2.4c0.7,0,1.2-0.5,1.2-1.2
	C477.3,280.7,476.7,280.1,476.2,280.1z"/>
<path class="st0" d="M462,297v2.4h17.9V297H462z"/>
<path class="st0" d="M111,294.6h-1.8H94h-2.7h-1.8h-1.2h-0.8v1.8h26.7v-1.8h-2H111z"/>
<path class="st0" d="M85.9,297.6v2.4h29.8v-2.4H85.9z"/>
<path class="st0" d="M89.5,261.1H111v32.3h1.2v-33.5H88.3v33.5h1.2V261.1z"/>
<path class="st0" d="M150.4,279.1v-19.1h-19.1v19.1H150.4z M144.4,277.9v-4.8h4.8v4.8H144.4z M149.2,267.1v4.8h-4.8v-4.8H149.2z
	 M144.4,261.4v-0.2h0.1h4.7v4.8h-4.8V261.4z M138.4,261.1h4.8v3.1v1.7h-4.8V261.1z M137.2,277.9h-4.8v-4.8h4.8V277.9z M137.2,271.9
	h-4.8v-4.8h4.8V271.9z M137.2,265.9h-4.8v-4.8h4.8V265.9z M143.2,277.9h-4.8v-2.2v-2.6h4.8V277.9z M138.4,271.9v-4.8h4.8v4.8H138.4z
	"/>
<path class="st0" d="M50.1,279.1h19.1v-19.1H50.1V279.1z M56.1,277.9h-4.8v-4.8h4.8V277.9z M63.2,261.4v-0.2h0.1H68v4.8h-4.8V261.4z
	 M63.2,267.1H68v4.8h-4.8V267.1z M63.2,273.1H68v4.8h-4.8V273.1z M57.3,261.1h4.8v3.1v1.7h-4.8V261.1z M57.3,267.1h4.8v4.8h-4.8
	V267.1z M57.3,275.7v-2.6h4.8v4.8h-4.8V275.7z M51.3,261.1h4.8v4.8h-4.8V261.1z M56.1,267.1v4.8h-4.8v-4.8H56.1z"/>
<path class="st0" d="M109.8,293.4v-31.1H90.7v31.1H109.8z M106.2,278.1c0.7,0,1.2,0.5,1.2,1.2c0,0.7-0.5,1.2-1.2,1.2
	c-0.7,0-1.2-0.5-1.2-1.2C105,278.6,105.5,278.1,106.2,278.1z"/>
<path class="st0" d="M150.4,216.9h-19.1V236h19.1V216.9z M144.4,218.3v-0.2h0.1h4.7v4.8h-4.8V218.3z M144.4,224.1h4.8v4.8h-4.8
	V224.1z M137.2,234.8h-4.8V230h4.8V234.8z M137.2,228.8h-4.8v-4.8h4.8V228.8z M137.2,222.9h-4.8v-4.8h4.8V222.9z M143.2,234.8h-4.8
	v-2.2V230h4.8V234.8z M143.2,228.8h-4.8v-4.8h4.8V228.8z M143.2,221.2v1.7h-4.8v-4.8h4.8V221.2z M144.4,234.8V230h4.8v4.8H144.4z"/>
<path class="st0" d="M69.2,216.9H50.1V236h19.1V216.9z M56.1,234.8h-4.8V230h4.8V234.8z M56.1,228.8h-4.8v-4.8h4.8V228.8z
	 M56.1,222.9h-4.8v-4.8h4.8V222.9z M62.1,234.8h-4.8v-2.2V230h4.8V234.8z M62.1,228.8h-4.8v-4.8h4.8V228.8z M62.1,221.2v1.7h-4.8
	v-4.8h4.8V221.2z M68,234.8h-4.8V230H68V234.8z M68,228.8h-4.8v-4.8H68V228.8z M68,222.9h-4.8v-4.5v-0.2h0.1H68V222.9z"/>
<path class="st0" d="M90.7,218.1v19.1h19.1v-19.1c0-5.3-4.3-9.6-9.5-9.6C95,208.5,90.7,212.8,90.7,218.1z M96.7,231.7v4.3h-1.8h-3
	v-4.8h4.8V231.7z M96.7,230h-4.8v-4.8h4.8V230z M96.7,224.1h-4.8v-4.8h4.8V224.1z M96.7,218.1h-4.8c0-3.3,1.9-6.2,4.8-7.5V218.1z
	 M102.6,236h-4.8v-4.8h4.8V236z M102.6,230h-4.8v-1.2v-3.6h1.4h3.3V230z M102.6,224.1h-2.9h-1.9v-4.8h3.9h0.8V224.1z M103.8,214.4
	v-3.8c1.9,1,3.5,2.5,4.2,4.5v0.1c0.1,0.2,0.1,0.5,0.2,0.7c0,0.1,0,0.1,0.1,0.2c0,0.2,0.1,0.5,0.1,0.7c0,0.1,0,0.1,0,0.2
	c0,0.4,0,0.6,0,1h-4.8v-3.7H103.8z M103.8,219.3h4.8v4.8h-4.8V219.3z M103.8,225.3h4.8v4.8h-4.8V225.3z M103.8,231.2h4.8v4.8h-4.8
	V231.2z M101.2,209.7c0.2,0,0.5,0.1,0.7,0.1c0,0,0,0,0.1,0c0.2,0,0.4,0.1,0.6,0.1v7.2v0.8h-0.4h-4.4v-8c0.7-0.2,1.6-0.4,2.4-0.4
	C100.5,209.7,100.8,209.7,101.2,209.7C101.2,209.7,101.1,209.7,101.2,209.7z"/>
<path class="st0" d="M694.2,288.6h-15.5v2.4h15.5V288.6z"/>
<path class="st0" d="M679.9,270.7c0-3.6,3-6.6,6.6-6.6c3.6,0,6.6,3,6.6,6.6v16.7h1.2v-16.7c0-4.3-3.5-7.8-7.8-7.8
	c-4.3,0-7.8,3.5-7.8,7.8v16.7h1.2V270.7z"/>
<path class="st0" d="M695.4,292.2h-17.9v2.4h17.9V292.2z"/>
<path class="st0" d="M676.3,294.6v-1.2h-56.1h-2.4v4.8h5.4h51.9v-3.6H676.3z"/>
<path class="st0" d="M696.6,294.6h1.2v3.6h6v-4.8h-2.4h-4.8V294.6z"/>
<path class="st0" d="M676.3,295.8v2.4h20.3v-2.4H676.3z"/>
<path class="st0" d="M670.9,225.3V242h15.5v-16.7H670.9z M677.9,240.8h-5.8v-6.6h5.8V240.8z M679.1,226.4h6.1v6.6h-6.1V226.4z
	 M679.1,234.2h6.1v6.6h-6.1V234.2z M677.9,233h-5.8v-6.6h5.8V233z"/>
<path class="st0" d="M635.1,264.7v16.7h22.7v-16.7H635.1z M642.2,280.3h-5.9v-6.6h5.9V280.3z M642.2,272.5h-5.9v-6.6h5.9V272.5z
	 M649.4,280.3h-6.1v-6.6h6.1V280.3z M649.4,272.5h-6.1v-6.6h6.1V272.5z M656.6,280.3h-6.1v-6.6h6.1V280.3z M656.6,272.5h-6.1v-6.6
	h6.1V272.5z"/>
<path class="st0" d="M668.5,193.1h-7.3H660h-7v14.4h15.5V193.1z M660,206.2h-5.8v-5.4h5.8V206.2z M660,199.7h-5.8v-5.4h5.8V199.7z
	 M667.3,206.2h-6.1v-5.4h6.1V206.2z M667.3,199.7h-6.1v-5.4h6.1V199.7z"/>
</svg>
